<?xml version="1.0" encoding="UTF-8" standalone="no"?>
<!-- Created with Inkscape (http://www.inkscape.org/) -->

<svg
   width="42in"
   height="30in"
   viewBox="-35 -35 2346.96 1676.4"
   version="1.1"
   id="svg5"
   xmlns:xlink="http://www.w3.org/1999/xlink"
   xmlns="http://www.w3.org/2000/svg"
   xmlns:svg="http://www.w3.org/2000/svg">
  <defs
     id="defs2">
    <linearGradient
       id="linearGradient302934">
      <stop
         style="stop-color:#080000;stop-opacity:1;"
         offset="0"
         id="stop302932" />
    </linearGradient>
    <linearGradient
       id="linearGradient299707">
      <stop
         style="stop-color:#c8e6d5;stop-opacity:1;"
         offset="0"
         id="stop299705" />
    </linearGradient>
    <linearGradient
       xlink:href="#linearGradient302934"
       id="linearGradient302936"
       x1="127.9127"
       y1="208.47237"
       x2="233.62126"
       y2="208.47237"
       gradientUnits="userSpaceOnUse" />
  </defs>
  <g
     id="layer23"
     transform="translate(-36.443481,-35)"
     style="display:inline">
    <ellipse
       style="display:inline;fill:none;stroke:#ff0000;stroke-width:0.377548;stroke-dasharray:none;stroke-opacity:1;fill-opacity:0;stroke-miterlimit:4"
       id="ellipse4393"
       cx="996.97418"
       cy="58.847115"
       rx="11.769401"
       ry="11.038438"
       transform="matrix(1.1682385,0,0,1.2547127,-1.430739,-4.6751314)" />
    <ellipse
       style="display:inline;fill:none;stroke:#ff0000;stroke-width:0.377548;stroke-dasharray:none;stroke-opacity:1;fill-opacity:0;stroke-miterlimit:4"
       id="ellipse4395"
       cx="996.97418"
       cy="1254.9012"
       rx="11.769401"
       ry="11.038438"
       transform="matrix(1.1682385,0,0,1.2547127,-1.430739,-4.6751314)" />
    <ellipse
       style="display:inline;fill:none;stroke:#ff0000;stroke-width:0.377548;stroke-dasharray:none;stroke-opacity:1;fill-opacity:0;stroke-miterlimit:4"
       id="ellipse4397"
       cx="789.90594"
       cy="1224.4504"
       rx="11.769401"
       ry="11.038438"
       transform="matrix(1.1682385,0,0,1.2547127,-1.430739,-4.6751314)" />
    <ellipse
       style="display:inline;fill:none;stroke:#ff0000;stroke-width:0.377548;stroke-dasharray:none;stroke-opacity:1;fill-opacity:0;stroke-miterlimit:4"
       id="ellipse4399"
       cx="789.90594"
       cy="89.099548"
       rx="11.769401"
       ry="11.038438"
       transform="matrix(1.1682385,0,0,1.2547127,-1.430739,-4.6751314)" />
    <ellipse
       style="display:inline;fill:none;stroke:#ff0000;stroke-width:0.374414;stroke-dasharray:none;stroke-opacity:1;fill-opacity:0;stroke-miterlimit:4"
       id="ellipse4401"
       cx="80.236824"
       cy="55.424782"
       rx="11.671711"
       ry="10.946815"
       transform="matrix(1.1682385,0,0,1.2547127,-1.430739,-4.6751314)" />
    <ellipse
       style="display:inline;fill:none;stroke:#ff0000;stroke-width:0.377548;stroke-dasharray:none;stroke-opacity:1;fill-opacity:0;stroke-miterlimit:4"
       id="ellipse4403"
       cx="80.336082"
       cy="345.24509"
       rx="11.769401"
       ry="11.038438"
       transform="matrix(1.1682385,0,0,1.2547127,-1.430739,-4.6751314)" />
    <ellipse
       style="display:inline;fill:none;stroke:#ff0000;stroke-width:0.377548;stroke-dasharray:none;stroke-opacity:1;fill-opacity:0;stroke-miterlimit:4"
       id="ellipse4405"
       cx="80.336082"
       cy="661.08759"
       rx="11.769401"
       ry="11.038438"
       transform="matrix(1.1682385,0,0,1.2547127,-1.430739,-4.6751314)" />
    <ellipse
       style="display:inline;fill:none;stroke:#ff0000;stroke-width:0.377548;stroke-dasharray:none;stroke-opacity:1;fill-opacity:0;stroke-miterlimit:4"
       id="ellipse4407"
       cx="80.336082"
       cy="1011.146"
       rx="11.769401"
       ry="11.038438"
       transform="matrix(1.1682385,0,0,1.2547127,-1.430739,-4.6751314)" />
    <ellipse
       style="display:inline;fill:none;stroke:#ff0000;stroke-width:0.377548;stroke-dasharray:none;stroke-opacity:1;fill-opacity:0;stroke-miterlimit:4"
       id="ellipse4409"
       cx="80.336082"
       cy="1267.9442"
       rx="11.769401"
       ry="11.038438"
       transform="matrix(1.1682385,0,0,1.2547127,-1.430739,-4.6751314)" />
    <ellipse
       style="display:inline;fill:none;stroke:#ff0000;stroke-width:0.377548;stroke-dasharray:none;stroke-opacity:1;fill-opacity:0;stroke-miterlimit:4"
       id="ellipse4411"
       cx="-1201.3013"
       cy="1224.4504"
       rx="11.769401"
       ry="11.038438"
       transform="matrix(-1.1682385,0,0,1.2547127,-1.430739,-4.6751314)" />
    <ellipse
       style="display:inline;fill:none;stroke:#ff0000;stroke-width:0.377548;stroke-dasharray:none;stroke-opacity:1;fill-opacity:0;stroke-miterlimit:4"
       id="ellipse4413"
       cx="-1201.3013"
       cy="89.099548"
       rx="11.769401"
       ry="11.038438"
       transform="matrix(-1.1682385,0,0,1.2547127,-1.430739,-4.6751314)" />
    <ellipse
       style="display:inline;fill:none;stroke:#ff0000;stroke-width:0.377548;stroke-dasharray:none;stroke-opacity:1;fill-opacity:0;stroke-miterlimit:4"
       id="ellipse4415"
       cx="-1910.8711"
       cy="55.517971"
       rx="11.769401"
       ry="11.038438"
       transform="matrix(-1.1682385,0,0,1.2547127,-1.430739,-4.6751314)" />
    <ellipse
       style="display:inline;fill:none;stroke:#ff0000;stroke-width:0.377548;stroke-dasharray:none;stroke-opacity:1;fill-opacity:0;stroke-miterlimit:4"
       id="ellipse4417"
       cx="-1910.8711"
       cy="345.24509"
       rx="11.769401"
       ry="11.038438"
       transform="matrix(-1.1682385,0,0,1.2547127,-1.430739,-4.6751314)" />
    <ellipse
       style="display:inline;fill:none;stroke:#ff0000;stroke-width:0.377548;stroke-dasharray:none;stroke-opacity:1;fill-opacity:0;stroke-miterlimit:4"
       id="ellipse4419"
       cx="-1910.8711"
       cy="661.08759"
       rx="11.769401"
       ry="11.038438"
       transform="matrix(-1.1682385,0,0,1.2547127,-1.430739,-4.6751314)" />
    <ellipse
       style="display:inline;fill:none;stroke:#ff0000;stroke-width:0.377548;stroke-dasharray:none;stroke-opacity:1;fill-opacity:0;stroke-miterlimit:4"
       id="ellipse4421"
       cx="-1910.8711"
       cy="1011.146"
       rx="11.769401"
       ry="11.038438"
       transform="matrix(-1.1682385,0,0,1.2547127,-1.430739,-4.6751314)" />
    <ellipse
       style="display:inline;fill:none;stroke:#ff0000;stroke-width:0.377548;stroke-dasharray:none;stroke-opacity:1;fill-opacity:0;stroke-miterlimit:4"
       id="ellipse4423"
       cx="-1910.8711"
       cy="1267.9442"
       rx="11.769401"
       ry="11.038438"
       transform="matrix(-1.1682385,0,0,1.2547127,-1.430739,-4.6751314)" />
    <path
       id="path188989"
       style="display:inline;fill:none;stroke:#ff0000;stroke-width:0.676541;stroke-dasharray:none;stroke-opacity:1"
       d="M -32.163005,85.770341 C -130.17557,214.92338 184.42189,308.03812 144.56466,390.15346 c -39.85722,82.11534 -102.723575,-82.77903 -176.727665,0 -74.004085,82.77904 0,336.47958 0,504.72035 0,168.24089 -74.147855,421.78459 0,504.72419 74.147849,82.9399 137.807135,-82.6918 177.944025,0 40.13692,82.6921 -276.85092,176.8766 -177.982692,306.5421 98.868215,129.6657 536.904512,-266.4309 536.904512,-266.4309 24.74548,40.1113 86.45163,112.7019 185.34429,166.8206 4.45693,3.9136 9.52366,7.4012 15.33811,10.3578 107.89588,54.8664 255.75634,88.66 418.63616,88.6981 162.9307,0 310.8535,-33.7822 418.8014,-88.6508 5.7641,-2.9297 10.7951,-6.3819 15.2257,-10.2516 99.0554,-54.1342 170.454,-146.86 180.0274,-166.9352 9.5732,-20.0749 410.686,389.5844 508.5816,266.392 97.8957,-123.1926 -210.0042,-226.2787 -170.0868,-306.5421 39.9172,-80.2635 96.8992,81.9092 170.1256,0 73.2263,-81.9091 0,-420.60408 0,-504.72419 0,-84.12 73.0801,-422.97475 0,-504.72035 -73.0802,-81.74559 -129.2552,79.69155 -168.8883,0 C 2038.1751,310.46191 2343.7375,208.48264 2246.6963,85.770341 2149.6549,-36.941945 1750.2258,369.06587 1739.7451,347.97829 1729.2647,326.8907 1650.8095,229.84823 1542.8615,174.97951 1434.9136,120.1108 1286.9906,86.327157 1124.0601,86.324811 961.18021,86.36283 813.31977,120.16055 705.4239,175.02671 597.52804,229.89284 516.2938,326.9104 502.99223,347.99141 489.69068,369.0724 65.849557,-43.38269 -32.163005,85.770341 Z"
       transform="translate(68.479044,-60.157358)" />
    <path
       style="display:inline;fill:none;fill-opacity:1;stroke:#ff0000;stroke-width:3.12777;stroke-dasharray:none;stroke-opacity:1;stroke-miterlimit:4;color:#000000;clip-rule:nonzero;overflow:visible;visibility:visible;opacity:1;isolation:auto;mix-blend-mode:normal;color-interpolation:sRGB;color-interpolation-filters:linearRGB;solid-color:#000000;solid-opacity:1;fill-rule:nonzero;stroke-linecap:butt;stroke-linejoin:miter;stroke-dashoffset:0;color-rendering:auto;image-rendering:auto;shape-rendering:auto;text-rendering:auto;enable-background:accumulate"
       d="M 1157.8134,803.29905 A 1200,600.00001 59.999999 0 0 965.60643,1287.5313 c 29.8737,-12.3639 60.65177,-23.9996 92.25587,-34.8722 a 1100,500 60 0 1 149.9511,-362.75755 1100,500 60 0 1 983.0127,702.62795 1100,500 60 0 1 226.936,550.5179 c 16.1402,-5.6716 31.8751,-11.5624 47.158,-17.6755 14.9234,-5.9695 29.322,-12.1097 43.1929,-18.4063 A 1200,600.00001 59.999999 0 0 2277.4286,1542.5295 1200,600.00001 59.999999 0 0 1157.8134,803.29905 Z m -150.2996,774.79435 a 1200,600.00001 59.999999 0 0 36.0728,126.3435 700.00001,1300 30.000001 0 1 63.1664,-129.0458 1100,500 60 0 1 -8.8883,-33.3795 c -16.1402,5.6717 -31.8751,11.5624 -47.158,17.6756 -14.9234,5.9695 -29.322,12.1097 -43.1929,18.4062 z m 249.1808,386.3753 a 400,1000 30 0 0 -45.6297,128.6818 1200,600.00001 59.999999 0 0 27.1333,49.379 1200,600.00001 59.999999 0 0 29.7774,48.7206 c 43.1206,9.6907 87.9471,18.0782 134.0985,25.1052 a 1100,500 60 0 1 -77.2734,-123.8258 1100,500 60 0 1 -68.1061,-128.0608 z m 262.9662,566.2129 a 1200,600.00001 59.999999 0 0 838.1526,351.0784 1200,600.00001 59.999999 0 0 192.2051,-484.2356 c -29.8707,12.3628 -60.6532,23.9922 -92.2538,34.8642 a 1100,500 60 0 1 -149.9513,362.7689 1100,500 60 0 1 -643.7442,-254.4547 c -48.6262,-1.8921 -96.8326,-5.2471 -144.4084,-10.0212 z"
       id="path4136-1-8"
       transform="matrix(0.21855333,0,0,0.23287425,791.36508,97.304682)" />
    <path
       style="display:inline;fill:none;fill-opacity:1;stroke:#ff0000;stroke-width:3.12777;stroke-dasharray:none;stroke-opacity:1;stroke-miterlimit:4;color:#000000;clip-rule:nonzero;overflow:visible;visibility:visible;opacity:1;isolation:auto;mix-blend-mode:normal;color-interpolation:sRGB;color-interpolation-filters:linearRGB;solid-color:#000000;solid-opacity:1;fill-rule:nonzero;stroke-linecap:butt;stroke-linejoin:miter;stroke-dashoffset:0;color-rendering:auto;image-rendering:auto;shape-rendering:auto;text-rendering:auto;enable-background:accumulate"
       d="m 1157.8703,2881.6605 a 600.00001,1200 30.000001 0 0 515.4609,-75.66 c -25.6443,-19.6894 -51.1101,-40.5261 -76.3282,-62.4598 a 500,1100 30 0 1 -389.1327,51.5173 500,1100 30 0 1 116.9873,-1202.6279 500,1100 30 0 1 363.2945,-471.7915 c -12.9819,-11.1419 -25.9509,-21.8233 -38.8865,-32.0021 -12.6314,-9.9394 -25.1483,-19.3388 -37.5367,-28.2031 a 600.00001,1200 30.000001 0 0 -373.4738,481.9966 600.00001,1200 30.000001 0 0 -80.3848,1339.2305 z m 746.1414,-257.2339 a 600.00001,1200 30.000001 0 0 91.3802,-94.4118 1300,700 0 0 1 -143.3401,9.8193 500,1100 30 0 1 -24.4633,24.3872 c 12.9819,11.142 25.9509,21.8234 38.8865,32.0022 12.6314,9.9394 25.1483,19.3388 37.5367,28.2031 z m 210.0204,-408.9846 a 1000,400 0 0 0 134.2566,-24.8244 600.00001,1200 30.000001 0 0 29.1968,-48.1876 600.00001,1200 30.000001 0 0 27.3046,-50.1483 c -13.168,-42.1888 -28.3174,-85.2036 -45.3075,-128.6853 a 500,1100 30 0 1 -68.5996,128.8337 500,1100 30 0 1 -76.8509,123.0119 z m 358.8717,-510.8418 a 600.00001,1200 30.000001 0 0 -115.0335,-901.40075 600.00001,1200 30.000001 0 0 -515.4629,75.6633 c 25.6419,19.6875 51.1045,40.5311 76.3202,62.462 a 500,1100 30 0 1 389.1427,-51.5228 500,1100 30 0 1 101.5079,684.72625 c 22.6745,43.0576 43.8721,86.483 63.5256,130.072 z"
       id="path4136-1-2-5"
       transform="matrix(0.21855333,0,0,0.23287425,791.36508,97.304682)" />
    <path
       style="display:inline;fill:none;fill-opacity:1;stroke:#ff0000;stroke-width:3.12777;stroke-dasharray:none;stroke-opacity:1;stroke-miterlimit:4;color:#000000;clip-rule:nonzero;overflow:visible;visibility:visible;opacity:1;isolation:auto;mix-blend-mode:normal;color-interpolation:sRGB;color-interpolation-filters:linearRGB;solid-color:#000000;solid-opacity:1;fill-rule:nonzero;stroke-linecap:butt;stroke-linejoin:miter;stroke-dashoffset:0;color-rendering:auto;image-rendering:auto;shape-rendering:auto;text-rendering:auto;enable-background:accumulate"
       d="m 2957.8126,1842.3978 a 1200,600 0 0 0 -323.254,-408.5724 c -4.2293,32.0534 -9.5416,64.5259 -15.9277,97.332 a 1100,500 0 0 1 239.1816,311.2403 1100,500 0 0 1 -1099.9999,500 1100,500 0 0 1 -590.2305,-78.7266 c -3.1583,16.8136 -5.9243,33.3858 -8.2715,49.6778 -2.2921,15.9088 -4.1737,31.4484 -5.6562,46.6093 a 1200,600 0 0 0 604.1582,82.4395 1200,600 0 0 0 1200,-599.9999 z m -595.8418,-517.5606 a 1200,600 0 0 0 -127.4531,-31.9317 1300,700.00001 59.999999 0 1 80.1738,119.2266 1100,500 0 0 1 33.3516,8.9922 c 3.1583,-16.8136 5.9242,-33.3858 8.2716,-49.6778 2.2919,-15.9088 4.1736,-31.4484 5.6561,-46.6093 z m -459.2011,22.6093 a 1000,400 60 0 0 -88.627,-103.8574 1200,600 0 0 0 -56.3301,-1.1914 1200,600 0 0 0 -57.082,1.4278 c -29.9526,32.4981 -59.6297,67.1253 -88.791,103.5801 a 1100,500 0 0 1 145.873,-5.0079 1100,500 0 0 1 144.9571,5.0488 z m -621.838,-55.3712 a 1200,600 0 0 0 -723.11917,550.3225 1200,600 0 0 0 323.2578,408.5723 c 4.2289,-32.0502 9.5488,-64.5234 15.9337,-97.3264 a 1100,500 0 0 1 -239.1913,-311.246 1100,500 0 0 1 542.23607,-430.2714 c 25.9518,-41.1656 52.9605,-81.236 80.8829,-120.051 z"
       id="path4136-1-3-9"
       transform="matrix(0.21855333,0,0,0.23287425,791.36508,97.304682)" />
    <circle
       style="display:inline;fill:none;fill-opacity:1;stroke:#ff0000;stroke-width:3.12777;stroke-dasharray:none;stroke-opacity:1;stroke-miterlimit:4;color:#000000;clip-rule:nonzero;overflow:visible;visibility:visible;opacity:1;isolation:auto;mix-blend-mode:normal;color-interpolation:sRGB;color-interpolation-filters:linearRGB;solid-color:#000000;solid-opacity:1;fill-rule:nonzero;stroke-linecap:butt;stroke-linejoin:miter;stroke-dashoffset:0;color-rendering:auto;image-rendering:auto;shape-rendering:auto;text-rendering:auto;enable-background:accumulate"
       id="path4136-7"
       cx="1757.8091"
       cy="1842.5132"
       r="200"
       transform="matrix(0.21855333,0,0,0.23287425,791.36508,97.304682)" />
    <path
       d="m 339.29474,836.43884 h -86.44935 l -15.16656,-45.49965 h 101.61591 z m 0,-121.33241 v 45.49965 H 233.12887 v 106.16587 h 106.16587 v 45.49966 H 187.62921 V 715.10643 Z"
       style="display:inline;fill:#000000;fill-opacity:1;stroke:none;stroke-width:1.00584;stroke-dasharray:none;stroke-opacity:1;font-size:310.611px;font-family:'Electric Hermes AOE';-inkscape-font-specification:'Off The Haze';letter-spacing:0px;word-spacing:0px"
       id="path1166"
       transform="matrix(1.0798538,0,0,1.9559072,34.432507,-525.79945)" />
    <path
       d="m 362.65123,715.10643 h 45.49966 v 151.66552 h 90.99931 v 45.49966 H 362.65123 Z"
       style="display:inline;fill:#000000;fill-opacity:1;stroke:none;stroke-width:1.00584;stroke-dasharray:none;stroke-opacity:1;font-size:310.611px;font-family:'Electric Hermes AOE';-inkscape-font-specification:'Off The Haze';letter-spacing:0px;word-spacing:0px"
       id="path1168"
       transform="matrix(1.0798538,0,0,1.9559072,34.432507,-525.79945)" />
    <path
       d="m 665.37561,836.43884 h -86.44935 l -15.16655,-45.49965 h 101.6159 z m 0,-121.33241 v 45.49965 H 559.20974 v 106.16587 h 106.16587 v 45.49966 H 513.71008 V 715.10643 Z"
       style="display:inline;fill:#000000;fill-opacity:1;stroke:none;stroke-width:1.00584;stroke-dasharray:none;stroke-opacity:1;font-size:310.611px;font-family:'Electric Hermes AOE';-inkscape-font-specification:'Off The Haze';letter-spacing:0px;word-spacing:0px"
       id="path1170"
       transform="matrix(1.0798538,0,0,1.9559072,34.432507,-525.79945)" />
    <path
       d="m 768.96318,866.77195 q 30.33311,0 30.33311,-30.33311 h 45.49965 q 0,75.83277 -75.83276,75.83277 h -15.16655 q -75.83276,0 -75.83276,-75.83277 v -45.49965 q 0,-75.83276 75.83276,-75.83276 h 15.16655 q 67.94616,0 75.07444,60.96954 l -44.74133,14.86322 q 0,-30.33311 -30.33311,-30.33311 h -15.16655 q -30.33311,0 -30.33311,30.33311 v 45.49965 q 0,30.33311 30.33311,30.33311 z"
       style="display:inline;fill:#000000;fill-opacity:1;stroke:none;stroke-width:1.00584;stroke-dasharray:none;stroke-opacity:1;font-size:310.611px;font-family:'Electric Hermes AOE';-inkscape-font-specification:'Off The Haze';letter-spacing:0px;word-spacing:0px"
       id="path1172"
       transform="matrix(1.0798538,0,0,1.9559072,34.432507,-525.79945)" />
    <path
       d="m 999.03979,715.10643 v 45.49965 H 945.95686 V 927.58982 L 900.4572,912.27161 V 760.60608 h -53.08293 v -45.49965 z"
       style="display:inline;fill:#000000;fill-opacity:1;stroke:none;stroke-width:1.00584;stroke-dasharray:none;stroke-opacity:1;font-size:310.611px;font-family:'Electric Hermes AOE';-inkscape-font-specification:'Off The Haze';letter-spacing:0px;word-spacing:0px"
       id="path1174"
       transform="matrix(1.0798538,0,0,1.9559072,34.432507,-525.79945)" />
    <path
       d="M 1058.0377,760.60608 V 927.43816 L 1012.538,912.27161 V 715.10643 h 90.9993 q 75.8328,0 75.8328,60.66621 0,44.74132 -41.4047,56.57124 l 46.1063,79.92773 h -52.4762 L 1061.526,790.93919 h 42.0113 q 30.3331,0 30.3331,-15.16655 0,-15.16656 -30.3331,-15.16656 z"
       style="display:inline;fill:#000000;fill-opacity:1;stroke:none;stroke-width:1.00584;stroke-dasharray:none;stroke-opacity:1;font-size:310.611px;font-family:'Electric Hermes AOE';-inkscape-font-specification:'Off The Haze';letter-spacing:0px;word-spacing:0px"
       id="path1176"
       transform="matrix(1.0798538,0,0,1.9559072,34.432507,-525.79945)" />
    <path
       d="M 1191.3517,912.27161 V 715.10643 h 45.4996 v 212.33173 z"
       style="display:inline;fill:#000000;fill-opacity:1;stroke:none;stroke-width:1.00584;stroke-dasharray:none;stroke-opacity:1;font-size:310.611px;font-family:'Electric Hermes AOE';-inkscape-font-specification:'Off The Haze';letter-spacing:0px;word-spacing:0px"
       id="path1178"
       transform="matrix(1.0798538,0,0,1.9559072,34.432507,-525.79945)" />
    <path
       d="m 1112.9429,984.30376 q 6.8344,9.20546 19.2478,19.24774 -2.2316,6.6949 -3.4869,11.1582 10.7397,5.1606 26.64,9.6238 l -1.3948,2.5106 q 11.7161,2.929 26.6401,3.0685 2.65,6.4159 4.4632,10.7397 4.8817,-0.9763 9.7634,-2.3711 l 17.2951,-6.6949 0.4184,2.929 q 3.7659,-1.3947 9.066,-3.7658 4.4632,-2.5106 15.0634,-9.2055 5.3002,3.7659 9.4844,6.2765 9.066,-9.4845 18.132,-22.0373 l 1.5342,1.9526 q 0.8369,-2.0921 0.8369,-4.3237 -0.8369,-1.6738 -6.4159,-2.3711 -0.4184,-5.43963 -1.1158,-7.67126 -0.1395,-0.41843 -0.4185,-0.83686 -3.2079,3.06849 -6.6948,7.25278 -4.6028,5.71854 -13.5293,15.06344 l -1.6737,-3.4869 q -10.7397,8.0897 -25.8031,14.3661 -5.1607,-5.858 -7.9502,-9.3449 -10.4608,3.9053 -28.0348,6.6949 l 0.9763,-4.3238 q -5.7185,-0.5579 -11.0186,-1.6737 -7.8107,-2.3711 -18.4109,-7.6713 1.2553,-7.5317 2.3711,-12.13441 -10.0423,-5.85802 -22.1768,-18.27144 l 3.6264,-1.67371 q -3.4869,-5.30011 -5.858,-9.20546 l -7.3923,-17.43457 10.0423,-7.39226 -3.4869,-8.78702 -4.8817,-18.13195 4.0449,0.27895 q -1.2553,-15.20295 1.6737,-29.29008 7.1133,-1.25529 11.8555,-1.67372 1.6737,-11.2976 9.2054,-27.33741 l 2.9291,2.78954 q 7.9501,-10.46075 23.5715,-19.94515 5.5791,4.88168 9.066,8.50807 8.9265,-4.88168 27.4769,-9.34493 l -0.558,4.32377 q 6.2765,0.13948 11.4371,0.97634 9.345,2.51057 18.8294,7.67121 -1.1159,7.25278 -2.5106,12.41341 3.7659,2.78953 7.1133,6.83435 3.3474,4.04482 10.7397,15.62138 l -3.208,0.83686 0.5579,1.11581 q 0.9764,0.97634 3.208,2.65006 0.9763,0.41843 2.2316,0.27895 1.6737,-0.41843 7.2528,-2.92901 2.6501,4.32377 4.1843,5.30011 -0.1395,-4.1843 -1.6737,-8.36859 l -5.9975,-17.99248 h 3.7659 l -5.7186,-28.31374 q 5.5791,-3.48692 8.9265,-5.85802 -0.8368,-0.83686 -1.5342,-1.39477 l -2.0922,-0.69738 q -3.9053,0.55791 -6.9738,1.95267 -1.3948,0.83686 -5.1606,6.97383 l -8.2292,-10.60022 -3.3474,9.06598 q -19.1083,-2.78953 -36.2639,-2.51058 -2.7895,-6.13697 -5.0212,-10.18179 -11.1581,3.34744 -26.2216,10.7397 l -0.6973,-3.06849 q -10.3213,5.02116 -22.0373,15.34243 -6.137,-3.20796 -10.4608,-5.02116 -6.4159,9.62388 -13.5292,24.96631 l -2.3711,-1.95268 q -5.1606,10.18179 -8.5081,25.94264 -7.1133,1.11582 -11.4371,1.95268 0.1395,11.71603 2.9291,28.59269 l -3.208,-0.41843 q 1.8132,14.36609 5.9975,27.47689 -5.7186,4.32377 -9.2055,7.39226 5.7186,10.18178 16.0398,23.57154 z m 27.198,49.65364 q -13.2503,-6.1369 -27.3374,-17.1556 l 3.9053,-11.0186 q -10.6002,-7.95021 -22.3163,-22.73472 l 3.487,-1.39477 q -7.1133,-12.69237 -12.274,-29.56903 l 9.345,-6.83435 q -4.0449,-12.27394 -7.9502,-30.68485 l 4.0448,0.41843 q -0.1395,-14.78452 3.208,-31.66118 6.9738,-1.11581 11.5765,-1.67372 2.2316,-13.1108 9.9029,-30.26641 l 2.7895,2.51057 q 2.7895,-4.32377 6.9738,-9.90283 7.2528,-8.22912 14.2266,-14.50557 6.5554,3.34744 10.3213,5.57907 9.9028,-8.64755 26.5005,-18.27143 l 0.8369,4.18429 q 14.924,-4.18429 31.5217,-5.85801 2.7895,6.13697 4.7422,10.87917 11.995,-0.97634 31.5217,0.13948 l -0.1395,0.13947 q 7.9502,-5.71854 19.6662,-5.43958 8.0897,1.53424 12.8319,8.9265 2.0921,4.7422 4.0448,12.97132 -5.858,3.76587 -9.7634,5.99749 l 8.7871,28.31374 -3.487,0.13948 1.9527,10.18179 q 0.4184,4.1843 0.5579,10.18179 -0.9763,3.76587 -2.5106,7.39226 -1.9526,3.06848 -7.8106,7.39226 -7.3923,-2.92901 -11.1582,-7.81069 -1.2553,0.27895 -4.0448,0.69738 -3.9053,-0.55791 -8.6475,-2.65005 -4.0449,-3.48692 -6.416,-6.13697 l -7.3922,-11.71603 3.4869,-0.69739 q -1.8132,-3.76587 -3.4869,-6.69487 -3.7659,-3.90535 -10.7397,-8.64755 1.5342,-5.71854 2.3711,-9.62388 -8.787,-1.95268 -25.3847,0.69738 l 0.2789,-3.06848 q -4.0448,0.69738 -7.5317,1.53424 -6.4159,2.23162 -14.3661,6.13697 -4.3238,-4.60273 -7.2528,-7.25279 -6.9738,6.41593 -14.5056,21.33992 l -2.2316,-2.09215 q -4.6027,9.06598 -7.2528,22.45573 -6.5554,0.41843 -10.6002,0.97633 0.5579,11.99499 4.4633,26.64003 l -3.6264,-0.27895 q 1.6737,9.76336 5.4396,24.40839 l -8.3686,6.13697 q 2.5105,4.1843 4.6027,7.53174 3.9053,4.60273 11.5766,13.38975 l -2.7896,1.39476 q 7.2528,8.08965 18.2715,14.50557 -1.6738,6.27644 -2.3712,10.04228 3.9054,0.9764 8.6476,1.6737 5.7185,0.279 17.2951,-0.5579 l -0.6974,3.0685 q 4.1843,-0.2789 7.8107,-0.8368 7.2528,-1.6738 15.2029,-4.6028 3.7659,5.1607 6.416,8.3686 2.7895,-1.9526 7.1133,-5.3001 3.6264,-3.2079 12.8318,-12.41339 l 1.5343,2.92901 q 4.7422,-4.60273 14.7845,-12.97132 3.3474,-2.09215 6.4159,-3.20796 3.4869,-0.55791 10.0423,-0.13948 2.929,5.71854 3.6264,9.34493 0,2.09215 0,3.90534 1.5342,0.97634 3.7659,2.92901 4.8816,9.06596 1.5342,17.99246 -1.1158,3.3475 -7.2528,12.5529 l -2.65,-3.0685 q -9.6239,9.2055 -24.1295,20.6426 -5.9975,-4.1843 -9.7633,-7.1133 -8.9265,6.5554 -27.7559,15.9003 l -0.5579,-4.1843 q -7.6712,1.9527 -11.716,2.5106 -6.8344,1.1158 -20.0846,1.2553 -2.6501,-6.6949 -4.0449,-10.8792 -11.5765,0.2789 -31.8006,-3.7659 z"
       id="path1149"
       style="display:inline;fill:#000000;fill-opacity:1;stroke:none;stroke-width:1.00584;stroke-dasharray:none;stroke-opacity:1;font-size:285.648px;font-family:'Electric Hermes AOE';-inkscape-font-specification:'Electric Hermes AOE';letter-spacing:0px;word-spacing:0px"
       transform="matrix(1.1568975,-0.02410308,0.04868294,1.6499469,81.282677,-444.687)" />
    <path
       d="m 1382.9696,834.36645 q 0.9763,6.69488 1.2552,12.97133 l -0.5579,5.57906 q -1.2553,4.32377 -3.9053,7.81069 -4.8817,4.32377 -14.7845,7.1133 -4.4633,-5.16063 -7.2528,-9.20545 -7.6712,1.67372 -14.0871,-0.41843 -6.137,-5.02116 -11.0187,-21.75835 h 3.7659 q -0.6974,-6.97383 -0.8369,-12.83184 0.279,-3.48692 0.6974,-5.57906 1.3948,-4.46325 3.3474,-7.11331 4.3238,-4.88168 14.3661,-8.36859 4.8817,5.02115 7.8107,9.20545 l 0.5579,-0.13948 q 7.2528,-1.53424 13.6687,1.53425 3.6264,3.34743 6.137,8.08964 l 4.7422,12.83184 z m -11.1582,18.68986 q 0.279,-1.11581 0.5579,-2.23162 0,-6.83435 -5.4396,-23.98997 l 2.9291,-0.13948 q -0.9764,-2.929 -1.8132,-3.62639 -4.1843,-0.41843 -13.5293,1.95267 -3.6264,-4.7422 -6.4159,-6.97382 -0.2789,0.69738 -0.5579,2.3711 -0.1395,5.99749 4.4633,24.4084 h -2.7896 q 0.279,0.83686 0.5579,1.67372 0.4185,0.69738 0.6974,0.83686 5.5791,0 14.7845,-1.95268 3.7659,5.16064 6.5554,7.67121 z m -79.3621,178.66949 q 2.0921,0.1395 11.437,-1.6737 l 5.9975,9.9028 26.7795,-8.2291 v 3.4869 l 27.3374,-5.1606 5.9975,9.9028 26.7795,-8.2291 v 3.4869 l 27.3374,-5.1606 q 4.0449,6.8343 5.8581,9.3449 2.7895,-1.3948 3.6263,-4.1843 -0.1394,-1.6737 -0.6973,-4.1843 -0.9764,-1.8132 -3.9054,-5.3001 -1.9526,0.1395 -20.503,3.6264 l -5.9975,-9.7634 -26.64,8.0897 v -12.1345 h -7.1134 l -6.6948,-36.12442 9.7633,-6.13696 -8.0896,-27.19794 h 3.4869 l -5.1606,-27.89531 9.7633,-5.99749 -4.6027,-15.62138 0.6974,1.25529 q -0.6974,-1.25529 -0.8369,-2.92901 -1.8132,-0.13947 -10.3212,1.39477 l -17.853,3.34744 -5.9975,-9.76336 q -15.203,4.46325 -23.0137,8.22912 l 0.1395,0.83685 q 0.279,0.83686 0.6974,1.11582 0.5579,0.27895 4.7422,0.83686 1.5342,5.71854 3.208,9.4844 l 27.0584,-8.08964 v 11.99499 h 6.8344 l 7.1133,29.29008 -9.6239,4.60272 8.2291,20.92149 h -3.6264 l 5.0212,21.06096 -9.6239,4.46325 8.2291,20.92147 h -12.5529 v 7.1133 l -35.8455,6.6949 -5.858,-9.7634 q -4.1843,0.9764 -11.2976,5.0212 -0.2789,0.8369 -0.2789,7.1133 z m 8.508,20.9215 -5.3001,-9.6239 -3.6264,0.8369 q -5.3001,-0.6974 -8.787,-2.6501 l -3.7659,-3.4869 q -3.3474,-7.2528 -3.6263,-19.8057 l 4.6027,1.5343 q 3.6264,-7.1133 14.3661,-9.4844 2.929,-0.558 18.1319,-3.208 l 5.1607,9.3449 23.5715,-6.9738 -5.0212,-22.87416 9.2055,-3.90535 -8.3686,-21.61887 h 3.7659 l -4.6028,-20.92148 9.2055,-3.90534 -6.8344,-17.71353 -11.716,1.95267 q -11.4371,1.95268 -19.5267,1.95268 -3.0685,-7.11331 -3.4869,-12.41342 -1.3948,-0.83686 -3.7659,-2.78953 -2.6501,-5.02116 -3.208,-8.22912 l -0.4184,-4.60272 q 0.6974,-2.51058 1.8132,-5.30011 2.6501,-4.1843 12.4134,-10.87918 l 1.2553,4.46325 q 6.8344,-1.53424 29.4296,-5.30011 l 5.1606,9.34493 9.9028,-2.78953 6.8344,-1.95267 5.0211,-0.55791 11.2976,2.51058 -2.929,4.46325 q 0.8369,0.97634 1.6738,2.23163 1.2552,3.34744 5.858,30.82432 l -9.345,5.30011 8.0897,28.03479 h -3.4869 l 4.7422,27.75584 -9.345,5.30011 6.9739,24.26887 29.1506,-5.0211 5.1606,9.3449 9.9028,-2.7895 q 5.3002,-0.8369 8.9265,-0.4184 3.0685,0.8368 5.5791,2.0921 2.3711,2.0922 7.9502,8.3686 l -4.1843,1.8132 q 0.8368,2.7895 1.2553,5.5791 v 4.8816 q -0.4185,3.208 -2.2317,6.5554 -3.6264,7.1133 -22.5952,10.4608 l -5.1606,-9.3449 -27.6164,8.2291 v -3.4869 l -27.3374,4.6027 -5.1606,-9.3449 -27.6164,8.2291 v -3.4869 z"
       id="path1151"
       style="display:inline;fill:#000000;fill-opacity:1;stroke:none;stroke-width:1.00584;stroke-dasharray:none;stroke-opacity:1;font-size:285.648px;font-family:'Electric Hermes AOE';-inkscape-font-specification:'Electric Hermes AOE';letter-spacing:0px;word-spacing:0px"
       transform="matrix(1.1568975,-0.02410308,0.04868294,1.6499469,81.282677,-444.687)" />
    <path
       d="m 1476.8373,1017.6387 q 2.929,2.65 5.9975,4.8816 5.4396,2.5106 14.3661,5.1607 0.4184,6.6949 1.1158,11.2976 9.9028,-0.279 26.5005,-5.0212 l -0.1394,3.208 q 12.1344,-2.929 24.8268,-8.0897 4.3238,5.0212 7.8107,8.7871 8.3686,-5.7186 22.3162,-16.7372 l 1.2553,3.3474 q 4.0448,-2.65 6.9739,-5.1606 1.6737,-1.8132 2.5105,-3.3475 0.4185,-1.3947 -0.6974,-6.2764 6.8344,-0.8369 9.066,-1.6737 0.5579,-0.4184 0.9764,-0.8369 -0.6974,-0.6974 -1.6738,-1.5342 -2.5105,-0.8369 -4.1843,-0.9764 -2.0921,0.279 -3.6263,1.1159 l -9.4845,6.5554 -0.9763,-3.208 q -7.5317,4.7422 -23.8505,14.924 -5.7185,-4.7422 -9.4844,-8.2291 -10.3213,6.5554 -26.7795,12.9713 v -4.4633 q -6.8343,0.6974 -12.2739,0.279 -3.9054,-0.5579 -9.9029,-2.5106 -5.1606,-2.929 -11.2976,-8.0896 3.208,-7.9502 6.137,-12.5529 -5.5791,-8.64757 -12.6924,-26.50057 l 4.0449,-0.13947 q -2.0922,-9.62389 -5.8581,-28.03479 l 10.6003,-5.99749 -8.7871,-27.05846 h 13.1108 v -7.53173 l 35.0087,-7.25279 5.7185,10.46075 25.9426,-8.78703 v 3.76587 l 1.8132,-0.41843 q 1.6737,-0.5579 4.8817,-1.95267 0.1395,-1.11581 -0.8369,-6.41592 5.4396,-1.67372 7.3923,-2.92901 l 0.9763,-0.83686 q -0.6973,-0.41843 -1.3947,-0.83686 -2.7896,-0.41843 -4.6027,-0.27895 -5.7186,1.39476 -16.5978,5.02115 v -3.76586 l -26.64,5.43958 -5.7185,-10.46074 -25.9427,8.78702 v -13.11079 h -7.6712 l -7.2528,-36.82182 q 6.2765,-3.62639 10.1818,-5.99749 -1.9526,-4.04482 -4.0448,-6.97383 -1.3948,-0.69738 -2.7895,-0.97633 -1.9527,0.41843 -9.4844,1.95267 0,2.65005 2.3711,15.06347 l -10.6002,6.13697 8.787,27.61636 h -12.9713 v 7.81068 q -7.6713,0.97634 -15.4819,1.95268 -10.4608,1.53424 -15.0635,3.48691 l 0.4184,4.46325 q -4.3238,2.23163 -6.2764,4.1843 -0.8369,1.11581 -1.2553,2.3711 3.7659,1.81319 14.2266,-0.41843 l 23.4321,-5.16063 v 12.41341 h 7.5317 l 7.3923,31.24275 -10.4608,4.88168 8.9265,22.45573 h -3.9053 q 2.7895,11.15812 5.9975,22.0373 l -9.6239,5.43958 q 3.7658,6.41594 14.5055,16.17924 z m 38.914,32.6375 q -4.8817,0.4184 -11.1582,0.5579 -9.3449,-0.6974 -19.9451,-2.929 -0.6974,-7.1133 -0.6974,-12.1345 -4.4632,-1.2553 -10.0423,-3.7658 -5.9975,-3.6264 -16.7372,-13.2503 l 3.9054,-2.0922 q -5.8581,-8.787 -10.4608,-24.40837 l 9.7634,-4.88168 q -3.0685,-7.67121 -9.2055,-23.43206 h 4.0448 l -5.0211,-22.73469 9.9028,-4.18429 -7.5317,-19.6662 q -14.2266,2.23163 -21.7584,2.23163 -8.0896,0 -12.8318,-2.09215 -4.0448,-1.67372 -8.3686,-7.53174 -1.9527,-3.62639 -3.6264,-10.73969 3.7659,-4.60273 7.9502,-7.39226 2.65,-1.39477 5.0211,-2.09215 l 0.8369,-2.09215 q 7.8107,-5.99749 35.9849,-11.43708 l -5.4395,-30.26641 10.1817,-5.43959 q -1.2552,-4.88168 -1.2552,-7.95016 0,-6.41592 6.4159,-12.97132 3.6264,-2.09215 14.2266,-6.13697 v 5.02116 q 3.208,0.13947 5.9975,0.69738 6.8343,3.90534 10.0423,9.06598 3.0685,8.08964 5.5791,20.2241 l -10.0424,5.57906 7.6713,24.96631 28.4532,-5.30011 5.0211,10.04231 26.7795,-8.78702 v 4.04482 q 5.9975,-0.69739 12.1345,-0.41843 l 5.5791,1.67371 q 5.4395,2.92901 8.0896,7.81069 1.2553,2.3711 3.9053,10.7397 -6.9738,4.7422 -11.8555,6.13697 -0.2789,1.39476 -1.1158,4.04482 -3.6264,3.76587 -6.4159,5.57906 -5.7185,2.65006 -18.6899,6.83435 v -3.76586 l -26.5005,5.02115 -5.0212,-10.04231 -23.2926,7.67121 5.3002,29.56903 -10.0424,5.16064 q 4.4633,13.94765 9.2055,27.3374 l -3.4869,0.13948 q 0.9763,3.62639 2.5106,8.50807 3.2079,6.83435 7.8107,11.85546 -3.3475,5.0212 -4.7423,8.3686 2.7896,0.8369 5.9975,0.8369 4.8817,0 19.1083,-4.0448 v 2.929 q 9.6239,-2.929 23.0137,-10.1818 l 8.0896,7.5317 q 6.137,-5.0211 23.4321,-18.2714 l 1.2553,4.04482 q 1.9526,-0.97633 3.9053,-1.53424 5.7185,-0.97633 11.995,0.55791 l 5.858,3.20796 4.3238,5.02115 q 3.2079,6.2765 3.9053,15.203 -5.7185,3.0684 -9.2054,4.1842 -1.6738,0.279 -3.6264,0.4185 -2.3711,7.2528 -21.7584,22.1768 l -1.2553,-3.6264 q -11.716,6.5554 -26.2216,13.3897 l -7.5317,-9.2054 q -10.1818,4.8816 -28.4532,10.6002 z"
       id="path1153"
       style="display:inline;fill:#000000;fill-opacity:1;stroke:none;stroke-width:1.00584;stroke-dasharray:none;stroke-opacity:1;font-size:285.648px;font-family:'Electric Hermes AOE';-inkscape-font-specification:'Electric Hermes AOE';letter-spacing:0px;word-spacing:0px"
       transform="matrix(1.1568975,-0.02410308,0.04868294,1.6499469,81.282677,-444.687)" />
    <path
       d="m 1603.0636,1111.3669 q -3.0685,-2.0921 -5.1607,-6.8343 -1.6737,-5.5791 -1.6737,-9.9029 0,-11.716 12.4134,-17.574 l 8.0897,-2.0922 q 3.6264,4.7422 6.2764,9.2055 l 26.3611,-7.2528 6.6949,-23.8505 10.0423,0.279 3.2079,-22.7347 -17.1556,-23.2926 5.858,-8.9265 -20.2241,-21.75835 3.0685,-1.53424 -16.8766,-23.01363 5.7185,-9.06598 -18.8293,-20.2241 q -2.929,0 -5.7186,-0.27896 -3.6264,-0.83685 -6.4159,-2.65005 -2.65,-2.3711 -5.3001,-5.30011 -2.6501,-7.81069 -2.6501,-12.55289 0,-7.81069 7.9502,-15.62138 5.9975,1.53425 9.3449,3.34744 1.5343,1.11581 3.0685,2.65006 7.9502,-2.51058 29.848,-8.50807 v 3.34743 q 21.4794,-3.76586 32.777,-1.81319 2.3711,6.41592 2.3711,10.46074 -0.6974,2.51058 -1.5342,4.46325 0.8368,1.67372 1.9526,4.46325 0.9764,11.57656 -7.9501,17.15562 -2.929,1.39476 -8.9265,3.62639 l 20.6425,30.9638 -5.4396,10.18179 19.1083,23.57154 12.2739,-35.28757 11.2976,-1.95268 7.3923,-30.26641 q -6.4159,0.41843 -12.4134,-1.39477 -8.6476,-5.57906 -10.4608,-16.59771 0.1395,-5.99749 0.5579,-7.95016 0.558,-2.09215 3.487,-7.11331 6.2764,-0.69738 10.3212,0.69738 1.8132,0.97634 3.3475,2.23163 4.1843,-1.8132 28.7321,-8.78702 v 3.34743 l 17.9925,-2.929 q 6.4159,-0.13948 13.6687,1.25528 1.6737,6.13697 1.8132,9.76336 -0.4184,2.23163 -1.1158,4.1843 0.8369,1.25529 2.2316,3.90535 0.8369,4.46325 0.6974,8.9265 -2.3711,5.57906 -6.2764,8.78702 -3.208,1.95267 -11.0187,5.30011 l -8.0896,26.36107 -10.4608,0.27895 -5.0211,27.61636 -3.0685,-1.53424 -7.9502,25.66367 -10.3212,0.279 -5.0212,27.7558 -3.0685,-1.6737 -7.9501,25.6637 -10.3213,0.4184 -4.1843,22.7347 q 11.8555,-0.9763 18.1319,4.7422 3.208,3.0685 5.9975,11.995 0.1395,8.3686 -3.7658,15.7608 -6.5554,0.6974 -10.1818,-0.4184 -1.8132,-0.8369 -3.3475,-1.6737 -1.3947,0.5579 -3.9053,1.6737 l -25.6637,7.2528 v -3.4869 l -28.8716,4.6027 -5.4396,-9.2055 q -17.5741,4.8817 -22.4557,4.8817 -4.3238,0 -10.1818,-1.1158 z m 11.716,-14.2266 q -2.929,-4.8817 -5.3001,-7.3923 -0.6974,0.8369 -1.1158,1.8132 -0.4184,1.5343 0,4.6028 0.6974,1.9526 1.6737,3.6264 0.5579,0.2789 7.6712,0.1394 l -1.1158,2.3711 q 4.1843,-0.4184 25.6637,-4.0448 l 6.2764,9.6239 28.1743,-8.0896 v 3.3474 l 10.6002,-1.8132 q 4.8817,-0.8369 5.858,-1.3948 1.1159,-0.5579 3.6264,-4.0448 4.4633,2.2316 6.137,2.5106 0.5579,-0.1395 0.9763,-0.279 -0.8368,-2.5105 -1.3947,-3.2079 -0.4185,-0.6974 -2.3711,-1.9527 -4.6028,-0.1395 -15.7609,2.3711 l 0.5579,-13.2503 -7.8107,-3.9053 9.9029,-34.0323 11.1581,-0.8368 4.7422,-26.919 2.929,1.5342 7.5317,-25.94262 11.2976,-0.69739 4.6028,-26.91897 2.929,1.53424 7.5317,-25.94264 11.2976,-0.69739 4.6027,-26.91897 7.9502,4.04482 -0.4184,-3.62639 q 5.9975,-2.09215 8.0896,-3.20797 0.279,-0.69738 0.4185,-1.53424 -0.1395,-1.39476 -0.4185,-2.51058 0.5579,0 0.5579,0.13948 l -3.9053,-5.16063 q 0.4184,-1.67372 0.2789,-3.48692 -0.2789,-0.69738 -0.6973,-1.39476 -7.3923,1.95267 -27.3375,7.81069 v -3.48692 l -10.3212,1.8132 q -5.858,1.11581 -6.137,1.25529 -1.1158,0.69738 -2.2316,5.57906 -5.858,-4.1843 -7.2528,-4.46325 l -0.8369,0.13947 q 0.9764,3.48692 3.7659,5.30011 1.5343,0.41843 3.6264,0.27896 l 11.0187,-1.95267 -0.8369,12.97132 8.0896,3.90534 -13.9476,41.84297 -12.1345,2.51058 -8.0896,33.75328 -12.1345,-6.13692 -8.2291,4.04482 -24.8268,-36.26391 5.3001,-11.15812 -21.8978,-26.64003 11.9949,-5.85801 -0.5579,-8.22912 q 6.8344,-1.95267 9.345,-3.06849 0.5579,-0.41843 0.9763,-1.25528 -0.1395,-2.23163 -0.5579,-3.34744 0.6974,0 0.9763,0.27895 l -3.0685,-5.02116 q 0.279,-0.97633 0,-2.78953 -0.4184,-0.97633 -0.8368,-1.81319 -7.9502,1.95267 -28.7322,7.67121 v -3.34744 l -18.6898,3.20796 q -2.3711,0.83686 -5.3002,4.1843 -4.4632,-4.04482 -5.858,-4.60273 h -0.8368 q 0.1394,1.53424 0.5579,2.78953 2.0921,4.46325 5.858,4.1843 1.6737,0 10.8792,-1.95267 l -0.4185,8.9265 3.7659,-1.95267 22.4557,29.70851 -5.7185,9.90283 19.6662,20.92149 -3.0685,1.53424 17.4346,22.87416 -5.858,9.90281 19.6662,20.9215 -6.9739,3.6264 2.5106,1.2553 -8.0896,31.1033 -10.7397,0.1394 -3.208,23.99 -8.5081,-4.3238 v 4.4633 z"
       id="path1155"
       style="display:inline;fill:#000000;fill-opacity:1;stroke:none;stroke-width:1.00584;stroke-dasharray:none;stroke-opacity:1;font-size:285.648px;font-family:'Electric Hermes AOE';-inkscape-font-specification:'Electric Hermes AOE';letter-spacing:0px;word-spacing:0px"
       transform="matrix(1.1568975,-0.02410308,0.04868294,1.6499469,81.282677,-444.687)" />
    <ellipse
       style="display:inline;fill:none;fill-opacity:1;stroke:#ff0000;stroke-width:0.584264;stroke-dasharray:none;stroke-opacity:1;stroke-miterlimit:4"
       id="ellipse299208-0-4-1-1-3-5-1-0-3-2-5-2-3"
       cx="1778.0209"
       cy="995.81805"
       rx="19.234703"
       ry="21.997894"
       transform="matrix(1.1238606,0,0,0.98484361,74.206767,278.10629)" />
    <ellipse
       style="display:inline;fill:none;fill-opacity:1;stroke:#ff0000;stroke-width:0.584264;stroke-dasharray:none;stroke-opacity:1;stroke-miterlimit:4"
       id="ellipse299208-0-4-1-1-3-5-1-0-6-98-2-6"
       cx="1731.026"
       cy="746.73877"
       rx="19.234703"
       ry="21.997894"
       transform="matrix(1.1238606,0,0,0.98484361,74.206767,278.10629)" />
    <ellipse
       style="display:inline;fill:none;fill-opacity:1;stroke:#ff0000;stroke-width:0.584264;stroke-dasharray:none;stroke-opacity:1;stroke-miterlimit:4"
       id="ellipse299208-0-4-1-1-3-5-1-0-54-4-47-8"
       cx="1790.6189"
       cy="929.12933"
       rx="19.234703"
       ry="21.997894"
       transform="matrix(1.1238606,0,0,0.98484361,74.206767,278.10629)" />
    <ellipse
       style="display:inline;fill:none;fill-opacity:1;stroke:#ff0000;stroke-width:0.584264;stroke-dasharray:none;stroke-opacity:1;stroke-miterlimit:4"
       id="ellipse299208-0-4-1-1-3-5-1-0-6-5-8-75-0"
       cx="1744.3633"
       cy="806.69067"
       rx="19.234703"
       ry="21.997894"
       transform="matrix(1.1238606,0,0,0.98484361,74.206767,278.10629)" />
    <ellipse
       style="display:inline;fill:none;fill-opacity:1;stroke:#ff0000;stroke-width:0.584264;stroke-dasharray:none;stroke-opacity:1;stroke-miterlimit:4"
       id="ellipse299208-0-4-1-1-3-5-1-0-6-5-8-75-2-2"
       cx="1729.4937"
       cy="1057.5219"
       rx="19.234703"
       ry="21.997894"
       transform="matrix(1.1238606,0,0,0.98484361,74.206767,278.10629)" />
    <ellipse
       style="display:inline;fill:none;fill-opacity:1;stroke:#ff0000;stroke-width:0.584264;stroke-dasharray:none;stroke-opacity:1;stroke-miterlimit:4"
       id="ellipse299208-0-4-1-1-3-5-1-0-6-9-1-4-1"
       cx="1760.2217"
       cy="864.66571"
       rx="19.234703"
       ry="21.997894"
       transform="matrix(1.1238606,0,0,0.98484361,74.206767,278.10629)" />
    <ellipse
       style="display:inline;fill:none;fill-opacity:1;stroke:#ff0000;stroke-width:0.584264;stroke-dasharray:none;stroke-opacity:1;stroke-miterlimit:4"
       id="ellipse299208-0-4-1-1-3-5-1-0-4-3-81-0"
       cx="1787.9337"
       cy="1053.7513"
       rx="19.234703"
       ry="21.997894"
       transform="matrix(1.1238606,0,0,0.98484361,74.206767,278.10629)" />
    <ellipse
       style="display:inline;fill:none;fill-opacity:1;stroke:#ff0000;stroke-width:0.584264;stroke-dasharray:none;stroke-opacity:1;stroke-miterlimit:4"
       id="ellipse299208-0-4-1-1-3-5-1-0-6-5-8-75-8-5"
       cx="1818.3441"
       cy="854.46033"
       rx="19.234703"
       ry="21.997894"
       transform="matrix(1.1238606,0,0,0.98484361,74.206767,278.10629)" />
    <ellipse
       style="display:inline;fill:none;fill-opacity:1;stroke:#ff0000;stroke-width:0.584264;stroke-dasharray:none;stroke-opacity:1;stroke-miterlimit:4"
       id="ellipse299208-0-4-1-1-3-5-1-0-6-5-8-75-8-5-1"
       cx="1835.6489"
       cy="798.6441"
       rx="19.234703"
       ry="21.997894"
       transform="matrix(1.1238606,0,0,0.98484361,74.206767,278.10629)" />
    <ellipse
       style="display:inline;fill:none;fill-opacity:1;stroke:#ff0000;stroke-width:0.584264;stroke-dasharray:none;stroke-opacity:1;stroke-miterlimit:4"
       id="ellipse299208-0-4-1-1-3-5-1-0-6-5-8-75-8-5-10"
       cx="1845.6179"
       cy="738.77576"
       rx="19.234703"
       ry="21.997894"
       transform="matrix(1.1238606,0,0,0.98484361,74.206767,278.10629)" />
    <ellipse
       style="display:inline;fill:none;fill-opacity:1;stroke:#ff0000;stroke-width:0.584264;stroke-dasharray:none;stroke-opacity:1;stroke-miterlimit:4"
       id="ellipse299208-0-4-1-1-3-5-1-0-3-2-5-2"
       cx="1448.2164"
       cy="884.57629"
       rx="19.234703"
       ry="21.997894"
       transform="matrix(1.1238606,0,0,0.98484361,74.206767,278.10629)" />
    <ellipse
       style="display:inline;fill:none;fill-opacity:1;stroke:#ff0000;stroke-width:0.584264;stroke-dasharray:none;stroke-opacity:1;stroke-miterlimit:4"
       id="ellipse299208-0-4-1-1-3-5-1-0-6-98-2"
       cx="1441.3596"
       cy="627.98376"
       rx="19.234703"
       ry="21.997894"
       transform="matrix(1.1238606,0,0,0.98484361,74.206767,278.10629)" />
    <ellipse
       style="display:inline;fill:none;fill-opacity:1;stroke:#ff0000;stroke-width:0.584264;stroke-dasharray:none;stroke-opacity:1;stroke-miterlimit:4"
       id="ellipse299208-0-4-1-1-3-5-1-0-54-4-47"
       cx="1447.1805"
       cy="820.7326"
       rx="19.234703"
       ry="21.997894"
       transform="matrix(1.1238606,0,0,0.98484361,74.206767,278.10629)" />
    <ellipse
       style="display:inline;fill:none;fill-opacity:1;stroke:#ff0000;stroke-width:0.584264;stroke-dasharray:none;stroke-opacity:1;stroke-miterlimit:4"
       id="ellipse299208-0-4-1-1-3-5-1-0-6-5-8-75"
       cx="1402.3962"
       cy="738.19409"
       rx="19.234703"
       ry="21.997894"
       transform="matrix(1.1238606,0,0,0.98484361,74.206767,278.10629)" />
    <ellipse
       style="display:inline;fill:none;fill-opacity:1;stroke:#ff0000;stroke-width:0.584264;stroke-dasharray:none;stroke-opacity:1;stroke-miterlimit:4"
       id="ellipse299208-0-4-1-1-3-5-1-0-6-5-8-75-2"
       cx="1395.9917"
       cy="953.37256"
       rx="19.234703"
       ry="21.997894"
       transform="matrix(1.1238606,0,0,0.98484361,74.206767,278.10629)" />
    <ellipse
       style="display:inline;fill:none;fill-opacity:1;stroke:#ff0000;stroke-width:0.584264;stroke-dasharray:none;stroke-opacity:1;stroke-miterlimit:4"
       id="ellipse299208-0-4-1-1-3-5-1-0-6-9-1-4"
       cx="1447.1805"
       cy="752.16071"
       rx="19.234703"
       ry="21.997894"
       transform="matrix(1.1238606,0,0,0.98484361,74.206767,278.10629)" />
    <ellipse
       style="display:inline;fill:none;fill-opacity:1;stroke:#ff0000;stroke-width:0.584264;stroke-dasharray:none;stroke-opacity:1;stroke-miterlimit:4"
       id="ellipse299208-0-4-1-1-3-5-1-0-4-3-81"
       cx="1451.3241"
       cy="947.23792"
       rx="19.234703"
       ry="21.997894"
       transform="matrix(1.1238606,0,0,0.98484361,74.206767,278.10629)" />
    <ellipse
       style="display:inline;fill:none;fill-opacity:1;stroke:#ff0000;stroke-width:0.584264;stroke-dasharray:none;stroke-opacity:1;stroke-miterlimit:4"
       id="ellipse299208-0-4-1-1-3-5-1-0-6-5-8-75-8"
       cx="1502.8096"
       cy="950.64343"
       rx="19.234703"
       ry="21.997894"
       transform="matrix(1.1238606,0,0,0.98484361,74.206767,278.10629)" />
    <ellipse
       style="display:inline;fill:none;fill-opacity:1;stroke:#ff0000;stroke-width:0.584264;stroke-dasharray:none;stroke-opacity:1;stroke-miterlimit:4"
       id="ellipse299208-0-4-1-1-3-5-1-0-3-2-0"
       cx="1569.6771"
       cy="893.16113"
       rx="19.234703"
       ry="21.997894"
       transform="matrix(1.1238606,0,0,0.98484361,74.206767,278.10629)" />
    <ellipse
       style="display:inline;fill:none;fill-opacity:1;stroke:#ff0000;stroke-width:0.584264;stroke-dasharray:none;stroke-opacity:1;stroke-miterlimit:4"
       id="ellipse299208-0-4-1-1-3-5-1-0-6-3"
       cx="1563.4618"
       cy="638.93274"
       rx="19.234703"
       ry="21.997894"
       transform="matrix(1.1238606,0,0,0.98484361,74.206767,278.10629)" />
    <ellipse
       style="display:inline;fill:none;fill-opacity:1;stroke:#ff0000;stroke-width:0.584264;stroke-dasharray:none;stroke-opacity:1;stroke-miterlimit:4"
       id="ellipse299208-0-4-1-1-3-5-1-0-54-0"
       cx="1565.5336"
       cy="831.68158"
       rx="19.234703"
       ry="21.997894"
       transform="matrix(1.1238606,0,0,0.98484361,74.206767,278.10629)" />
    <ellipse
       style="display:inline;fill:none;fill-opacity:1;stroke:#ff0000;stroke-width:0.584264;stroke-dasharray:none;stroke-opacity:1;stroke-miterlimit:4"
       id="ellipse299208-0-4-1-1-3-5-1-0-6-5-9"
       cx="1563.4618"
       cy="698.13757"
       rx="19.234703"
       ry="21.997894"
       transform="matrix(1.1238606,0,0,0.98484361,74.206767,278.10629)" />
    <ellipse
       style="display:inline;fill:none;fill-opacity:1;stroke:#ff0000;stroke-width:0.584264;stroke-dasharray:none;stroke-opacity:1;stroke-miterlimit:4"
       id="ellipse299208-0-4-1-1-3-5-1-0-6-9-2"
       cx="1566.5695"
       cy="761.92761"
       rx="19.234703"
       ry="21.997894"
       transform="matrix(1.1238606,0,0,0.98484361,74.206767,278.10629)" />
    <ellipse
       style="display:inline;fill:none;fill-opacity:1;stroke:#ff0000;stroke-width:0.584264;stroke-dasharray:none;stroke-opacity:1;stroke-miterlimit:4"
       id="ellipse299208-0-4-1-1-3-5-1-9-5"
       cx="1683.3818"
       cy="917.06366"
       rx="19.234703"
       ry="21.997894"
       transform="matrix(1.1238606,0,0,0.98484361,74.206767,278.10629)" />
    <ellipse
       style="display:inline;fill:none;fill-opacity:1;stroke:#ff0000;stroke-width:0.584264;stroke-dasharray:none;stroke-opacity:1;stroke-miterlimit:4"
       id="ellipse299208-0-4-1-1-3-5-1-0-4-4"
       cx="1590.6382"
       cy="940.69836"
       rx="19.234703"
       ry="21.997894"
       transform="matrix(1.1238606,0,0,0.98484361,74.206767,278.10629)" />
    <ellipse
       style="display:inline;fill:none;fill-opacity:1;stroke:#ff0000;stroke-width:0.584264;stroke-dasharray:none;stroke-opacity:1;stroke-miterlimit:4"
       id="ellipse299208-0-4-1-1-3-5-1-0-4-4-5"
       cx="1617.7635"
       cy="727.85657"
       rx="19.234703"
       ry="21.997894"
       transform="matrix(1.1238606,0,0,0.98484361,74.206767,278.10629)" />
    <ellipse
       style="display:inline;fill:none;fill-opacity:1;stroke:#ff0000;stroke-width:0.584264;stroke-dasharray:none;stroke-opacity:1;stroke-miterlimit:4"
       id="ellipse299208-0-4-1-1-3-5-1-0-3-2-72-8-0"
       cx="1642.7285"
       cy="946.87268"
       rx="19.234703"
       ry="21.997894"
       transform="matrix(1.1238606,0,0,0.98484361,74.206767,278.10629)" />
    <ellipse
       style="display:inline;fill:none;fill-opacity:1;stroke:#ff0000;stroke-width:0.584264;stroke-dasharray:none;stroke-opacity:1;stroke-miterlimit:4"
       id="ellipse299208-0-4-1-1-3-5-1-0-4-4-5-4"
       cx="1519.9402"
       cy="739.91064"
       rx="19.234703"
       ry="21.997894"
       transform="matrix(1.1238606,0,0,0.98484361,74.206767,278.10629)" />
    <ellipse
       style="display:inline;fill:none;fill-opacity:1;stroke:#ff0000;stroke-width:0.584264;stroke-dasharray:none;stroke-opacity:1;stroke-miterlimit:4"
       id="ellipse299208-0-4-1-1-3-5-1-0-3-2-5-4-8-0"
       cx="1198.7008"
       cy="874.44458"
       rx="19.234703"
       ry="21.997894"
       transform="matrix(1.1238606,0,0,0.98484361,74.206767,278.10629)" />
    <ellipse
       style="display:inline;fill:none;fill-opacity:1;stroke:#ff0000;stroke-width:0.584264;stroke-dasharray:none;stroke-opacity:1;stroke-miterlimit:4"
       id="ellipse299208-0-4-1-1-3-5-1-0-6-98-4-3-4"
       cx="1252.4404"
       cy="638.91278"
       rx="19.234703"
       ry="21.997894"
       transform="matrix(1.1238606,0,0,0.98484361,74.206767,278.10629)" />
    <ellipse
       style="display:inline;fill:none;fill-opacity:1;stroke:#ff0000;stroke-width:0.584264;stroke-dasharray:none;stroke-opacity:1;stroke-miterlimit:4"
       id="ellipse299208-0-4-1-1-3-5-1-0-54-4-4-1-8"
       cx="1195.2083"
       cy="815.23975"
       rx="19.234703"
       ry="21.997894"
       transform="matrix(1.1238606,0,0,0.98484361,74.206767,278.10629)" />
    <ellipse
       style="display:inline;fill:none;fill-opacity:1;stroke:#ff0000;stroke-width:0.584264;stroke-dasharray:none;stroke-opacity:1;stroke-miterlimit:4"
       id="ellipse299208-0-4-1-1-3-5-1-0-6-5-8-7-8-8"
       cx="1202.1934"
       cy="688.68085"
       rx="19.234703"
       ry="21.997894"
       transform="matrix(1.1238606,0,0,0.98484361,74.206767,278.10629)" />
    <ellipse
       style="display:inline;fill:none;fill-opacity:1;stroke:#ff0000;stroke-width:0.584264;stroke-dasharray:none;stroke-opacity:1;stroke-miterlimit:4"
       id="ellipse299208-0-4-1-1-3-5-1-0-6-9-1-6-9-8"
       cx="1195.2083"
       cy="750.21405"
       rx="19.234703"
       ry="21.997894"
       transform="matrix(1.1238606,0,0,0.98484361,74.206767,278.10629)" />
    <ellipse
       style="display:inline;fill:none;fill-opacity:1;stroke:#ff0000;stroke-width:0.584264;stroke-dasharray:none;stroke-opacity:1;stroke-miterlimit:4"
       id="ellipse299208-0-4-1-1-3-5-1-0-4-3-3-6-9"
       cx="1225.2205"
       cy="927.88214"
       rx="19.234703"
       ry="21.997894"
       transform="matrix(1.1238606,0,0,0.98484361,74.206767,278.10629)" />
    <ellipse
       style="display:inline;fill:none;fill-opacity:1;stroke:#ff0000;stroke-width:0.584264;stroke-dasharray:none;stroke-opacity:1;stroke-miterlimit:4"
       id="ellipse299208-0-4-1-1-3-5-1-0-4-3-3-6-3-7"
       cx="1283.4656"
       cy="952.29456"
       rx="19.234703"
       ry="21.997894"
       transform="matrix(1.1238606,0,0,0.98484361,74.206767,278.10629)" />
    <ellipse
       style="display:inline;fill:none;fill-opacity:1;stroke:#ff0000;stroke-width:0.584264;stroke-dasharray:none;stroke-opacity:1;stroke-miterlimit:4"
       id="ellipse299208-0-4-1-1-3-5-1-0-4-3-3-6-38-7"
       cx="1340.296"
       cy="914.60754"
       rx="19.234703"
       ry="21.997894"
       transform="matrix(1.1238606,0,0,0.98484361,74.206767,278.10629)" />
    <ellipse
       style="display:inline;fill:none;fill-opacity:1;stroke:#ff0000;stroke-width:0.584264;stroke-dasharray:none;stroke-opacity:1;stroke-miterlimit:4"
       id="ellipse299208-0-4-1-1-3-5-1-0-6-98-4-1-4-6"
       cx="1334.2267"
       cy="700.83551"
       rx="19.234703"
       ry="21.997894"
       transform="matrix(1.1238606,0,0,0.98484361,74.206767,278.10629)" />
    <ellipse
       style="display:inline;fill:none;fill-opacity:1;stroke:#ff0000;stroke-width:0.584264;stroke-dasharray:none;stroke-opacity:1;stroke-miterlimit:4"
       id="ellipse299208-0-4-1-1-3-5-1-0-6-98-4-7-3-4"
       cx="1315.9374"
       cy="651.59363"
       rx="19.234703"
       ry="21.997894"
       transform="matrix(1.1238606,0,0,0.98484361,74.206767,278.10629)" />
    <ellipse
       style="display:inline;fill:none;fill-opacity:1;stroke:#ff0000;stroke-width:0.584264;stroke-dasharray:none;stroke-opacity:1;stroke-miterlimit:4"
       id="ellipse299208-0-4-1-1-3-5-1-0-4-3-3-6-38"
       cx="750.70575"
       cy="893.23132"
       rx="19.234703"
       ry="21.997894"
       transform="matrix(1.1238606,0,0,0.98484361,74.206767,278.10629)" />
    <ellipse
       style="display:inline;fill:none;fill-opacity:1;stroke:#ff0000;stroke-width:0.584264;stroke-dasharray:none;stroke-opacity:1;stroke-miterlimit:4"
       id="ellipse299208-0-4-1-1-3-5-1-0-6-98-4-1-4"
       cx="747.03198"
       cy="711.22949"
       rx="19.234703"
       ry="21.997894"
       transform="matrix(1.1238606,0,0,0.98484361,74.206767,278.10629)" />
    <ellipse
       style="display:inline;fill:none;fill-opacity:1;stroke:#ff0000;stroke-width:0.584264;stroke-dasharray:none;stroke-opacity:1;stroke-miterlimit:4"
       id="ellipse299208-0-4-1-1-3-5-1-0-3-2-5-4-8"
       cx="639.96924"
       cy="893.02362"
       rx="19.234703"
       ry="21.997894"
       transform="matrix(1.1238606,0,0,0.98484361,74.206767,278.10629)" />
    <ellipse
       style="display:inline;fill:none;fill-opacity:1;stroke:#ff0000;stroke-width:0.584264;stroke-dasharray:none;stroke-opacity:1;stroke-miterlimit:4"
       id="ellipse299208-0-4-1-1-3-5-1-0-6-98-4-3"
       cx="676.24603"
       cy="644.57849"
       rx="19.234703"
       ry="21.997894"
       transform="matrix(1.1238606,0,0,0.98484361,74.206767,278.10629)" />
    <ellipse
       style="display:inline;fill:none;fill-opacity:1;stroke:#ff0000;stroke-width:0.584264;stroke-dasharray:none;stroke-opacity:1;stroke-miterlimit:4"
       id="ellipse299208-0-4-1-1-3-5-1-0-54-4-4-1"
       cx="636.86157"
       cy="825.63373"
       rx="19.234703"
       ry="21.997894"
       transform="matrix(1.1238606,0,0,0.98484361,74.206767,278.10629)" />
    <ellipse
       style="display:inline;fill:none;fill-opacity:1;stroke:#ff0000;stroke-width:0.584264;stroke-dasharray:none;stroke-opacity:1;stroke-miterlimit:4"
       id="ellipse299208-0-4-1-1-3-5-1-0-6-5-8-7-8"
       cx="644.88257"
       cy="691.98242"
       rx="19.234703"
       ry="21.997894"
       transform="matrix(1.1238606,0,0,0.98484361,74.206767,278.10629)" />
    <ellipse
       style="display:inline;fill:none;fill-opacity:1;stroke:#ff0000;stroke-width:0.584264;stroke-dasharray:none;stroke-opacity:1;stroke-miterlimit:4"
       id="ellipse299208-0-4-1-1-3-5-1-0-6-9-1-6-9"
       cx="636.86157"
       cy="759.42596"
       rx="19.234703"
       ry="21.997894"
       transform="matrix(1.1238606,0,0,0.98484361,74.206767,278.10629)" />
    <ellipse
       style="display:inline;fill:none;fill-opacity:1;stroke:#ff0000;stroke-width:0.584264;stroke-dasharray:none;stroke-opacity:1;stroke-miterlimit:4"
       id="ellipse299208-0-4-1-1-3-5-1-0-4-3-3-6"
       cx="664.03223"
       cy="949.7749"
       rx="19.234703"
       ry="21.997894"
       transform="matrix(1.1238606,0,0,0.98484361,74.206767,278.10629)" />
    <ellipse
       style="display:inline;fill:none;fill-opacity:1;stroke:#ff0000;stroke-width:0.584264;stroke-dasharray:none;stroke-opacity:1;stroke-miterlimit:4"
       id="ellipse299208-0-4-1-1-3-5-1-0-4-3-3-6-3"
       cx="722.28748"
       cy="952.02234"
       rx="19.234703"
       ry="21.997894"
       transform="matrix(1.1238606,0,0,0.98484361,74.206767,278.10629)" />
    <ellipse
       style="display:inline;fill:none;fill-opacity:1;stroke:#ff0000;stroke-width:0.584264;stroke-dasharray:none;stroke-opacity:1;stroke-miterlimit:4"
       id="ellipse299208-0-4-1-1-3-5-1-0-6-98-4-7-3"
       cx="726.80865"
       cy="648.98486"
       rx="19.234703"
       ry="21.997894"
       transform="matrix(1.1238606,0,0,0.98484361,74.206767,278.10629)" />
    <ellipse
       style="display:inline;fill:none;fill-opacity:1;stroke:#ff0000;stroke-width:0.584264;stroke-dasharray:none;stroke-opacity:1;stroke-miterlimit:4"
       id="ellipse299208-0-4-1-1-3-5-1-0-3-2-5-9"
       cx="958.20648"
       cy="899.11298"
       rx="19.234703"
       ry="21.997894"
       transform="matrix(1.1238606,0,0,0.98484361,74.206767,278.10629)" />
    <ellipse
       style="display:inline;fill:none;fill-opacity:1;stroke:#ff0000;stroke-width:0.584264;stroke-dasharray:none;stroke-opacity:1;stroke-miterlimit:4"
       id="ellipse299208-0-4-1-1-3-5-1-0-6-98-6"
       cx="958.20648"
       cy="639.01001"
       rx="19.234703"
       ry="21.997894"
       transform="matrix(1.1238606,0,0,0.98484361,74.206767,278.10629)" />
    <ellipse
       style="display:inline;fill:none;fill-opacity:1;stroke:#ff0000;stroke-width:0.584264;stroke-dasharray:none;stroke-opacity:1;stroke-miterlimit:4"
       id="ellipse299208-0-4-1-1-3-5-1-0-54-4-2"
       cx="958.20648"
       cy="834.08722"
       rx="19.234703"
       ry="21.997894"
       transform="matrix(1.1238606,0,0,0.98484361,74.206767,278.10629)" />
    <ellipse
       style="display:inline;fill:none;fill-opacity:1;stroke:#ff0000;stroke-width:0.584264;stroke-dasharray:none;stroke-opacity:1;stroke-miterlimit:4"
       id="ellipse299208-0-4-1-1-3-5-1-0-6-5-8-1"
       cx="958.20648"
       cy="704.03577"
       rx="19.234703"
       ry="21.997894"
       transform="matrix(1.1238606,0,0,0.98484361,74.206767,278.10629)" />
    <ellipse
       style="display:inline;fill:none;fill-opacity:1;stroke:#ff0000;stroke-width:0.584264;stroke-dasharray:none;stroke-opacity:1;stroke-miterlimit:4"
       id="ellipse299208-0-4-1-1-3-5-1-0-6-9-1-7"
       cx="958.20648"
       cy="769.06152"
       rx="19.234703"
       ry="21.997894"
       transform="matrix(1.1238606,0,0,0.98484361,74.206767,278.10629)" />
    <ellipse
       style="display:inline;fill:none;fill-opacity:1;stroke:#ff0000;stroke-width:0.584264;stroke-dasharray:none;stroke-opacity:1;stroke-miterlimit:4"
       id="ellipse299208-0-4-1-1-3-5-1-0-4-3-8"
       cx="958.20648"
       cy="964.13873"
       rx="19.234703"
       ry="21.997894"
       transform="matrix(1.1238606,0,0,0.98484361,74.206767,278.10629)" />
    <ellipse
       style="display:inline;fill:none;fill-opacity:1;stroke:#ff0000;stroke-width:0.584264;stroke-dasharray:none;stroke-opacity:1;stroke-miterlimit:4"
       id="ellipse299208-0-4-1-1-3-5-1-0-6-98-6-5"
       cx="1009.66"
       cy="639.01001"
       rx="19.234703"
       ry="21.997894"
       transform="matrix(1.1238606,0,0,0.98484361,74.206767,278.10629)" />
    <ellipse
       style="display:inline;fill:none;fill-opacity:1;stroke:#ff0000;stroke-width:0.584264;stroke-dasharray:none;stroke-opacity:1;stroke-miterlimit:4"
       id="ellipse299208-0-4-1-1-3-5-1-0-6-98-6-7"
       cx="1058.7853"
       cy="649.48767"
       rx="19.234703"
       ry="21.997894"
       transform="matrix(1.1238606,0,0,0.98484361,74.206767,278.10629)" />
    <ellipse
       style="display:inline;fill:none;fill-opacity:1;stroke:#ff0000;stroke-width:0.584264;stroke-dasharray:none;stroke-opacity:1;stroke-miterlimit:4"
       id="ellipse299208-0-4-1-1-3-5-1-0-6-98-6-4"
       cx="1073.0874"
       cy="706.38562"
       rx="19.234703"
       ry="21.997894"
       transform="matrix(1.1238606,0,0,0.98484361,74.206767,278.10629)" />
    <ellipse
       style="display:inline;fill:none;fill-opacity:1;stroke:#ff0000;stroke-width:0.584264;stroke-dasharray:none;stroke-opacity:1;stroke-miterlimit:4"
       id="ellipse299208-0-4-1-1-3-5-1-0-6-98-6-1"
       cx="1068.3643"
       cy="772.302"
       rx="19.234703"
       ry="21.997894"
       transform="matrix(1.1238606,0,0,0.98484361,74.206767,278.10629)" />
    <ellipse
       style="display:inline;fill:none;fill-opacity:1;stroke:#ff0000;stroke-width:0.584264;stroke-dasharray:none;stroke-opacity:1;stroke-miterlimit:4"
       id="ellipse299208-0-4-1-1-3-5-1-0-6-98-6-8"
       cx="1016.3267"
       cy="779.44031"
       rx="19.234703"
       ry="21.997894"
       transform="matrix(1.1238606,0,0,0.98484361,74.206767,278.10629)" />
    <ellipse
       style="display:inline;fill:none;fill-opacity:1;stroke:#ff0000;stroke-width:0.584264;stroke-dasharray:none;stroke-opacity:1;stroke-miterlimit:4"
       id="ellipse299208-0-4-1-1-3-5-1-0-6-98-6-59"
       cx="1033.5742"
       cy="835.76251"
       rx="19.234703"
       ry="21.997894"
       transform="matrix(1.1238606,0,0,0.98484361,74.206767,278.10629)" />
    <ellipse
       style="display:inline;fill:none;fill-opacity:1;stroke:#ff0000;stroke-width:0.584264;stroke-dasharray:none;stroke-opacity:1;stroke-miterlimit:4"
       id="ellipse299208-0-4-1-1-3-5-1-0-6-98-6-75"
       cx="1050.3374"
       cy="895.63086"
       rx="19.234703"
       ry="21.997894"
       transform="matrix(1.1238606,0,0,0.98484361,74.206767,278.10629)" />
    <ellipse
       style="display:inline;fill:none;fill-opacity:1;stroke:#ff0000;stroke-width:0.584264;stroke-dasharray:none;stroke-opacity:1;stroke-miterlimit:4"
       id="ellipse299208-0-4-1-1-3-5-1-0-6-98-6-3"
       cx="1067.001"
       cy="961.48608"
       rx="19.234703"
       ry="21.997894"
       transform="matrix(1.1238606,0,0,0.98484361,74.206767,278.10629)" />
    <ellipse
       style="display:inline;fill:none;fill-opacity:1;stroke:#ff0000;stroke-width:0.584264;stroke-dasharray:none;stroke-opacity:1;stroke-miterlimit:4"
       id="ellipse299208-0-4-1-1-3-5-1-0-3-2-5-4"
       cx="848.91406"
       cy="898.37823"
       rx="19.234703"
       ry="21.997894"
       transform="matrix(1.1238606,0,0,0.98484361,74.206767,278.10629)" />
    <ellipse
       style="display:inline;fill:none;fill-opacity:1;stroke:#ff0000;stroke-width:0.584264;stroke-dasharray:none;stroke-opacity:1;stroke-miterlimit:4"
       id="ellipse299208-0-4-1-1-3-5-1-0-6-98-4"
       cx="850.39362"
       cy="637.19861"
       rx="19.234703"
       ry="21.997894"
       transform="matrix(1.1238606,0,0,0.98484361,74.206767,278.10629)" />
    <ellipse
       style="display:inline;fill:none;fill-opacity:1;stroke:#ff0000;stroke-width:0.584264;stroke-dasharray:none;stroke-opacity:1;stroke-miterlimit:4"
       id="ellipse299208-0-4-1-1-3-5-1-0-54-4-4"
       cx="848.91406"
       cy="833.35248"
       rx="19.234703"
       ry="21.997894"
       transform="matrix(1.1238606,0,0,0.98484361,74.206767,278.10629)" />
    <ellipse
       style="display:inline;fill:none;fill-opacity:1;stroke:#ff0000;stroke-width:0.584264;stroke-dasharray:none;stroke-opacity:1;stroke-miterlimit:4"
       id="ellipse299208-0-4-1-1-3-5-1-0-6-5-8-7"
       cx="848.91406"
       cy="703.30103"
       rx="19.234703"
       ry="21.997894"
       transform="matrix(1.1238606,0,0,0.98484361,74.206767,278.10629)" />
    <ellipse
       style="display:inline;fill:none;fill-opacity:1;stroke:#ff0000;stroke-width:0.584264;stroke-dasharray:none;stroke-opacity:1;stroke-miterlimit:4"
       id="ellipse299208-0-4-1-1-3-5-1-0-6-9-1-6"
       cx="848.91406"
       cy="768.32678"
       rx="19.234703"
       ry="21.997894"
       transform="matrix(1.1238606,0,0,0.98484361,74.206767,278.10629)" />
    <ellipse
       style="display:inline;fill:none;fill-opacity:1;stroke:#ff0000;stroke-width:0.584264;stroke-dasharray:none;stroke-opacity:1;stroke-miterlimit:4"
       id="ellipse299208-0-4-1-1-3-5-1-0-4-3-3"
       cx="848.91406"
       cy="963.40399"
       rx="19.234703"
       ry="21.997894"
       transform="matrix(1.1238606,0,0,0.98484361,74.206767,278.10629)" />
    <ellipse
       style="display:inline;fill:none;fill-opacity:1;stroke:#ff0000;stroke-width:0.584264;stroke-dasharray:none;stroke-opacity:1;stroke-miterlimit:4"
       id="ellipse299208-0-4-1-1-3-5-1-0-6-98-4-1"
       cx="800.08759"
       cy="637.19861"
       rx="19.234703"
       ry="21.997894"
       transform="matrix(1.1238606,0,0,0.98484361,74.206767,278.10629)" />
    <ellipse
       style="display:inline;fill:none;fill-opacity:1;stroke:#ff0000;stroke-width:0.584264;stroke-dasharray:none;stroke-opacity:1;stroke-miterlimit:4"
       id="ellipse299208-0-4-1-1-3-5-1-0-6-98-4-7"
       cx="900.69965"
       cy="637.19861"
       rx="19.234703"
       ry="21.997894"
       transform="matrix(1.1238606,0,0,0.98484361,74.206767,278.10629)" />
    <ellipse
       style="display:inline;fill:none;fill-opacity:1;stroke:#ff0000;stroke-width:0.584264;stroke-dasharray:none;stroke-opacity:1;stroke-miterlimit:4"
       id="ellipse299208-0-4-1-1-3-5-1-08"
       cx="578.43982"
       cy="646.48364"
       rx="19.234703"
       ry="21.997894"
       transform="matrix(1.1238606,0,0,0.98484361,74.206767,278.10629)" />
    <ellipse
       style="display:inline;fill:none;fill-opacity:1;stroke:#ff0000;stroke-width:0.584264;stroke-dasharray:none;stroke-opacity:1;stroke-miterlimit:4"
       id="ellipse299208-0-4-1-1-3-5-1-0-8"
       cx="483.18796"
       cy="646.48364"
       rx="19.234703"
       ry="21.997894"
       transform="matrix(1.1238606,0,0,0.98484361,74.206767,278.10629)" />
    <ellipse
       style="display:inline;fill:none;fill-opacity:1;stroke:#ff0000;stroke-width:0.584264;stroke-dasharray:none;stroke-opacity:1;stroke-miterlimit:4"
       id="ellipse299208-0-4-1-1-3-5-1-0-3-2-72-5"
       cx="530.81372"
       cy="646.48364"
       rx="19.234703"
       ry="21.997894"
       transform="matrix(1.1238606,0,0,0.98484361,74.206767,278.10629)" />
    <ellipse
       style="display:inline;fill:none;fill-opacity:1;stroke:#ff0000;stroke-width:0.584264;stroke-dasharray:none;stroke-opacity:1;stroke-miterlimit:4"
       id="ellipse299208-0-4-1-1-3-5-1-73-0"
       cx="572.72284"
       cy="801.21838"
       rx="19.234703"
       ry="21.997894"
       transform="matrix(1.1238606,0,0,0.98484361,74.206767,278.10629)" />
    <ellipse
       style="display:inline;fill:none;fill-opacity:1;stroke:#ff0000;stroke-width:0.584264;stroke-dasharray:none;stroke-opacity:1;stroke-miterlimit:4"
       id="ellipse299208-0-4-1-1-3-5-1-0-65-9"
       cx="477.47101"
       cy="799.83868"
       rx="19.234703"
       ry="21.997894"
       transform="matrix(1.1238606,0,0,0.98484361,74.206767,278.10629)" />
    <ellipse
       style="display:inline;fill:none;fill-opacity:1;stroke:#ff0000;stroke-width:0.584264;stroke-dasharray:none;stroke-opacity:1;stroke-miterlimit:4"
       id="ellipse299208-0-4-1-1-3-5-1-0-3-2-72-63-6"
       cx="525.09662"
       cy="801.21838"
       rx="19.234703"
       ry="21.997894"
       transform="matrix(1.1238606,0,0,0.98484361,74.206767,278.10629)" />
    <ellipse
       style="display:inline;fill:none;fill-opacity:1;stroke:#ff0000;stroke-width:0.584264;stroke-dasharray:none;stroke-opacity:1;stroke-miterlimit:4"
       id="ellipse299208-0-4-1-1-3-5-1-7-3"
       cx="575.06586"
       cy="953.19379"
       rx="19.234703"
       ry="21.997894"
       transform="matrix(1.1238606,0,0,0.98484361,74.206767,278.10629)" />
    <ellipse
       style="display:inline;fill:none;fill-opacity:1;stroke:#ff0000;stroke-width:0.584264;stroke-dasharray:none;stroke-opacity:1;stroke-miterlimit:4"
       id="ellipse299208-0-4-1-1-3-5-1-0-7-8"
       cx="480.3295"
       cy="953.19379"
       rx="19.234703"
       ry="21.997894"
       transform="matrix(1.1238606,0,0,0.98484361,74.206767,278.10629)" />
    <ellipse
       style="display:inline;fill:none;fill-opacity:1;stroke:#ff0000;stroke-width:0.584264;stroke-dasharray:none;stroke-opacity:1;stroke-miterlimit:4"
       id="ellipse299208-0-4-1-1-3-5-1-0-3-2-72-6-5"
       cx="527.4397"
       cy="953.19379"
       rx="19.234703"
       ry="21.997894"
       transform="matrix(1.1238606,0,0,0.98484361,74.206767,278.10629)" />
    <ellipse
       style="display:inline;fill:none;fill-opacity:1;stroke:#ff0000;stroke-width:0.584264;stroke-dasharray:none;stroke-opacity:1;stroke-miterlimit:4"
       id="ellipse299208-0-4-1-1-3-5-1-0-6-5-3-6"
       cx="477.73608"
       cy="723.16119"
       rx="19.234703"
       ry="21.997894"
       transform="matrix(1.1238606,0,0,0.98484361,74.206767,278.10629)" />
    <ellipse
       style="display:inline;fill:none;fill-opacity:1;stroke:#ff0000;stroke-width:0.584264;stroke-dasharray:none;stroke-opacity:1;stroke-miterlimit:4"
       id="ellipse299208-0-4-1-1-3-5-1-0-54-9-1"
       cx="478.2662"
       cy="876.51624"
       rx="19.234703"
       ry="21.997894"
       transform="matrix(1.1238606,0,0,0.98484361,74.206767,278.10629)" />
    <ellipse
       style="display:inline;fill:none;fill-opacity:1;stroke:#ff0000;stroke-width:0.584264;stroke-dasharray:none;stroke-opacity:1;stroke-miterlimit:4"
       id="ellipse299208-0-4-1-1-3-5-1"
       cx="265.59097"
       cy="644.30756"
       rx="19.234703"
       ry="21.997894"
       transform="matrix(1.1238606,0,0,0.98484361,74.206767,278.10629)" />
    <ellipse
       style="display:inline;fill:none;fill-opacity:1;stroke:#ff0000;stroke-width:0.584264;stroke-dasharray:none;stroke-opacity:1;stroke-miterlimit:4"
       id="ellipse299208-0-4-1-1-3-5-1-0"
       cx="170.3405"
       cy="644.30756"
       rx="19.234703"
       ry="21.997894"
       transform="matrix(1.1238606,0,0,0.98484361,74.206767,278.10629)" />
    <ellipse
       style="display:inline;fill:none;fill-opacity:1;stroke:#ff0000;stroke-width:0.584264;stroke-dasharray:none;stroke-opacity:1;stroke-miterlimit:4"
       id="ellipse299208-0-4-1-1-3-5-1-0-3-2-72"
       cx="217.96573"
       cy="644.30756"
       rx="19.234703"
       ry="21.997894"
       transform="matrix(1.1238606,0,0,0.98484361,74.206767,278.10629)" />
    <ellipse
       style="display:inline;fill:none;fill-opacity:1;stroke:#ff0000;stroke-width:0.584264;stroke-dasharray:none;stroke-opacity:1;stroke-miterlimit:4"
       id="ellipse299208-0-4-1-1-3-5-1-73"
       cx="259.87396"
       cy="799.0423"
       rx="19.234703"
       ry="21.997894"
       transform="matrix(1.1238606,0,0,0.98484361,74.206767,278.10629)" />
    <ellipse
       style="display:inline;fill:none;fill-opacity:1;stroke:#ff0000;stroke-width:0.584264;stroke-dasharray:none;stroke-opacity:1;stroke-miterlimit:4"
       id="ellipse299208-0-4-1-1-3-5-1-0-65"
       cx="164.62355"
       cy="797.6626"
       rx="19.234703"
       ry="21.997894"
       transform="matrix(1.1238606,0,0,0.98484361,74.206767,278.10629)" />
    <ellipse
       style="display:inline;fill:none;fill-opacity:1;stroke:#ff0000;stroke-width:0.584264;stroke-dasharray:none;stroke-opacity:1;stroke-miterlimit:4"
       id="ellipse299208-0-4-1-1-3-5-1-0-3-2-72-63"
       cx="212.24878"
       cy="799.0423"
       rx="19.234703"
       ry="21.997894"
       transform="matrix(1.1238606,0,0,0.98484361,74.206767,278.10629)" />
    <ellipse
       style="display:inline;fill:none;fill-opacity:1;stroke:#ff0000;stroke-width:0.584264;stroke-dasharray:none;stroke-opacity:1;stroke-miterlimit:4"
       id="ellipse299208-0-4-1-1-3-5-1-7"
       cx="262.21698"
       cy="951.0177"
       rx="19.234703"
       ry="21.997894"
       transform="matrix(1.1238606,0,0,0.98484361,74.206767,278.10629)" />
    <ellipse
       style="display:inline;fill:none;fill-opacity:1;stroke:#ff0000;stroke-width:0.584264;stroke-dasharray:none;stroke-opacity:1;stroke-miterlimit:4"
       id="ellipse299208-0-4-1-1-3-5-1-0-7"
       cx="167.48203"
       cy="951.0177"
       rx="19.234703"
       ry="21.997894"
       transform="matrix(1.1238606,0,0,0.98484361,74.206767,278.10629)" />
    <ellipse
       style="display:inline;fill:none;fill-opacity:1;stroke:#ff0000;stroke-width:0.584264;stroke-dasharray:none;stroke-opacity:1;stroke-miterlimit:4"
       id="ellipse299208-0-4-1-1-3-5-1-0-3-2-72-6"
       cx="214.59184"
       cy="951.0177"
       rx="19.234703"
       ry="21.997894"
       transform="matrix(1.1238606,0,0,0.98484361,74.206767,278.10629)" />
    <ellipse
       style="display:inline;fill:none;fill-opacity:1;stroke:#ff0000;stroke-width:0.584264;stroke-dasharray:none;stroke-opacity:1;stroke-miterlimit:4"
       id="ellipse299208-0-4-1-1-3-5-1-0-6-5-3"
       cx="164.88861"
       cy="720.98511"
       rx="19.234703"
       ry="21.997894"
       transform="matrix(1.1238606,0,0,0.98484361,74.206767,278.10629)" />
    <ellipse
       style="display:inline;fill:none;fill-opacity:1;stroke:#ff0000;stroke-width:0.584264;stroke-dasharray:none;stroke-opacity:1;stroke-miterlimit:4"
       id="ellipse299208-0-4-1-1-3-5-1-0-54-9"
       cx="165.41875"
       cy="874.34015"
       rx="19.234703"
       ry="21.997894"
       transform="matrix(1.1238606,0,0,0.98484361,74.206767,278.10629)" />
    <ellipse
       style="display:inline;fill:none;fill-opacity:1;stroke:#ff0000;stroke-width:0.584264;stroke-dasharray:none;stroke-opacity:1;stroke-miterlimit:4"
       id="ellipse299208-0-4-1-1-3-5-1-0-3-2-5"
       cx="1129.3838"
       cy="898.4093"
       rx="19.234703"
       ry="21.997894"
       transform="matrix(1.1238606,0,0,0.98484361,74.206767,278.10629)" />
    <ellipse
       style="display:inline;fill:none;fill-opacity:1;stroke:#ff0000;stroke-width:0.584264;stroke-dasharray:none;stroke-opacity:1;stroke-miterlimit:4"
       id="ellipse299208-0-4-1-1-3-5-1-0-6-98"
       cx="1129.3838"
       cy="638.30634"
       rx="19.234703"
       ry="21.997894"
       transform="matrix(1.1238606,0,0,0.98484361,74.206767,278.10629)" />
    <ellipse
       style="display:inline;fill:none;fill-opacity:1;stroke:#ff0000;stroke-width:0.584264;stroke-dasharray:none;stroke-opacity:1;stroke-miterlimit:4"
       id="ellipse299208-0-4-1-1-3-5-1-0-54-4"
       cx="1129.3838"
       cy="833.38354"
       rx="19.234703"
       ry="21.997894"
       transform="matrix(1.1238606,0,0,0.98484361,74.206767,278.10629)" />
    <ellipse
       style="display:inline;fill:none;fill-opacity:1;stroke:#ff0000;stroke-width:0.584264;stroke-dasharray:none;stroke-opacity:1;stroke-miterlimit:4"
       id="ellipse299208-0-4-1-1-3-5-1-0-6-5-8"
       cx="1129.3838"
       cy="703.33209"
       rx="19.234703"
       ry="21.997894"
       transform="matrix(1.1238606,0,0,0.98484361,74.206767,278.10629)" />
    <ellipse
       style="display:inline;fill:none;fill-opacity:1;stroke:#ff0000;stroke-width:0.584264;stroke-dasharray:none;stroke-opacity:1;stroke-miterlimit:4"
       id="ellipse299208-0-4-1-1-3-5-1-0-6-9-1"
       cx="1129.3838"
       cy="768.35785"
       rx="19.234703"
       ry="21.997894"
       transform="matrix(1.1238606,0,0,0.98484361,74.206767,278.10629)" />
    <ellipse
       style="display:inline;fill:none;fill-opacity:1;stroke:#ff0000;stroke-width:0.584264;stroke-dasharray:none;stroke-opacity:1;stroke-miterlimit:4"
       id="ellipse299208-0-4-1-1-3-5-1-0-4-3"
       cx="1129.3838"
       cy="963.43506"
       rx="19.234703"
       ry="21.997894"
       transform="matrix(1.1238606,0,0,0.98484361,74.206767,278.10629)" />
    <ellipse
       style="display:inline;fill:none;fill-opacity:1;stroke:#ff0000;stroke-width:0.584264;stroke-dasharray:none;stroke-opacity:1;stroke-miterlimit:4"
       id="ellipse299208-0-4-1-1-3-5-1-0-3-2"
       cx="330.05594"
       cy="889.27612"
       rx="19.234703"
       ry="21.997894"
       transform="matrix(1.1238606,0,0,0.98484361,74.206767,278.10629)" />
    <ellipse
       style="display:inline;fill:none;fill-opacity:1;stroke:#ff0000;stroke-width:0.584264;stroke-dasharray:none;stroke-opacity:1;stroke-miterlimit:4"
       id="ellipse299208-0-4-1-1-3-5-1-0-6"
       cx="330.05594"
       cy="629.17316"
       rx="19.234703"
       ry="21.997894"
       transform="matrix(1.1238606,0,0,0.98484361,74.206767,278.10629)" />
    <ellipse
       style="display:inline;fill:none;fill-opacity:1;stroke:#ff0000;stroke-width:0.584264;stroke-dasharray:none;stroke-opacity:1;stroke-miterlimit:4"
       id="ellipse299208-0-4-1-1-3-5-1-0-54"
       cx="330.05594"
       cy="824.25037"
       rx="19.234703"
       ry="21.997894"
       transform="matrix(1.1238606,0,0,0.98484361,74.206767,278.10629)" />
    <ellipse
       style="display:inline;fill:none;fill-opacity:1;stroke:#ff0000;stroke-width:0.584264;stroke-dasharray:none;stroke-opacity:1;stroke-miterlimit:4"
       id="ellipse299208-0-4-1-1-3-5-1-0-6-5"
       cx="330.05594"
       cy="694.19891"
       rx="19.234703"
       ry="21.997894"
       transform="matrix(1.1238606,0,0,0.98484361,74.206767,278.10629)" />
    <ellipse
       style="display:inline;fill:none;fill-opacity:1;stroke:#ff0000;stroke-width:0.584264;stroke-dasharray:none;stroke-opacity:1;stroke-miterlimit:4"
       id="ellipse299208-0-4-1-1-3-5-1-0-6-9"
       cx="330.05594"
       cy="759.22467"
       rx="19.234703"
       ry="21.997894"
       transform="matrix(1.1238606,0,0,0.98484361,74.206767,278.10629)" />
    <ellipse
       style="display:inline;fill:none;fill-opacity:1;stroke:#ff0000;stroke-width:0.584264;stroke-dasharray:none;stroke-opacity:1;stroke-miterlimit:4"
       id="ellipse299208-0-4-1-1-3-5-1-9"
       cx="424.07892"
       cy="954.30188"
       rx="19.234703"
       ry="21.997894"
       transform="matrix(1.1238606,0,0,0.98484361,74.206767,278.10629)" />
    <ellipse
       style="display:inline;fill:none;fill-opacity:1;stroke:#ff0000;stroke-width:0.584264;stroke-dasharray:none;stroke-opacity:1;stroke-miterlimit:4"
       id="ellipse299208-0-4-1-1-3-5-1-0-4"
       cx="330.05594"
       cy="954.30188"
       rx="19.234703"
       ry="21.997894"
       transform="matrix(1.1238606,0,0,0.98484361,74.206767,278.10629)" />
    <ellipse
       style="display:inline;fill:none;fill-opacity:1;stroke:#ff0000;stroke-width:0.584264;stroke-dasharray:none;stroke-opacity:1;stroke-miterlimit:4"
       id="ellipse299208-0-4-1-1-3-5-1-0-3-2-72-8"
       cx="376.45367"
       cy="954.30188"
       rx="19.234703"
       ry="21.997894"
       transform="matrix(1.1238606,0,0,0.98484361,74.206767,278.10629)" />
  </g>
</svg>
