999
"DXF R12 Output" (www.mydxf.blogspot.com)
 0 
SECTION
 2 
HEADER
 9 
$ACADVER
 1 
AC1009
 9 
$EXTMIN
 10 
 0 
 20 
 0 
 9 
$EXTMAX
 10 
 8.5 
 20 
 11 
 0 
ENDSEC
 0 
SECTION
 2 
ENTITIES
0
LINE
8
Sign
10
-0.057933
20
766.267000
11
-2.010233
21
763.527111
0
LINE
8
Sign
10
-2.010233
20
763.527111
11
-3.695783
21
760.810956
0
LINE
8
Sign
10
-3.695783
20
760.810956
11
-5.122562
21
758.118277
0
LINE
8
Sign
10
-5.122562
20
758.118277
11
-6.298550
21
755.448811
0
LINE
8
Sign
10
-6.298550
20
755.448811
11
-7.231729
21
752.802299
0
LINE
8
Sign
10
-7.231729
20
752.802299
11
-7.930078
21
750.178481
0
LINE
8
Sign
10
-7.930078
20
750.178481
11
-8.401577
21
747.577095
0
LINE
8
Sign
10
-8.401577
20
747.577095
11
-8.654208
21
744.997881
0
LINE
8
Sign
10
-8.654208
20
744.997881
11
-8.695950
21
742.440579
0
LINE
8
Sign
10
-8.695950
20
742.440579
11
-8.534783
21
739.904928
0
LINE
8
Sign
10
-8.534783
20
739.904928
11
-8.178689
21
737.390667
0
LINE
8
Sign
10
-8.178689
20
737.390667
11
-7.635646
21
734.897537
0
LINE
8
Sign
10
-7.635646
20
734.897537
11
-6.913637
21
732.425277
0
LINE
8
Sign
10
-6.913637
20
732.425277
11
-6.020640
21
729.973626
0
LINE
8
Sign
10
-6.020640
20
729.973626
11
-4.964636
21
727.542324
0
LINE
8
Sign
10
-4.964636
20
727.542324
11
-3.753606
21
725.131109
0
LINE
8
Sign
10
-3.753606
20
725.131109
11
-0.898388
21
720.367904
0
LINE
8
Sign
10
-0.898388
20
720.367904
11
2.481172
21
715.681926
0
LINE
8
Sign
10
2.481172
20
715.681926
11
6.321232
21
711.071090
0
LINE
8
Sign
10
6.321232
20
711.071090
11
10.557949
21
706.533314
0
LINE
8
Sign
10
10.557949
20
706.533314
11
15.127480
21
702.066514
0
LINE
8
Sign
10
15.127480
20
702.066514
11
19.965983
21
697.668605
0
LINE
8
Sign
10
19.965983
20
697.668605
11
25.009615
21
693.337503
0
LINE
8
Sign
10
25.009615
20
693.337503
11
30.194533
21
689.071125
0
LINE
8
Sign
10
30.194533
20
689.071125
11
40.732861
21
680.724204
0
LINE
8
Sign
10
40.732861
20
680.724204
11
51.070224
21
672.611170
0
LINE
8
Sign
10
51.070224
20
672.611170
11
60.695883
21
664.715352
0
LINE
8
Sign
10
60.695883
20
664.715352
11
65.082218
21
660.843689
0
LINE
8
Sign
10
65.082218
20
660.843689
11
69.099098
21
657.020078
0
LINE
8
Sign
10
69.099098
20
657.020078
11
72.682682
21
653.242436
0
LINE
8
Sign
10
72.682682
20
653.242436
11
75.769127
21
649.508677
0
LINE
8
Sign
10
75.769127
20
649.508677
11
78.294591
21
645.816720
0
LINE
8
Sign
10
78.294591
20
645.816720
11
80.195231
21
642.164479
0
LINE
8
Sign
10
80.195231
20
642.164479
11
80.891291
21
640.352600
0
LINE
8
Sign
10
80.891291
20
640.352600
11
81.407204
21
638.549870
0
LINE
8
Sign
10
81.407204
20
638.549870
11
81.734990
21
636.756026
0
LINE
8
Sign
10
81.734990
20
636.756026
11
81.866669
21
634.970810
0
LINE
8
Sign
10
81.866669
20
634.970810
11
81.794259
21
633.193959
0
LINE
8
Sign
10
81.794259
20
633.193959
11
81.509781
21
631.425215
0
LINE
8
Sign
10
81.509781
20
631.425215
11
81.005255
21
629.664315
0
LINE
8
Sign
10
81.005255
20
629.664315
11
80.272700
21
627.911000
0
LINE
8
Sign
10
80.272700
20
627.911000
11
78.543765
21
624.733846
0
LINE
8
Sign
10
78.543765
20
624.733846
11
76.754536
21
622.173393
0
LINE
8
Sign
10
76.754536
20
622.173393
11
74.906002
21
620.188469
0
LINE
8
Sign
10
74.906002
20
620.188469
11
72.999150
21
618.737901
0
LINE
8
Sign
10
72.999150
20
618.737901
11
71.034970
21
617.780516
0
LINE
8
Sign
10
71.034970
20
617.780516
11
69.014448
21
617.275143
0
LINE
8
Sign
10
69.014448
20
617.275143
11
66.938573
21
617.180609
0
LINE
8
Sign
10
66.938573
20
617.180609
11
64.808333
21
617.455742
0
LINE
8
Sign
10
64.808333
20
617.455742
11
62.624716
21
618.059370
0
LINE
8
Sign
10
62.624716
20
618.059370
11
60.388710
21
618.950320
0
LINE
8
Sign
10
60.388710
20
618.950320
11
58.101303
21
620.087420
0
LINE
8
Sign
10
58.101303
20
620.087420
11
55.763483
21
621.429497
0
LINE
8
Sign
10
55.763483
20
621.429497
11
50.940558
21
624.563896
0
LINE
8
Sign
10
50.940558
20
624.563896
11
45.927837
21
628.024137
0
LINE
8
Sign
10
45.927837
20
628.024137
11
40.733227
21
631.480844
0
LINE
8
Sign
10
40.733227
20
631.480844
11
35.364631
21
634.604636
0
LINE
8
Sign
10
35.364631
20
634.604636
11
32.617558
21
635.938758
0
LINE
8
Sign
10
32.617558
20
635.938758
11
29.829953
21
637.066135
0
LINE
8
Sign
10
29.829953
20
637.066135
11
27.002804
21
637.945595
0
LINE
8
Sign
10
27.002804
20
637.945595
11
24.137098
21
638.535964
0
LINE
8
Sign
10
24.137098
20
638.535964
11
21.233825
21
638.796071
0
LINE
8
Sign
10
21.233825
20
638.796071
11
18.293971
21
638.684743
0
LINE
8
Sign
10
18.293971
20
638.684743
11
15.318526
21
638.160809
0
LINE
8
Sign
10
15.318526
20
638.160809
11
12.308476
21
637.183095
0
LINE
8
Sign
10
12.308476
20
637.183095
11
9.264811
21
635.710429
0
LINE
8
Sign
10
9.264811
20
635.710429
11
6.188518
21
633.701640
0
LINE
8
Sign
10
6.188518
20
633.701640
11
3.080585
21
631.115554
0
LINE
8
Sign
10
3.080585
20
631.115554
11
-0.058000
21
627.911000
0
LINE
8
Sign
10
-0.058000
20
627.911000
11
-3.017562
21
624.159432
0
LINE
8
Sign
10
-3.017562
20
624.159432
11
-5.601405
21
619.973980
0
LINE
8
Sign
10
-5.601405
20
619.973980
11
-7.828005
21
615.375982
0
LINE
8
Sign
10
-7.828005
20
615.375982
11
-9.715843
21
610.386776
0
LINE
8
Sign
10
-9.715843
20
610.386776
11
-11.283394
21
605.027701
0
LINE
8
Sign
10
-11.283394
20
605.027701
11
-12.549138
21
599.320096
0
LINE
8
Sign
10
-12.549138
20
599.320096
11
-13.531553
21
593.285298
0
LINE
8
Sign
10
-13.531553
20
593.285298
11
-14.249116
21
586.944647
0
LINE
8
Sign
10
-14.249116
20
586.944647
11
-14.720305
21
580.319480
0
LINE
8
Sign
10
-14.720305
20
580.319480
11
-14.963599
21
573.431137
0
LINE
8
Sign
10
-14.963599
20
573.431137
11
-14.997475
21
566.300956
0
LINE
8
Sign
10
-14.997475
20
566.300956
11
-14.840412
21
558.950275
0
LINE
8
Sign
10
-14.840412
20
558.950275
11
-14.510888
21
551.400433
0
LINE
8
Sign
10
-14.510888
20
551.400433
11
-14.027379
21
543.672769
0
LINE
8
Sign
10
-14.027379
20
543.672769
11
-12.672325
21
527.769325
0
LINE
8
Sign
10
-12.672325
20
527.769325
11
-10.923073
21
511.410652
0
LINE
8
Sign
10
-10.923073
20
511.410652
11
-8.927447
21
494.767459
0
LINE
8
Sign
10
-8.927447
20
494.767459
11
-4.788372
21
461.310341
0
LINE
8
Sign
10
-4.788372
20
461.310341
11
-2.940570
21
444.837832
0
LINE
8
Sign
10
-2.940570
20
444.837832
11
-1.437692
21
428.763633
0
LINE
8
Sign
10
-1.437692
20
428.763633
11
-0.427560
21
413.258453
0
LINE
8
Sign
10
-0.427560
20
413.258453
11
-0.153470
21
405.772592
0
LINE
8
Sign
10
-0.153470
20
405.772592
11
-0.058000
21
398.493000
0
LINE
8
Sign
10
-0.058000
20
398.493000
11
-0.153655
21
391.213602
0
LINE
8
Sign
10
-0.153655
20
391.213602
11
-0.428278
21
383.728312
0
LINE
8
Sign
10
-0.428278
20
383.728312
11
-1.440370
21
368.225254
0
LINE
8
Sign
10
-1.440370
20
368.225254
11
-2.946166
21
352.154219
0
LINE
8
Sign
10
-2.946166
20
352.154219
11
-4.797555
21
335.685598
0
LINE
8
Sign
10
-4.797555
20
335.685598
11
-8.944665
21
302.237165
0
LINE
8
Sign
10
-8.944665
20
302.237165
11
-10.944165
21
285.598136
0
LINE
8
Sign
10
-10.944165
20
285.598136
11
-12.696813
21
269.243087
0
LINE
8
Sign
10
-12.696813
20
269.243087
11
-14.054497
21
253.342411
0
LINE
8
Sign
10
-14.054497
20
253.342411
11
-14.538944
21
245.615710
0
LINE
8
Sign
10
-14.538944
20
245.615710
11
-14.869108
21
238.066499
0
LINE
8
Sign
10
-14.869108
20
238.066499
11
-15.026476
21
230.716077
0
LINE
8
Sign
10
-15.026476
20
230.716077
11
-14.992534
21
223.585742
0
LINE
8
Sign
10
-14.992534
20
223.585742
11
-14.748768
21
216.696795
0
LINE
8
Sign
10
-14.748768
20
216.696795
11
-14.276664
21
210.070533
0
LINE
8
Sign
10
-14.276664
20
210.070533
11
-13.557708
21
203.728256
0
LINE
8
Sign
10
-13.557708
20
203.728256
11
-12.573387
21
197.691262
0
LINE
8
Sign
10
-12.573387
20
197.691262
11
-11.305185
21
191.980851
0
LINE
8
Sign
10
-11.305185
20
191.980851
11
-9.734591
21
186.618322
0
LINE
8
Sign
10
-9.734591
20
186.618322
11
-7.843089
21
181.624973
0
LINE
8
Sign
10
-7.843089
20
181.624973
11
-5.612166
21
177.022104
0
LINE
8
Sign
10
-5.612166
20
177.022104
11
-3.023307
21
172.831013
0
LINE
8
Sign
10
-3.023307
20
172.831013
11
-0.058000
21
169.073000
0
LINE
8
Sign
10
-0.058000
20
169.073000
11
3.087555
21
165.862758
0
LINE
8
Sign
10
3.087555
20
165.862758
11
6.204091
21
163.273192
0
LINE
8
Sign
10
6.204091
20
163.273192
11
9.290522
21
161.262946
0
LINE
8
Sign
10
9.290522
20
161.262946
11
12.345765
21
159.790664
0
LINE
8
Sign
10
12.345765
20
159.790664
11
15.368734
21
158.814988
0
LINE
8
Sign
10
15.368734
20
158.814988
11
18.358344
21
158.294564
0
LINE
8
Sign
10
18.358344
20
158.294564
11
21.313511
21
158.188033
0
LINE
8
Sign
10
21.313511
20
158.188033
11
24.233150
21
158.454041
0
LINE
8
Sign
10
24.233150
20
158.454041
11
27.116176
21
159.051230
0
LINE
8
Sign
10
27.116176
20
159.051230
11
29.961504
21
159.938244
0
LINE
8
Sign
10
29.961504
20
159.938244
11
32.768050
21
161.073727
0
LINE
8
Sign
10
32.768050
20
161.073727
11
35.534729
21
162.416322
0
LINE
8
Sign
10
35.534729
20
162.416322
11
40.944145
21
165.557425
0
LINE
8
Sign
10
40.944145
20
165.557425
11
46.181075
21
169.030700
0
LINE
8
Sign
10
46.181075
20
169.030700
11
51.236840
21
172.505297
0
LINE
8
Sign
10
51.236840
20
172.505297
11
56.102762
21
175.650365
0
LINE
8
Sign
10
56.102762
20
175.650365
11
58.461819
21
176.995935
0
LINE
8
Sign
10
58.461819
20
176.995935
11
60.770162
21
178.135053
0
LINE
8
Sign
10
60.770162
20
178.135053
11
63.026705
21
179.026363
0
LINE
8
Sign
10
63.026705
20
179.026363
11
65.230363
21
179.628509
0
LINE
8
Sign
10
65.230363
20
179.628509
11
67.380051
21
179.900135
0
LINE
8
Sign
10
67.380051
20
179.900135
11
69.474685
21
179.799883
0
LINE
8
Sign
10
69.474685
20
179.799883
11
71.513180
21
179.286398
0
LINE
8
Sign
10
71.513180
20
179.286398
11
73.494451
21
178.318324
0
LINE
8
Sign
10
73.494451
20
178.318324
11
75.417413
21
176.854303
0
LINE
8
Sign
10
75.417413
20
176.854303
11
77.280982
21
174.852980
0
LINE
8
Sign
10
77.280982
20
174.852980
11
79.084072
21
172.272998
0
LINE
8
Sign
10
79.084072
20
172.272998
11
80.825600
21
169.073000
0
LINE
8
Sign
10
80.825600
20
169.073000
11
81.563234
21
167.307228
0
LINE
8
Sign
10
81.563234
20
167.307228
11
82.071124
21
165.533554
0
LINE
8
Sign
10
82.071124
20
165.533554
11
82.357311
21
163.751729
0
LINE
8
Sign
10
82.357311
20
163.751729
11
82.429837
21
161.961503
0
LINE
8
Sign
10
82.429837
20
161.961503
11
82.296743
21
160.162627
0
LINE
8
Sign
10
82.296743
20
160.162627
11
81.966073
21
158.354851
0
LINE
8
Sign
10
81.966073
20
158.354851
11
81.445866
21
156.537925
0
LINE
8
Sign
10
81.445866
20
156.537925
11
80.744166
21
154.711601
0
LINE
8
Sign
10
80.744166
20
154.711601
11
78.828453
21
151.029756
0
LINE
8
Sign
10
78.828453
20
151.029756
11
76.283267
21
147.307321
0
LINE
8
Sign
10
76.283267
20
147.307321
11
73.172943
21
143.542299
0
LINE
8
Sign
10
73.172943
20
143.542299
11
69.561817
21
139.732692
0
LINE
8
Sign
10
69.561817
20
139.732692
11
65.514223
21
135.876505
0
LINE
8
Sign
10
65.514223
20
135.876505
11
61.094496
21
131.971742
0
LINE
8
Sign
10
61.094496
20
131.971742
11
51.395981
21
124.008497
0
LINE
8
Sign
10
51.395981
20
124.008497
11
40.980952
21
115.826986
0
LINE
8
Sign
10
40.980952
20
115.826986
11
30.364088
21
107.411237
0
LINE
8
Sign
10
30.364088
20
107.411237
11
25.140804
21
103.110532
0
LINE
8
Sign
10
25.140804
20
103.110532
11
20.060065
21
98.745278
0
LINE
8
Sign
10
20.060065
20
98.745278
11
15.186207
21
94.313478
0
LINE
8
Sign
10
15.186207
20
94.313478
11
10.583564
21
89.813136
0
LINE
8
Sign
10
10.583564
20
89.813136
11
6.316471
21
85.242255
0
LINE
8
Sign
10
6.316471
20
85.242255
11
2.449262
21
80.598839
0
LINE
8
Sign
10
2.449262
20
80.598839
11
-0.953726
21
75.880890
0
LINE
8
Sign
10
-0.953726
20
75.880890
11
-3.828161
21
71.086414
0
LINE
8
Sign
10
-3.828161
20
71.086414
11
-5.047066
21
68.659854
0
LINE
8
Sign
10
-5.047066
20
68.659854
11
-6.109706
21
66.213413
0
LINE
8
Sign
10
-6.109706
20
66.213413
11
-7.008041
21
63.746841
0
LINE
8
Sign
10
-7.008041
20
63.746841
11
-7.734027
21
61.259890
0
LINE
8
Sign
10
-7.734027
20
61.259890
11
-8.279624
21
58.752309
0
LINE
8
Sign
10
-8.279624
20
58.752309
11
-8.636790
21
56.223850
0
LINE
8
Sign
10
-8.636790
20
56.223850
11
-8.797482
21
53.674261
0
LINE
8
Sign
10
-8.797482
20
53.674261
11
-8.753658
21
51.103295
0
LINE
8
Sign
10
-8.753658
20
51.103295
11
-8.497278
21
48.510700
0
LINE
8
Sign
10
-8.497278
20
48.510700
11
-8.020299
21
45.896229
0
LINE
8
Sign
10
-8.020299
20
45.896229
11
-7.314678
21
43.259630
0
LINE
8
Sign
10
-7.314678
20
43.259630
11
-6.372375
21
40.600655
0
LINE
8
Sign
10
-6.372375
20
40.600655
11
-5.185348
21
37.919054
0
LINE
8
Sign
10
-5.185348
20
37.919054
11
-3.745554
21
35.214578
0
LINE
8
Sign
10
-3.745554
20
35.214578
11
-2.044952
21
32.486976
0
LINE
8
Sign
10
-2.044952
20
32.486976
11
-0.075500
21
29.736000
0
LINE
8
Sign
10
-0.075500
20
29.736000
11
2.142635
21
27.146677
0
LINE
8
Sign
10
2.142635
20
27.146677
11
4.578514
21
24.897835
0
LINE
8
Sign
10
4.578514
20
24.897835
11
7.224052
21
22.979885
0
LINE
8
Sign
10
7.224052
20
22.979885
11
10.071162
21
21.383234
0
LINE
8
Sign
10
10.071162
20
21.383234
11
13.111760
21
20.098294
0
LINE
8
Sign
10
13.111760
20
20.098294
11
16.337759
21
19.115471
0
LINE
8
Sign
10
16.337759
20
19.115471
11
19.741074
21
18.425177
0
LINE
8
Sign
10
19.741074
20
18.425177
11
23.313619
21
18.017820
0
LINE
8
Sign
10
23.313619
20
18.017820
11
27.047307
21
17.883809
0
LINE
8
Sign
10
27.047307
20
17.883809
11
30.934053
21
18.013554
0
LINE
8
Sign
10
30.934053
20
18.013554
11
34.965772
21
18.397463
0
LINE
8
Sign
10
34.965772
20
18.397463
11
39.134377
21
19.025947
0
LINE
8
Sign
10
39.134377
20
19.025947
11
43.431784
21
19.889414
0
LINE
8
Sign
10
43.431784
20
19.889414
11
47.849905
21
20.978274
0
LINE
8
Sign
10
47.849905
20
20.978274
11
52.380655
21
22.282935
0
LINE
8
Sign
10
52.380655
20
22.282935
11
57.015948
21
23.793808
0
LINE
8
Sign
10
57.015948
20
23.793808
11
66.567823
21
27.395823
0
LINE
8
Sign
10
66.567823
20
27.395823
11
76.440841
21
31.707593
0
LINE
8
Sign
10
76.440841
20
31.707593
11
86.570316
21
36.652393
0
LINE
8
Sign
10
86.570316
20
36.652393
11
96.891563
21
42.153495
0
LINE
8
Sign
10
96.891563
20
42.153495
11
107.339895
21
48.134174
0
LINE
8
Sign
10
107.339895
20
48.134174
11
117.850626
21
54.517704
0
LINE
8
Sign
10
117.850626
20
54.517704
11
128.359069
21
61.227359
0
LINE
8
Sign
10
128.359069
20
61.227359
11
138.800537
21
68.186412
0
LINE
8
Sign
10
138.800537
20
68.186412
11
149.110346
21
75.318138
0
LINE
8
Sign
10
149.110346
20
75.318138
11
159.223807
21
82.545811
0
LINE
8
Sign
10
159.223807
20
82.545811
11
169.076236
21
89.792704
0
LINE
8
Sign
10
169.076236
20
89.792704
11
178.602944
21
96.982091
0
LINE
8
Sign
10
178.602944
20
96.982091
11
196.420458
21
110.881444
0
LINE
8
Sign
10
196.420458
20
110.881444
11
212.158858
21
123.630061
0
LINE
8
Sign
10
212.158858
20
123.630061
11
225.300653
21
134.614134
0
LINE
8
Sign
10
225.300653
20
134.614134
11
235.328352
21
143.219854
0
LINE
8
Sign
10
235.328352
20
143.219854
11
243.971500
21
150.841000
0
LINE
8
Sign
10
243.971500
20
150.841000
11
246.277386
21
147.255072
0
LINE
8
Sign
10
246.277386
20
147.255072
11
248.977181
21
143.357054
0
LINE
8
Sign
10
248.977181
20
143.357054
11
252.071036
21
139.180872
0
LINE
8
Sign
10
252.071036
20
139.180872
11
255.559100
21
134.760450
0
LINE
8
Sign
10
255.559100
20
134.760450
11
259.441523
21
130.129714
0
LINE
8
Sign
10
259.441523
20
130.129714
11
263.718456
21
125.322590
0
LINE
8
Sign
10
263.718456
20
125.322590
11
268.390048
21
120.373002
0
LINE
8
Sign
10
268.390048
20
120.373002
11
273.456450
21
115.314875
0
LINE
8
Sign
10
273.456450
20
115.314875
11
278.917811
21
110.182135
0
LINE
8
Sign
10
278.917811
20
110.182135
11
284.774281
21
105.008707
0
LINE
8
Sign
10
284.774281
20
105.008707
11
291.026011
21
99.828516
0
LINE
8
Sign
10
291.026011
20
99.828516
11
297.673150
21
94.675487
0
LINE
8
Sign
10
297.673150
20
94.675487
11
304.715848
21
89.583546
0
LINE
8
Sign
10
304.715848
20
89.583546
11
312.154256
21
84.586618
0
LINE
8
Sign
10
312.154256
20
84.586618
11
319.988523
21
79.718627
0
LINE
8
Sign
10
319.988523
20
79.718627
11
328.218800
21
75.013500
0
LINE
8
Sign
10
328.218800
20
75.013500
11
331.473336
21
72.496330
0
LINE
8
Sign
10
331.473336
20
72.496330
11
335.190660
21
70.305410
0
LINE
8
Sign
10
335.190660
20
70.305410
11
344.596431
21
65.742964
0
LINE
8
Sign
10
344.596431
20
65.742964
11
354.411356
21
61.413457
0
LINE
8
Sign
10
354.411356
20
61.413457
11
364.618826
21
57.325334
0
LINE
8
Sign
10
364.618826
20
57.325334
11
375.202230
21
53.487040
0
LINE
8
Sign
10
375.202230
20
53.487040
11
386.144957
21
49.907019
0
LINE
8
Sign
10
386.144957
20
49.907019
11
397.430397
21
46.593716
0
LINE
8
Sign
10
397.430397
20
46.593716
11
409.041939
21
43.555578
0
LINE
8
Sign
10
409.041939
20
43.555578
11
420.962972
21
40.801047
0
LINE
8
Sign
10
420.962972
20
40.801047
11
433.176887
21
38.338571
0
LINE
8
Sign
10
433.176887
20
38.338571
11
445.667071
21
36.176593
0
LINE
8
Sign
10
445.667071
20
36.176593
11
458.416915
21
34.323558
0
LINE
8
Sign
10
458.416915
20
34.323558
11
471.409808
21
32.787912
0
LINE
8
Sign
10
471.409808
20
32.787912
11
484.629140
21
31.578099
0
LINE
8
Sign
10
484.629140
20
31.578099
11
498.058300
21
30.702564
0
LINE
8
Sign
10
498.058300
20
30.702564
11
511.680676
21
30.169753
0
LINE
8
Sign
10
511.680676
20
30.169753
11
525.479660
21
29.988110
0
LINE
8
Sign
10
525.479660
20
29.988110
11
539.283067
21
30.166648
0
LINE
8
Sign
10
539.283067
20
30.166648
11
552.909969
21
30.696628
0
LINE
8
Sign
10
552.909969
20
30.696628
11
566.343740
21
31.569596
0
LINE
8
Sign
10
566.343740
20
31.569596
11
579.567755
21
32.777099
0
LINE
8
Sign
10
579.567755
20
32.777099
11
592.565391
21
34.310684
0
LINE
8
Sign
10
592.565391
20
34.310684
11
605.320022
21
36.161897
0
LINE
8
Sign
10
605.320022
20
36.161897
11
617.815024
21
38.322286
0
LINE
8
Sign
10
617.815024
20
38.322286
11
630.033772
21
40.783397
0
LINE
8
Sign
10
630.033772
20
40.783397
11
641.959642
21
43.536778
0
LINE
8
Sign
10
641.959642
20
43.536778
11
653.576009
21
46.573974
0
LINE
8
Sign
10
653.576009
20
46.573974
11
664.866247
21
49.886533
0
LINE
8
Sign
10
664.866247
20
49.886533
11
675.813733
21
53.466002
0
LINE
8
Sign
10
675.813733
20
53.466002
11
686.401842
21
57.303927
0
LINE
8
Sign
10
686.401842
20
57.303927
11
696.613950
21
61.391856
0
LINE
8
Sign
10
696.613950
20
61.391856
11
706.433430
21
65.721334
0
LINE
8
Sign
10
706.433430
20
65.721334
11
715.843660
21
70.283910
0
LINE
8
Sign
10
715.843660
20
70.283910
11
719.531344
21
72.453589
0
LINE
8
Sign
10
719.531344
20
72.453589
11
722.764430
21
74.943720
0
LINE
8
Sign
10
722.764430
20
74.943720
11
731.055526
21
79.750642
0
LINE
8
Sign
10
731.055526
20
79.750642
11
739.029233
21
84.894628
0
LINE
8
Sign
10
739.029233
20
84.894628
11
746.662802
21
90.301609
0
LINE
8
Sign
10
746.662802
20
90.301609
11
753.933482
21
95.897515
0
LINE
8
Sign
10
753.933482
20
95.897515
11
760.818521
21
101.608278
0
LINE
8
Sign
10
760.818521
20
101.608278
11
767.295170
21
107.359827
0
LINE
8
Sign
10
767.295170
20
107.359827
11
773.340677
21
113.078093
0
LINE
8
Sign
10
773.340677
20
113.078093
11
778.932292
21
118.689007
0
LINE
8
Sign
10
778.932292
20
118.689007
11
784.047265
21
124.118500
0
LINE
8
Sign
10
784.047265
20
124.118500
11
788.662845
21
129.292502
0
LINE
8
Sign
10
788.662845
20
129.292502
11
792.756281
21
134.136944
0
LINE
8
Sign
10
792.756281
20
134.136944
11
796.304822
21
138.577756
0
LINE
8
Sign
10
796.304822
20
138.577756
11
799.285718
21
142.540869
0
LINE
8
Sign
10
799.285718
20
142.540869
11
801.676219
21
145.952214
0
LINE
8
Sign
10
801.676219
20
145.952214
11
803.453573
21
148.737720
0
LINE
8
Sign
10
803.453573
20
148.737720
11
804.595030
21
150.823320
0
LINE
8
Sign
10
804.595030
20
150.823320
11
804.928150
21
151.109654
0
LINE
8
Sign
10
804.928150
20
151.109654
11
805.514744
21
151.119869
0
LINE
8
Sign
10
805.514744
20
151.119869
11
806.347582
21
150.863980
0
LINE
8
Sign
10
806.347582
20
150.863980
11
807.419438
21
150.352000
0
LINE
8
Sign
10
807.419438
20
150.352000
11
810.251290
21
148.599828
0
LINE
8
Sign
10
810.251290
20
148.599828
11
813.952474
21
145.943470
0
LINE
8
Sign
10
813.952474
20
145.943470
11
823.731542
21
138.238656
0
LINE
8
Sign
10
823.731542
20
138.238656
11
836.294048
21
127.878486
0
LINE
8
Sign
10
836.294048
20
127.878486
11
851.177399
21
115.503889
0
LINE
8
Sign
10
851.177399
20
115.503889
11
867.918999
21
101.755790
0
LINE
8
Sign
10
867.918999
20
101.755790
11
886.056256
21
87.275119
0
LINE
8
Sign
10
886.056256
20
87.275119
11
895.503694
21
79.960358
0
LINE
8
Sign
10
895.503694
20
79.960358
11
905.126574
21
72.702801
0
LINE
8
Sign
10
905.126574
20
72.702801
11
914.867070
21
65.582565
0
LINE
8
Sign
10
914.867070
20
65.582565
11
924.667359
21
58.679766
0
LINE
8
Sign
10
924.667359
20
58.679766
11
934.469616
21
52.074519
0
LINE
8
Sign
10
934.469616
20
52.074519
11
944.216018
21
45.846940
0
LINE
8
Sign
10
944.216018
20
45.846940
11
953.848739
21
40.077145
0
LINE
8
Sign
10
953.848739
20
40.077145
11
963.309955
21
34.845250
0
LINE
8
Sign
10
963.309955
20
34.845250
11
972.541843
21
30.231372
0
LINE
8
Sign
10
972.541843
20
30.231372
11
981.486578
21
26.315625
0
LINE
8
Sign
10
981.486578
20
26.315625
11
985.833192
21
24.644588
0
LINE
8
Sign
10
985.833192
20
24.644588
11
990.086335
21
23.178127
0
LINE
8
Sign
10
990.086335
20
23.178127
11
994.238777
21
21.926257
0
LINE
8
Sign
10
994.238777
20
21.926257
11
998.283290
21
20.898992
0
LINE
8
Sign
10
998.283290
20
20.898992
11
1002.212648
21
20.106348
0
LINE
8
Sign
10
1002.212648
20
20.106348
11
1006.019620
21
19.558338
0
LINE
8
Sign
10
1006.019620
20
19.558338
11
1009.696980
21
19.264977
0
LINE
8
Sign
10
1009.696980
20
19.264977
11
1013.237500
21
19.236279
0
LINE
8
Sign
10
1013.237500
20
19.236279
11
1016.633950
21
19.482259
0
LINE
8
Sign
10
1016.633950
20
19.482259
11
1019.879105
21
20.012932
0
LINE
8
Sign
10
1019.879105
20
20.012932
11
1022.965734
21
20.838311
0
LINE
8
Sign
10
1022.965734
20
20.838311
11
1025.886611
21
21.968412
0
LINE
8
Sign
10
1025.886611
20
21.968412
11
1028.634507
21
23.413249
0
LINE
8
Sign
10
1028.634507
20
23.413249
11
1031.202194
21
25.182836
0
LINE
8
Sign
10
1031.202194
20
25.182836
11
1033.582444
21
27.287188
0
LINE
8
Sign
10
1033.582444
20
27.287188
11
1035.768030
21
29.736320
0
LINE
8
Sign
10
1035.768030
20
29.736320
11
1037.720084
21
32.354462
0
LINE
8
Sign
10
1037.720084
20
32.354462
11
1039.409783
21
34.959189
0
LINE
8
Sign
10
1039.409783
20
34.959189
11
1040.844970
21
37.550471
0
LINE
8
Sign
10
1040.844970
20
37.550471
11
1042.033484
21
40.128281
0
LINE
8
Sign
10
1042.033484
20
40.128281
11
1042.983166
21
42.692590
0
LINE
8
Sign
10
1042.983166
20
42.692590
11
1043.701855
21
45.243371
0
LINE
8
Sign
10
1043.701855
20
45.243371
11
1044.197393
21
47.780594
0
LINE
8
Sign
10
1044.197393
20
47.780594
11
1044.477619
21
50.304232
0
LINE
8
Sign
10
1044.477619
20
50.304232
11
1044.550374
21
52.814257
0
LINE
8
Sign
10
1044.550374
20
52.814257
11
1044.423499
21
55.310639
0
LINE
8
Sign
10
1044.423499
20
55.310639
11
1044.104834
21
57.793352
0
LINE
8
Sign
10
1044.104834
20
57.793352
11
1043.602218
21
60.262365
0
LINE
8
Sign
10
1043.602218
20
60.262365
11
1042.923493
21
62.717652
0
LINE
8
Sign
10
1042.923493
20
62.717652
11
1042.076500
21
65.159184
0
LINE
8
Sign
10
1042.076500
20
65.159184
11
1039.909066
21
70.000870
0
LINE
8
Sign
10
1039.909066
20
70.000870
11
1037.162640
21
74.787196
0
LINE
8
Sign
10
1037.162640
20
74.787196
11
1033.899946
21
79.517937
0
LINE
8
Sign
10
1033.899946
20
79.517937
11
1030.183705
21
84.192866
0
LINE
8
Sign
10
1030.183705
20
84.192866
11
1026.076642
21
88.811757
0
LINE
8
Sign
10
1026.076642
20
88.811757
11
1021.641478
21
93.374385
0
LINE
8
Sign
10
1021.641478
20
93.374385
11
1016.940938
21
97.880522
0
LINE
8
Sign
10
1016.940938
20
97.880522
11
1006.994618
21
106.722420
0
LINE
8
Sign
10
1006.994618
20
106.722420
11
996.739465
21
115.335643
0
LINE
8
Sign
10
996.739465
20
115.335643
11
986.677263
21
123.718382
0
LINE
8
Sign
10
986.677263
20
123.718382
11
977.309797
21
131.868828
0
LINE
8
Sign
10
977.309797
20
131.868828
11
973.043397
21
135.856375
0
LINE
8
Sign
10
973.043397
20
135.856375
11
969.138850
21
139.785170
0
LINE
8
Sign
10
969.138850
20
139.785170
11
965.658879
21
143.654987
0
LINE
8
Sign
10
965.658879
20
143.654987
11
962.666206
21
147.465600
0
LINE
8
Sign
10
962.666206
20
147.465600
11
960.223555
21
151.216782
0
LINE
8
Sign
10
960.223555
20
151.216782
11
958.393649
21
154.908307
0
LINE
8
Sign
10
958.393649
20
154.908307
11
957.728076
21
156.731628
0
LINE
8
Sign
10
957.728076
20
156.731628
11
957.239210
21
158.539950
0
LINE
8
Sign
10
957.239210
20
158.539950
11
956.934892
21
160.333245
0
LINE
8
Sign
10
956.934892
20
160.333245
11
956.822962
21
162.111484
0
LINE
8
Sign
10
956.822962
20
162.111484
11
956.911261
21
163.874639
0
LINE
8
Sign
10
956.911261
20
163.874639
11
957.207628
21
165.622683
0
LINE
8
Sign
10
957.207628
20
165.622683
11
957.719904
21
167.355586
0
LINE
8
Sign
10
957.719904
20
167.355586
11
958.455930
21
169.073320
0
LINE
8
Sign
10
958.455930
20
169.073320
11
960.179662
21
172.177541
0
LINE
8
Sign
10
960.179662
20
172.177541
11
961.948774
21
174.676563
0
LINE
8
Sign
10
961.948774
20
174.676563
11
963.763199
21
176.610877
0
LINE
8
Sign
10
963.763199
20
176.610877
11
965.622868
21
178.020977
0
LINE
8
Sign
10
965.622868
20
178.020977
11
967.527712
21
178.947355
0
LINE
8
Sign
10
967.527712
20
178.947355
11
969.477665
21
179.430505
0
LINE
8
Sign
10
969.477665
20
179.430505
11
971.472656
21
179.510919
0
LINE
8
Sign
10
971.472656
20
179.510919
11
973.512619
21
179.229089
0
LINE
8
Sign
10
973.512619
20
179.229089
11
975.597485
21
178.625508
0
LINE
8
Sign
10
975.597485
20
178.625508
11
977.727185
21
177.740670
0
LINE
8
Sign
10
977.727185
20
177.740670
11
979.901652
21
176.615067
0
LINE
8
Sign
10
979.901652
20
176.615067
11
982.120817
21
175.289191
0
LINE
8
Sign
10
982.120817
20
175.289191
11
986.692968
21
172.198594
0
LINE
8
Sign
10
986.692968
20
172.198594
11
991.443092
21
168.792820
0
LINE
8
Sign
10
991.443092
20
168.792820
11
996.370645
21
165.395812
0
LINE
8
Sign
10
996.370645
20
165.395812
11
1001.475079
21
162.331511
0
LINE
8
Sign
10
1001.475079
20
162.331511
11
1004.093457
21
161.025358
0
LINE
8
Sign
10
1004.093457
20
161.025358
11
1006.755850
21
159.923861
0
LINE
8
Sign
10
1006.755850
20
159.923861
11
1009.462190
21
159.067511
0
LINE
8
Sign
10
1009.462190
20
159.067511
11
1012.212410
21
158.496801
0
LINE
8
Sign
10
1012.212410
20
158.496801
11
1015.006440
21
158.252225
0
LINE
8
Sign
10
1015.006440
20
158.252225
11
1017.844214
21
158.374276
0
LINE
8
Sign
10
1017.844214
20
158.374276
11
1020.725662
21
158.903445
0
LINE
8
Sign
10
1020.725662
20
158.903445
11
1023.650716
21
159.880225
0
LINE
8
Sign
10
1023.650716
20
159.880225
11
1026.619308
21
161.345111
0
LINE
8
Sign
10
1026.619308
20
161.345111
11
1029.631370
21
163.338593
0
LINE
8
Sign
10
1029.631370
20
163.338593
11
1032.686833
21
165.901165
0
LINE
8
Sign
10
1032.686833
20
165.901165
11
1035.785630
21
169.073320
0
LINE
8
Sign
10
1035.785630
20
169.073320
11
1037.297470
21
170.903144
0
LINE
8
Sign
10
1037.297470
20
170.903144
11
1038.714082
21
172.898624
0
LINE
8
Sign
10
1038.714082
20
172.898624
11
1040.037751
21
175.054441
0
LINE
8
Sign
10
1040.037751
20
175.054441
11
1041.270763
21
177.365276
0
LINE
8
Sign
10
1041.270763
20
177.365276
11
1043.473958
21
182.430714
0
LINE
8
Sign
10
1043.473958
20
182.430714
11
1045.341951
21
188.052380
0
LINE
8
Sign
10
1045.341951
20
188.052380
11
1046.893024
21
194.187713
0
LINE
8
Sign
10
1046.893024
20
194.187713
11
1048.145463
21
200.794153
0
LINE
8
Sign
10
1048.145463
20
200.794153
11
1049.117551
21
207.829140
0
LINE
8
Sign
10
1049.117551
20
207.829140
11
1049.827571
21
215.250114
0
LINE
8
Sign
10
1049.827571
20
215.250114
11
1050.293807
21
223.014514
0
LINE
8
Sign
10
1050.293807
20
223.014514
11
1050.534543
21
231.079781
0
LINE
8
Sign
10
1050.534543
20
231.079781
11
1050.568064
21
239.403355
0
LINE
8
Sign
10
1050.568064
20
239.403355
11
1050.412651
21
247.942675
0
LINE
8
Sign
10
1050.412651
20
247.942675
11
1050.086591
21
256.655182
0
LINE
8
Sign
10
1050.086591
20
256.655182
11
1049.608165
21
265.498315
0
LINE
8
Sign
10
1049.608165
20
265.498315
11
1048.267355
21
283.406220
0
LINE
8
Sign
10
1048.267355
20
283.406220
11
1046.536491
21
301.325909
0
LINE
8
Sign
10
1046.536491
20
301.325909
11
1044.561843
21
318.916902
0
LINE
8
Sign
10
1044.561843
20
318.916902
11
1040.466277
21
351.750876
0
LINE
8
Sign
10
1040.466277
20
351.750876
11
1038.637899
21
366.312896
0
LINE
8
Sign
10
1038.637899
20
366.312896
11
1037.150819
21
379.184297
0
LINE
8
Sign
10
1037.150819
20
379.184297
11
1036.151306
21
390.024599
0
LINE
8
Sign
10
1036.151306
20
390.024599
11
1035.880096
21
394.576687
0
LINE
8
Sign
10
1035.880096
20
394.576687
11
1035.785630
21
398.493320
0
LINE
8
Sign
10
1035.785630
20
398.493320
11
1035.879908
21
402.410097
0
LINE
8
Sign
10
1035.879908
20
402.410097
11
1036.150576
21
406.962721
0
LINE
8
Sign
10
1036.150576
20
406.962721
11
1037.148095
21
417.805107
0
LINE
8
Sign
10
1037.148095
20
417.805107
11
1038.632209
21
430.679675
0
LINE
8
Sign
10
1038.632209
20
430.679675
11
1040.456939
21
445.245618
0
LINE
8
Sign
10
1040.456939
20
445.245618
11
1044.544335
21
478.088415
0
LINE
8
Sign
10
1044.544335
20
478.088415
11
1046.515044
21
495.683658
0
LINE
8
Sign
10
1046.515044
20
495.683658
11
1048.242455
21
513.607057
0
LINE
8
Sign
10
1048.242455
20
513.607057
11
1049.580590
21
531.517809
0
LINE
8
Sign
10
1049.580590
20
531.517809
11
1050.058062
21
540.361941
0
LINE
8
Sign
10
1050.058062
20
540.361941
11
1050.383472
21
549.075108
0
LINE
8
Sign
10
1050.383472
20
549.075108
11
1050.538574
21
557.614711
0
LINE
8
Sign
10
1050.538574
20
557.614711
11
1050.505120
21
565.938149
0
LINE
8
Sign
10
1050.505120
20
565.938149
11
1050.264864
21
574.002822
0
LINE
8
Sign
10
1050.264864
20
574.002822
11
1049.799558
21
581.766128
0
LINE
8
Sign
10
1049.799558
20
581.766128
11
1049.090955
21
589.185467
0
LINE
8
Sign
10
1049.090955
20
589.185467
11
1048.120806
21
596.218239
0
LINE
8
Sign
10
1048.120806
20
596.218239
11
1046.870866
21
602.821843
0
LINE
8
Sign
10
1046.870866
20
602.821843
11
1045.322887
21
608.953678
0
LINE
8
Sign
10
1045.322887
20
608.953678
11
1043.458621
21
614.571144
0
LINE
8
Sign
10
1043.458621
20
614.571144
11
1041.259821
21
619.631640
0
LINE
8
Sign
10
1041.259821
20
619.631640
11
1040.029268
21
621.939712
0
LINE
8
Sign
10
1040.029268
20
621.939712
11
1038.708240
21
624.092566
0
LINE
8
Sign
10
1038.708240
20
624.092566
11
1037.294454
21
626.084877
0
LINE
8
Sign
10
1037.294454
20
626.084877
11
1035.785630
21
627.911320
0
LINE
8
Sign
10
1035.785630
20
627.911320
11
1032.693931
21
631.077667
0
LINE
8
Sign
10
1032.693931
20
631.077667
11
1029.647225
21
633.636643
0
LINE
8
Sign
10
1029.647225
20
633.636643
11
1026.645483
21
635.628557
0
LINE
8
Sign
10
1026.645483
20
635.628557
11
1023.688675
21
637.093718
0
LINE
8
Sign
10
1023.688675
20
637.093718
11
1020.776770
21
638.072435
0
LINE
8
Sign
10
1020.776770
20
638.072435
11
1017.909737
21
638.605017
0
LINE
8
Sign
10
1017.909737
20
638.605017
11
1015.087548
21
638.731774
0
LINE
8
Sign
10
1015.087548
20
638.731774
11
1012.310171
21
638.493014
0
LINE
8
Sign
10
1012.310171
20
638.493014
11
1009.577576
21
637.929046
0
LINE
8
Sign
10
1009.577576
20
637.929046
11
1006.889733
21
637.080180
0
LINE
8
Sign
10
1006.889733
20
637.080180
11
1004.246613
21
635.986724
0
LINE
8
Sign
10
1004.246613
20
635.986724
11
1001.648184
21
634.688988
0
LINE
8
Sign
10
1001.648184
20
634.688988
11
996.585280
21
631.641911
0
LINE
8
Sign
10
996.585280
20
631.641911
11
991.700780
21
628.261420
0
LINE
8
Sign
10
991.700780
20
628.261420
11
986.994443
21
624.869989
0
LINE
8
Sign
10
986.994443
20
624.869989
11
982.466026
21
621.790090
0
LINE
8
Sign
10
982.466026
20
621.790090
11
980.268463
21
620.467737
0
LINE
8
Sign
10
980.268463
20
620.467737
11
978.115289
21
619.344195
0
LINE
8
Sign
10
978.115289
20
619.344195
11
976.006475
21
618.459771
0
LINE
8
Sign
10
976.006475
20
618.459771
11
973.941989
21
617.854776
0
LINE
8
Sign
10
973.941989
20
617.854776
11
971.921803
21
617.569519
0
LINE
8
Sign
10
971.921803
20
617.569519
11
969.945885
21
617.644307
0
LINE
8
Sign
10
969.945885
20
617.644307
11
968.014206
21
618.119451
0
LINE
8
Sign
10
968.014206
20
618.119451
11
966.126735
21
619.035260
0
LINE
8
Sign
10
966.126735
20
619.035260
11
964.283442
21
620.432042
0
LINE
8
Sign
10
964.283442
20
620.432042
11
962.484297
21
622.350107
0
LINE
8
Sign
10
962.484297
20
622.350107
11
960.729270
21
624.829763
0
LINE
8
Sign
10
960.729270
20
624.829763
11
959.018330
21
627.911320
0
LINE
8
Sign
10
959.018330
20
627.911320
11
958.287536
21
629.616676
0
LINE
8
Sign
10
958.287536
20
629.616676
11
957.778811
21
631.336856
0
LINE
8
Sign
10
957.778811
20
631.336856
11
957.484376
21
633.071845
0
LINE
8
Sign
10
957.484376
20
633.071845
11
957.396449
21
634.821626
0
LINE
8
Sign
10
957.396449
20
634.821626
11
957.507251
21
636.586184
0
LINE
8
Sign
10
957.507251
20
636.586184
11
957.809001
21
638.365501
0
LINE
8
Sign
10
957.809001
20
638.365501
11
958.293921
21
640.159562
0
LINE
8
Sign
10
958.293921
20
640.159562
11
958.954229
21
641.968351
0
LINE
8
Sign
10
958.954229
20
641.968351
11
960.769891
21
645.630047
0
LINE
8
Sign
10
960.769891
20
645.630047
11
963.193746
21
649.350459
0
LINE
8
Sign
10
963.193746
20
649.350459
11
966.163555
21
653.129459
0
LINE
8
Sign
10
966.163555
20
653.129459
11
969.617077
21
656.966916
0
LINE
8
Sign
10
969.617077
20
656.966916
11
973.492070
21
660.862702
0
LINE
8
Sign
10
973.492070
20
660.862702
11
977.726296
21
664.816687
0
LINE
8
Sign
10
977.726296
20
664.816687
11
987.023479
21
672.898738
0
LINE
8
Sign
10
987.023479
20
672.898738
11
997.010702
21
681.212034
0
LINE
8
Sign
10
997.010702
20
681.212034
11
1007.190041
21
689.755540
0
LINE
8
Sign
10
1007.190041
20
689.755540
11
1017.063572
21
698.528222
0
LINE
8
Sign
10
1017.063572
20
698.528222
11
1021.730057
21
703.000180
0
LINE
8
Sign
10
1021.730057
20
703.000180
11
1026.133369
21
707.529044
0
LINE
8
Sign
10
1026.133369
20
707.529044
11
1030.211266
21
712.114685
0
LINE
8
Sign
10
1030.211266
20
712.114685
11
1033.901509
21
716.756973
0
LINE
8
Sign
10
1033.901509
20
716.756973
11
1037.141856
21
721.455779
0
LINE
8
Sign
10
1037.141856
20
721.455779
11
1039.870068
21
726.210974
0
LINE
8
Sign
10
1039.870068
20
726.210974
11
1042.023903
21
731.022428
0
LINE
8
Sign
10
1042.023903
20
731.022428
11
1042.865979
21
733.449211
0
LINE
8
Sign
10
1042.865979
20
733.449211
11
1043.541120
21
735.890011
0
LINE
8
Sign
10
1043.541120
20
735.890011
11
1044.041548
21
738.344812
0
LINE
8
Sign
10
1044.041548
20
738.344812
11
1044.359481
21
740.813596
0
LINE
8
Sign
10
1044.359481
20
740.813596
11
1044.487139
21
743.296348
0
LINE
8
Sign
10
1044.487139
20
743.296348
11
1044.416743
21
745.793051
0
LINE
8
Sign
10
1044.416743
20
745.793051
11
1044.140512
21
748.303691
0
LINE
8
Sign
10
1044.140512
20
748.303691
11
1043.650666
21
750.828249
0
LINE
8
Sign
10
1043.650666
20
750.828249
11
1042.939426
21
753.366711
0
LINE
8
Sign
10
1042.939426
20
753.366711
11
1041.999011
21
755.919059
0
LINE
8
Sign
10
1041.999011
20
755.919059
11
1040.821641
21
758.485279
0
LINE
8
Sign
10
1040.821641
20
758.485279
11
1039.399536
21
761.065353
0
LINE
8
Sign
10
1039.399536
20
761.065353
11
1037.724915
21
763.659265
0
LINE
8
Sign
10
1037.724915
20
763.659265
11
1035.790000
21
766.267000
0
LINE
8
Sign
10
1035.790000
20
766.267000
11
1033.622688
21
768.707230
0
LINE
8
Sign
10
1033.622688
20
768.707230
11
1031.261234
21
770.805363
0
LINE
8
Sign
10
1031.261234
20
770.805363
11
1028.712831
21
772.571343
0
LINE
8
Sign
10
1028.712831
20
772.571343
11
1025.984671
21
774.015113
0
LINE
8
Sign
10
1025.984671
20
774.015113
11
1023.083947
21
775.146617
0
LINE
8
Sign
10
1023.083947
20
775.146617
11
1020.017850
21
775.975800
0
LINE
8
Sign
10
1020.017850
20
775.975800
11
1016.793573
21
776.512606
0
LINE
8
Sign
10
1016.793573
20
776.512606
11
1013.418309
21
776.766979
0
LINE
8
Sign
10
1013.418309
20
776.766979
11
1009.899249
21
776.748862
0
LINE
8
Sign
10
1009.899249
20
776.748862
11
1006.243586
21
776.468199
0
LINE
8
Sign
10
1006.243586
20
776.468199
11
1002.458513
21
775.934936
0
LINE
8
Sign
10
1002.458513
20
775.934936
11
998.551221
21
775.159015
0
LINE
8
Sign
10
998.551221
20
775.159015
11
994.528904
21
774.150381
0
LINE
8
Sign
10
994.528904
20
774.150381
11
990.398753
21
772.918978
0
LINE
8
Sign
10
990.398753
20
772.918978
11
986.167960
21
771.474750
0
LINE
8
Sign
10
986.167960
20
771.474750
11
981.843719
21
769.827641
0
LINE
8
Sign
10
981.843719
20
769.827641
11
972.943659
21
765.964554
0
LINE
8
Sign
10
972.943659
20
765.964554
11
963.756111
21
761.409272
0
LINE
8
Sign
10
963.756111
20
761.409272
11
954.338614
21
756.241345
0
LINE
8
Sign
10
954.338614
20
756.241345
11
944.748707
21
750.540326
0
LINE
8
Sign
10
944.748707
20
750.540326
11
935.043928
21
744.385768
0
LINE
8
Sign
10
935.043928
20
744.385768
11
925.281817
21
737.857221
0
LINE
8
Sign
10
925.281817
20
737.857221
11
915.519911
21
731.034240
0
LINE
8
Sign
10
915.519911
20
731.034240
11
905.815750
21
723.996375
0
LINE
8
Sign
10
905.815750
20
723.996375
11
896.226872
21
716.823179
0
LINE
8
Sign
10
896.226872
20
716.823179
11
886.810816
21
709.594204
0
LINE
8
Sign
10
886.810816
20
709.594204
11
868.727324
21
695.287127
0
LINE
8
Sign
10
868.727324
20
695.287127
11
852.025584
21
681.711560
0
LINE
8
Sign
10
852.025584
20
681.711560
11
837.165906
21
669.503922
0
LINE
8
Sign
10
837.165906
20
669.503922
11
824.608599
21
659.300629
0
LINE
8
Sign
10
824.608599
20
659.300629
11
814.813973
21
651.738100
0
LINE
8
Sign
10
814.813973
20
651.738100
11
811.096511
21
649.146001
0
LINE
8
Sign
10
811.096511
20
649.146001
11
808.242336
21
647.452751
0
LINE
8
Sign
10
808.242336
20
647.452751
11
807.156962
21
646.968053
0
LINE
8
Sign
10
807.156962
20
646.968053
11
806.308986
21
646.737900
0
LINE
8
Sign
10
806.308986
20
646.737900
11
805.705602
21
646.772234
0
LINE
8
Sign
10
805.705602
20
646.772234
11
805.354000
21
647.081000
0
LINE
8
Sign
10
805.354000
20
647.081000
11
804.102946
21
649.269679
0
LINE
8
Sign
10
804.102946
20
649.269679
11
802.153365
21
652.188904
0
LINE
8
Sign
10
802.153365
20
652.188904
11
799.530879
21
655.760017
0
LINE
8
Sign
10
799.530879
20
655.760017
11
796.261109
21
659.904359
0
LINE
8
Sign
10
796.261109
20
659.904359
11
792.369677
21
664.543274
0
LINE
8
Sign
10
792.369677
20
664.543274
11
787.882205
21
669.598104
0
LINE
8
Sign
10
787.882205
20
669.598104
11
782.824314
21
674.990190
0
LINE
8
Sign
10
782.824314
20
674.990190
11
777.221625
21
680.640875
0
LINE
8
Sign
10
777.221625
20
680.640875
11
771.099760
21
686.471502
0
LINE
8
Sign
10
771.099760
20
686.471502
11
764.484342
21
692.403412
0
LINE
8
Sign
10
764.484342
20
692.403412
11
757.400990
21
698.357948
0
LINE
8
Sign
10
757.400990
20
698.357948
11
749.875328
21
704.256453
0
LINE
8
Sign
10
749.875328
20
704.256453
11
741.932976
21
710.020268
0
LINE
8
Sign
10
741.932976
20
710.020268
11
733.599557
21
715.570736
0
LINE
8
Sign
10
733.599557
20
715.570736
11
724.900691
21
720.829199
0
LINE
8
Sign
10
724.900691
20
720.829199
11
715.862000
21
725.717000
0
LINE
8
Sign
10
715.862000
20
725.717000
11
706.451602
21
730.279529
0
LINE
8
Sign
10
706.451602
20
730.279529
11
696.631988
21
734.608979
0
LINE
8
Sign
10
696.631988
20
734.608979
11
686.419779
21
738.696896
0
LINE
8
Sign
10
686.419779
20
738.696896
11
675.831594
21
742.534828
0
LINE
8
Sign
10
675.831594
20
742.534828
11
664.884053
21
746.114321
0
LINE
8
Sign
10
664.884053
20
746.114321
11
653.593777
21
749.426920
0
LINE
8
Sign
10
653.593777
20
749.426920
11
641.977386
21
752.464173
0
LINE
8
Sign
10
641.977386
20
752.464173
11
630.051500
21
755.217625
0
LINE
8
Sign
10
630.051500
20
755.217625
11
617.832739
21
757.678823
0
LINE
8
Sign
10
617.832739
20
757.678823
11
605.337723
21
759.839314
0
LINE
8
Sign
10
605.337723
20
759.839314
11
592.583072
21
761.690644
0
LINE
8
Sign
10
592.583072
20
761.690644
11
579.585406
21
763.224359
0
LINE
8
Sign
10
579.585406
20
763.224359
11
566.361346
21
764.432006
0
LINE
8
Sign
10
566.361346
20
764.432006
11
552.927512
21
765.305131
0
LINE
8
Sign
10
552.927512
20
765.305131
11
539.300523
21
765.835280
0
LINE
8
Sign
10
539.300523
20
765.835280
11
525.497000
21
766.014000
0
LINE
8
Sign
10
525.497000
20
766.014000
11
511.698022
21
765.832396
0
LINE
8
Sign
10
511.698022
20
765.832396
11
498.075662
21
765.299592
0
LINE
8
Sign
10
498.075662
20
765.299592
11
484.646530
21
764.424034
0
LINE
8
Sign
10
484.646530
20
764.424034
11
471.427234
21
763.214172
0
LINE
8
Sign
10
471.427234
20
763.214172
11
458.434386
21
761.678452
0
LINE
8
Sign
10
458.434386
20
761.678452
11
445.684596
21
759.825322
0
LINE
8
Sign
10
445.684596
20
759.825322
11
433.194472
21
757.663231
0
LINE
8
Sign
10
433.194472
20
757.663231
11
420.980625
21
755.200625
0
LINE
8
Sign
10
420.980625
20
755.200625
11
409.059665
21
752.445953
0
LINE
8
Sign
10
409.059665
20
752.445953
11
397.448201
21
749.407662
0
LINE
8
Sign
10
397.448201
20
749.407662
11
386.162844
21
746.094200
0
LINE
8
Sign
10
386.162844
20
746.094200
11
375.220203
21
742.514016
0
LINE
8
Sign
10
375.220203
20
742.514016
11
364.636888
21
738.675555
0
LINE
8
Sign
10
364.636888
20
738.675555
11
354.429510
21
734.587268
0
LINE
8
Sign
10
354.429510
20
734.587268
11
344.614677
21
730.257600
0
LINE
8
Sign
10
344.614677
20
730.257600
11
335.209000
21
725.695000
0
LINE
8
Sign
10
335.209000
20
725.695000
11
326.159850
21
720.807522
0
LINE
8
Sign
10
326.159850
20
720.807522
11
317.422219
21
715.549629
0
LINE
8
Sign
10
317.422219
20
715.549629
11
309.023588
21
709.999945
0
LINE
8
Sign
10
309.023588
20
709.999945
11
300.991437
21
704.237094
0
LINE
8
Sign
10
300.991437
20
704.237094
11
293.353248
21
698.339700
0
LINE
8
Sign
10
293.353248
20
698.339700
11
286.136500
21
692.386387
0
LINE
8
Sign
10
286.136500
20
692.386387
11
279.368674
21
686.455779
0
LINE
8
Sign
10
279.368674
20
686.455779
11
273.077250
21
680.626500
0
LINE
8
Sign
10
273.077250
20
680.626500
11
267.289709
21
674.977174
0
LINE
8
Sign
10
267.289709
20
674.977174
11
262.033531
21
669.586426
0
LINE
8
Sign
10
262.033531
20
669.586426
11
257.336197
21
664.532878
0
LINE
8
Sign
10
257.336197
20
664.532878
11
253.225187
21
659.895156
0
LINE
8
Sign
10
253.225187
20
659.895156
11
246.872062
21
652.181684
0
LINE
8
Sign
10
246.872062
20
652.181684
11
243.194000
21
647.075000
0
LINE
8
Sign
10
243.194000
20
647.075000
11
242.775194
21
646.768485
0
LINE
8
Sign
10
242.775194
20
646.768485
11
242.090697
21
646.740488
0
LINE
8
Sign
10
242.090697
20
646.740488
11
241.148168
21
646.980865
0
LINE
8
Sign
10
241.148168
20
646.980865
11
239.955270
21
647.479469
0
LINE
8
Sign
10
239.955270
20
647.479469
11
236.849008
21
649.210784
0
LINE
8
Sign
10
236.849008
20
649.210784
11
232.833198
21
651.853271
0
LINE
8
Sign
10
232.833198
20
651.853271
11
222.318085
21
659.547121
0
LINE
8
Sign
10
222.318085
20
659.547121
11
208.900232
21
669.911734
0
LINE
8
Sign
10
208.900232
20
669.911734
11
193.069942
21
682.297826
0
LINE
8
Sign
10
193.069942
20
682.297826
11
175.317515
21
696.056111
0
LINE
8
Sign
10
175.317515
20
696.056111
11
156.133254
21
710.537306
0
LINE
8
Sign
10
156.133254
20
710.537306
11
146.157404
21
717.846093
0
LINE
8
Sign
10
146.157404
20
717.846093
11
136.007458
21
725.092125
0
LINE
8
Sign
10
136.007458
20
725.092125
11
125.744705
21
732.194242
0
LINE
8
Sign
10
125.744705
20
732.194242
11
115.430431
21
739.071284
0
LINE
8
Sign
10
115.430431
20
739.071284
11
105.125925
21
745.642089
0
LINE
8
Sign
10
105.125925
20
745.642089
11
94.892473
21
751.825498
0
LINE
8
Sign
10
94.892473
20
751.825498
11
84.791365
21
757.540349
0
LINE
8
Sign
10
84.791365
20
757.540349
11
74.883886
21
762.705483
0
LINE
8
Sign
10
74.883886
20
762.705483
11
65.231326
21
767.239737
0
LINE
8
Sign
10
65.231326
20
767.239737
11
55.894972
21
771.061953
0
LINE
8
Sign
10
55.894972
20
771.061953
11
51.364524
21
772.680684
0
LINE
8
Sign
10
51.364524
20
772.680684
11
46.936111
21
774.090969
0
LINE
8
Sign
10
46.936111
20
774.090969
11
42.617393
21
775.282664
0
LINE
8
Sign
10
42.617393
20
775.282664
11
38.416031
21
776.245625
0
LINE
8
Sign
10
38.416031
20
776.245625
11
34.339687
21
776.969705
0
LINE
8
Sign
10
34.339687
20
776.969705
11
30.396020
21
777.444760
0
LINE
8
Sign
10
30.396020
20
777.444760
11
26.592693
21
777.660644
0
LINE
8
Sign
10
26.592693
20
777.660644
11
22.937366
21
777.607213
0
LINE
8
Sign
10
22.937366
20
777.607213
11
19.437700
21
777.274321
0
LINE
8
Sign
10
19.437700
20
777.274321
11
16.101356
21
776.651824
0
LINE
8
Sign
10
16.101356
20
776.651824
11
12.935995
21
775.729576
0
LINE
8
Sign
10
12.935995
20
775.729576
11
9.949277
21
774.497433
0
LINE
8
Sign
10
9.949277
20
774.497433
11
7.148865
21
772.945249
0
LINE
8
Sign
10
7.148865
20
772.945249
11
4.542418
21
771.062878
0
LINE
8
Sign
10
4.542418
20
771.062878
11
2.137599
21
768.840177
0
LINE
8
Sign
10
2.137599
20
768.840177
11
-0.057933
21
766.267000
0
LINE
8
Sign
10
-0.057933
20
766.267000
11
-0.057933
21
766.267000
0
LINE
8
Sign
10
458.166000
20
648.649000
11
455.796677
21
647.014719
0
LINE
8
Sign
10
455.796677
20
647.014719
11
453.574756
21
645.145993
0
LINE
8
Sign
10
453.574756
20
645.145993
11
451.502251
21
643.048224
0
LINE
8
Sign
10
451.502251
20
643.048224
11
449.581173
21
640.726813
0
LINE
8
Sign
10
449.581173
20
640.726813
11
447.813534
21
638.187161
0
LINE
8
Sign
10
447.813534
20
638.187161
11
446.201347
21
635.434671
0
LINE
8
Sign
10
446.201347
20
635.434671
11
444.746624
21
632.474744
0
LINE
8
Sign
10
444.746624
20
632.474744
11
443.451377
21
629.312781
0
LINE
8
Sign
10
443.451377
20
629.312781
11
442.317618
21
625.954184
0
LINE
8
Sign
10
442.317618
20
625.954184
11
441.347360
21
622.404356
0
LINE
8
Sign
10
441.347360
20
622.404356
11
440.542614
21
618.668697
0
LINE
8
Sign
10
440.542614
20
618.668697
11
439.905393
21
614.752609
0
LINE
8
Sign
10
439.905393
20
614.752609
11
439.437709
21
610.661493
0
LINE
8
Sign
10
439.437709
20
610.661493
11
439.141574
21
606.400752
0
LINE
8
Sign
10
439.141574
20
606.400752
11
439.019000
21
601.975787
0
LINE
8
Sign
10
439.019000
20
601.975787
11
439.072000
21
597.392000
0
LINE
8
Sign
10
439.072000
20
597.392000
11
443.589992
21
599.296843
0
LINE
8
Sign
10
443.589992
20
599.296843
11
448.236910
21
601.083290
0
LINE
8
Sign
10
448.236910
20
601.083290
11
448.455173
21
607.907584
0
LINE
8
Sign
10
448.455173
20
607.907584
11
449.163174
21
614.205220
0
LINE
8
Sign
10
449.163174
20
614.205220
11
450.350872
21
619.950318
0
LINE
8
Sign
10
450.350872
20
619.950318
11
451.121470
21
622.607577
0
LINE
8
Sign
10
451.121470
20
622.607577
11
452.008227
21
625.116996
0
LINE
8
Sign
10
452.008227
20
625.116996
11
453.009889
21
627.475340
0
LINE
8
Sign
10
453.009889
20
627.475340
11
454.125199
21
629.679374
0
LINE
8
Sign
10
454.125199
20
629.679374
11
455.352904
21
631.725862
0
LINE
8
Sign
10
455.352904
20
631.725862
11
456.691747
21
633.611569
0
LINE
8
Sign
10
456.691747
20
633.611569
11
458.140475
21
635.333261
0
LINE
8
Sign
10
458.140475
20
635.333261
11
459.697831
21
636.887702
0
LINE
8
Sign
10
459.697831
20
636.887702
11
461.362561
21
638.271657
0
LINE
8
Sign
10
461.362561
20
638.271657
11
463.133410
21
639.481890
0
LINE
8
Sign
10
463.133410
20
639.481890
11
465.418119
21
640.712460
0
LINE
8
Sign
10
465.418119
20
640.712460
11
467.813670
21
641.666958
0
LINE
8
Sign
10
467.813670
20
641.666958
11
470.313926
21
642.350058
0
LINE
8
Sign
10
470.313926
20
642.350058
11
472.912753
21
642.766434
0
LINE
8
Sign
10
472.912753
20
642.766434
11
475.604015
21
642.920758
0
LINE
8
Sign
10
475.604015
20
642.920758
11
478.381575
21
642.817703
0
LINE
8
Sign
10
478.381575
20
642.817703
11
481.239298
21
642.461942
0
LINE
8
Sign
10
481.239298
20
642.461942
11
484.171048
21
641.858148
0
LINE
8
Sign
10
484.171048
20
641.858148
11
487.170689
21
641.010995
0
LINE
8
Sign
10
487.170689
20
641.010995
11
490.232086
21
639.925156
0
LINE
8
Sign
10
490.232086
20
639.925156
11
493.349102
21
638.605303
0
LINE
8
Sign
10
493.349102
20
638.605303
11
496.515603
21
637.056110
0
LINE
8
Sign
10
496.515603
20
637.056110
11
499.725451
21
635.282249
0
LINE
8
Sign
10
499.725451
20
635.282249
11
502.972512
21
633.288394
0
LINE
8
Sign
10
502.972512
20
633.288394
11
506.250649
21
631.079218
0
LINE
8
Sign
10
506.250649
20
631.079218
11
509.553727
21
628.659394
0
LINE
8
Sign
10
509.553727
20
628.659394
11
516.210163
21
623.206494
0
LINE
8
Sign
10
516.210163
20
623.206494
11
522.892731
21
616.967078
0
LINE
8
Sign
10
522.892731
20
616.967078
11
529.552347
21
609.978531
0
LINE
8
Sign
10
529.552347
20
609.978531
11
536.139923
21
602.278237
0
LINE
8
Sign
10
536.139923
20
602.278237
11
542.606374
21
593.903582
0
LINE
8
Sign
10
542.606374
20
593.903582
11
548.902613
21
584.891949
0
LINE
8
Sign
10
548.902613
20
584.891949
11
554.979554
21
575.280724
0
LINE
8
Sign
10
554.979554
20
575.280724
11
560.788110
21
565.107290
0
LINE
8
Sign
10
560.788110
20
565.107290
11
564.557174
21
557.868018
0
LINE
8
Sign
10
564.557174
20
557.868018
11
568.076019
21
550.560338
0
LINE
8
Sign
10
568.076019
20
550.560338
11
571.333892
21
543.212038
0
LINE
8
Sign
10
571.333892
20
543.212038
11
574.320044
21
535.850908
0
LINE
8
Sign
10
574.320044
20
535.850908
11
577.023723
21
528.504739
0
LINE
8
Sign
10
577.023723
20
528.504739
11
579.434177
21
521.201320
0
LINE
8
Sign
10
579.434177
20
521.201320
11
581.540657
21
513.968440
0
LINE
8
Sign
10
581.540657
20
513.968440
11
583.332410
21
506.833890
0
LINE
8
Sign
10
583.332410
20
506.833890
11
588.017190
21
508.704880
0
LINE
8
Sign
10
588.017190
20
508.704880
11
592.308070
21
510.653220
0
LINE
8
Sign
10
592.308070
20
510.653220
11
590.469227
21
518.060550
0
LINE
8
Sign
10
590.469227
20
518.060550
11
588.318364
21
525.534683
0
LINE
8
Sign
10
588.318364
20
525.534683
11
585.864950
21
533.050933
0
LINE
8
Sign
10
585.864950
20
533.050933
11
583.118453
21
540.584617
0
LINE
8
Sign
10
583.118453
20
540.584617
11
580.088342
21
548.111050
0
LINE
8
Sign
10
580.088342
20
548.111050
11
576.784083
21
555.605547
0
LINE
8
Sign
10
576.784083
20
555.605547
11
573.215147
21
563.043426
0
LINE
8
Sign
10
573.215147
20
563.043426
11
569.391000
21
570.400000
0
LINE
8
Sign
10
569.391000
20
570.400000
11
566.256550
21
576.019491
0
LINE
8
Sign
10
566.256550
20
576.019491
11
563.030194
21
581.483359
0
LINE
8
Sign
10
563.030194
20
581.483359
11
559.718921
21
586.786688
0
LINE
8
Sign
10
559.718921
20
586.786688
11
556.329718
21
591.924561
0
LINE
8
Sign
10
556.329718
20
591.924561
11
552.869576
21
596.892062
0
LINE
8
Sign
10
552.869576
20
596.892062
11
549.345481
21
601.684275
0
LINE
8
Sign
10
549.345481
20
601.684275
11
545.764422
21
606.296283
0
LINE
8
Sign
10
545.764422
20
606.296283
11
542.133389
21
610.723168
0
LINE
8
Sign
10
542.133389
20
610.723168
11
538.459369
21
614.960016
0
LINE
8
Sign
10
538.459369
20
614.960016
11
534.749350
21
619.001909
0
LINE
8
Sign
10
534.749350
20
619.001909
11
531.010322
21
622.843931
0
LINE
8
Sign
10
531.010322
20
622.843931
11
527.249272
21
626.481165
0
LINE
8
Sign
10
527.249272
20
626.481165
11
523.473189
21
629.908695
0
LINE
8
Sign
10
523.473189
20
629.908695
11
519.689062
21
633.121604
0
LINE
8
Sign
10
519.689062
20
633.121604
11
515.903879
21
636.114976
0
LINE
8
Sign
10
515.903879
20
636.114976
11
512.124629
21
638.883894
0
LINE
8
Sign
10
512.124629
20
638.883894
11
508.358299
21
641.423441
0
LINE
8
Sign
10
508.358299
20
641.423441
11
504.611878
21
643.728703
0
LINE
8
Sign
10
504.611878
20
643.728703
11
500.892356
21
645.794760
0
LINE
8
Sign
10
500.892356
20
645.794760
11
497.206719
21
647.616698
0
LINE
8
Sign
10
497.206719
20
647.616698
11
493.561957
21
649.189600
0
LINE
8
Sign
10
493.561957
20
649.189600
11
489.965059
21
650.508549
0
LINE
8
Sign
10
489.965059
20
650.508549
11
486.423011
21
651.568628
0
LINE
8
Sign
10
486.423011
20
651.568628
11
482.942804
21
652.364922
0
LINE
8
Sign
10
482.942804
20
652.364922
11
479.531425
21
652.892513
0
LINE
8
Sign
10
479.531425
20
652.892513
11
476.195863
21
653.146486
0
LINE
8
Sign
10
476.195863
20
653.146486
11
472.943107
21
653.121923
0
LINE
8
Sign
10
472.943107
20
653.121923
11
469.780144
21
652.813908
0
LINE
8
Sign
10
469.780144
20
652.813908
11
466.713964
21
652.217525
0
LINE
8
Sign
10
466.713964
20
652.217525
11
463.751554
21
651.327857
0
LINE
8
Sign
10
463.751554
20
651.327857
11
460.899903
21
650.139987
0
LINE
8
Sign
10
460.899903
20
650.139987
11
458.166000
21
648.649000
0
LINE
8
Sign
10
458.166000
20
648.649000
11
458.166000
21
648.649000
0
LINE
8
Sign
10
443.234900
20
566.635500
11
444.898040
21
559.985534
0
LINE
8
Sign
10
444.898040
20
559.985534
11
446.818450
21
553.261800
0
LINE
8
Sign
10
446.818450
20
553.261800
11
449.851075
21
560.125256
0
LINE
8
Sign
10
449.851075
20
560.125256
11
453.093550
21
566.921600
0
LINE
8
Sign
10
453.093550
20
566.921600
11
452.210566
21
570.454890
0
LINE
8
Sign
10
452.210566
20
570.454890
11
447.525786
21
568.583890
0
LINE
8
Sign
10
447.525786
20
568.583890
11
443.234906
21
566.635560
0
LINE
8
Sign
10
443.234906
20
566.635560
11
443.234900
21
566.635500
0
LINE
8
Sign
10
467.989100
20
525.736900
11
465.580012
21
518.873594
0
LINE
8
Sign
10
465.580012
20
518.873594
11
463.456140
21
512.115700
0
LINE
8
Sign
10
463.456140
20
512.115700
11
466.151620
21
506.888830
0
LINE
8
Sign
10
466.151620
20
506.888830
11
469.109780
21
501.731660
0
LINE
8
Sign
10
469.109780
20
501.731660
11
475.657706
21
500.297209
0
LINE
8
Sign
10
475.657706
20
500.297209
11
482.431480
21
499.074220
0
LINE
8
Sign
10
482.431480
20
499.074220
11
478.507394
21
505.552610
0
LINE
8
Sign
10
478.507394
20
505.552610
11
474.754960
21
512.181420
0
LINE
8
Sign
10
474.754960
20
512.181420
11
471.269173
21
518.918335
0
LINE
8
Sign
10
471.269173
20
518.918335
11
467.989140
21
525.736920
0
LINE
8
Sign
10
467.989140
20
525.736920
11
467.989100
21
525.736900
0
LINE
8
Sign
10
494.112800
20
465.802100
11
499.760798
21
459.445662
0
LINE
8
Sign
10
499.760798
20
459.445662
11
505.451278
21
453.581680
0
LINE
8
Sign
10
505.451278
20
453.581680
11
511.162452
21
448.219879
0
LINE
8
Sign
10
511.162452
20
448.219879
11
516.872530
21
443.369983
0
LINE
8
Sign
10
516.872530
20
443.369983
11
522.559723
21
439.041717
0
LINE
8
Sign
10
522.559723
20
439.041717
11
528.202243
21
435.244806
0
LINE
8
Sign
10
528.202243
20
435.244806
11
533.778300
21
431.988975
0
LINE
8
Sign
10
533.778300
20
431.988975
11
539.266105
21
429.283949
0
LINE
8
Sign
10
539.266105
20
429.283949
11
544.643870
21
427.139452
0
LINE
8
Sign
10
544.643870
20
427.139452
11
549.889804
21
425.565210
0
LINE
8
Sign
10
549.889804
20
425.565210
11
554.982120
21
424.570948
0
LINE
8
Sign
10
554.982120
20
424.570948
11
559.899028
21
424.166390
0
LINE
8
Sign
10
559.899028
20
424.166390
11
562.284895
21
424.188289
0
LINE
8
Sign
10
562.284895
20
424.188289
11
564.618739
21
424.361262
0
LINE
8
Sign
10
564.618739
20
424.361262
11
566.897836
21
424.686522
0
LINE
8
Sign
10
566.897836
20
424.686522
11
569.119464
21
425.165287
0
LINE
8
Sign
10
569.119464
20
425.165287
11
571.280898
21
425.798772
0
LINE
8
Sign
10
571.280898
20
425.798772
11
573.379414
21
426.588192
0
LINE
8
Sign
10
573.379414
20
426.588192
11
575.412289
21
427.534762
0
LINE
8
Sign
10
575.412289
20
427.534762
11
577.376800
21
428.639700
0
LINE
8
Sign
10
577.376800
20
428.639700
11
579.746143
21
430.273981
0
LINE
8
Sign
10
579.746143
20
430.273981
11
581.968082
21
432.142709
0
LINE
8
Sign
10
581.968082
20
432.142709
11
584.040604
21
434.240485
0
LINE
8
Sign
10
584.040604
20
434.240485
11
585.961697
21
436.561904
0
LINE
8
Sign
10
585.961697
20
436.561904
11
587.729349
21
439.101567
0
LINE
8
Sign
10
587.729349
20
439.101567
11
589.341547
21
441.854071
0
LINE
8
Sign
10
589.341547
20
441.854071
11
590.796279
21
444.814015
0
LINE
8
Sign
10
590.796279
20
444.814015
11
592.091534
21
447.975996
0
LINE
8
Sign
10
592.091534
20
447.975996
11
593.225299
21
451.334613
0
LINE
8
Sign
10
593.225299
20
451.334613
11
594.195561
21
454.884465
0
LINE
8
Sign
10
594.195561
20
454.884465
11
595.000308
21
458.620149
0
LINE
8
Sign
10
595.000308
20
458.620149
11
595.637529
21
462.536264
0
LINE
8
Sign
10
595.637529
20
462.536264
11
596.105211
21
466.627409
0
LINE
8
Sign
10
596.105211
20
466.627409
11
596.401341
21
470.888181
0
LINE
8
Sign
10
596.401341
20
470.888181
11
596.523909
21
475.313178
0
LINE
8
Sign
10
596.523909
20
475.313178
11
596.470900
21
479.897000
0
LINE
8
Sign
10
596.470900
20
479.897000
11
591.952994
21
477.992600
0
LINE
8
Sign
10
591.952994
20
477.992600
11
587.306200
21
476.206550
0
LINE
8
Sign
10
587.306200
20
476.206550
11
587.088011
21
469.382033
0
LINE
8
Sign
10
587.088011
20
469.382033
11
586.380062
21
463.084191
0
LINE
8
Sign
10
586.380062
20
463.084191
11
585.192394
21
457.338905
0
LINE
8
Sign
10
585.192394
20
457.338905
11
584.421803
21
454.681560
0
LINE
8
Sign
10
584.421803
20
454.681560
11
583.535048
21
452.172061
0
LINE
8
Sign
10
583.535048
20
452.172061
11
582.533384
21
449.813642
0
LINE
8
Sign
10
582.533384
20
449.813642
11
581.418065
21
447.609540
0
LINE
8
Sign
10
581.418065
20
447.609540
11
580.190347
21
445.562989
0
LINE
8
Sign
10
580.190347
20
445.562989
11
578.851485
21
443.677226
0
LINE
8
Sign
10
578.851485
20
443.677226
11
577.402734
21
441.955485
0
LINE
8
Sign
10
577.402734
20
441.955485
11
575.845350
21
440.401001
0
LINE
8
Sign
10
575.845350
20
440.401001
11
574.180587
21
439.017011
0
LINE
8
Sign
10
574.180587
20
439.017011
11
572.409700
21
437.806750
0
LINE
8
Sign
10
572.409700
20
437.806750
11
569.446548
21
436.288387
0
LINE
8
Sign
10
569.446548
20
436.288387
11
566.283975
21
435.222864
0
LINE
8
Sign
10
566.283975
20
435.222864
11
562.935178
21
434.604622
0
LINE
8
Sign
10
562.935178
20
434.604622
11
559.413352
21
434.428105
0
LINE
8
Sign
10
559.413352
20
434.428105
11
555.731694
21
434.687753
0
LINE
8
Sign
10
555.731694
20
434.687753
11
551.903400
21
435.378009
0
LINE
8
Sign
10
551.903400
20
435.378009
11
547.941667
21
436.493315
0
LINE
8
Sign
10
547.941667
20
436.493315
11
543.859691
21
438.028113
0
LINE
8
Sign
10
543.859691
20
438.028113
11
539.670668
21
439.976845
0
LINE
8
Sign
10
539.670668
20
439.976845
11
535.387795
21
442.333953
0
LINE
8
Sign
10
535.387795
20
442.333953
11
531.024269
21
445.093879
0
LINE
8
Sign
10
531.024269
20
445.093879
11
526.593284
21
448.251065
0
LINE
8
Sign
10
526.593284
20
448.251065
11
522.108039
21
451.799953
0
LINE
8
Sign
10
522.108039
20
451.799953
11
517.581729
21
455.734985
0
LINE
8
Sign
10
517.581729
20
455.734985
11
513.027551
21
460.050603
0
LINE
8
Sign
10
513.027551
20
460.050603
11
508.458700
21
464.741250
0
LINE
8
Sign
10
508.458700
20
464.741250
11
501.246634
21
465.157232
0
LINE
8
Sign
10
501.246634
20
465.157232
11
494.112800
21
465.802010
0
LINE
8
Sign
10
494.112800
20
465.802010
11
494.112800
21
465.802100
0
LINE
8
Sign
10
458.171000
20
428.650000
11
460.683947
21
427.280756
0
LINE
8
Sign
10
460.683947
20
427.280756
11
463.313744
21
426.164755
0
LINE
8
Sign
10
463.313744
20
426.164755
11
466.054993
21
425.301156
0
LINE
8
Sign
10
466.054993
20
425.301156
11
468.902300
21
424.689112
0
LINE
8
Sign
10
468.902300
20
424.689112
11
471.850266
21
424.327780
0
LINE
8
Sign
10
471.850266
20
424.327780
11
474.893496
21
424.216317
0
LINE
8
Sign
10
474.893496
20
424.216317
11
478.026594
21
424.353878
0
LINE
8
Sign
10
478.026594
20
424.353878
11
481.244163
21
424.739620
0
LINE
8
Sign
10
481.244163
20
424.739620
11
484.540806
21
425.372697
0
LINE
8
Sign
10
484.540806
20
425.372697
11
487.911128
21
426.252267
0
LINE
8
Sign
10
487.911128
20
426.252267
11
491.349731
21
427.377485
0
LINE
8
Sign
10
491.349731
20
427.377485
11
494.851220
21
428.747508
0
LINE
8
Sign
10
494.851220
20
428.747508
11
498.410198
21
430.361490
0
LINE
8
Sign
10
498.410198
20
430.361490
11
502.021268
21
432.218589
0
LINE
8
Sign
10
502.021268
20
432.218589
11
505.679034
21
434.317960
0
LINE
8
Sign
10
505.679034
20
434.317960
11
509.378100
21
436.658760
0
LINE
8
Sign
10
509.378100
20
436.658760
11
505.570916
21
439.875420
0
LINE
8
Sign
10
505.570916
20
439.875420
11
501.795480
21
443.270250
0
LINE
8
Sign
10
501.795480
20
443.270250
11
496.139800
21
440.059514
0
LINE
8
Sign
10
496.139800
20
440.059514
11
490.667300
21
437.564022
0
LINE
8
Sign
10
490.667300
20
437.564022
11
488.007884
21
436.585642
0
LINE
8
Sign
10
488.007884
20
436.585642
11
485.404035
21
435.787451
0
LINE
8
Sign
10
485.404035
20
435.787451
11
482.859008
21
435.169909
0
LINE
8
Sign
10
482.859008
20
435.169909
11
480.376061
21
434.733475
0
LINE
8
Sign
10
480.376061
20
434.733475
11
477.958450
21
434.478609
0
LINE
8
Sign
10
477.958450
20
434.478609
11
475.609432
21
434.405770
0
LINE
8
Sign
10
475.609432
20
434.405770
11
473.332266
21
434.515419
0
LINE
8
Sign
10
473.332266
20
434.515419
11
471.130206
21
434.808013
0
LINE
8
Sign
10
471.130206
20
434.808013
11
469.006511
21
435.284013
0
LINE
8
Sign
10
469.006511
20
435.284013
11
466.964437
21
435.943877
0
LINE
8
Sign
10
466.964437
20
435.943877
11
465.007241
21
436.788067
0
LINE
8
Sign
10
465.007241
20
436.788067
11
463.138180
21
437.817040
0
LINE
8
Sign
10
463.138180
20
437.817040
11
461.072253
21
439.253176
0
LINE
8
Sign
10
461.072253
20
439.253176
11
459.153867
21
440.925982
0
LINE
8
Sign
10
459.153867
20
440.925982
11
457.384693
21
442.829867
0
LINE
8
Sign
10
457.384693
20
442.829867
11
455.766403
21
444.959237
0
LINE
8
Sign
10
455.766403
20
444.959237
11
454.300667
21
447.308500
0
LINE
8
Sign
10
454.300667
20
447.308500
11
452.989156
21
449.872064
0
LINE
8
Sign
10
452.989156
20
449.872064
11
451.833541
21
452.644335
0
LINE
8
Sign
10
451.833541
20
452.644335
11
450.835492
21
455.619722
0
LINE
8
Sign
10
450.835492
20
455.619722
11
449.996680
21
458.792631
0
LINE
8
Sign
10
449.996680
20
458.792631
11
449.318777
21
462.157469
0
LINE
8
Sign
10
449.318777
20
462.157469
11
448.803454
21
465.708646
0
LINE
8
Sign
10
448.803454
20
465.708646
11
448.452380
21
469.440567
0
LINE
8
Sign
10
448.452380
20
469.440567
11
448.267227
21
473.347639
0
LINE
8
Sign
10
448.267227
20
473.347639
11
448.249666
21
477.424272
0
LINE
8
Sign
10
448.249666
20
477.424272
11
448.401367
21
481.664871
0
LINE
8
Sign
10
448.401367
20
481.664871
11
448.724002
21
486.063844
0
LINE
8
Sign
10
448.724002
20
486.063844
11
449.216367
21
490.592087
0
LINE
8
Sign
10
449.216367
20
490.592087
11
449.874134
21
495.218112
0
LINE
8
Sign
10
449.874134
20
495.218112
11
451.673802
21
504.726859
0
LINE
8
Sign
10
451.673802
20
504.726859
11
454.098861
21
514.516774
0
LINE
8
Sign
10
454.098861
20
514.516774
11
457.125167
21
524.514548
0
LINE
8
Sign
10
457.125167
20
524.514548
11
460.728576
21
534.646872
0
LINE
8
Sign
10
460.728576
20
534.646872
11
464.884944
21
544.840435
0
LINE
8
Sign
10
464.884944
20
544.840435
11
469.570126
21
555.021927
0
LINE
8
Sign
10
469.570126
20
555.021927
11
474.759980
21
565.118040
0
LINE
8
Sign
10
474.759980
20
565.118040
11
478.759280
21
572.215683
0
LINE
8
Sign
10
478.759280
20
572.215683
11
482.939292
21
579.116634
0
LINE
8
Sign
10
482.939292
20
579.116634
11
487.282804
21
585.797079
0
LINE
8
Sign
10
487.282804
20
585.797079
11
491.772605
21
592.233200
0
LINE
8
Sign
10
491.772605
20
592.233200
11
496.391484
21
598.401182
0
LINE
8
Sign
10
496.391484
20
598.401182
11
501.122231
21
604.277210
0
LINE
8
Sign
10
501.122231
20
604.277210
11
505.947633
21
609.837468
0
LINE
8
Sign
10
505.947633
20
609.837468
11
510.850480
21
615.058140
0
LINE
8
Sign
10
510.850480
20
615.058140
11
506.987410
21
618.445630
0
LINE
8
Sign
10
506.987410
20
618.445630
11
503.258430
21
621.430980
0
LINE
8
Sign
10
503.258430
20
621.430980
11
498.157426
21
616.030529
0
LINE
8
Sign
10
498.157426
20
616.030529
11
493.158134
21
610.308752
0
LINE
8
Sign
10
493.158134
20
610.308752
11
488.275882
21
604.286730
0
LINE
8
Sign
10
488.275882
20
604.286730
11
483.526000
21
597.985539
0
LINE
8
Sign
10
483.526000
20
597.985539
11
478.923815
21
591.426260
0
LINE
8
Sign
10
478.923815
20
591.426260
11
474.484656
21
584.629971
0
LINE
8
Sign
10
474.484656
20
584.629971
11
470.223851
21
577.617752
0
LINE
8
Sign
10
470.223851
20
577.617752
11
466.156730
21
570.410680
0
LINE
8
Sign
10
466.156730
20
570.410680
11
463.156620
21
564.708543
0
LINE
8
Sign
10
463.156620
20
564.708543
11
460.328948
21
558.999410
0
LINE
8
Sign
10
460.328948
20
558.999410
11
457.674215
21
553.292186
0
LINE
8
Sign
10
457.674215
20
553.292186
11
455.192924
21
547.595780
0
LINE
8
Sign
10
455.192924
20
547.595780
11
452.885576
21
541.919098
0
LINE
8
Sign
10
452.885576
20
541.919098
11
450.752674
21
536.271048
0
LINE
8
Sign
10
450.752674
20
536.271048
11
448.794718
21
530.660535
0
LINE
8
Sign
10
448.794718
20
530.660535
11
447.012210
21
525.096468
0
LINE
8
Sign
10
447.012210
20
525.096468
11
445.405653
21
519.587753
0
LINE
8
Sign
10
445.405653
20
519.587753
11
443.975547
21
514.143297
0
LINE
8
Sign
10
443.975547
20
514.143297
11
442.722396
21
508.772008
0
LINE
8
Sign
10
442.722396
20
508.772008
11
441.646700
21
503.482792
0
LINE
8
Sign
10
441.646700
20
503.482792
11
440.748961
21
498.284557
0
LINE
8
Sign
10
440.748961
20
498.284557
11
440.029681
21
493.186209
0
LINE
8
Sign
10
440.029681
20
493.186209
11
439.489361
21
488.196655
0
LINE
8
Sign
10
439.489361
20
488.196655
11
439.128505
21
483.324802
0
LINE
8
Sign
10
439.128505
20
483.324802
11
438.947612
21
478.579558
0
LINE
8
Sign
10
438.947612
20
478.579558
11
438.947186
21
473.969830
0
LINE
8
Sign
10
438.947186
20
473.969830
11
439.127727
21
469.504524
0
LINE
8
Sign
10
439.127727
20
469.504524
11
439.489737
21
465.192547
0
LINE
8
Sign
10
439.489737
20
465.192547
11
440.033719
21
461.042807
0
LINE
8
Sign
10
440.033719
20
461.042807
11
440.760174
21
457.064210
0
LINE
8
Sign
10
440.760174
20
457.064210
11
441.669604
21
453.265664
0
LINE
8
Sign
10
441.669604
20
453.265664
11
442.762510
21
449.656076
0
LINE
8
Sign
10
442.762510
20
449.656076
11
444.039394
21
446.244352
0
LINE
8
Sign
10
444.039394
20
446.244352
11
445.500758
21
443.039399
0
LINE
8
Sign
10
445.500758
20
443.039399
11
447.147104
21
440.050125
0
LINE
8
Sign
10
447.147104
20
440.050125
11
448.978933
21
437.285437
0
LINE
8
Sign
10
448.978933
20
437.285437
11
450.996748
21
434.754241
0
LINE
8
Sign
10
450.996748
20
434.754241
11
453.201049
21
432.465445
0
LINE
8
Sign
10
453.201049
20
432.465445
11
455.592339
21
430.427956
0
LINE
8
Sign
10
455.592339
20
430.427956
11
458.171120
21
428.650680
0
LINE
8
Sign
10
458.171120
20
428.650680
11
458.171000
21
428.650000
0
LINE
8
Sign
10
532.294400
20
455.878700
11
536.867700
21
460.738397
0
LINE
8
Sign
10
536.867700
20
460.738397
11
541.372320
21
465.872380
0
LINE
8
Sign
10
541.372320
20
465.872380
11
534.277659
21
465.239086
0
LINE
8
Sign
10
534.277659
20
465.239086
11
527.132620
21
464.832990
0
LINE
8
Sign
10
527.132620
20
464.832990
11
524.702380
21
462.251560
0
LINE
8
Sign
10
524.702380
20
462.251560
11
528.565450
21
458.864060
0
LINE
8
Sign
10
528.565450
20
458.864060
11
532.294430
21
455.878710
0
LINE
8
Sign
10
532.294430
20
455.878710
11
532.294400
21
455.878700
0
LINE
8
Sign
10
553.158300
20
499.170500
11
559.941142
21
500.379113
0
LINE
8
Sign
10
559.941142
20
500.379113
11
566.495700
21
501.798210
0
LINE
8
Sign
10
566.495700
20
501.798210
11
569.396180
21
506.898960
0
LINE
8
Sign
10
569.396180
20
506.898960
11
572.108680
21
512.207260
0
LINE
8
Sign
10
572.108680
20
512.207260
11
570.000589
21
518.966738
0
LINE
8
Sign
10
570.000589
20
518.966738
11
567.607730
21
525.828860
0
LINE
8
Sign
10
567.607730
20
525.828860
11
564.304351
21
518.968616
0
LINE
8
Sign
10
564.304351
20
518.968616
11
560.792890
21
512.191560
0
LINE
8
Sign
10
560.792890
20
512.191560
11
557.060243
21
505.606495
0
LINE
8
Sign
10
557.060243
20
505.606495
11
553.158340
21
499.170460
0
LINE
8
Sign
10
553.158340
20
499.170460
11
553.158300
21
499.170500
0
LINE
8
Sign
10
588.809400
20
553.244100
11
591.151706
21
561.634155
0
LINE
8
Sign
10
591.151706
20
561.634155
11
593.072518
21
569.817183
0
LINE
8
Sign
10
593.072518
20
569.817183
11
594.574827
21
577.768215
0
LINE
8
Sign
10
594.574827
20
577.768215
11
595.661623
21
585.462283
0
LINE
8
Sign
10
595.661623
20
585.462283
11
596.335896
21
592.874418
0
LINE
8
Sign
10
596.335896
20
592.874418
11
596.600638
21
599.979650
0
LINE
8
Sign
10
596.600638
20
599.979650
11
596.458838
21
606.753012
0
LINE
8
Sign
10
596.458838
20
606.753012
11
595.913487
21
613.169533
0
LINE
8
Sign
10
595.913487
20
613.169533
11
594.967575
21
619.204245
0
LINE
8
Sign
10
594.967575
20
619.204245
11
593.624094
21
624.832180
0
LINE
8
Sign
10
593.624094
20
624.832180
11
591.886033
21
630.028368
0
LINE
8
Sign
10
591.886033
20
630.028368
11
589.756382
21
634.767841
0
LINE
8
Sign
10
589.756382
20
634.767841
11
587.238134
21
639.025629
0
LINE
8
Sign
10
587.238134
20
639.025629
11
585.834219
21
640.966089
0
LINE
8
Sign
10
585.834219
20
640.966089
11
584.334277
21
642.776765
0
LINE
8
Sign
10
584.334277
20
642.776765
11
582.738680
21
644.454535
0
LINE
8
Sign
10
582.738680
20
644.454535
11
581.047802
21
645.996278
0
LINE
8
Sign
10
581.047802
20
645.996278
11
579.262017
21
647.398873
0
LINE
8
Sign
10
579.262017
20
647.398873
11
577.381700
21
648.659200
0
LINE
8
Sign
10
577.381700
20
648.659200
11
574.868739
21
650.028429
0
LINE
8
Sign
10
574.868739
20
650.028429
11
572.238928
21
651.144414
0
LINE
8
Sign
10
572.238928
20
651.144414
11
569.497665
21
652.007996
0
LINE
8
Sign
10
569.497665
20
652.007996
11
566.650344
21
652.620022
0
LINE
8
Sign
10
566.650344
20
652.620022
11
563.702364
21
652.981334
0
LINE
8
Sign
10
563.702364
20
652.981334
11
560.659120
21
653.092777
0
LINE
8
Sign
10
560.659120
20
653.092777
11
557.526009
21
652.955195
0
LINE
8
Sign
10
557.526009
20
652.955195
11
554.308427
21
652.569432
0
LINE
8
Sign
10
554.308427
20
652.569432
11
551.011771
21
651.936332
0
LINE
8
Sign
10
551.011771
20
651.936332
11
547.641437
21
651.056738
0
LINE
8
Sign
10
547.641437
20
651.056738
11
544.202821
21
649.931496
0
LINE
8
Sign
10
544.202821
20
649.931496
11
540.701321
21
648.561449
0
LINE
8
Sign
10
540.701321
20
648.561449
11
537.142332
21
646.947440
0
LINE
8
Sign
10
537.142332
20
646.947440
11
533.531252
21
645.090315
0
LINE
8
Sign
10
533.531252
20
645.090315
11
529.873475
21
642.990917
0
LINE
8
Sign
10
529.873475
20
642.990917
11
526.174400
21
640.650090
0
LINE
8
Sign
10
526.174400
20
640.650090
11
529.981191
21
637.433276
0
LINE
8
Sign
10
529.981191
20
637.433276
11
533.756220
21
634.038360
0
LINE
8
Sign
10
533.756220
20
634.038360
11
539.412049
21
637.249278
0
LINE
8
Sign
10
539.412049
20
637.249278
11
544.884696
21
639.744922
0
LINE
8
Sign
10
544.884696
20
639.744922
11
547.544182
21
640.723367
0
LINE
8
Sign
10
547.544182
20
640.723367
11
550.148102
21
641.521614
0
LINE
8
Sign
10
550.148102
20
641.521614
11
552.693197
21
642.139205
0
LINE
8
Sign
10
552.693197
20
642.139205
11
555.176210
21
642.575680
0
LINE
8
Sign
10
555.176210
20
642.575680
11
557.593885
21
642.830579
0
LINE
8
Sign
10
557.593885
20
642.830579
11
559.942963
21
642.903442
0
LINE
8
Sign
10
559.942963
20
642.903442
11
562.220189
21
642.793811
0
LINE
8
Sign
10
562.220189
20
642.793811
11
564.422304
21
642.501226
0
LINE
8
Sign
10
564.422304
20
642.501226
11
566.546052
21
642.025226
0
LINE
8
Sign
10
566.546052
20
642.025226
11
568.588176
21
641.365353
0
LINE
8
Sign
10
568.588176
20
641.365353
11
570.545417
21
640.521148
0
LINE
8
Sign
10
570.545417
20
640.521148
11
572.414520
21
639.492150
0
LINE
8
Sign
10
572.414520
20
639.492150
11
575.130163
21
637.517005
0
LINE
8
Sign
10
575.130163
20
637.517005
11
577.577465
21
635.131420
0
LINE
8
Sign
10
577.577465
20
635.131420
11
579.754344
21
632.350352
0
LINE
8
Sign
10
579.754344
20
632.350352
11
581.658719
21
629.188756
0
LINE
8
Sign
10
581.658719
20
629.188756
11
583.288510
21
625.661590
0
LINE
8
Sign
10
583.288510
20
625.661590
11
584.641636
21
621.783809
0
LINE
8
Sign
10
584.641636
20
621.783809
11
585.716015
21
617.570369
0
LINE
8
Sign
10
585.716015
20
617.570369
11
586.509568
21
613.036227
0
LINE
8
Sign
10
586.509568
20
613.036227
11
587.020213
21
608.196338
0
LINE
8
Sign
10
587.020213
20
608.196338
11
587.245869
21
603.065660
0
LINE
8
Sign
10
587.245869
20
603.065660
11
587.184456
21
597.659148
0
LINE
8
Sign
10
587.184456
20
597.659148
11
586.833893
21
591.991758
0
LINE
8
Sign
10
586.833893
20
591.991758
11
586.192099
21
586.078448
0
LINE
8
Sign
10
586.192099
20
586.078448
11
585.256992
21
579.934172
0
LINE
8
Sign
10
585.256992
20
579.934172
11
584.026493
21
573.573887
0
LINE
8
Sign
10
584.026493
20
573.573887
11
582.498520
21
567.012550
0
LINE
8
Sign
10
582.498520
20
567.012550
11
585.766455
21
560.149451
0
LINE
8
Sign
10
585.766455
20
560.149451
11
588.809300
21
553.244150
0
LINE
8
Sign
10
588.809300
20
553.244150
11
588.809400
21
553.244100
0
LINE
8
Sign
10
636.982000
20
538.659000
11
636.838402
21
541.662504
0
LINE
8
Sign
10
636.838402
20
541.662504
11
636.430551
21
544.647211
0
LINE
8
Sign
10
636.430551
20
544.647211
11
635.761832
21
547.608565
0
LINE
8
Sign
10
635.761832
20
547.608565
11
634.835627
21
550.542007
0
LINE
8
Sign
10
634.835627
20
550.542007
11
633.655322
21
553.442979
0
LINE
8
Sign
10
633.655322
20
553.442979
11
632.224301
21
556.306924
0
LINE
8
Sign
10
632.224301
20
556.306924
11
630.545947
21
559.129284
0
LINE
8
Sign
10
630.545947
20
559.129284
11
628.623645
21
561.905502
0
LINE
8
Sign
10
628.623645
20
561.905502
11
626.460779
21
564.631020
0
LINE
8
Sign
10
626.460779
20
564.631020
11
624.060734
21
567.301280
0
LINE
8
Sign
10
624.060734
20
567.301280
11
621.426893
21
569.911725
0
LINE
8
Sign
10
621.426893
20
569.911725
11
618.562640
21
572.457797
0
LINE
8
Sign
10
618.562640
20
572.457797
11
615.471361
21
574.934938
0
LINE
8
Sign
10
615.471361
20
574.934938
11
612.156438
21
577.338591
0
LINE
8
Sign
10
612.156438
20
577.338591
11
608.621256
21
579.664197
0
LINE
8
Sign
10
608.621256
20
579.664197
11
604.869200
21
581.907200
0
LINE
8
Sign
10
604.869200
20
581.907200
11
603.286910
21
571.604400
0
LINE
8
Sign
10
603.286910
20
571.604400
11
608.724340
21
567.990848
0
LINE
8
Sign
10
608.724340
20
567.990848
11
613.488852
21
564.188707
0
LINE
8
Sign
10
613.488852
20
564.188707
11
617.564431
21
560.220182
0
LINE
8
Sign
10
617.564431
20
560.220182
11
619.338867
21
558.180465
0
LINE
8
Sign
10
619.338867
20
558.180465
11
620.935063
21
556.107479
0
LINE
8
Sign
10
620.935063
20
556.107479
11
622.351019
21
554.004000
0
LINE
8
Sign
10
622.351019
20
554.004000
11
623.584732
21
551.872804
0
LINE
8
Sign
10
623.584732
20
551.872804
11
624.634201
21
549.716666
0
LINE
8
Sign
10
624.634201
20
549.716666
11
625.497423
21
547.538362
0
LINE
8
Sign
10
625.497423
20
547.538362
11
626.172397
21
545.340668
0
LINE
8
Sign
10
626.172397
20
545.340668
11
626.657121
21
543.126359
0
LINE
8
Sign
10
626.657121
20
543.126359
11
626.949592
21
540.898211
0
LINE
8
Sign
10
626.949592
20
540.898211
11
627.047810
21
538.659000
0
LINE
8
Sign
10
627.047810
20
538.659000
11
626.913509
21
536.034551
0
LINE
8
Sign
10
626.913509
20
536.034551
11
626.513081
21
533.427915
0
LINE
8
Sign
10
626.513081
20
533.427915
11
625.850235
21
530.843430
0
LINE
8
Sign
10
625.850235
20
530.843430
11
624.928682
21
528.285433
0
LINE
8
Sign
10
624.928682
20
528.285433
11
623.752131
21
525.758263
0
LINE
8
Sign
10
623.752131
20
525.758263
11
622.324292
21
523.266259
0
LINE
8
Sign
10
622.324292
20
523.266259
11
620.648877
21
520.813757
0
LINE
8
Sign
10
620.648877
20
520.813757
11
618.729594
21
518.405097
0
LINE
8
Sign
10
618.729594
20
518.405097
11
616.570154
21
516.044615
0
LINE
8
Sign
10
616.570154
20
516.044615
11
614.174266
21
513.736652
0
LINE
8
Sign
10
614.174266
20
513.736652
11
611.545642
21
511.485543
0
LINE
8
Sign
10
611.545642
20
511.485543
11
608.687991
21
509.295628
0
LINE
8
Sign
10
608.687991
20
509.295628
11
605.605023
21
507.171245
0
LINE
8
Sign
10
605.605023
20
507.171245
11
602.300448
21
505.116732
0
LINE
8
Sign
10
602.300448
20
505.116732
11
598.777976
21
503.136426
0
LINE
8
Sign
10
598.777976
20
503.136426
11
595.041318
21
501.234666
0
LINE
8
Sign
10
595.041318
20
501.234666
11
591.114730
21
499.424895
0
LINE
8
Sign
10
591.114730
20
499.424895
11
587.025967
21
497.718861
0
LINE
8
Sign
10
587.025967
20
497.718861
11
582.783986
21
496.118360
0
LINE
8
Sign
10
582.783986
20
496.118360
11
578.397745
21
494.625190
0
LINE
8
Sign
10
578.397745
20
494.625190
11
569.228307
21
491.968028
0
LINE
8
Sign
10
569.228307
20
491.968028
11
559.589307
21
489.761752
0
LINE
8
Sign
10
559.589307
20
489.761752
11
549.552403
21
488.020736
0
LINE
8
Sign
10
549.552403
20
488.020736
11
539.189248
21
486.759355
0
LINE
8
Sign
10
539.189248
20
486.759355
11
528.571499
21
485.991985
0
LINE
8
Sign
10
528.571499
20
485.991985
11
517.770810
21
485.733000
0
LINE
8
Sign
10
517.770810
20
485.733000
11
510.002431
21
485.874634
0
LINE
8
Sign
10
510.002431
20
485.874634
11
502.303561
21
486.281369
0
LINE
8
Sign
10
502.303561
20
486.281369
11
494.702162
21
486.949232
0
LINE
8
Sign
10
494.702162
20
486.949232
11
487.226196
21
487.874249
0
LINE
8
Sign
10
487.226196
20
487.874249
11
479.903626
21
489.052445
0
LINE
8
Sign
10
479.903626
20
489.052445
11
472.762413
21
490.479847
0
LINE
8
Sign
10
472.762413
20
490.479847
11
465.830521
21
492.152480
0
LINE
8
Sign
10
465.830521
20
492.152480
11
459.135910
21
494.066370
0
LINE
8
Sign
10
459.135910
20
494.066370
11
458.314200
21
488.807880
0
LINE
8
Sign
10
458.314200
20
488.807880
11
457.752300
21
483.874190
0
LINE
8
Sign
10
457.752300
20
483.874190
11
464.692112
21
481.867335
0
LINE
8
Sign
10
464.692112
20
481.867335
11
471.842231
21
480.114999
0
LINE
8
Sign
10
471.842231
20
480.114999
11
479.177861
21
478.620789
0
LINE
8
Sign
10
479.177861
20
478.620789
11
486.674205
21
477.388309
0
LINE
8
Sign
10
486.674205
20
477.388309
11
494.306468
21
476.421165
0
LINE
8
Sign
10
494.306468
20
476.421165
11
502.049852
21
475.722962
0
LINE
8
Sign
10
502.049852
20
475.722962
11
509.879562
21
475.297305
0
LINE
8
Sign
10
509.879562
20
475.297305
11
517.770800
21
475.147800
0
LINE
8
Sign
10
517.770800
20
475.147800
11
523.682132
21
475.225855
0
LINE
8
Sign
10
523.682132
20
475.225855
11
529.553343
21
475.458581
0
LINE
8
Sign
10
529.553343
20
475.458581
11
535.374661
21
475.843824
0
LINE
8
Sign
10
535.374661
20
475.843824
11
541.136316
21
476.379426
0
LINE
8
Sign
10
541.136316
20
476.379426
11
546.828535
21
477.063231
0
LINE
8
Sign
10
546.828535
20
477.063231
11
552.441549
21
477.893083
0
LINE
8
Sign
10
552.441549
20
477.893083
11
557.965586
21
478.866825
0
LINE
8
Sign
10
557.965586
20
478.866825
11
563.390875
21
479.982302
0
LINE
8
Sign
10
563.390875
20
479.982302
11
568.707644
21
481.237357
0
LINE
8
Sign
10
568.707644
20
481.237357
11
573.906122
21
482.629834
0
LINE
8
Sign
10
573.906122
20
482.629834
11
578.976539
21
484.157576
0
LINE
8
Sign
10
578.976539
20
484.157576
11
583.909123
21
485.818427
0
LINE
8
Sign
10
583.909123
20
485.818427
11
588.694103
21
487.610232
0
LINE
8
Sign
10
588.694103
20
487.610232
11
593.321708
21
489.530833
0
LINE
8
Sign
10
593.321708
20
489.530833
11
597.782166
21
491.578074
0
LINE
8
Sign
10
597.782166
20
491.578074
11
602.065706
21
493.749800
0
LINE
8
Sign
10
602.065706
20
493.749800
11
606.142052
21
496.031911
0
LINE
8
Sign
10
606.142052
20
496.031911
11
609.984739
21
498.408278
0
LINE
8
Sign
10
609.984739
20
498.408278
11
613.589722
21
500.873694
0
LINE
8
Sign
10
613.589722
20
500.873694
11
616.952952
21
503.422954
0
LINE
8
Sign
10
616.952952
20
503.422954
11
620.070383
21
506.050852
0
LINE
8
Sign
10
620.070383
20
506.050852
11
622.937966
21
508.752182
0
LINE
8
Sign
10
622.937966
20
508.752182
11
625.551655
21
511.521739
0
LINE
8
Sign
10
625.551655
20
511.521739
11
627.907403
21
514.354316
0
LINE
8
Sign
10
627.907403
20
514.354316
11
630.001161
21
517.244709
0
LINE
8
Sign
10
630.001161
20
517.244709
11
631.828883
21
520.187711
0
LINE
8
Sign
10
631.828883
20
520.187711
11
633.386522
21
523.178116
0
LINE
8
Sign
10
633.386522
20
523.178116
11
634.670029
21
526.210720
0
LINE
8
Sign
10
634.670029
20
526.210720
11
635.675358
21
529.280316
0
LINE
8
Sign
10
635.675358
20
529.280316
11
636.398461
21
532.381698
0
LINE
8
Sign
10
636.398461
20
532.381698
11
636.835291
21
535.509662
0
LINE
8
Sign
10
636.835291
20
535.509662
11
636.981800
21
538.659000
0
LINE
8
Sign
10
636.981800
20
538.659000
11
636.982000
21
538.659000
0
LINE
8
Sign
10
577.789700
20
593.443800
11
571.553245
21
595.234074
0
LINE
8
Sign
10
571.553245
20
595.234074
11
565.128200
21
596.823830
0
LINE
8
Sign
10
565.128200
20
596.823830
11
569.190261
21
590.593674
0
LINE
8
Sign
10
569.190261
20
590.593674
11
573.092850
21
584.203430
0
LINE
8
Sign
10
573.092850
20
584.203430
11
576.406070
21
583.251588
0
LINE
8
Sign
10
576.406070
20
583.251588
11
577.227790
21
588.510078
0
LINE
8
Sign
10
577.227790
20
588.510078
11
577.789680
21
593.443768
0
LINE
8
Sign
10
577.789680
20
593.443768
11
577.789700
21
593.443800
0
LINE
8
Sign
10
532.171600
20
591.050560
11
527.797861
21
596.705259
0
LINE
8
Sign
10
527.797861
20
596.705259
11
523.367190
21
602.044060
0
LINE
8
Sign
10
523.367190
20
602.044060
11
517.771230
21
602.170172
0
LINE
8
Sign
10
517.771230
20
602.170172
11
512.100570
21
602.019037
0
LINE
8
Sign
10
512.100570
20
602.019037
11
507.660741
21
596.694010
0
LINE
8
Sign
10
507.660741
20
596.694010
11
503.279870
21
591.054837
0
LINE
8
Sign
10
503.279870
20
591.054837
11
510.507355
21
591.436689
0
LINE
8
Sign
10
510.507355
20
591.436689
11
517.771270
21
591.584933
0
LINE
8
Sign
10
517.771270
20
591.584933
11
524.989719
21
591.433070
0
LINE
8
Sign
10
524.989719
20
591.433070
11
532.171670
21
591.050507
0
LINE
8
Sign
10
532.171670
20
591.050507
11
532.171600
21
591.050560
0
LINE
8
Sign
10
470.396800
20
596.911710
11
462.406501
21
594.878097
0
LINE
8
Sign
10
462.406501
20
594.878097
11
454.795212
21
592.559055
0
LINE
8
Sign
10
454.795212
20
592.559055
11
447.581733
21
589.969828
0
LINE
8
Sign
10
447.581733
20
589.969828
11
440.784862
21
587.125660
0
LINE
8
Sign
10
440.784862
20
587.125660
11
434.423398
21
584.041794
0
LINE
8
Sign
10
434.423398
20
584.041794
11
428.516139
21
580.733476
0
LINE
8
Sign
10
428.516139
20
580.733476
11
423.081883
21
577.215947
0
LINE
8
Sign
10
423.081883
20
577.215947
11
418.139430
21
573.504454
0
LINE
8
Sign
10
418.139430
20
573.504454
11
413.707577
21
569.614238
0
LINE
8
Sign
10
413.707577
20
569.614238
11
409.805123
21
565.560545
0
LINE
8
Sign
10
409.805123
20
565.560545
11
406.450867
21
561.358618
0
LINE
8
Sign
10
406.450867
20
561.358618
11
403.663607
21
557.023701
0
LINE
8
Sign
10
403.663607
20
557.023701
11
401.462142
21
552.571037
0
LINE
8
Sign
10
401.462142
20
552.571037
11
400.586957
21
550.305315
0
LINE
8
Sign
10
400.586957
20
550.305315
11
399.865270
21
548.015872
0
LINE
8
Sign
10
399.865270
20
548.015872
11
399.299431
21
545.704615
0
LINE
8
Sign
10
399.299431
20
545.704615
11
398.891790
21
543.373448
0
LINE
8
Sign
10
398.891790
20
543.373448
11
398.644696
21
541.024278
0
LINE
8
Sign
10
398.644696
20
541.024278
11
398.560500
21
538.659010
0
LINE
8
Sign
10
398.560500
20
538.659010
11
398.704119
21
535.655501
0
LINE
8
Sign
10
398.704119
20
535.655501
11
399.111991
21
532.670789
0
LINE
8
Sign
10
399.111991
20
532.670789
11
399.780733
21
529.709432
0
LINE
8
Sign
10
399.780733
20
529.709432
11
400.706961
21
526.775987
0
LINE
8
Sign
10
400.706961
20
526.775987
11
401.887289
21
523.875012
0
LINE
8
Sign
10
401.887289
20
523.875012
11
403.318335
21
521.011065
0
LINE
8
Sign
10
403.318335
20
521.011065
11
404.996714
21
518.188703
0
LINE
8
Sign
10
404.996714
20
518.188703
11
406.919041
21
515.412485
0
LINE
8
Sign
10
406.919041
20
515.412485
11
409.081933
21
512.686967
0
LINE
8
Sign
10
409.081933
20
512.686967
11
411.482004
21
510.016708
0
LINE
8
Sign
10
411.482004
20
510.016708
11
414.115872
21
507.406264
0
LINE
8
Sign
10
414.115872
20
507.406264
11
416.980151
21
504.860195
0
LINE
8
Sign
10
416.980151
20
504.860195
11
420.071458
21
502.383057
0
LINE
8
Sign
10
420.071458
20
502.383057
11
423.386408
21
499.979409
0
LINE
8
Sign
10
423.386408
20
499.979409
11
426.921616
21
497.653807
0
LINE
8
Sign
10
426.921616
20
497.653807
11
430.673700
21
495.410810
0
LINE
8
Sign
10
430.673700
20
495.410810
11
432.256590
21
505.713010
0
LINE
8
Sign
10
432.256590
20
505.713010
11
426.818952
21
509.326607
0
LINE
8
Sign
10
426.818952
20
509.326607
11
422.054256
21
513.128804
0
LINE
8
Sign
10
422.054256
20
513.128804
11
417.978519
21
517.097395
0
LINE
8
Sign
10
417.978519
20
517.097395
11
416.204015
21
519.137148
0
LINE
8
Sign
10
416.204015
20
519.137148
11
414.607757
21
521.210173
0
LINE
8
Sign
10
414.607757
20
521.210173
11
413.191747
21
523.313692
0
LINE
8
Sign
10
413.191747
20
523.313692
11
411.957987
21
525.444930
0
LINE
8
Sign
10
411.957987
20
525.444930
11
410.908479
21
527.601111
0
LINE
8
Sign
10
410.908479
20
527.601111
11
410.045225
21
529.779460
0
LINE
8
Sign
10
410.045225
20
529.779460
11
409.370227
21
531.977200
0
LINE
8
Sign
10
409.370227
20
531.977200
11
408.885487
21
534.191556
0
LINE
8
Sign
10
408.885487
20
534.191556
11
408.593007
21
536.419751
0
LINE
8
Sign
10
408.593007
20
536.419751
11
408.494790
21
538.659010
0
LINE
8
Sign
10
408.494790
20
538.659010
11
408.742297
21
542.152513
0
LINE
8
Sign
10
408.742297
20
542.152513
11
409.457567
21
545.603616
0
LINE
8
Sign
10
409.457567
20
545.603616
11
410.629485
21
549.002922
0
LINE
8
Sign
10
410.629485
20
549.002922
11
412.246935
21
552.341032
0
LINE
8
Sign
10
412.246935
20
552.341032
11
414.298801
21
555.608548
0
LINE
8
Sign
10
414.298801
20
555.608548
11
416.773969
21
558.796072
0
LINE
8
Sign
10
416.773969
20
558.796072
11
419.661322
21
561.894205
0
LINE
8
Sign
10
419.661322
20
561.894205
11
422.949745
21
564.893549
0
LINE
8
Sign
10
422.949745
20
564.893549
11
426.628123
21
567.784706
0
LINE
8
Sign
10
426.628123
20
567.784706
11
430.685339
21
570.558278
0
LINE
8
Sign
10
430.685339
20
570.558278
11
435.110279
21
573.204866
0
LINE
8
Sign
10
435.110279
20
573.204866
11
439.891827
21
575.715072
0
LINE
8
Sign
10
439.891827
20
575.715072
11
445.018868
21
578.079497
0
LINE
8
Sign
10
445.018868
20
578.079497
11
450.480286
21
580.288744
0
LINE
8
Sign
10
450.480286
20
580.288744
11
456.264965
21
582.333415
0
LINE
8
Sign
10
456.264965
20
582.333415
11
462.361790
21
584.204110
0
LINE
8
Sign
10
462.361790
20
584.204110
11
466.305925
21
590.651229
0
LINE
8
Sign
10
466.305925
20
590.651229
11
470.396880
21
596.911710
0
LINE
8
Sign
10
470.396880
20
596.911710
11
470.396800
21
596.911710
0
LINE
8
Sign
10
165.626000
20
273.274000
11
123.193000
21
273.274000
0
LINE
8
Sign
10
123.193000
20
273.274000
11
115.748630
21
313.725500
0
LINE
8
Sign
10
115.748630
20
313.725500
11
165.626000
21
313.726000
0
LINE
8
Sign
10
165.626000
20
313.726000
11
165.626000
21
273.274000
0
LINE
8
Sign
10
165.626000
20
381.145000
11
165.626000
21
340.693000
0
LINE
8
Sign
10
165.626000
20
340.693000
11
113.515000
21
340.693000
0
LINE
8
Sign
10
113.515000
20
340.693000
11
113.515000
21
246.306000
0
LINE
8
Sign
10
113.515000
20
246.306000
11
165.626000
21
246.306000
0
LINE
8
Sign
10
165.626000
20
246.306000
11
165.626000
21
205.855000
0
LINE
8
Sign
10
165.626000
20
205.855000
11
91.182000
21
205.855000
0
LINE
8
Sign
10
91.182000
20
205.855000
11
91.182000
21
381.145000
0
LINE
8
Sign
10
91.182000
20
381.145000
11
165.626000
21
381.145000
0
LINE
8
Sign
10
177.090000
20
381.145000
11
199.423000
21
381.145000
0
LINE
8
Sign
10
199.423000
20
381.145000
11
199.423000
21
246.306000
0
LINE
8
Sign
10
199.423000
20
246.306000
11
244.089000
21
246.306000
0
LINE
8
Sign
10
244.089000
20
246.306000
11
244.089000
21
205.855000
0
LINE
8
Sign
10
244.089000
20
205.855000
11
177.090000
21
205.855000
0
LINE
8
Sign
10
177.090000
20
205.855000
11
177.090000
21
381.145000
0
LINE
8
Sign
10
325.680000
20
273.274000
11
283.247000
21
273.274000
0
LINE
8
Sign
10
283.247000
20
273.274000
11
275.802640
21
313.725500
0
LINE
8
Sign
10
275.802640
20
313.725500
11
325.680000
21
313.726000
0
LINE
8
Sign
10
325.680000
20
313.726000
11
325.680000
21
273.274000
0
LINE
8
Sign
10
325.680000
20
381.145000
11
325.680000
21
340.693000
0
LINE
8
Sign
10
325.680000
20
340.693000
11
273.569000
21
340.693000
0
LINE
8
Sign
10
273.569000
20
340.693000
11
273.569000
21
246.306000
0
LINE
8
Sign
10
273.569000
20
246.306000
11
325.680000
21
246.306000
0
LINE
8
Sign
10
325.680000
20
246.306000
11
325.680000
21
205.855000
0
LINE
8
Sign
10
325.680000
20
205.855000
11
251.236000
21
205.855000
0
LINE
8
Sign
10
251.236000
20
205.855000
11
251.236000
21
381.145000
0
LINE
8
Sign
10
251.236000
20
381.145000
11
325.680000
21
381.145000
0
LINE
8
Sign
10
376.525000
20
246.306000
11
378.327929
21
246.411343
0
LINE
8
Sign
10
378.327929
20
246.411343
11
380.014539
21
246.727370
0
LINE
8
Sign
10
380.014539
20
246.727370
11
381.584832
21
247.254083
0
LINE
8
Sign
10
381.584832
20
247.254083
11
383.038806
21
247.991481
0
LINE
8
Sign
10
383.038806
20
247.991481
11
384.376463
21
248.939564
0
LINE
8
Sign
10
384.376463
20
248.939564
11
385.597802
21
250.098333
0
LINE
8
Sign
10
385.597802
20
250.098333
11
386.702822
21
251.467786
0
LINE
8
Sign
10
386.702822
20
251.467786
11
387.691525
21
253.047925
0
LINE
8
Sign
10
387.691525
20
253.047925
11
388.563910
21
254.838749
0
LINE
8
Sign
10
388.563910
20
254.838749
11
389.319977
21
256.840258
0
LINE
8
Sign
10
389.319977
20
256.840258
11
389.959725
21
259.052452
0
LINE
8
Sign
10
389.959725
20
259.052452
11
390.483156
21
261.475331
0
LINE
8
Sign
10
390.483156
20
261.475331
11
391.181064
21
266.953145
0
LINE
8
Sign
10
391.181064
20
266.953145
11
391.413700
21
273.273700
0
LINE
8
Sign
10
391.413700
20
273.273700
11
413.746000
21
273.274000
0
LINE
8
Sign
10
413.746000
20
273.274000
11
413.600602
21
265.109968
0
LINE
8
Sign
10
413.600602
20
265.109968
11
413.164409
21
257.472648
0
LINE
8
Sign
10
413.164409
20
257.472648
11
412.437421
21
250.362040
0
LINE
8
Sign
10
412.437421
20
250.362040
11
411.419637
21
243.778144
0
LINE
8
Sign
10
411.419637
20
243.778144
11
410.111059
21
237.720959
0
LINE
8
Sign
10
410.111059
20
237.720959
11
408.511684
21
232.190486
0
LINE
8
Sign
10
408.511684
20
232.190486
11
406.621515
21
227.186725
0
LINE
8
Sign
10
406.621515
20
227.186725
11
404.440550
21
222.709675
0
LINE
8
Sign
10
404.440550
20
222.709675
11
401.968790
21
218.759337
0
LINE
8
Sign
10
401.968790
20
218.759337
11
399.206234
21
215.335711
0
LINE
8
Sign
10
399.206234
20
215.335711
11
396.152884
21
212.438796
0
LINE
8
Sign
10
396.152884
20
212.438796
11
392.808737
21
210.068594
0
LINE
8
Sign
10
392.808737
20
210.068594
11
391.027616
21
209.081009
0
LINE
8
Sign
10
391.027616
20
209.081009
11
389.173796
21
208.225103
0
LINE
8
Sign
10
389.173796
20
208.225103
11
385.248059
21
206.908323
0
LINE
8
Sign
10
385.248059
20
206.908323
11
381.031527
21
206.118256
0
LINE
8
Sign
10
381.031527
20
206.118256
11
376.524200
21
205.854900
0
LINE
8
Sign
10
376.524200
20
205.854900
11
369.080000
21
205.855000
0
LINE
8
Sign
10
369.080000
20
205.855000
11
364.572673
21
206.118356
0
LINE
8
Sign
10
364.572673
20
206.118356
11
360.356141
21
206.908423
0
LINE
8
Sign
10
360.356141
20
206.908423
11
356.430404
21
208.225203
0
LINE
8
Sign
10
356.430404
20
208.225203
11
354.576584
21
209.081109
0
LINE
8
Sign
10
354.576584
20
209.081109
11
352.795462
21
210.068694
0
LINE
8
Sign
10
352.795462
20
210.068694
11
349.451316
21
212.438896
0
LINE
8
Sign
10
349.451316
20
212.438896
11
346.397966
21
215.335811
0
LINE
8
Sign
10
346.397966
20
215.335811
11
343.635410
21
218.759437
0
LINE
8
Sign
10
343.635410
20
218.759437
11
341.163650
21
222.709775
0
LINE
8
Sign
10
341.163650
20
222.709775
11
338.982685
21
227.186825
0
LINE
8
Sign
10
338.982685
20
227.186825
11
337.092516
21
232.190586
0
LINE
8
Sign
10
337.092516
20
232.190586
11
335.493141
21
237.721059
0
LINE
8
Sign
10
335.493141
20
237.721059
11
334.184563
21
243.778244
0
LINE
8
Sign
10
334.184563
20
243.778244
11
333.166779
21
250.362140
0
LINE
8
Sign
10
333.166779
20
250.362140
11
332.439791
21
257.472748
0
LINE
8
Sign
10
332.439791
20
257.472748
11
332.003598
21
265.110068
0
LINE
8
Sign
10
332.003598
20
265.110068
11
331.858200
21
273.274100
0
LINE
8
Sign
10
331.858200
20
273.274100
11
331.858000
21
313.726000
0
LINE
8
Sign
10
331.858000
20
313.726000
11
332.003398
21
321.890032
0
LINE
8
Sign
10
332.003398
20
321.890032
11
332.439591
21
329.527352
0
LINE
8
Sign
10
332.439591
20
329.527352
11
333.166579
21
336.637960
0
LINE
8
Sign
10
333.166579
20
336.637960
11
334.184363
21
343.221856
0
LINE
8
Sign
10
334.184363
20
343.221856
11
335.492941
21
349.279041
0
LINE
8
Sign
10
335.492941
20
349.279041
11
337.092316
21
354.809514
0
LINE
8
Sign
10
337.092316
20
354.809514
11
338.982485
21
359.813275
0
LINE
8
Sign
10
338.982485
20
359.813275
11
341.163450
21
364.290325
0
LINE
8
Sign
10
341.163450
20
364.290325
11
343.635210
21
368.240663
0
LINE
8
Sign
10
343.635210
20
368.240663
11
346.397766
21
371.664289
0
LINE
8
Sign
10
346.397766
20
371.664289
11
349.451116
21
374.561204
0
LINE
8
Sign
10
349.451116
20
374.561204
11
352.795263
21
376.931406
0
LINE
8
Sign
10
352.795263
20
376.931406
11
354.576384
21
377.918991
0
LINE
8
Sign
10
354.576384
20
377.918991
11
356.430204
21
378.774897
0
LINE
8
Sign
10
356.430204
20
378.774897
11
360.355941
21
380.091677
0
LINE
8
Sign
10
360.355941
20
380.091677
11
364.572473
21
380.881744
0
LINE
8
Sign
10
364.572473
20
380.881744
11
369.079800
21
381.145100
0
LINE
8
Sign
10
369.079800
20
381.145100
11
376.525000
21
381.145000
0
LINE
8
Sign
10
376.525000
20
381.145000
11
380.577241
21
380.933262
0
LINE
8
Sign
10
380.577241
20
380.933262
11
384.396262
21
380.298047
0
LINE
8
Sign
10
384.396262
20
380.298047
11
387.982066
21
379.239355
0
LINE
8
Sign
10
387.982066
20
379.239355
11
391.334650
21
377.757187
0
LINE
8
Sign
10
391.334650
20
377.757187
11
394.454016
21
375.851543
0
LINE
8
Sign
10
394.454016
20
375.851543
11
397.340162
21
373.522422
0
LINE
8
Sign
10
397.340162
20
373.522422
11
399.993091
21
370.769824
0
LINE
8
Sign
10
399.993091
20
370.769824
11
402.412800
21
367.593750
0
LINE
8
Sign
10
402.412800
20
367.593750
11
404.599291
21
363.994199
0
LINE
8
Sign
10
404.599291
20
363.994199
11
406.552562
21
359.971172
0
LINE
8
Sign
10
406.552562
20
359.971172
11
408.272616
21
355.524668
0
LINE
8
Sign
10
408.272616
20
355.524668
11
409.759450
21
350.654688
0
LINE
8
Sign
10
409.759450
20
350.654688
11
411.013066
21
345.361230
0
LINE
8
Sign
10
411.013066
20
345.361230
11
412.033462
21
339.644297
0
LINE
8
Sign
10
412.033462
20
339.644297
11
412.820641
21
333.503887
0
LINE
8
Sign
10
412.820641
20
333.503887
11
413.374600
21
326.940000
0
LINE
8
Sign
10
413.374600
20
326.940000
11
391.413700
21
313.725900
0
LINE
8
Sign
10
391.413700
20
313.725900
11
391.181064
21
320.046455
0
LINE
8
Sign
10
391.181064
20
320.046455
11
390.483156
21
325.524269
0
LINE
8
Sign
10
390.483156
20
325.524269
11
389.959725
21
327.947148
0
LINE
8
Sign
10
389.959725
20
327.947148
11
389.319977
21
330.159342
0
LINE
8
Sign
10
389.319977
20
330.159342
11
388.563910
21
332.160851
0
LINE
8
Sign
10
388.563910
20
332.160851
11
387.691525
21
333.951675
0
LINE
8
Sign
10
387.691525
20
333.951675
11
386.702822
21
335.531814
0
LINE
8
Sign
10
386.702822
20
335.531814
11
385.597802
21
336.901267
0
LINE
8
Sign
10
385.597802
20
336.901267
11
384.376463
21
338.060036
0
LINE
8
Sign
10
384.376463
20
338.060036
11
383.038806
21
339.008119
0
LINE
8
Sign
10
383.038806
20
339.008119
11
381.584832
21
339.745517
0
LINE
8
Sign
10
381.584832
20
339.745517
11
380.014539
21
340.272230
0
LINE
8
Sign
10
380.014539
20
340.272230
11
378.327929
21
340.588257
0
LINE
8
Sign
10
378.327929
20
340.588257
11
376.525000
21
340.693600
0
LINE
8
Sign
10
376.525000
20
340.693600
11
369.080000
21
340.693000
0
LINE
8
Sign
10
369.080000
20
340.693000
11
367.277071
21
340.587657
0
LINE
8
Sign
10
367.277071
20
340.587657
11
365.590461
21
340.271630
0
LINE
8
Sign
10
365.590461
20
340.271630
11
364.020168
21
339.744917
0
LINE
8
Sign
10
364.020168
20
339.744917
11
362.566194
21
339.007519
0
LINE
8
Sign
10
362.566194
20
339.007519
11
361.228537
21
338.059436
0
LINE
8
Sign
10
361.228537
20
338.059436
11
360.007198
21
336.900667
0
LINE
8
Sign
10
360.007198
20
336.900667
11
358.902178
21
335.531214
0
LINE
8
Sign
10
358.902178
20
335.531214
11
357.913475
21
333.951075
0
LINE
8
Sign
10
357.913475
20
333.951075
11
357.041090
21
332.160251
0
LINE
8
Sign
10
357.041090
20
332.160251
11
356.285023
21
330.158742
0
LINE
8
Sign
10
356.285023
20
330.158742
11
355.645275
21
327.946548
0
LINE
8
Sign
10
355.645275
20
327.946548
11
355.121844
21
325.523669
0
LINE
8
Sign
10
355.121844
20
325.523669
11
354.423936
21
320.045855
0
LINE
8
Sign
10
354.423936
20
320.045855
11
354.191300
21
313.725300
0
LINE
8
Sign
10
354.191300
20
313.725300
11
354.191000
21
273.274000
0
LINE
8
Sign
10
354.191000
20
273.274000
11
354.423636
21
266.953445
0
LINE
8
Sign
10
354.423636
20
266.953445
11
355.121544
21
261.475631
0
LINE
8
Sign
10
355.121544
20
261.475631
11
355.644975
21
259.052752
0
LINE
8
Sign
10
355.644975
20
259.052752
11
356.284723
21
256.840558
0
LINE
8
Sign
10
356.284723
20
256.840558
11
357.040790
21
254.839049
0
LINE
8
Sign
10
357.040790
20
254.839049
11
357.913175
21
253.048225
0
LINE
8
Sign
10
357.913175
20
253.048225
11
358.901878
21
251.468086
0
LINE
8
Sign
10
358.901878
20
251.468086
11
360.006898
21
250.098633
0
LINE
8
Sign
10
360.006898
20
250.098633
11
361.228237
21
248.939864
0
LINE
8
Sign
10
361.228237
20
248.939864
11
362.565894
21
247.991781
0
LINE
8
Sign
10
362.565894
20
247.991781
11
364.019868
21
247.254383
0
LINE
8
Sign
10
364.019868
20
247.254383
11
365.590161
21
246.727670
0
LINE
8
Sign
10
365.590161
20
246.727670
11
367.276771
21
246.411643
0
LINE
8
Sign
10
367.276771
20
246.411643
11
369.079700
21
246.306300
0
LINE
8
Sign
10
369.079700
20
246.306300
11
376.525000
21
246.306000
0
LINE
8
Sign
10
489.456000
20
381.145000
11
489.456000
21
340.693000
0
LINE
8
Sign
10
489.456000
20
340.693000
11
463.400000
21
340.693000
0
LINE
8
Sign
10
463.400000
20
340.693000
11
463.400000
21
192.236000
0
LINE
8
Sign
10
463.400000
20
192.236000
11
441.067000
21
205.855000
0
LINE
8
Sign
10
441.067000
20
205.855000
11
441.067000
21
340.693000
0
LINE
8
Sign
10
441.067000
20
340.693000
11
415.012000
21
340.693000
0
LINE
8
Sign
10
415.012000
20
340.693000
11
415.012000
21
381.145000
0
LINE
8
Sign
10
415.012000
20
381.145000
11
489.456000
21
381.145000
0
LINE
8
Sign
10
518.414000
20
340.693000
11
518.414000
21
192.371000
0
LINE
8
Sign
10
518.414000
20
192.371000
11
496.081000
21
205.855000
0
LINE
8
Sign
10
496.081000
20
205.855000
11
496.081000
21
381.145000
0
LINE
8
Sign
10
496.081000
20
381.145000
11
540.747000
21
381.145000
0
LINE
8
Sign
10
540.747000
20
381.145000
11
545.254327
21
380.934315
0
LINE
8
Sign
10
545.254327
20
380.934315
11
549.470859
21
380.302261
0
LINE
8
Sign
10
549.470859
20
380.302261
11
553.396596
21
379.248837
0
LINE
8
Sign
10
553.396596
20
379.248837
11
557.031538
21
377.774044
0
LINE
8
Sign
10
557.031538
20
377.774044
11
560.375684
21
375.877881
0
LINE
8
Sign
10
560.375684
20
375.877881
11
563.429034
21
373.560348
0
LINE
8
Sign
10
563.429034
20
373.560348
11
566.191590
21
370.821446
0
LINE
8
Sign
10
566.191590
20
370.821446
11
568.663350
21
367.661175
0
LINE
8
Sign
10
568.663350
20
367.661175
11
570.844315
21
364.079534
0
LINE
8
Sign
10
570.844315
20
364.079534
11
572.734484
21
360.076523
0
LINE
8
Sign
10
572.734484
20
360.076523
11
574.333859
21
355.652143
0
LINE
8
Sign
10
574.333859
20
355.652143
11
575.642438
21
350.806394
0
LINE
8
Sign
10
575.642438
20
350.806394
11
576.660221
21
345.539275
0
LINE
8
Sign
10
576.660221
20
345.539275
11
577.387209
21
339.850786
0
LINE
8
Sign
10
577.387209
20
339.850786
11
577.823402
21
333.740928
0
LINE
8
Sign
10
577.823402
20
333.740928
11
577.968800
21
327.209700
0
LINE
8
Sign
10
577.968800
20
327.209700
11
577.889413
21
322.351834
0
LINE
8
Sign
10
577.889413
20
322.351834
11
577.651252
21
317.722561
0
LINE
8
Sign
10
577.651252
20
317.722561
11
577.254316
21
313.321881
0
LINE
8
Sign
10
577.254316
20
313.321881
11
576.698606
21
309.149794
0
LINE
8
Sign
10
576.698606
20
309.149794
11
575.984122
21
305.206300
0
LINE
8
Sign
10
575.984122
20
305.206300
11
575.110864
21
301.491398
0
LINE
8
Sign
10
575.110864
20
301.491398
11
574.078832
21
298.005090
0
LINE
8
Sign
10
574.078832
20
298.005090
11
572.888025
21
294.747375
0
LINE
8
Sign
10
572.888025
20
294.747375
11
571.538444
21
291.718253
0
LINE
8
Sign
10
571.538444
20
291.718253
11
570.030089
21
288.917723
0
LINE
8
Sign
10
570.030089
20
288.917723
11
568.362960
21
286.345787
0
LINE
8
Sign
10
568.362960
20
286.345787
11
566.537056
21
284.002444
0
LINE
8
Sign
10
566.537056
20
284.002444
11
564.552379
21
281.887693
0
LINE
8
Sign
10
564.552379
20
281.887693
11
562.408927
21
280.001536
0
LINE
8
Sign
10
562.408927
20
280.001536
11
560.106700
21
278.343971
0
LINE
8
Sign
10
560.106700
20
278.343971
11
557.645700
21
276.915000
0
LINE
8
Sign
10
557.645700
20
276.915000
11
580.276600
21
205.855300
0
LINE
8
Sign
10
580.276600
20
205.855300
11
554.519000
21
205.855000
0
LINE
8
Sign
10
554.519000
20
205.855000
11
520.126000
21
313.726000
0
LINE
8
Sign
10
520.126000
20
313.726000
11
540.747000
21
313.726000
0
LINE
8
Sign
10
540.747000
20
313.726000
11
544.236539
21
313.936684
0
LINE
8
Sign
10
544.236539
20
313.936684
11
547.260806
21
314.568737
0
LINE
8
Sign
10
547.260806
20
314.568737
11
549.819802
21
315.622159
0
LINE
8
Sign
10
549.819802
20
315.622159
11
550.924822
21
316.306884
0
LINE
8
Sign
10
550.924822
20
316.306884
11
551.913525
21
317.096950
0
LINE
8
Sign
10
551.913525
20
317.096950
11
552.785910
21
317.992359
0
LINE
8
Sign
10
552.785910
20
317.992359
11
553.541977
21
318.993109
0
LINE
8
Sign
10
553.541977
20
318.993109
11
554.181725
21
320.099202
0
LINE
8
Sign
10
554.181725
20
320.099202
11
554.705156
21
321.310637
0
LINE
8
Sign
10
554.705156
20
321.310637
11
555.403064
21
324.049534
0
LINE
8
Sign
10
555.403064
20
324.049534
11
555.635700
21
327.209800
0
LINE
8
Sign
10
555.635700
20
327.209800
11
555.403064
21
330.370066
0
LINE
8
Sign
10
555.403064
20
330.370066
11
554.705156
21
333.108962
0
LINE
8
Sign
10
554.705156
20
333.108962
11
554.181725
21
334.320398
0
LINE
8
Sign
10
554.181725
20
334.320398
11
553.541977
21
335.426491
0
LINE
8
Sign
10
553.541977
20
335.426491
11
552.785910
21
336.427241
0
LINE
8
Sign
10
552.785910
20
336.427241
11
551.913525
21
337.322650
0
LINE
8
Sign
10
551.913525
20
337.322650
11
550.924822
21
338.112716
0
LINE
8
Sign
10
550.924822
20
338.112716
11
549.819802
21
338.797441
0
LINE
8
Sign
10
549.819802
20
338.797441
11
547.260806
21
339.850862
0
LINE
8
Sign
10
547.260806
20
339.850862
11
544.236539
21
340.482916
0
LINE
8
Sign
10
544.236539
20
340.482916
11
540.747000
21
340.693600
0
LINE
8
Sign
10
540.747000
20
340.693600
11
518.414000
21
340.693000
0
LINE
8
Sign
10
583.850000
20
205.855000
11
583.850000
21
381.145000
0
LINE
8
Sign
10
583.850000
20
381.145000
11
606.183000
21
381.145000
0
LINE
8
Sign
10
606.183000
20
381.145000
11
606.183000
21
192.371000
0
LINE
8
Sign
10
606.183000
20
192.371000
11
583.850000
21
205.855000
0
LINE
8
Sign
10
627.419000
20
254.028000
11
629.502358
21
250.578090
0
LINE
8
Sign
10
629.502358
20
250.578090
11
631.954760
21
247.057370
0
LINE
8
Sign
10
631.954760
20
247.057370
11
634.776208
21
243.465840
0
LINE
8
Sign
10
634.776208
20
243.465840
11
637.966700
21
239.803500
0
LINE
8
Sign
10
637.966700
20
239.803500
11
636.379980
21
231.396900
0
LINE
8
Sign
10
636.379980
20
231.396900
11
639.429537
21
229.556789
0
LINE
8
Sign
10
639.429537
20
229.556789
11
642.816390
21
227.789125
0
LINE
8
Sign
10
642.816390
20
227.789125
11
646.540537
21
226.093909
0
LINE
8
Sign
10
646.540537
20
226.093909
11
650.601980
21
224.471140
0
LINE
8
Sign
10
650.601980
20
224.471140
11
649.924061
21
222.572970
0
LINE
8
Sign
10
649.924061
20
222.572970
11
653.138582
21
221.671760
0
LINE
8
Sign
10
653.138582
20
221.671760
11
656.556256
21
221.036450
0
LINE
8
Sign
10
656.556256
20
221.036450
11
660.177082
21
220.667040
0
LINE
8
Sign
10
660.177082
20
220.667040
11
664.001061
21
220.563530
0
LINE
8
Sign
10
664.001061
20
220.563530
11
666.585751
21
212.557900
0
LINE
8
Sign
10
666.585751
20
212.557900
11
671.667501
21
214.443140
0
LINE
8
Sign
10
671.667501
20
214.443140
11
680.614221
21
219.653650
0
LINE
8
Sign
10
680.614221
20
219.653650
11
680.899057
21
217.461550
0
LINE
8
Sign
10
680.899057
20
217.461550
11
685.583207
21
220.385140
0
LINE
8
Sign
10
685.583207
20
220.385140
11
693.300797
21
227.454090
0
LINE
8
Sign
10
693.300797
20
227.454090
11
698.427187
21
222.850770
0
LINE
8
Sign
10
698.427187
20
222.850770
11
700.701744
21
226.600831
0
LINE
8
Sign
10
700.701744
20
226.600831
11
702.967815
21
230.638535
0
LINE
8
Sign
10
702.967815
20
230.638535
11
707.474497
21
239.576870
0
LINE
8
Sign
10
707.474497
20
239.576870
11
708.324486
21
238.129270
0
LINE
8
Sign
10
708.324486
20
238.129270
11
708.607491
21
239.731330
0
LINE
8
Sign
10
708.607491
20
239.731330
11
708.668904
21
241.381110
0
LINE
8
Sign
10
708.668904
20
241.381110
11
708.275831
21
241.955161
0
LINE
8
Sign
10
708.275831
20
241.955161
11
707.573747
21
242.431175
0
LINE
8
Sign
10
707.573747
20
242.431175
11
706.562651
21
242.809151
0
LINE
8
Sign
10
706.562651
20
242.809151
11
705.242544
21
243.089090
0
LINE
8
Sign
10
705.242544
20
243.089090
11
704.883219
21
246.561855
0
LINE
8
Sign
10
704.883219
20
246.561855
11
704.486031
21
248.830130
0
LINE
8
Sign
10
704.486031
20
248.830130
11
704.247438
21
249.453171
0
LINE
8
Sign
10
704.247438
20
249.453171
11
702.597913
21
246.906758
0
LINE
8
Sign
10
702.597913
20
246.906758
11
700.887378
21
243.940401
0
LINE
8
Sign
10
700.887378
20
243.940401
11
698.045118
21
238.909426
0
LINE
8
Sign
10
698.045118
20
238.909426
11
694.106138
21
232.494901
0
LINE
8
Sign
10
694.106138
20
232.494901
11
693.148839
21
235.091661
0
LINE
8
Sign
10
693.148839
20
235.091661
11
690.269923
21
232.081323
0
LINE
8
Sign
10
690.269923
20
232.081323
11
687.101784
21
229.235061
0
LINE
8
Sign
10
687.101784
20
229.235061
11
683.644423
21
226.552873
0
LINE
8
Sign
10
683.644423
20
226.552873
11
679.897839
21
224.034761
0
LINE
8
Sign
10
679.897839
20
224.034761
11
675.510329
21
230.956121
0
LINE
8
Sign
10
675.510329
20
230.956121
11
672.567733
21
229.481802
0
LINE
8
Sign
10
672.567733
20
229.481802
11
669.154484
21
228.102333
0
LINE
8
Sign
10
669.154484
20
228.102333
11
665.270583
21
226.817717
0
LINE
8
Sign
10
665.270583
20
226.817717
11
660.916029
21
225.627951
0
LINE
8
Sign
10
660.916029
20
225.627951
11
661.333750
21
228.881401
0
LINE
8
Sign
10
661.333750
20
228.881401
11
658.366170
21
229.342911
0
LINE
8
Sign
10
658.366170
20
229.342911
11
655.502430
21
230.015921
0
LINE
8
Sign
10
655.502430
20
230.015921
11
653.326779
21
230.997658
0
LINE
8
Sign
10
653.326779
20
230.997658
11
650.959665
21
232.250168
0
LINE
8
Sign
10
650.959665
20
232.250168
11
645.651050
21
235.567511
0
LINE
8
Sign
10
645.651050
20
235.567511
11
646.629409
21
244.694021
0
LINE
8
Sign
10
646.629409
20
244.694021
11
643.846324
21
247.141543
0
LINE
8
Sign
10
643.846324
20
247.141543
11
640.907579
21
250.200751
0
LINE
8
Sign
10
640.907579
20
250.200751
11
637.813174
21
253.871643
0
LINE
8
Sign
10
637.813174
20
253.871643
11
634.563109
21
258.154221
0
LINE
8
Sign
10
634.563109
20
258.154221
11
636.433069
21
259.449191
0
LINE
8
Sign
10
636.433069
20
259.449191
11
633.148849
21
266.288891
0
LINE
8
Sign
10
633.148849
20
266.288891
11
628.875699
21
279.283391
0
LINE
8
Sign
10
628.875699
20
279.283391
11
633.992999
21
284.937441
0
LINE
8
Sign
10
633.992999
20
284.937441
11
631.964919
21
291.489301
0
LINE
8
Sign
10
631.964919
20
291.489301
11
628.996579
21
305.034401
0
LINE
8
Sign
10
628.996579
20
305.034401
11
631.129819
21
304.869511
0
LINE
8
Sign
10
631.129819
20
304.869511
11
630.770617
21
310.514123
0
LINE
8
Sign
10
630.770617
20
310.514123
11
630.689548
21
316.059861
0
LINE
8
Sign
10
630.689548
20
316.059861
11
630.886612
21
321.506723
0
LINE
8
Sign
10
630.886612
20
321.506723
11
631.361809
21
326.854711
0
LINE
8
Sign
10
631.361809
20
326.854711
11
634.767569
21
327.710681
0
LINE
8
Sign
10
634.767569
20
327.710681
11
637.559149
21
328.239851
0
LINE
8
Sign
10
637.559149
20
328.239851
11
638.060192
21
332.711787
0
LINE
8
Sign
10
638.060192
20
332.711787
11
638.933181
21
337.636316
0
LINE
8
Sign
10
638.933181
20
337.636316
11
640.178117
21
343.013437
0
LINE
8
Sign
10
640.178117
20
343.013437
11
641.794999
21
348.843151
0
LINE
8
Sign
10
641.794999
20
348.843151
11
643.397039
21
346.783151
0
LINE
8
Sign
10
643.397039
20
346.783151
11
645.625110
21
350.708852
0
LINE
8
Sign
10
645.625110
20
350.708852
11
648.360134
21
354.553536
0
LINE
8
Sign
10
648.360134
20
354.553536
11
651.602110
21
358.317202
0
LINE
8
Sign
10
651.602110
20
358.317202
11
655.351039
21
361.999851
0
LINE
8
Sign
10
655.351039
20
361.999851
11
658.110912
21
358.629458
0
LINE
8
Sign
10
658.110912
20
358.629458
11
660.306789
21
355.718321
0
LINE
8
Sign
10
660.306789
20
355.718321
11
662.916720
21
357.584772
0
LINE
8
Sign
10
662.916720
20
357.584772
11
666.160414
21
359.425176
0
LINE
8
Sign
10
666.160414
20
359.425176
11
670.037870
21
361.239532
0
LINE
8
Sign
10
670.037870
20
361.239532
11
674.549089
21
363.027841
0
LINE
8
Sign
10
674.549089
20
363.027841
11
674.351336
21
359.779001
0
LINE
8
Sign
10
674.351336
20
359.779001
11
677.512161
21
359.609348
0
LINE
8
Sign
10
677.512161
20
359.609348
11
680.387296
21
359.172073
0
LINE
8
Sign
10
680.387296
20
359.172073
11
682.880421
21
358.157706
0
LINE
8
Sign
10
682.880421
20
358.157706
11
685.390046
21
356.895093
0
LINE
8
Sign
10
685.390046
20
356.895093
11
687.916171
21
355.384235
0
LINE
8
Sign
10
687.916171
20
355.384235
11
690.458796
21
353.625133
0
LINE
8
Sign
10
690.458796
20
353.625133
11
689.984252
21
348.564993
0
LINE
8
Sign
10
689.984252
20
348.564993
11
689.413256
21
344.287853
0
LINE
8
Sign
10
689.413256
20
344.287853
11
691.407261
21
342.000525
0
LINE
8
Sign
10
691.407261
20
342.000525
11
693.305116
21
339.240183
0
LINE
8
Sign
10
693.305116
20
339.240183
11
695.728331
21
334.842258
0
LINE
8
Sign
10
695.728331
20
334.842258
11
699.298416
21
327.642183
0
LINE
8
Sign
10
699.298416
20
327.642183
11
697.629966
21
326.979410
0
LINE
8
Sign
10
697.629966
20
326.979410
11
697.948037
21
326.148691
0
LINE
8
Sign
10
697.948037
20
326.148691
11
699.693647
21
324.196351
0
LINE
8
Sign
10
699.693647
20
324.196351
11
700.249900
21
323.998603
0
LINE
8
Sign
10
700.249900
20
323.998603
11
700.873337
21
324.011594
0
LINE
8
Sign
10
700.873337
20
324.011594
11
702.246069
21
324.746706
0
LINE
8
Sign
10
702.246069
20
324.746706
11
704.622507
21
326.287744
0
LINE
8
Sign
10
704.622507
20
326.287744
11
705.946557
21
323.698619
0
LINE
8
Sign
10
705.946557
20
323.698619
11
706.940167
21
322.358624
0
LINE
8
Sign
10
706.940167
20
322.358624
11
706.590862
21
325.491401
0
LINE
8
Sign
10
706.590862
20
325.491401
11
705.874847
21
328.616534
0
LINE
8
Sign
10
705.874847
20
328.616534
11
702.322827
21
342.044734
0
LINE
8
Sign
10
702.322827
20
342.044734
11
704.303000
21
342.086000
0
LINE
8
Sign
10
704.303000
20
342.086000
11
700.669250
21
363.258000
0
LINE
8
Sign
10
700.669250
20
363.258000
11
705.233750
21
367.749180
0
LINE
8
Sign
10
705.233750
20
367.749180
11
704.396105
21
368.778420
0
LINE
8
Sign
10
704.396105
20
368.778420
11
703.280465
21
369.278517
0
LINE
8
Sign
10
703.280465
20
369.278517
11
701.353795
21
368.662699
0
LINE
8
Sign
10
701.353795
20
368.662699
11
699.656405
21
367.737657
0
LINE
8
Sign
10
699.656405
20
367.737657
11
698.659064
21
366.094516
0
LINE
8
Sign
10
698.659064
20
366.094516
11
697.096955
21
362.450907
0
LINE
8
Sign
10
697.096955
20
362.450907
11
692.534945
21
370.310667
0
LINE
8
Sign
10
692.534945
20
370.310667
11
690.975285
21
363.474717
0
LINE
8
Sign
10
690.975285
20
363.474717
11
685.988660
21
364.273589
0
LINE
8
Sign
10
685.988660
20
364.273589
11
681.138885
21
364.787474
0
LINE
8
Sign
10
681.138885
20
364.787474
11
676.425960
21
365.016374
0
LINE
8
Sign
10
676.425960
20
365.016374
11
671.849885
21
364.960287
0
LINE
8
Sign
10
671.849885
20
364.960287
11
668.984105
21
372.541387
0
LINE
8
Sign
10
668.984105
20
372.541387
11
665.964560
21
371.032743
0
LINE
8
Sign
10
665.964560
20
371.032743
11
662.699495
21
369.139559
0
LINE
8
Sign
10
662.699495
20
369.139559
11
659.188910
21
366.861838
0
LINE
8
Sign
10
659.188910
20
366.861838
11
655.432805
21
364.199577
0
LINE
8
Sign
10
655.432805
20
364.199577
11
654.998219
21
366.493237
0
LINE
8
Sign
10
654.998219
20
366.493237
11
652.301467
21
364.304432
0
LINE
8
Sign
10
652.301467
20
364.304432
11
649.527699
21
361.616847
0
LINE
8
Sign
10
649.527699
20
361.616847
11
646.676917
21
358.430482
0
LINE
8
Sign
10
646.676917
20
358.430482
11
643.749119
21
354.745337
0
LINE
8
Sign
10
643.749119
20
354.745337
11
640.696992
21
356.827454
0
LINE
8
Sign
10
640.696992
20
356.827454
11
638.137049
21
358.396487
0
LINE
8
Sign
10
638.137049
20
358.396487
11
636.541572
21
354.483969
0
LINE
8
Sign
10
636.541572
20
354.483969
11
634.916072
21
350.034397
0
LINE
8
Sign
10
634.916072
20
350.034397
11
631.574999
21
339.524087
0
LINE
8
Sign
10
631.574999
20
339.524087
11
630.284909
21
340.962577
0
LINE
8
Sign
10
630.284909
20
340.962577
11
629.107981
21
336.855983
0
LINE
8
Sign
10
629.107981
20
336.855983
11
628.065667
21
332.228852
0
LINE
8
Sign
10
628.065667
20
332.228852
11
627.157966
21
327.081183
0
LINE
8
Sign
10
627.157966
20
327.081183
11
626.384879
21
321.412977
0
LINE
8
Sign
10
626.384879
20
321.412977
11
620.413729
21
319.823207
0
LINE
8
Sign
10
620.413729
20
319.823207
11
620.674274
21
315.190512
0
LINE
8
Sign
10
620.674274
20
315.190512
11
621.123293
21
310.077647
0
LINE
8
Sign
10
621.123293
20
310.077647
11
622.586749
21
298.411407
0
LINE
8
Sign
10
622.586749
20
298.411407
11
620.890519
21
298.690073
0
LINE
8
Sign
10
620.890519
20
298.690073
11
621.602412
21
293.373342
0
LINE
8
Sign
10
621.602412
20
293.373342
11
622.466692
21
288.177548
0
LINE
8
Sign
10
622.466692
20
288.177548
11
623.483357
21
283.102692
0
LINE
8
Sign
10
623.483357
20
283.102692
11
624.652409
21
278.148773
0
LINE
8
Sign
10
624.652409
20
278.148773
11
619.975149
21
272.503893
0
LINE
8
Sign
10
619.975149
20
272.503893
11
621.747113
21
268.569949
0
LINE
8
Sign
10
621.747113
20
268.569949
11
623.830494
21
264.341568
0
LINE
8
Sign
10
623.830494
20
264.341568
11
628.931509
21
255.001493
0
LINE
8
Sign
10
628.931509
20
255.001493
11
627.419000
21
254.028000
0
LINE
8
Sign
10
642.820200
20
217.086900
11
639.234115
21
219.543835
0
LINE
8
Sign
10
639.234115
20
219.543835
11
635.579520
21
222.457280
0
LINE
8
Sign
10
635.579520
20
222.457280
11
631.856415
21
225.827235
0
LINE
8
Sign
10
631.856415
20
225.827235
11
628.064800
21
229.653700
0
LINE
8
Sign
10
628.064800
20
229.653700
11
629.874630
21
237.960180
0
LINE
8
Sign
10
629.874630
20
237.960180
11
626.953409
21
241.202932
0
LINE
8
Sign
10
626.953409
20
241.202932
11
623.939935
21
245.084850
0
LINE
8
Sign
10
623.939935
20
245.084850
11
620.834209
21
249.605932
0
LINE
8
Sign
10
620.834209
20
249.605932
11
617.636230
21
254.766180
0
LINE
8
Sign
10
617.636230
20
254.766180
11
619.439050
21
255.850430
0
LINE
8
Sign
10
619.439050
20
255.850430
11
617.486693
21
260.768424
0
LINE
8
Sign
10
617.486693
20
260.768424
11
615.651110
21
266.081355
0
LINE
8
Sign
10
615.651110
20
266.081355
11
613.932303
21
271.789224
0
LINE
8
Sign
10
613.932303
20
271.789224
11
612.330270
21
277.892030
0
LINE
8
Sign
10
612.330270
20
277.892030
11
617.093230
21
283.120020
0
LINE
8
Sign
10
617.093230
20
283.120020
11
614.678960
21
293.431900
0
LINE
8
Sign
10
614.678960
20
293.431900
11
612.233490
21
306.045820
0
LINE
8
Sign
10
612.233490
20
306.045820
11
614.369760
21
305.776322
0
LINE
8
Sign
10
614.369760
20
305.776322
11
614.281213
21
311.420028
0
LINE
8
Sign
10
614.281213
20
311.420028
11
614.416089
21
317.264647
0
LINE
8
Sign
10
614.416089
20
317.264647
11
614.774389
21
323.310178
0
LINE
8
Sign
10
614.774389
20
323.310178
11
615.356114
21
329.556622
0
LINE
8
Sign
10
615.356114
20
329.556622
11
621.406744
21
330.938702
0
LINE
8
Sign
10
621.406744
20
330.938702
11
622.021631
21
336.060646
0
LINE
8
Sign
10
622.021631
20
336.060646
11
622.982899
21
341.569227
0
LINE
8
Sign
10
622.982899
20
341.569227
11
624.290546
21
347.464446
0
LINE
8
Sign
10
624.290546
20
347.464446
11
625.944574
21
353.746302
0
LINE
8
Sign
10
625.944574
20
353.746302
11
627.467024
21
351.893992
0
LINE
8
Sign
10
627.467024
20
351.893992
11
630.915154
21
359.397292
0
LINE
8
Sign
10
630.915154
20
359.397292
11
634.521166
21
365.281522
0
LINE
8
Sign
10
634.521166
20
365.281522
11
638.075424
21
370.431992
0
LINE
8
Sign
10
638.075424
20
370.431992
11
643.626484
21
366.360902
0
LINE
8
Sign
10
643.626484
20
366.360902
11
646.353254
21
369.708231
0
LINE
8
Sign
10
646.353254
20
369.708231
11
649.517394
21
373.156257
0
LINE
8
Sign
10
649.517394
20
373.156257
11
653.118904
21
376.704981
0
LINE
8
Sign
10
653.118904
20
376.704981
11
657.157784
21
380.354402
0
LINE
8
Sign
10
657.157784
20
380.354402
11
657.690472
21
377.225452
0
LINE
8
Sign
10
657.690472
20
377.225452
11
661.626653
21
378.759733
0
LINE
8
Sign
10
661.626653
20
378.759733
11
665.679797
21
380.060947
0
LINE
8
Sign
10
665.679797
20
380.060947
11
669.849903
21
381.129093
0
LINE
8
Sign
10
669.849903
20
381.129093
11
674.136972
21
381.964172
0
LINE
8
Sign
10
674.136972
20
381.964172
11
676.871462
21
373.857002
0
LINE
8
Sign
10
676.871462
20
373.857002
11
680.264961
21
374.195917
0
LINE
8
Sign
10
680.264961
20
374.195917
11
684.159327
21
374.349013
0
LINE
8
Sign
10
684.159327
20
374.349013
11
688.554561
21
374.316290
0
LINE
8
Sign
10
688.554561
20
374.316290
11
693.450662
21
374.097747
0
LINE
8
Sign
10
693.450662
20
374.097747
11
693.380390
21
373.991619
0
LINE
8
Sign
10
693.380390
20
373.991619
11
695.539545
21
375.901013
0
LINE
8
Sign
10
695.539545
20
375.901013
11
696.718171
21
376.646800
0
LINE
8
Sign
10
696.718171
20
376.646800
11
697.962830
21
377.253314
0
LINE
8
Sign
10
697.962830
20
377.253314
11
699.273521
21
377.720555
0
LINE
8
Sign
10
699.273521
20
377.720555
11
700.650245
21
378.048523
0
LINE
8
Sign
10
700.650245
20
378.048523
11
703.601790
21
378.286639
0
LINE
8
Sign
10
703.601790
20
378.286639
11
705.643887
21
377.478755
0
LINE
8
Sign
10
705.643887
20
377.478755
11
707.482148
21
376.117114
0
LINE
8
Sign
10
707.482148
20
376.117114
11
709.116572
21
374.201715
0
LINE
8
Sign
10
709.116572
20
374.201715
11
710.547160
21
371.732559
0
LINE
8
Sign
10
710.547160
20
371.732559
11
711.753223
21
367.544779
0
LINE
8
Sign
10
711.753223
20
367.544779
11
712.961210
21
362.048679
0
LINE
8
Sign
10
712.961210
20
362.048679
11
707.959710
21
357.443729
0
LINE
8
Sign
10
707.959710
20
357.443729
11
713.207070
21
336.305329
0
LINE
8
Sign
10
713.207070
20
336.305329
11
711.376470
21
336.162519
0
LINE
8
Sign
10
711.376470
20
336.162519
11
712.628630
21
328.547809
0
LINE
8
Sign
10
712.628630
20
328.547809
11
713.147318
21
320.917809
0
LINE
8
Sign
10
713.147318
20
320.917809
11
712.643122
21
318.107421
0
LINE
8
Sign
10
712.643122
20
318.107421
11
711.990668
21
315.346279
0
LINE
8
Sign
10
711.990668
20
315.346279
11
711.384597
21
314.123424
0
LINE
8
Sign
10
711.384597
20
314.123424
11
710.525285
21
312.777539
0
LINE
8
Sign
10
710.525285
20
312.777539
11
708.046938
21
309.716679
0
LINE
8
Sign
10
708.046938
20
309.716679
11
706.187344
21
310.868541
0
LINE
8
Sign
10
706.187344
20
310.868541
11
704.560723
21
312.208426
0
LINE
8
Sign
10
704.560723
20
312.208426
11
703.167074
21
313.736336
0
LINE
8
Sign
10
703.167074
20
313.736336
11
702.006398
21
315.452269
0
LINE
8
Sign
10
702.006398
20
315.452269
11
699.894818
21
314.884935
0
LINE
8
Sign
10
699.894818
20
314.884935
11
697.710306
21
315.545934
0
LINE
8
Sign
10
697.710306
20
315.545934
11
695.288768
21
316.777665
0
LINE
8
Sign
10
695.288768
20
316.777665
11
693.309216
21
319.196132
0
LINE
8
Sign
10
693.309216
20
319.196132
11
691.779018
21
321.309955
0
LINE
8
Sign
10
691.779018
20
321.309955
11
687.632468
21
330.015715
0
LINE
8
Sign
10
687.632468
20
330.015715
11
689.450668
21
330.576944
0
LINE
8
Sign
10
689.450668
20
330.576944
11
687.468888
21
335.559744
0
LINE
8
Sign
10
687.468888
20
335.559744
11
684.975758
21
338.595524
0
LINE
8
Sign
10
684.975758
20
338.595524
11
681.629908
21
341.927544
0
LINE
8
Sign
10
681.629908
20
341.927544
11
682.663818
21
349.171214
0
LINE
8
Sign
10
682.663818
20
349.171214
11
680.081482
21
349.634214
0
LINE
8
Sign
10
680.081482
20
349.634214
11
676.998453
21
349.655025
0
LINE
8
Sign
10
676.998453
20
349.655025
11
673.414732
21
349.233647
0
LINE
8
Sign
10
673.414732
20
349.233647
11
669.330318
21
348.370080
0
LINE
8
Sign
10
669.330318
20
348.370080
11
669.409081
21
350.674430
0
LINE
8
Sign
10
669.409081
20
350.674430
11
665.482381
21
349.441270
0
LINE
8
Sign
10
665.482381
20
349.441270
11
661.965423
21
347.379295
0
LINE
8
Sign
10
661.965423
20
347.379295
11
658.063571
21
344.681290
0
LINE
8
Sign
10
658.063571
20
344.681290
11
654.089091
21
350.041250
0
LINE
8
Sign
10
654.089091
20
350.041250
11
652.319872
21
347.197962
0
LINE
8
Sign
10
652.319872
20
347.197962
11
650.537508
21
343.556300
0
LINE
8
Sign
10
650.537508
20
343.556300
11
648.741997
21
339.116262
0
LINE
8
Sign
10
648.741997
20
339.116262
11
646.933341
21
333.877850
0
LINE
8
Sign
10
646.933341
20
333.877850
11
645.713531
21
335.422460
0
LINE
8
Sign
10
645.713531
20
335.422460
11
644.673796
21
331.796279
0
LINE
8
Sign
10
644.673796
20
331.796279
11
643.774373
21
327.767435
0
LINE
8
Sign
10
643.774373
20
327.767435
11
643.015261
21
323.335929
0
LINE
8
Sign
10
643.015261
20
323.335929
11
642.396461
21
318.501760
0
LINE
8
Sign
10
642.396461
20
318.501760
11
636.843801
21
317.653399
0
LINE
8
Sign
10
636.843801
20
317.653399
11
637.236893
21
313.036549
0
LINE
8
Sign
10
637.236893
20
313.036549
11
637.857357
21
308.175849
0
LINE
8
Sign
10
637.857357
20
308.175849
11
638.705193
21
303.071299
0
LINE
8
Sign
10
638.705193
20
303.071299
11
639.780401
21
297.722899
0
LINE
8
Sign
10
639.780401
20
297.722899
11
637.867231
21
297.892374
0
LINE
8
Sign
10
637.867231
20
297.892374
11
639.265478
21
289.678869
0
LINE
8
Sign
10
639.265478
20
289.678869
11
641.267841
21
279.646274
0
LINE
8
Sign
10
641.267841
20
279.646274
11
637.002901
21
274.952004
0
LINE
8
Sign
10
637.002901
20
274.952004
11
639.589961
21
269.353804
0
LINE
8
Sign
10
639.589961
20
269.353804
11
645.973971
21
259.438634
0
LINE
8
Sign
10
645.973971
20
259.438634
11
644.537881
21
258.362034
0
LINE
8
Sign
10
644.537881
20
258.362034
11
646.655837
21
255.449269
0
LINE
8
Sign
10
646.655837
20
255.449269
11
649.016708
21
252.698564
0
LINE
8
Sign
10
649.016708
20
252.698564
11
651.620492
21
250.109919
0
LINE
8
Sign
10
651.620492
20
250.109919
11
654.467191
21
247.683334
0
LINE
8
Sign
10
654.467191
20
247.683334
11
653.442481
21
240.125874
0
LINE
8
Sign
10
653.442481
20
240.125874
11
655.626266
21
239.491006
0
LINE
8
Sign
10
655.626266
20
239.491006
11
658.026981
21
238.965384
0
LINE
8
Sign
10
658.026981
20
238.965384
11
661.804276
21
239.044062
0
LINE
8
Sign
10
661.804276
20
239.044062
11
667.109501
21
239.573281
0
LINE
8
Sign
10
667.109501
20
239.573281
11
666.810665
21
237.264331
0
LINE
8
Sign
10
666.810665
20
237.264331
11
670.899515
21
237.977486
0
LINE
8
Sign
10
670.899515
20
237.977486
11
674.761190
21
239.549511
0
LINE
8
Sign
10
674.761190
20
239.549511
11
678.792315
21
241.596046
0
LINE
8
Sign
10
678.792315
20
241.596046
11
682.351445
21
235.390086
0
LINE
8
Sign
10
682.351445
20
235.390086
11
685.974785
21
239.442976
0
LINE
8
Sign
10
685.974785
20
239.442976
11
692.447875
21
248.893316
0
LINE
8
Sign
10
692.447875
20
248.893316
11
693.319523
21
246.713436
0
LINE
8
Sign
10
693.319523
20
246.713436
11
696.387373
21
250.937928
0
LINE
8
Sign
10
696.387373
20
250.937928
11
700.807123
21
256.603606
0
LINE
8
Sign
10
700.807123
20
256.603606
11
702.489838
21
258.025523
0
LINE
8
Sign
10
702.489838
20
258.025523
11
704.110023
21
259.079796
0
LINE
8
Sign
10
704.110023
20
259.079796
11
706.340118
21
259.361764
0
LINE
8
Sign
10
706.340118
20
259.361764
11
709.387823
21
259.294426
0
LINE
8
Sign
10
709.387823
20
259.294426
11
710.749667
21
255.423898
0
LINE
8
Sign
10
710.749667
20
255.423898
11
711.501603
21
252.325676
0
LINE
8
Sign
10
711.501603
20
252.325676
11
711.588022
21
249.396756
0
LINE
8
Sign
10
711.588022
20
249.396756
11
713.633192
21
247.241326
0
LINE
8
Sign
10
713.633192
20
247.241326
11
714.746377
21
243.869340
0
LINE
8
Sign
10
714.746377
20
243.869340
11
715.318260
21
240.499161
0
LINE
8
Sign
10
715.318260
20
240.499161
11
715.348842
21
237.130790
0
LINE
8
Sign
10
715.348842
20
237.130790
11
714.838122
21
233.764226
0
LINE
8
Sign
10
714.838122
20
233.764226
11
713.697728
21
230.129378
0
LINE
8
Sign
10
713.697728
20
230.129378
11
711.301912
21
224.270376
0
LINE
8
Sign
10
711.301912
20
224.270376
11
709.840472
21
226.542646
0
LINE
8
Sign
10
709.840472
20
226.542646
11
704.353892
21
219.101521
0
LINE
8
Sign
10
704.353892
20
219.101521
11
697.608472
21
210.796846
0
LINE
8
Sign
10
697.608472
20
210.796846
11
692.316892
21
216.024686
0
LINE
8
Sign
10
692.316892
20
216.024686
11
689.720745
21
213.380048
0
LINE
8
Sign
10
689.720745
20
213.380048
11
686.481362
21
210.460336
0
LINE
8
Sign
10
686.481362
20
210.460336
11
682.598745
21
207.265548
0
LINE
8
Sign
10
682.598745
20
207.265548
11
678.072892
21
203.795686
0
LINE
8
Sign
10
678.072892
20
203.795686
11
677.686920
21
206.927706
0
LINE
8
Sign
10
677.686920
20
206.927706
11
674.165153
21
205.650628
0
LINE
8
Sign
10
674.165153
20
205.650628
11
671.581450
21
204.916456
0
LINE
8
Sign
10
671.581450
20
204.916456
11
669.584599
21
204.501975
0
LINE
8
Sign
10
669.584599
20
204.501975
11
667.163315
21
204.170232
0
LINE
8
Sign
10
667.163315
20
204.170232
11
661.047450
21
203.754966
0
LINE
8
Sign
10
661.047450
20
203.754966
11
658.679640
21
211.869796
0
LINE
8
Sign
10
658.679640
20
211.869796
11
655.348700
21
211.898541
0
LINE
8
Sign
10
655.348700
20
211.898541
11
651.437370
21
212.320778
0
LINE
8
Sign
10
651.437370
20
212.320778
11
646.945650
21
213.136506
0
LINE
8
Sign
10
646.945650
20
213.136506
11
641.873540
21
214.345726
0
LINE
8
Sign
10
641.873540
20
214.345726
11
642.820200
21
217.086900
0
LINE
8
Sign
10
766.099000
20
369.436000
11
766.666550
21
364.502232
0
LINE
8
Sign
10
766.666550
20
364.502232
11
767.046102
21
359.721550
0
LINE
8
Sign
10
767.046102
20
359.721550
11
766.876179
21
355.531270
0
LINE
8
Sign
10
766.876179
20
355.531270
11
766.123755
21
352.427875
0
LINE
8
Sign
10
766.123755
20
352.427875
11
764.995359
21
349.630650
0
LINE
8
Sign
10
764.995359
20
349.630650
11
763.592496
21
348.051022
0
LINE
8
Sign
10
763.592496
20
348.051022
11
761.855337
21
346.608347
0
LINE
8
Sign
10
761.855337
20
346.608347
11
759.783881
21
345.302627
0
LINE
8
Sign
10
759.783881
20
345.302627
11
757.378129
21
344.133860
0
LINE
8
Sign
10
757.378129
20
344.133860
11
755.143062
21
347.750688
0
LINE
8
Sign
10
755.143062
20
347.750688
11
753.360439
21
350.958270
0
LINE
8
Sign
10
753.360439
20
350.958270
11
751.398003
21
350.466000
0
LINE
8
Sign
10
751.398003
20
350.466000
11
749.507664
21
350.328489
0
LINE
8
Sign
10
749.507664
20
350.328489
11
747.689423
21
350.545737
0
LINE
8
Sign
10
747.689423
20
350.545737
11
745.943279
21
351.117745
0
LINE
8
Sign
10
745.943279
20
351.117745
11
745.114957
21
352.179882
0
LINE
8
Sign
10
745.114957
20
352.179882
11
744.299163
21
353.517034
0
LINE
8
Sign
10
744.299163
20
353.517034
11
742.705154
21
357.016380
0
LINE
8
Sign
10
742.705154
20
357.016380
11
741.161253
21
361.615784
0
LINE
8
Sign
10
741.161253
20
361.615784
11
739.667459
21
367.315245
0
LINE
8
Sign
10
739.667459
20
367.315245
11
741.648000
21
367.357000
0
LINE
8
Sign
10
741.648000
20
367.357000
11
740.923954
21
376.971420
0
LINE
8
Sign
10
740.923954
20
376.971420
11
741.167235
21
381.163230
0
LINE
8
Sign
10
741.167235
20
381.163230
11
741.885307
21
384.187412
0
LINE
8
Sign
10
741.885307
20
384.187412
11
742.770105
21
386.534720
0
LINE
8
Sign
10
742.770105
20
386.534720
11
744.042836
21
388.327518
0
LINE
8
Sign
10
744.042836
20
388.327518
11
745.695318
21
389.997392
0
LINE
8
Sign
10
745.695318
20
389.997392
11
747.727551
21
391.544343
0
LINE
8
Sign
10
747.727551
20
391.544343
11
750.139535
21
392.968370
0
LINE
8
Sign
10
750.139535
20
392.968370
11
752.556413
21
389.407665
0
LINE
8
Sign
10
752.556413
20
389.407665
11
754.450605
21
386.150070
0
LINE
8
Sign
10
754.450605
20
386.150070
11
754.740898
21
386.260789
0
LINE
8
Sign
10
754.740898
20
386.260789
11
756.609777
21
386.659524
0
LINE
8
Sign
10
756.609777
20
386.659524
11
758.436375
21
386.625619
0
LINE
8
Sign
10
758.436375
20
386.625619
11
760.220692
21
386.159074
0
LINE
8
Sign
10
760.220692
20
386.159074
11
761.962728
21
385.259889
0
LINE
8
Sign
10
761.962728
20
385.259889
11
763.804823
21
382.524556
0
LINE
8
Sign
10
763.804823
20
382.524556
11
765.368968
21
379.260079
0
LINE
8
Sign
10
765.368968
20
379.260079
11
768.146668
21
369.688449
0
LINE
8
Sign
10
768.146668
20
369.688449
11
766.099000
21
369.436000
0
LINE
8
Sign
10
760.644880
20
355.296800
11
760.888877
21
356.976580
0
LINE
8
Sign
10
760.888877
20
356.976580
11
760.620204
21
360.019452
0
LINE
8
Sign
10
760.620204
20
360.019452
11
759.965422
21
364.022460
0
LINE
8
Sign
10
759.965422
20
364.022460
11
758.924530
21
368.985602
0
LINE
8
Sign
10
758.924530
20
368.985602
11
757.497527
21
374.908880
0
LINE
8
Sign
10
757.497527
20
374.908880
11
759.034747
21
375.045578
0
LINE
8
Sign
10
759.034747
20
375.045578
11
758.487178
21
376.813533
0
LINE
8
Sign
10
758.487178
20
376.813533
11
758.001007
21
377.745418
0
LINE
8
Sign
10
758.001007
20
377.745418
11
756.730436
21
377.745114
0
LINE
8
Sign
10
756.730436
20
377.745114
11
755.128352
21
377.476233
0
LINE
8
Sign
10
755.128352
20
377.476233
11
753.194756
21
376.938774
0
LINE
8
Sign
10
753.194756
20
376.938774
11
750.929647
21
376.132738
0
LINE
8
Sign
10
750.929647
20
376.132738
11
749.041630
21
379.181120
0
LINE
8
Sign
10
749.041630
20
379.181120
11
747.401437
21
381.292648
0
LINE
8
Sign
10
747.401437
20
381.292648
11
747.160527
21
379.508268
0
LINE
8
Sign
10
747.160527
20
379.508268
11
747.363237
21
376.679902
0
LINE
8
Sign
10
747.363237
20
376.679902
11
747.912009
21
372.694313
0
LINE
8
Sign
10
747.912009
20
372.694313
11
750.047737
21
361.251468
0
LINE
8
Sign
10
750.047737
20
361.251468
11
748.581000
21
361.221000
0
LINE
8
Sign
10
748.581000
20
361.221000
11
748.911417
21
359.971860
0
LINE
8
Sign
10
748.911417
20
359.971860
11
749.296673
21
359.351875
0
LINE
8
Sign
10
749.296673
20
359.351875
11
750.880081
21
359.476449
0
LINE
8
Sign
10
750.880081
20
359.476449
11
752.696455
21
359.789047
0
LINE
8
Sign
10
752.696455
20
359.789047
11
757.028103
21
360.978315
0
LINE
8
Sign
10
757.028103
20
360.978315
11
758.979628
21
357.643413
0
LINE
8
Sign
10
758.979628
20
357.643413
11
760.645103
21
355.296905
0
LINE
8
Sign
10
760.645103
20
355.296905
11
760.644880
21
355.296800
0
LINE
8
Sign
10
722.864880
20
220.429800
11
724.910823
21
220.734085
0
LINE
8
Sign
10
724.910823
20
220.734085
11
728.842150
21
221.810340
0
LINE
8
Sign
10
728.842150
20
221.810340
11
732.215150
21
214.449180
0
LINE
8
Sign
10
732.215150
20
214.449180
11
746.115450
21
220.914210
0
LINE
8
Sign
10
746.115450
20
220.914210
11
746.192000
21
218.299000
0
LINE
8
Sign
10
746.192000
20
218.299000
11
760.453600
21
222.468840
0
LINE
8
Sign
10
760.453600
20
222.468840
11
763.826600
21
215.107680
0
LINE
8
Sign
10
763.826600
20
215.107680
11
777.726900
21
221.572710
0
LINE
8
Sign
10
777.726900
20
221.572710
11
777.804000
21
218.957000
0
LINE
8
Sign
10
777.804000
20
218.957000
11
792.065600
21
223.126840
0
LINE
8
Sign
10
792.065600
20
223.126840
11
795.352950
21
216.182560
0
LINE
8
Sign
10
795.352950
20
216.182560
11
796.004858
21
216.784912
0
LINE
8
Sign
10
796.004858
20
216.784912
11
796.524552
21
217.515340
0
LINE
8
Sign
10
796.524552
20
217.515340
11
796.912033
21
218.373842
0
LINE
8
Sign
10
796.912033
20
218.373842
11
797.167300
21
219.360420
0
LINE
8
Sign
10
797.167300
20
219.360420
11
796.708022
21
222.490910
0
LINE
8
Sign
10
796.708022
20
222.490910
11
795.888486
21
224.148533
0
LINE
8
Sign
10
795.888486
20
224.148533
11
794.537032
21
226.423080
0
LINE
8
Sign
10
794.537032
20
226.423080
11
791.349797
21
225.623986
0
LINE
8
Sign
10
791.349797
20
225.623986
11
783.835532
21
223.478730
0
LINE
8
Sign
10
783.835532
20
223.478730
11
780.465612
21
230.735350
0
LINE
8
Sign
10
780.465612
20
230.735350
11
766.635612
21
224.376390
0
LINE
8
Sign
10
766.635612
20
224.376390
11
766.367000
21
233.477000
0
LINE
8
Sign
10
766.367000
20
233.477000
11
762.627000
21
233.399000
0
LINE
8
Sign
10
762.627000
20
233.399000
11
758.307060
21
260.418100
0
LINE
8
Sign
10
758.307060
20
260.418100
11
763.305430
21
265.127650
0
LINE
8
Sign
10
763.305430
20
265.127650
11
758.449550
21
285.436850
0
LINE
8
Sign
10
758.449550
20
285.436850
11
760.283000
21
285.476000
0
LINE
8
Sign
10
760.283000
20
285.476000
11
756.951940
21
306.340300
0
LINE
8
Sign
10
756.951940
20
306.340300
11
761.953390
21
310.945250
0
LINE
8
Sign
10
761.953390
20
310.945250
11
759.187320
21
322.610450
0
LINE
8
Sign
10
759.187320
20
322.610450
11
759.581835
21
321.676652
0
LINE
8
Sign
10
759.581835
20
321.676652
11
759.258350
21
322.690431
0
LINE
8
Sign
10
759.258350
20
322.690431
11
759.076925
21
323.864172
0
LINE
8
Sign
10
759.076925
20
323.864172
11
757.249463
21
323.616759
0
LINE
8
Sign
10
757.249463
20
323.616759
11
753.680245
21
322.705052
0
LINE
8
Sign
10
753.680245
20
322.705052
11
744.366065
21
319.998952
0
LINE
8
Sign
10
744.366065
20
319.998952
11
740.996145
21
327.255542
0
LINE
8
Sign
10
740.996145
20
327.255542
11
734.068175
21
323.892645
0
LINE
8
Sign
10
734.068175
20
323.892645
11
731.330168
21
322.324448
0
LINE
8
Sign
10
731.330168
20
322.324448
11
729.076145
21
320.831752
0
LINE
8
Sign
10
729.076145
20
320.831752
11
729.168021
21
320.205662
0
LINE
8
Sign
10
729.168021
20
320.205662
11
729.559450
21
319.376463
0
LINE
8
Sign
10
729.559450
20
319.376463
11
732.071720
21
318.800793
0
LINE
8
Sign
10
732.071720
20
318.800793
11
733.012595
21
314.895328
0
LINE
8
Sign
10
733.012595
20
314.895328
11
733.968570
21
311.722853
0
LINE
8
Sign
10
733.968570
20
311.722853
11
748.018570
21
318.086353
0
LINE
8
Sign
10
748.018570
20
318.086353
11
748.284000
21
309.090000
0
LINE
8
Sign
10
748.284000
20
309.090000
11
751.878000
21
309.165000
0
LINE
8
Sign
10
751.878000
20
309.165000
11
756.266780
21
287.276000
0
LINE
8
Sign
10
756.266780
20
287.276000
11
751.307770
21
283.718630
0
LINE
8
Sign
10
751.307770
20
283.718630
11
756.098120
21
268.118130
0
LINE
8
Sign
10
756.098120
20
268.118130
11
754.191000
21
268.078000
0
LINE
8
Sign
10
754.191000
20
268.078000
11
757.297520
21
252.337800
0
LINE
8
Sign
10
757.297520
20
252.337800
11
752.335420
21
248.885030
0
LINE
8
Sign
10
752.335420
20
248.885030
11
757.125770
21
233.284530
0
LINE
8
Sign
10
757.125770
20
233.284530
11
750.525000
21
233.147000
0
LINE
8
Sign
10
750.525000
20
233.147000
11
750.682000
21
227.812000
0
LINE
8
Sign
10
750.682000
20
227.812000
11
731.980300
21
222.398260
0
LINE
8
Sign
10
731.980300
20
222.398260
11
728.683740
21
229.656410
0
LINE
8
Sign
10
728.683740
20
229.656410
11
727.502333
21
229.121517
0
LINE
8
Sign
10
727.502333
20
229.121517
11
726.136883
21
228.294960
0
LINE
8
Sign
10
726.136883
20
228.294960
11
722.853850
21
225.766850
0
LINE
8
Sign
10
722.853850
20
225.766850
11
722.864594
21
220.428980
0
LINE
8
Sign
10
722.864594
20
220.428980
11
722.864880
21
220.429800
0
LINE
8
Sign
10
727.801890
20
204.832400
11
724.801790
21
211.992040
0
LINE
8
Sign
10
724.801790
20
211.992040
11
722.913320
21
211.324653
0
LINE
8
Sign
10
722.913320
20
211.324653
11
720.342188
21
212.029946
0
LINE
8
Sign
10
720.342188
20
212.029946
11
719.230192
21
212.562838
0
LINE
8
Sign
10
719.230192
20
212.562838
11
718.233910
21
213.215893
0
LINE
8
Sign
10
718.233910
20
213.215893
11
716.176400
21
215.789733
0
LINE
8
Sign
10
716.176400
20
215.789733
11
715.309536
21
218.741649
0
LINE
8
Sign
10
715.309536
20
218.741649
11
714.629713
21
222.194638
0
LINE
8
Sign
10
714.629713
20
222.194638
11
714.136931
21
226.148699
0
LINE
8
Sign
10
714.136931
20
226.148699
11
713.831190
21
230.603833
0
LINE
8
Sign
10
713.831190
20
230.603833
11
716.285540
21
229.503573
0
LINE
8
Sign
10
716.285540
20
229.503573
11
716.783024
21
230.792855
0
LINE
8
Sign
10
716.783024
20
230.792855
11
717.400683
21
231.973430
0
LINE
8
Sign
10
717.400683
20
231.973430
11
718.138514
21
233.045300
0
LINE
8
Sign
10
718.138514
20
233.045300
11
718.996520
21
234.008463
0
LINE
8
Sign
10
718.996520
20
234.008463
11
719.974699
21
234.862920
0
LINE
8
Sign
10
719.974699
20
234.862920
11
721.073053
21
235.608670
0
LINE
8
Sign
10
721.073053
20
235.608670
11
723.630280
21
236.774053
0
LINE
8
Sign
10
723.630280
20
236.774053
11
733.094200
21
239.378633
0
LINE
8
Sign
10
733.094200
20
239.378633
11
736.014820
21
232.426713
0
LINE
8
Sign
10
736.014820
20
232.426713
11
748.255920
21
237.915153
0
LINE
8
Sign
10
748.255920
20
237.915153
11
745.109280
21
255.015253
0
LINE
8
Sign
10
745.109280
20
255.015253
11
749.863700
21
258.045033
0
LINE
8
Sign
10
749.863700
20
258.045033
11
744.984560
21
274.167033
0
LINE
8
Sign
10
744.984560
20
274.167033
11
746.965000
21
274.208000
0
LINE
8
Sign
10
746.965000
20
274.208000
11
744.081590
21
289.848200
0
LINE
8
Sign
10
744.081590
20
289.848200
11
748.836010
21
292.877970
0
LINE
8
Sign
10
748.836010
20
292.877970
11
744.850070
21
306.087870
0
LINE
8
Sign
10
744.850070
20
306.087870
11
738.732260
21
304.495050
0
LINE
8
Sign
10
738.732260
20
304.495050
11
733.190385
21
303.280565
0
LINE
8
Sign
10
733.190385
20
303.280565
11
730.741404
21
302.954786
0
LINE
8
Sign
10
730.741404
20
302.954786
11
728.507060
21
302.816650
0
LINE
8
Sign
10
728.507060
20
302.816650
11
727.094467
21
307.785145
0
LINE
8
Sign
10
727.094467
20
307.785145
11
726.656992
21
310.019864
0
LINE
8
Sign
10
726.656992
20
310.019864
11
726.398730
21
312.088230
0
LINE
8
Sign
10
726.398730
20
312.088230
11
724.356650
21
314.139050
0
LINE
8
Sign
10
724.356650
20
314.139050
11
723.137032
21
317.541535
0
LINE
8
Sign
10
723.137032
20
317.541535
11
722.487580
21
320.275550
0
LINE
8
Sign
10
722.487580
20
320.275550
11
722.165707
21
323.722900
0
LINE
8
Sign
10
722.165707
20
323.722900
11
723.001920
21
327.717730
0
LINE
8
Sign
10
723.001920
20
327.717730
11
723.882734
21
329.423861
0
LINE
8
Sign
10
723.882734
20
329.423861
11
725.224175
21
331.375095
0
LINE
8
Sign
10
725.224175
20
331.375095
11
727.026244
21
333.571431
0
LINE
8
Sign
10
727.026244
20
333.571431
11
729.288940
21
336.012870
0
LINE
8
Sign
10
729.288940
20
336.012870
11
730.047823
21
332.679290
0
LINE
8
Sign
10
730.047823
20
332.679290
11
735.667503
21
334.366398
0
LINE
8
Sign
10
735.667503
20
334.366398
11
745.406523
21
336.976680
0
LINE
8
Sign
10
745.406523
20
336.976680
11
748.327083
21
330.024740
0
LINE
8
Sign
10
748.327083
20
330.024740
11
753.472883
21
332.225320
0
LINE
8
Sign
10
753.472883
20
332.225320
11
757.023643
21
333.764660
0
LINE
8
Sign
10
757.023643
20
333.764660
11
759.651713
21
334.238091
0
LINE
8
Sign
10
759.651713
20
334.238091
11
765.648273
21
332.478991
0
LINE
8
Sign
10
765.648273
20
332.478991
11
764.206783
21
329.099571
0
LINE
8
Sign
10
764.206783
20
329.099571
11
765.136357
21
327.444241
0
LINE
8
Sign
10
765.136357
20
327.444241
11
766.444079
21
320.432516
0
LINE
8
Sign
10
766.444079
20
320.432516
11
768.898967
21
304.390841
0
LINE
8
Sign
10
768.898967
20
304.390841
11
764.102047
21
300.313501
0
LINE
8
Sign
10
764.102047
20
300.313501
11
768.976497
21
279.376701
0
LINE
8
Sign
10
768.976497
20
279.376701
11
767.143000
21
279.338000
0
LINE
8
Sign
10
767.143000
20
279.338000
11
770.250950
21
258.573700
0
LINE
8
Sign
10
770.250950
20
258.573700
11
765.454030
21
254.496360
0
LINE
8
Sign
10
765.454030
20
254.496360
11
769.658390
21
236.371660
0
LINE
8
Sign
10
769.658390
20
236.371660
11
784.876490
21
240.456740
0
LINE
8
Sign
10
784.876490
20
240.456740
11
787.797050
21
233.504820
0
LINE
8
Sign
10
787.797050
20
233.504820
11
792.942850
21
235.705380
0
LINE
8
Sign
10
792.942850
20
235.705380
11
795.498398
21
236.151140
0
LINE
8
Sign
10
795.498398
20
236.151140
11
797.627720
21
236.116969
0
LINE
8
Sign
10
797.627720
20
236.116969
11
799.188820
21
235.443013
0
LINE
8
Sign
10
799.188820
20
235.443013
11
800.607860
21
234.609069
0
LINE
8
Sign
10
800.607860
20
234.609069
11
802.345923
21
232.290219
0
LINE
8
Sign
10
802.345923
20
232.290219
11
804.973770
21
228.419909
0
LINE
8
Sign
10
804.973770
20
228.419909
11
802.813520
21
227.014209
0
LINE
8
Sign
10
802.813520
20
227.014209
11
803.597095
21
222.843769
0
LINE
8
Sign
10
803.597095
20
222.843769
11
803.705000
21
219.183000
0
LINE
8
Sign
10
803.705000
20
219.183000
11
803.373329
21
216.742532
0
LINE
8
Sign
10
803.373329
20
216.742532
11
802.676490
21
214.242150
0
LINE
8
Sign
10
802.676490
20
214.242150
11
802.111728
21
212.940018
0
LINE
8
Sign
10
802.111728
20
212.940018
11
801.292238
21
211.720891
0
LINE
8
Sign
10
801.292238
20
211.720891
11
800.218018
21
210.584769
0
LINE
8
Sign
10
800.218018
20
210.584769
11
798.889070
21
209.531652
0
LINE
8
Sign
10
798.889070
20
209.531652
11
797.305393
21
208.561541
0
LINE
8
Sign
10
797.305393
20
208.561541
11
795.466987
21
207.674436
0
LINE
8
Sign
10
795.466987
20
207.674436
11
793.373853
21
206.870335
0
LINE
8
Sign
10
793.373853
20
206.870335
11
791.025990
21
206.149240
0
LINE
8
Sign
10
791.025990
20
206.149240
11
788.105430
21
213.101160
0
LINE
8
Sign
10
788.105430
20
213.101160
11
773.765030
21
206.626960
0
LINE
8
Sign
10
773.765030
20
206.626960
11
773.688000
21
209.242000
0
LINE
8
Sign
10
773.688000
20
209.242000
11
759.414100
21
205.490570
0
LINE
8
Sign
10
759.414100
20
205.490570
11
756.493540
21
212.442490
0
LINE
8
Sign
10
756.493540
20
212.442490
11
742.153140
21
205.968290
0
LINE
8
Sign
10
742.153140
20
205.968290
11
742.076000
21
208.583000
0
LINE
8
Sign
10
742.076000
20
208.583000
11
727.801890
21
204.832400
0
LINE
8
Sign
10
819.516000
20
233.015000
11
822.777890
21
229.419620
0
LINE
8
Sign
10
822.777890
20
229.419620
11
826.153118
21
227.579717
0
LINE
8
Sign
10
826.153118
20
227.579717
11
830.446700
21
225.706610
0
LINE
8
Sign
10
830.446700
20
225.706610
11
831.283459
21
217.245890
0
LINE
8
Sign
10
831.283459
20
217.245890
11
834.097996
21
217.618550
0
LINE
8
Sign
10
834.097996
20
217.618550
11
837.340259
21
218.418789
0
LINE
8
Sign
10
837.340259
20
218.418789
11
841.010246
21
219.646610
0
LINE
8
Sign
10
841.010246
20
219.646610
11
845.107959
21
221.302010
0
LINE
8
Sign
10
845.107959
20
221.302010
11
845.105642
21
218.894560
0
LINE
8
Sign
10
845.105642
20
218.894560
11
848.279010
21
220.164364
0
LINE
8
Sign
10
848.279010
20
220.164364
11
851.482882
21
221.644147
0
LINE
8
Sign
10
851.482882
20
221.644147
11
854.717260
21
223.333909
0
LINE
8
Sign
10
854.717260
20
223.333909
11
857.982142
21
225.233650
0
LINE
8
Sign
10
857.982142
20
225.233650
11
862.283952
21
218.729100
0
LINE
8
Sign
10
862.283952
20
218.729100
11
867.262277
21
224.118600
0
LINE
8
Sign
10
867.262277
20
224.118600
11
873.648852
21
231.526100
0
LINE
8
Sign
10
873.648852
20
231.526100
11
874.383042
21
229.029380
0
LINE
8
Sign
10
874.383042
20
229.029380
11
876.305510
21
231.031940
0
LINE
8
Sign
10
876.305510
20
231.031940
11
877.936172
21
232.976120
0
LINE
8
Sign
10
877.936172
20
232.976120
11
879.182282
21
235.514170
0
LINE
8
Sign
10
879.182282
20
235.514170
11
879.150481
21
237.214337
0
LINE
8
Sign
10
879.150481
20
237.214337
11
878.676657
21
240.213680
0
LINE
8
Sign
10
878.676657
20
240.213680
11
881.646995
21
240.903586
0
LINE
8
Sign
10
881.646995
20
240.903586
11
883.407107
21
241.568240
0
LINE
8
Sign
10
883.407107
20
241.568240
11
883.902041
21
242.206593
0
LINE
8
Sign
10
883.902041
20
242.206593
11
882.987900
21
243.338873
0
LINE
8
Sign
10
882.987900
20
243.338873
11
881.763055
21
243.810557
0
LINE
8
Sign
10
881.763055
20
243.810557
11
880.765920
21
244.025307
0
LINE
8
Sign
10
880.765920
20
244.025307
11
879.748363
21
243.690067
0
LINE
8
Sign
10
879.748363
20
243.690067
11
878.883670
21
243.148678
0
LINE
8
Sign
10
878.883670
20
243.148678
11
874.041170
21
238.128368
0
LINE
8
Sign
10
874.041170
20
238.128368
11
873.456780
21
240.523598
0
LINE
8
Sign
10
873.456780
20
240.523598
11
861.244880
21
229.069598
0
LINE
8
Sign
10
861.244880
20
229.069598
11
856.075280
21
235.137318
0
LINE
8
Sign
10
856.075280
20
235.137318
11
853.232121
21
232.624913
0
LINE
8
Sign
10
853.232121
20
232.624913
11
849.985185
21
230.117178
0
LINE
8
Sign
10
849.985185
20
230.117178
11
846.334471
21
227.614113
0
LINE
8
Sign
10
846.334471
20
227.614113
11
842.279980
21
225.115718
0
LINE
8
Sign
10
842.279980
20
225.115718
11
842.181000
21
228.463000
0
LINE
8
Sign
10
842.181000
20
228.463000
11
838.779702
21
228.078115
0
LINE
8
Sign
10
838.779702
20
228.078115
11
835.732770
21
228.119284
0
LINE
8
Sign
10
835.732770
20
228.119284
11
833.383963
21
228.750697
0
LINE
8
Sign
10
833.383963
20
228.750697
11
830.469640
21
229.893684
0
LINE
8
Sign
10
830.469640
20
229.893684
11
827.550343
21
232.449564
0
LINE
8
Sign
10
827.550343
20
232.449564
11
824.349630
21
235.836924
0
LINE
8
Sign
10
824.349630
20
235.836924
11
825.842512
21
241.206134
0
LINE
8
Sign
10
825.842512
20
241.206134
11
827.299080
21
245.318544
0
LINE
8
Sign
10
827.299080
20
245.318544
11
825.673320
21
248.961163
0
LINE
8
Sign
10
825.673320
20
248.961163
11
823.921250
21
253.464669
0
LINE
8
Sign
10
823.921250
20
253.464669
11
822.042870
21
258.829063
0
LINE
8
Sign
10
822.042870
20
258.829063
11
820.038180
21
265.054344
0
LINE
8
Sign
10
820.038180
20
265.054344
11
822.162160
21
265.203259
0
LINE
8
Sign
10
822.162160
20
265.203259
11
818.461230
21
286.164559
0
LINE
8
Sign
10
818.461230
20
286.164559
11
823.902830
21
290.778679
0
LINE
8
Sign
10
823.902830
20
290.778679
11
818.683240
21
310.975679
0
LINE
8
Sign
10
818.683240
20
310.975679
11
825.578000
21
311.119000
0
LINE
8
Sign
10
825.578000
20
311.119000
11
825.411000
21
316.768000
0
LINE
8
Sign
10
825.411000
20
316.768000
11
843.660300
21
322.590980
0
LINE
8
Sign
10
843.660300
20
322.590980
11
846.898940
21
314.808310
0
LINE
8
Sign
10
846.898940
20
314.808310
11
860.346740
21
321.682610
0
LINE
8
Sign
10
860.346740
20
321.682610
11
860.430000
21
318.858000
0
LINE
8
Sign
10
860.430000
20
318.858000
11
861.374237
21
319.191678
0
LINE
8
Sign
10
861.374237
20
319.191678
11
863.898137
21
320.709618
0
LINE
8
Sign
10
863.898137
20
320.709618
11
863.316066
21
325.512238
0
LINE
8
Sign
10
863.316066
20
325.512238
11
865.683423
21
326.739083
0
LINE
8
Sign
10
865.683423
20
326.739083
11
867.138596
21
327.789918
0
LINE
8
Sign
10
867.138596
20
327.789918
11
867.633478
21
328.428240
0
LINE
8
Sign
10
867.633478
20
328.428240
11
866.881537
21
329.040585
0
LINE
8
Sign
10
866.881537
20
329.040585
11
865.536789
21
329.221905
0
LINE
8
Sign
10
865.536789
20
329.221905
11
864.454967
21
329.199364
0
LINE
8
Sign
10
864.454967
20
329.199364
11
860.812529
21
327.658121
0
LINE
8
Sign
10
860.812529
20
327.658121
11
855.837897
21
325.251774
0
LINE
8
Sign
10
855.837897
20
325.251774
11
855.755000
21
328.076000
0
LINE
8
Sign
10
855.755000
20
328.076000
11
841.866400
21
323.704570
0
LINE
8
Sign
10
841.866400
20
323.704570
11
838.627770
21
331.487230
0
LINE
8
Sign
10
838.627770
20
331.487230
11
825.179870
21
324.612940
0
LINE
8
Sign
10
825.179870
20
324.612940
11
824.890000
21
334.446000
0
LINE
8
Sign
10
824.890000
20
334.446000
11
820.856000
21
334.362000
0
LINE
8
Sign
10
820.856000
20
334.362000
11
816.227200
21
361.898100
0
LINE
8
Sign
10
816.227200
20
361.898100
11
821.448730
21
366.507630
0
LINE
8
Sign
10
821.448730
20
366.507630
11
820.320240
21
369.310170
0
LINE
8
Sign
10
820.320240
20
369.310170
11
819.167390
21
371.693530
0
LINE
8
Sign
10
819.167390
20
371.693530
11
817.678890
21
372.395193
0
LINE
8
Sign
10
817.678890
20
372.395193
11
812.734600
21
370.826823
0
LINE
8
Sign
10
812.734600
20
370.826823
11
813.158973
21
367.015258
0
LINE
8
Sign
10
813.158973
20
367.015258
11
814.314810
21
359.555523
0
LINE
8
Sign
10
814.314810
20
359.555523
11
808.876350
21
354.836803
0
LINE
8
Sign
10
808.876350
20
354.836803
11
814.108230
21
334.221403
0
LINE
8
Sign
10
814.108230
20
334.221403
11
807.287000
21
334.079000
0
LINE
8
Sign
10
807.287000
20
334.079000
11
807.460000
21
328.221000
0
LINE
8
Sign
10
807.460000
20
328.221000
11
799.361840
21
326.586920
0
LINE
8
Sign
10
799.361840
20
326.586920
11
794.667288
21
325.259260
0
LINE
8
Sign
10
794.667288
20
325.259260
11
792.899354
21
324.548622
0
LINE
8
Sign
10
792.899354
20
324.548622
11
791.517650
21
323.806780
0
LINE
8
Sign
10
791.517650
20
323.806780
11
791.836437
21
320.464030
0
LINE
8
Sign
10
791.836437
20
320.464030
11
789.922277
21
318.801787
0
LINE
8
Sign
10
789.922277
20
318.801787
11
788.628497
21
317.257140
0
LINE
8
Sign
10
788.628497
20
317.257140
11
788.020849
21
315.465120
0
LINE
8
Sign
10
788.020849
20
315.465120
11
789.245525
21
315.000004
0
LINE
8
Sign
10
789.245525
20
315.000004
11
790.899084
21
314.923245
0
LINE
8
Sign
10
790.899084
20
314.923245
11
792.981525
21
315.234844
0
LINE
8
Sign
10
792.981525
20
315.234844
11
795.492849
21
315.934800
0
LINE
8
Sign
10
795.492849
20
315.934800
11
807.700749
21
320.061880
0
LINE
8
Sign
10
807.700749
20
320.061880
11
807.975000
21
310.752000
0
LINE
8
Sign
10
807.975000
20
310.752000
11
811.936000
21
310.835000
0
LINE
8
Sign
10
811.936000
20
310.835000
11
816.514700
21
287.484600
0
LINE
8
Sign
10
816.514700
20
287.484600
11
811.121770
21
283.708840
0
LINE
8
Sign
10
811.121770
20
283.708840
11
816.312810
21
266.965340
0
LINE
8
Sign
10
816.312810
20
266.965340
11
814.259000
21
266.922000
0
LINE
8
Sign
10
814.259000
20
266.922000
11
817.900520
21
250.460200
0
LINE
8
Sign
10
817.900520
20
250.460200
11
812.960030
21
246.275200
0
LINE
8
Sign
10
812.960030
20
246.275200
11
814.255003
21
243.737800
0
LINE
8
Sign
10
814.255003
20
243.737800
11
816.017650
21
240.896150
0
LINE
8
Sign
10
816.017650
20
240.896150
11
818.247973
21
237.750250
0
LINE
8
Sign
10
818.247973
20
237.750250
11
820.945970
21
234.300100
0
LINE
8
Sign
10
820.945970
20
234.300100
11
819.516000
21
233.015000
0
LINE
8
Sign
10
840.701700
20
208.964000
11
834.846350
21
208.423339
0
LINE
8
Sign
10
834.846350
20
208.423339
11
829.743260
21
209.128204
0
LINE
8
Sign
10
829.743260
20
209.128204
11
824.293150
21
210.401499
0
LINE
8
Sign
10
824.293150
20
210.401499
11
823.872263
21
215.338324
0
LINE
8
Sign
10
823.872263
20
215.338324
11
823.657893
21
219.494459
0
LINE
8
Sign
10
823.657893
20
219.494459
11
821.129433
21
220.619292
0
LINE
8
Sign
10
821.129433
20
220.619292
11
818.293673
21
222.208699
0
LINE
8
Sign
10
818.293673
20
222.208699
11
816.512459
21
223.813581
0
LINE
8
Sign
10
816.512459
20
223.813581
11
814.402938
21
225.974216
0
LINE
8
Sign
10
814.402938
20
225.974216
11
809.198973
21
231.962749
0
LINE
8
Sign
10
809.198973
20
231.962749
11
811.206383
21
233.574639
0
LINE
8
Sign
10
811.206383
20
233.574639
11
809.600687
21
237.158784
0
LINE
8
Sign
10
809.600687
20
237.158784
11
808.058608
21
241.385349
0
LINE
8
Sign
10
808.058608
20
241.385349
11
806.580147
21
246.254334
0
LINE
8
Sign
10
806.580147
20
246.254334
11
805.165303
21
251.765739
0
LINE
8
Sign
10
805.165303
20
251.765739
11
810.191503
21
255.533859
0
LINE
8
Sign
10
810.191503
20
255.533859
11
804.832143
21
273.006559
0
LINE
8
Sign
10
804.832143
20
273.006559
11
806.959000
21
273.050000
0
LINE
8
Sign
10
806.959000
20
273.050000
11
803.815500
21
290.045500
0
LINE
8
Sign
10
803.815500
20
290.045500
11
808.930430
21
293.292120
0
LINE
8
Sign
10
808.930430
20
293.292120
11
804.534590
21
307.958820
0
LINE
8
Sign
10
804.534590
20
307.958820
11
797.970505
21
306.566035
0
LINE
8
Sign
10
797.970505
20
306.566035
11
795.339301
21
306.197209
0
LINE
8
Sign
10
795.339301
20
306.197209
11
793.141990
21
306.046760
0
LINE
8
Sign
10
793.141990
20
306.046760
11
791.122099
21
306.102804
0
LINE
8
Sign
10
791.122099
20
306.102804
11
789.316455
21
306.359565
0
LINE
8
Sign
10
789.316455
20
306.359565
11
787.725059
21
306.817044
0
LINE
8
Sign
10
787.725059
20
306.817044
11
786.347910
21
307.475240
0
LINE
8
Sign
10
786.347910
20
307.475240
11
785.250928
21
308.276652
0
LINE
8
Sign
10
785.250928
20
308.276652
11
784.124032
21
309.469947
0
LINE
8
Sign
10
784.124032
20
309.469947
11
782.967223
21
311.055127
0
LINE
8
Sign
10
782.967223
20
311.055127
11
781.780500
21
313.032190
0
LINE
8
Sign
10
781.780500
20
313.032190
11
780.690787
21
316.385047
0
LINE
8
Sign
10
780.690787
20
316.385047
11
779.635850
21
321.046980
0
LINE
8
Sign
10
779.635850
20
321.046980
11
781.579385
21
324.201362
0
LINE
8
Sign
10
781.579385
20
324.201362
11
783.652990
21
326.678110
0
LINE
8
Sign
10
783.652990
20
326.678110
11
784.982860
21
327.621670
0
LINE
8
Sign
10
784.982860
20
327.621670
11
786.247110
21
328.302190
0
LINE
8
Sign
10
786.247110
20
328.302190
11
786.640909
21
329.880420
0
LINE
8
Sign
10
786.640909
20
329.880420
11
787.802084
21
331.023256
0
LINE
8
Sign
10
787.802084
20
331.023256
11
789.298284
21
332.159989
0
LINE
8
Sign
10
789.298284
20
332.159989
11
791.129509
21
333.290618
0
LINE
8
Sign
10
791.129509
20
333.290618
11
793.295759
21
334.415145
0
LINE
8
Sign
10
793.295759
20
334.415145
11
798.633334
21
336.645889
0
LINE
8
Sign
10
798.633334
20
336.645889
11
805.311009
21
338.852220
0
LINE
8
Sign
10
805.311009
20
338.852220
11
801.780819
21
361.491720
0
LINE
8
Sign
10
801.780819
20
361.491720
11
807.014639
21
365.682840
0
LINE
8
Sign
10
807.014639
20
365.682840
11
806.421597
21
368.993712
0
LINE
8
Sign
10
806.421597
20
368.993712
11
806.178649
21
371.631530
0
LINE
8
Sign
10
806.178649
20
371.631530
11
806.318336
21
374.048356
0
LINE
8
Sign
10
806.318336
20
374.048356
11
806.879374
21
376.487045
0
LINE
8
Sign
10
806.879374
20
376.487045
11
807.861761
21
378.947596
0
LINE
8
Sign
10
807.861761
20
378.947596
11
809.265499
21
381.430010
0
LINE
8
Sign
10
809.265499
20
381.430010
11
812.032211
21
383.424022
0
LINE
8
Sign
10
812.032211
20
383.424022
11
816.610949
21
386.188460
0
LINE
8
Sign
10
816.610949
20
386.188460
11
816.722000
21
382.423000
0
LINE
8
Sign
10
816.722000
20
382.423000
11
818.359355
21
382.273946
0
LINE
8
Sign
10
818.359355
20
382.273946
11
819.891300
21
381.965690
0
LINE
8
Sign
10
819.891300
20
381.965690
11
821.614017
21
380.477347
0
LINE
8
Sign
10
821.614017
20
380.477347
11
823.101840
21
378.866358
0
LINE
8
Sign
10
823.101840
20
378.866358
11
824.354767
21
377.132722
0
LINE
8
Sign
10
824.354767
20
377.132722
11
825.372800
21
375.276440
0
LINE
8
Sign
10
825.372800
20
375.276440
11
827.114460
21
368.483100
0
LINE
8
Sign
10
827.114460
20
368.483100
11
828.754180
21
360.169940
0
LINE
8
Sign
10
828.754180
20
360.169940
11
823.596700
21
355.875750
0
LINE
8
Sign
10
823.596700
20
355.875750
11
828.183230
21
337.235650
0
LINE
8
Sign
10
828.183230
20
337.235650
11
843.028430
21
341.522340
0
LINE
8
Sign
10
843.028430
20
341.522340
11
845.891070
21
334.045850
0
LINE
8
Sign
10
845.891070
20
334.045850
11
859.778970
21
340.929310
0
LINE
8
Sign
10
859.778970
20
340.929310
11
859.869000
21
337.896000
0
LINE
8
Sign
10
859.869000
20
337.896000
11
863.031180
21
338.302057
0
LINE
8
Sign
10
863.031180
20
338.302057
11
866.240840
21
338.342758
0
LINE
8
Sign
10
866.240840
20
338.342758
11
869.211720
21
337.148638
0
LINE
8
Sign
10
869.211720
20
337.148638
11
870.585368
21
335.986654
0
LINE
8
Sign
10
870.585368
20
335.986654
11
871.781062
21
334.637791
0
LINE
8
Sign
10
871.781062
20
334.637791
11
872.798803
21
333.102049
0
LINE
8
Sign
10
872.798803
20
333.102049
11
873.638590
21
331.379428
0
LINE
8
Sign
10
873.638590
20
331.379428
11
874.567710
21
328.494233
0
LINE
8
Sign
10
874.567710
20
328.494233
11
875.929900
21
323.367688
0
LINE
8
Sign
10
875.929900
20
323.367688
11
872.624090
21
320.368093
0
LINE
8
Sign
10
872.624090
20
320.368093
11
871.163575
21
319.343312
0
LINE
8
Sign
10
871.163575
20
319.343312
11
869.831320
21
318.635208
0
LINE
8
Sign
10
869.831320
20
318.635208
11
869.334067
21
315.589458
0
LINE
8
Sign
10
869.334067
20
315.589458
11
867.609629
21
313.093818
0
LINE
8
Sign
10
867.609629
20
313.093818
11
866.083637
21
311.334998
0
LINE
8
Sign
10
866.083637
20
311.334998
11
862.190104
21
308.977336
0
LINE
8
Sign
10
862.190104
20
308.977336
11
856.406527
21
306.004628
0
LINE
8
Sign
10
856.406527
20
306.004628
11
856.323000
21
308.829000
0
LINE
8
Sign
10
856.323000
20
308.829000
11
842.498500
21
304.772910
0
LINE
8
Sign
10
842.498500
20
304.772910
11
839.635810
21
312.249400
0
LINE
8
Sign
10
839.635810
20
312.249400
11
827.556810
21
306.240980
0
LINE
8
Sign
10
827.556810
20
306.240980
11
830.998320
21
284.122980
0
LINE
8
Sign
10
830.998320
20
284.122980
11
825.831580
21
280.142590
0
LINE
8
Sign
10
825.831580
20
280.142590
11
831.277360
21
259.740990
0
LINE
8
Sign
10
831.277360
20
259.740990
11
829.446810
21
259.598181
0
LINE
8
Sign
10
829.446810
20
259.598181
11
830.955320
21
253.244831
0
LINE
8
Sign
10
830.955320
20
253.244831
11
832.966822
21
248.498164
0
LINE
8
Sign
10
832.966822
20
248.498164
11
834.102588
21
246.382674
0
LINE
8
Sign
10
834.102588
20
246.382674
11
835.325030
21
244.439081
0
LINE
8
Sign
10
835.325030
20
244.439081
11
833.923265
21
240.955799
0
LINE
8
Sign
10
833.923265
20
240.955799
11
833.016410
21
238.110871
0
LINE
8
Sign
10
833.016410
20
238.110871
11
834.552242
21
237.671838
0
LINE
8
Sign
10
834.552242
20
237.671838
11
836.188800
21
237.548924
0
LINE
8
Sign
10
836.188800
20
237.548924
11
837.773895
21
237.771659
0
LINE
8
Sign
10
837.773895
20
237.771659
11
839.962070
21
238.386381
0
LINE
8
Sign
10
839.962070
20
238.386381
11
846.147660
21
240.791784
0
LINE
8
Sign
10
846.147660
20
240.791784
11
846.212000
21
238.595000
0
LINE
8
Sign
10
846.212000
20
238.595000
11
848.827819
21
239.951311
0
LINE
8
Sign
10
848.827819
20
239.951311
11
851.679225
21
241.718122
0
LINE
8
Sign
10
851.679225
20
241.718122
11
854.766219
21
243.895436
0
LINE
8
Sign
10
854.766219
20
243.895436
11
858.088800
21
246.483250
0
LINE
8
Sign
10
858.088800
20
246.483250
11
862.509500
21
240.923280
0
LINE
8
Sign
10
862.509500
20
240.923280
11
874.427300
21
254.883180
0
LINE
8
Sign
10
874.427300
20
254.883180
11
875.176923
21
251.863410
0
LINE
8
Sign
10
875.176923
20
251.863410
11
877.196633
21
253.056840
0
LINE
8
Sign
10
877.196633
20
253.056840
11
878.711219
21
253.336981
0
LINE
8
Sign
10
878.711219
20
253.336981
11
880.269428
21
253.382528
0
LINE
8
Sign
10
880.269428
20
253.382528
11
881.871259
21
253.193480
0
LINE
8
Sign
10
881.871259
20
253.193480
11
883.516713
21
252.769838
0
LINE
8
Sign
10
883.516713
20
252.769838
11
886.668213
21
250.428118
0
LINE
8
Sign
10
886.668213
20
250.428118
11
889.053053
21
246.709738
0
LINE
8
Sign
10
889.053053
20
246.709738
11
889.887112
21
244.247764
0
LINE
8
Sign
10
889.887112
20
244.247764
11
890.563478
21
241.533923
0
LINE
8
Sign
10
890.563478
20
241.533923
11
891.082152
21
238.568214
0
LINE
8
Sign
10
891.082152
20
238.568214
11
891.443133
21
235.350638
0
LINE
8
Sign
10
891.443133
20
235.350638
11
888.786458
21
233.358970
0
LINE
8
Sign
10
888.786458
20
233.358970
11
886.694933
21
232.111728
0
LINE
8
Sign
10
886.694933
20
232.111728
11
884.797203
21
231.758132
0
LINE
8
Sign
10
884.797203
20
231.758132
11
884.388445
21
230.298972
0
LINE
8
Sign
10
884.388445
20
230.298972
11
883.705361
21
228.654197
0
LINE
8
Sign
10
883.705361
20
228.654197
11
881.516213
21
224.807802
0
LINE
8
Sign
10
881.516213
20
224.807802
11
878.229761
21
220.218947
0
LINE
8
Sign
10
878.229761
20
220.218947
11
873.846003
21
214.887632
0
LINE
8
Sign
10
873.846003
20
214.887632
11
873.105639
21
217.593592
0
LINE
8
Sign
10
873.105639
20
217.593592
11
866.724484
21
212.488887
0
LINE
8
Sign
10
866.724484
20
212.488887
11
859.612939
21
207.264292
0
LINE
8
Sign
10
859.612939
20
207.264292
11
855.448589
21
214.085612
0
LINE
8
Sign
10
855.448589
20
214.085612
11
852.560763
21
212.154520
0
LINE
8
Sign
10
852.560763
20
212.154520
11
849.143504
21
210.133882
0
LINE
8
Sign
10
849.143504
20
210.133882
11
845.196813
21
208.023700
0
LINE
8
Sign
10
845.196813
20
208.023700
11
840.720689
21
205.823972
0
LINE
8
Sign
10
840.720689
20
205.823972
11
840.701700
21
208.964000
0
LINE
8
Sign
10
887.968000
20
164.104000
11
887.166467
21
164.996593
0
LINE
8
Sign
10
887.166467
20
164.996593
11
886.421780
21
166.138962
0
LINE
8
Sign
10
886.421780
20
166.138962
11
885.733937
21
167.531108
0
LINE
8
Sign
10
885.733937
20
167.531108
11
885.102940
21
169.173030
0
LINE
8
Sign
10
885.102940
20
169.173030
11
884.326320
21
173.108113
0
LINE
8
Sign
10
884.326320
20
173.108113
11
884.003660
21
176.581640
0
LINE
8
Sign
10
884.003660
20
176.581640
11
884.042867
21
178.711801
0
LINE
8
Sign
10
884.042867
20
178.711801
11
884.290117
21
180.708920
0
LINE
8
Sign
10
884.290117
20
180.708920
11
884.745411
21
182.572996
0
LINE
8
Sign
10
884.745411
20
182.572996
11
885.408748
21
184.304030
0
LINE
8
Sign
10
885.408748
20
184.304030
11
886.280128
21
185.902021
0
LINE
8
Sign
10
886.280128
20
185.902021
11
887.359552
21
187.366970
0
LINE
8
Sign
10
887.359552
20
187.366970
11
888.647019
21
188.698876
0
LINE
8
Sign
10
888.647019
20
188.698876
11
890.142530
21
189.897740
0
LINE
8
Sign
10
890.142530
20
189.897740
11
894.350310
21
191.555470
0
LINE
8
Sign
10
894.350310
20
191.555470
11
896.232335
21
188.088278
0
LINE
8
Sign
10
896.232335
20
188.088278
11
897.854550
21
184.720320
0
LINE
8
Sign
10
897.854550
20
184.720320
11
911.556450
21
190.448570
0
LINE
8
Sign
10
911.556450
20
190.448570
11
914.549280
21
208.409270
0
LINE
8
Sign
10
914.549280
20
208.409270
11
919.836340
21
208.310050
0
LINE
8
Sign
10
919.836340
20
208.310050
11
921.020170
21
225.395650
0
LINE
8
Sign
10
921.020170
20
225.395650
11
911.483220
21
242.676650
0
LINE
8
Sign
10
911.483220
20
242.676650
11
914.366200
21
249.435500
0
LINE
8
Sign
10
914.366200
20
249.435500
11
903.249600
21
265.532200
0
LINE
8
Sign
10
903.249600
20
265.532200
11
904.829260
21
266.716460
0
LINE
8
Sign
10
904.829260
20
266.716460
11
895.445200
21
283.791260
0
LINE
8
Sign
10
895.445200
20
283.791260
11
898.251740
21
290.653190
0
LINE
8
Sign
10
898.251740
20
290.653190
11
887.902540
21
305.614490
0
LINE
8
Sign
10
887.902540
20
305.614490
11
884.889160
21
305.761051
0
LINE
8
Sign
10
884.889160
20
305.761051
11
883.068272
21
306.534289
0
LINE
8
Sign
10
883.068272
20
306.534289
11
881.456630
21
307.678231
0
LINE
8
Sign
10
881.456630
20
307.678231
11
878.552210
21
311.595121
0
LINE
8
Sign
10
878.552210
20
311.595121
11
877.351152
21
316.855856
0
LINE
8
Sign
10
877.351152
20
316.855856
11
876.880840
21
320.980461
0
LINE
8
Sign
10
876.880840
20
320.980461
11
877.055715
21
323.914826
0
LINE
8
Sign
10
877.055715
20
323.914826
11
877.753180
21
326.860081
0
LINE
8
Sign
10
877.753180
20
326.860081
11
878.973235
21
329.816226
0
LINE
8
Sign
10
878.973235
20
329.816226
11
880.715880
21
332.783261
0
LINE
8
Sign
10
880.715880
20
332.783261
11
883.556845
21
331.638761
0
LINE
8
Sign
10
883.556845
20
331.638761
11
885.704100
21
330.375141
0
LINE
8
Sign
10
885.704100
20
330.375141
11
887.376360
21
328.421271
0
LINE
8
Sign
10
887.376360
20
328.421271
11
893.315870
21
331.083228
0
LINE
8
Sign
10
893.315870
20
331.083228
11
902.884060
21
335.129141
0
LINE
8
Sign
10
902.884060
20
335.129141
11
902.958000
21
332.618000
0
LINE
8
Sign
10
902.958000
20
332.618000
11
908.237219
21
333.872800
0
LINE
8
Sign
10
908.237219
20
333.872800
11
912.862975
21
334.577560
0
LINE
8
Sign
10
912.862975
20
334.577560
11
916.835269
21
334.732280
0
LINE
8
Sign
10
916.835269
20
334.732280
11
918.576367
21
334.603375
0
LINE
8
Sign
10
918.576367
20
334.603375
11
920.154100
21
334.336960
0
LINE
8
Sign
10
920.154100
20
334.336960
11
921.218115
21
329.989220
0
LINE
8
Sign
10
921.218115
20
329.989220
11
921.632460
21
326.517620
0
LINE
8
Sign
10
921.632460
20
326.517620
11
920.924445
21
323.153480
0
LINE
8
Sign
10
920.924445
20
323.153480
11
922.050015
21
319.827540
0
LINE
8
Sign
10
922.050015
20
319.827540
11
922.158980
21
317.728261
0
LINE
8
Sign
10
922.158980
20
317.728261
11
922.101060
21
315.766155
0
LINE
8
Sign
10
922.101060
20
315.766155
11
921.876256
21
313.941221
0
LINE
8
Sign
10
921.876256
20
313.941221
11
921.484568
21
312.253460
0
LINE
8
Sign
10
921.484568
20
312.253460
11
920.925996
21
310.702871
0
LINE
8
Sign
10
920.925996
20
310.702871
11
920.200540
21
309.289455
0
LINE
8
Sign
10
920.200540
20
309.289455
11
919.308200
21
308.013211
0
LINE
8
Sign
10
919.308200
20
308.013211
11
918.248975
21
306.874140
0
LINE
8
Sign
10
918.248975
20
306.874140
11
913.635095
21
304.056630
0
LINE
8
Sign
10
913.635095
20
304.056630
11
925.175395
21
281.060630
0
LINE
8
Sign
10
925.175395
20
281.060630
11
922.540215
21
273.364930
0
LINE
8
Sign
10
922.540215
20
273.364930
11
933.110215
21
255.896130
0
LINE
8
Sign
10
933.110215
20
255.896130
11
938.783755
21
282.495430
0
LINE
8
Sign
10
938.783755
20
282.495430
11
944.681545
21
284.083670
0
LINE
8
Sign
10
944.681545
20
284.083670
11
947.899135
21
306.863770
0
LINE
8
Sign
10
947.899135
20
306.863770
11
946.227485
21
306.776608
0
LINE
8
Sign
10
946.227485
20
306.776608
11
944.577165
21
306.899228
0
LINE
8
Sign
10
944.577165
20
306.899228
11
942.948175
21
307.231630
0
LINE
8
Sign
10
942.948175
20
307.231630
11
941.340515
21
307.773814
0
LINE
8
Sign
10
941.340515
20
307.773814
11
940.227060
21
308.861082
0
LINE
8
Sign
10
940.227060
20
308.861082
11
939.222155
21
310.078178
0
LINE
8
Sign
10
939.222155
20
310.078178
11
938.325800
21
311.425100
0
LINE
8
Sign
10
938.325800
20
311.425100
11
937.537995
21
312.901849
0
LINE
8
Sign
10
937.537995
20
312.901849
11
936.288035
21
316.244828
0
LINE
8
Sign
10
936.288035
20
316.244828
11
935.472275
21
320.107114
0
LINE
8
Sign
10
935.472275
20
320.107114
11
935.589729
21
326.075664
0
LINE
8
Sign
10
935.589729
20
326.075664
11
936.132367
21
328.206509
0
LINE
8
Sign
10
936.132367
20
328.206509
11
937.266009
21
331.448684
0
LINE
8
Sign
10
937.266009
20
331.448684
11
938.838108
21
331.644981
0
LINE
8
Sign
10
938.838108
20
331.644981
11
940.269304
21
331.642090
0
LINE
8
Sign
10
940.269304
20
331.642090
11
941.559598
21
331.440011
0
LINE
8
Sign
10
941.559598
20
331.440011
11
942.708989
21
331.038744
0
LINE
8
Sign
10
942.708989
20
331.038744
11
944.518699
21
329.401744
0
LINE
8
Sign
10
944.518699
20
329.401744
11
949.327499
21
331.830806
0
LINE
8
Sign
10
949.327499
20
331.830806
11
959.433399
21
336.306594
0
LINE
8
Sign
10
959.433399
20
336.306594
11
959.508000
21
333.796000
0
LINE
8
Sign
10
959.508000
20
333.796000
11
968.904790
21
336.189810
0
LINE
8
Sign
10
968.904790
20
336.189810
11
972.394102
21
336.079340
0
LINE
8
Sign
10
972.394102
20
336.079340
11
976.120440
21
335.398133
0
LINE
8
Sign
10
976.120440
20
335.398133
11
976.920797
21
331.280400
0
LINE
8
Sign
10
976.920797
20
331.280400
11
977.289990
21
328.095703
0
LINE
8
Sign
10
977.289990
20
328.095703
11
976.795824
21
324.945353
0
LINE
8
Sign
10
976.795824
20
324.945353
11
978.055764
21
322.040883
0
LINE
8
Sign
10
978.055764
20
322.040883
11
978.466262
21
318.700041
0
LINE
8
Sign
10
978.466262
20
318.700041
11
978.620033
21
315.353853
0
LINE
8
Sign
10
978.620033
20
315.353853
11
978.004620
21
313.358874
0
LINE
8
Sign
10
978.004620
20
313.358874
11
977.281800
21
311.584075
0
LINE
8
Sign
10
977.281800
20
311.584075
11
976.451575
21
310.029459
0
LINE
8
Sign
10
976.451575
20
310.029459
11
975.513943
21
308.695023
0
LINE
8
Sign
10
975.513943
20
308.695023
11
973.272800
21
306.921303
0
LINE
8
Sign
10
973.272800
20
306.921303
11
969.836893
21
304.599343
0
LINE
8
Sign
10
969.836893
20
304.599343
11
966.166193
21
284.740543
0
LINE
8
Sign
10
966.166193
20
284.740543
11
960.671403
21
284.416728
0
LINE
8
Sign
10
960.671403
20
284.416728
11
958.642103
21
263.650128
0
LINE
8
Sign
10
958.642103
20
263.650128
11
956.994543
21
264.767158
0
LINE
8
Sign
10
956.994543
20
264.767158
11
953.381723
21
245.432858
0
LINE
8
Sign
10
953.381723
20
245.432858
11
947.960353
21
245.110535
0
LINE
8
Sign
10
947.960353
20
245.110535
11
945.934083
21
224.239335
0
LINE
8
Sign
10
945.934083
20
224.239335
11
944.283433
21
225.460955
0
LINE
8
Sign
10
944.283433
20
225.460955
11
940.670663
21
206.126655
0
LINE
8
Sign
10
940.670663
20
206.126655
11
935.252323
21
205.699784
0
LINE
8
Sign
10
935.252323
20
205.699784
11
933.555033
21
188.603484
0
LINE
8
Sign
10
933.555033
20
188.603484
11
935.064701
21
188.739599
0
LINE
8
Sign
10
935.064701
20
188.739599
11
936.487316
21
188.716900
0
LINE
8
Sign
10
936.487316
20
188.716900
11
937.822878
21
188.535386
0
LINE
8
Sign
10
937.822878
20
188.535386
11
939.071386
21
188.195057
0
LINE
8
Sign
10
939.071386
20
188.195057
11
940.232840
21
187.695913
0
LINE
8
Sign
10
940.232840
20
187.695913
11
941.307241
21
187.037955
0
LINE
8
Sign
10
941.307241
20
187.037955
11
942.294589
21
186.221182
0
LINE
8
Sign
10
942.294589
20
186.221182
11
943.194883
21
185.245594
0
LINE
8
Sign
10
943.194883
20
185.245594
11
944.066665
21
183.837642
0
LINE
8
Sign
10
944.066665
20
183.837642
11
944.927143
21
181.879946
0
LINE
8
Sign
10
944.927143
20
181.879946
11
945.776316
21
179.372507
0
LINE
8
Sign
10
945.776316
20
179.372507
11
946.614183
21
176.315324
0
LINE
8
Sign
10
946.614183
20
176.315324
11
946.609166
21
173.220956
0
LINE
8
Sign
10
946.609166
20
173.220956
11
946.335572
21
170.212584
0
LINE
8
Sign
10
946.335572
20
170.212584
11
945.793401
21
167.290206
0
LINE
8
Sign
10
945.793401
20
167.290206
11
944.982653
21
164.453824
0
LINE
8
Sign
10
944.982653
20
164.453824
11
943.360502
21
164.243393
0
LINE
8
Sign
10
943.360502
20
164.243393
11
941.925868
21
164.206956
0
LINE
8
Sign
10
941.925868
20
164.206956
11
940.678752
21
164.344513
0
LINE
8
Sign
10
940.678752
20
164.344513
11
939.619153
21
164.656063
0
LINE
8
Sign
10
939.619153
20
164.656063
11
937.821783
21
165.874623
0
LINE
8
Sign
10
937.821783
20
165.874623
11
935.805163
21
164.576603
0
LINE
8
Sign
10
935.805163
20
164.576603
11
922.470063
21
158.856003
0
LINE
8
Sign
10
922.470063
20
158.856003
11
922.392000
21
161.471000
0
LINE
8
Sign
10
922.392000
20
161.471000
11
907.311300
21
157.702760
0
LINE
8
Sign
10
907.311300
20
157.702760
11
904.247110
21
164.547080
0
LINE
8
Sign
10
904.247110
20
164.547080
11
896.755180
21
161.643433
0
LINE
8
Sign
10
896.755180
20
161.643433
11
894.240437
21
160.904148
0
LINE
8
Sign
10
894.240437
20
160.904148
11
892.546510
21
160.639890
0
LINE
8
Sign
10
892.546510
20
160.639890
11
890.064912
21
160.797522
0
LINE
8
Sign
10
890.064912
20
160.797522
11
887.167580
21
161.365163
0
LINE
8
Sign
10
887.167580
20
161.365163
11
887.968000
21
164.104000
0
LINE
8
Sign
10
893.814210
20
174.902000
11
892.252393
21
178.088033
0
LINE
8
Sign
10
892.252393
20
178.088033
11
890.863500
21
180.387990
0
LINE
8
Sign
10
890.863500
20
180.387990
11
890.316865
21
179.015910
0
LINE
8
Sign
10
890.316865
20
179.015910
11
890.249294
21
177.575277
0
LINE
8
Sign
10
890.249294
20
177.575277
11
890.418719
21
175.563920
0
LINE
8
Sign
10
890.418719
20
175.563920
11
891.379105
21
172.862540
0
LINE
8
Sign
10
891.379105
20
172.862540
11
892.538153
21
172.755887
0
LINE
8
Sign
10
892.538153
20
172.755887
11
895.416195
21
172.842039
0
LINE
8
Sign
10
895.416195
20
172.842039
11
894.881905
21
171.051539
0
LINE
8
Sign
10
894.881905
20
171.051539
11
899.328985
21
172.060026
0
LINE
8
Sign
10
899.328985
20
172.060026
11
908.288005
21
174.366219
0
LINE
8
Sign
10
908.288005
20
174.366219
11
911.801505
21
167.217279
0
LINE
8
Sign
10
911.801505
20
167.217279
11
926.438305
21
173.592969
0
LINE
8
Sign
10
926.438305
20
173.592969
11
926.512000
21
171.082000
0
LINE
8
Sign
10
926.512000
20
171.082000
11
932.046140
21
172.557990
0
LINE
8
Sign
10
932.046140
20
172.557990
11
934.082847
21
173.176122
0
LINE
8
Sign
10
934.082847
20
173.176122
11
935.095790
21
173.668240
0
LINE
8
Sign
10
935.095790
20
173.668240
11
935.837395
21
174.651869
0
LINE
8
Sign
10
935.837395
20
174.651869
11
936.913280
21
176.741480
0
LINE
8
Sign
10
936.913280
20
176.741480
11
938.932210
21
175.475190
0
LINE
8
Sign
10
938.932210
20
175.475190
11
940.196060
21
174.925820
0
LINE
8
Sign
10
940.196060
20
174.925820
11
940.703287
21
175.145760
0
LINE
8
Sign
10
940.703287
20
175.145760
11
939.898878
21
177.536330
0
LINE
8
Sign
10
939.898878
20
177.536330
11
939.458602
21
178.155179
0
LINE
8
Sign
10
939.458602
20
178.155179
11
938.608788
21
178.974830
0
LINE
8
Sign
10
938.608788
20
178.974830
11
937.185238
21
178.873218
0
LINE
8
Sign
10
937.185238
20
178.873218
11
935.338118
21
178.514189
0
LINE
8
Sign
10
935.338118
20
178.514189
11
930.373168
21
177.023880
0
LINE
8
Sign
10
930.373168
20
177.023880
11
930.373337
21
186.967410
0
LINE
8
Sign
10
930.373337
20
186.967410
11
926.179557
21
189.810720
0
LINE
8
Sign
10
926.179557
20
189.810720
11
930.634047
21
215.442620
0
LINE
8
Sign
10
930.634047
20
215.442620
11
936.483177
21
216.192449
0
LINE
8
Sign
10
936.483177
20
216.192449
11
938.381247
21
236.433049
0
LINE
8
Sign
10
938.381247
20
236.433049
11
939.955457
21
235.314529
0
LINE
8
Sign
10
939.955457
20
235.314529
11
943.342037
21
254.853429
0
LINE
8
Sign
10
943.342037
20
254.853429
11
949.267607
21
255.500232
0
LINE
8
Sign
10
949.267607
20
255.500232
11
951.092377
21
275.739232
0
LINE
8
Sign
10
951.092377
20
275.739232
11
952.666587
21
274.620682
0
LINE
8
Sign
10
952.666587
20
274.620682
11
956.053167
21
294.159582
0
LINE
8
Sign
10
956.053167
20
294.159582
11
961.978737
21
294.806385
0
LINE
8
Sign
10
961.978737
20
294.806385
11
963.803457
21
315.045385
0
LINE
8
Sign
10
963.803457
20
315.045385
11
968.073687
21
312.098965
0
LINE
8
Sign
10
968.073687
20
312.098965
11
967.773419
21
314.814095
0
LINE
8
Sign
10
967.773419
20
314.814095
11
970.372964
21
316.255112
0
LINE
8
Sign
10
970.372964
20
316.255112
11
971.956459
21
317.308625
0
LINE
8
Sign
10
971.956459
20
317.308625
11
972.142583
21
318.463855
0
LINE
8
Sign
10
972.142583
20
318.463855
11
971.866953
21
320.342145
0
LINE
8
Sign
10
971.866953
20
320.342145
11
972.163419
21
320.243651
0
LINE
8
Sign
10
972.163419
20
320.243651
11
969.995569
21
324.071221
0
LINE
8
Sign
10
969.995569
20
324.071221
11
970.065072
21
326.689391
0
LINE
8
Sign
10
970.065072
20
326.689391
11
969.667523
21
327.727791
0
LINE
8
Sign
10
969.667523
20
327.727791
11
955.464523
21
321.570441
0
LINE
8
Sign
10
955.464523
20
321.570441
11
955.388000
21
324.186000
0
LINE
8
Sign
10
955.388000
20
324.186000
11
950.000580
21
322.713060
0
LINE
8
Sign
10
950.000580
20
322.713060
11
946.801130
21
321.704380
0
LINE
8
Sign
10
946.801130
20
321.704380
11
946.521254
21
321.240625
0
LINE
8
Sign
10
946.521254
20
321.240625
11
946.252951
21
320.384603
0
LINE
8
Sign
10
946.252951
20
320.384603
11
945.751070
21
317.495760
0
LINE
8
Sign
10
945.751070
20
317.495760
11
943.186333
21
319.849702
0
LINE
8
Sign
10
943.186333
20
319.849702
11
941.838320
21
320.763630
0
LINE
8
Sign
10
941.838320
20
320.763630
11
941.401311
21
320.649862
0
LINE
8
Sign
10
941.401311
20
320.649862
11
941.753894
21
319.427352
0
LINE
8
Sign
10
941.753894
20
319.427352
11
942.221028
21
318.364232
0
LINE
8
Sign
10
942.221028
20
318.364232
11
942.802714
21
317.460502
0
LINE
8
Sign
10
942.802714
20
317.460502
11
943.498951
21
316.716162
0
LINE
8
Sign
10
943.498951
20
316.716162
11
944.385289
21
316.525290
0
LINE
8
Sign
10
944.385289
20
316.525290
11
945.412121
21
316.546679
0
LINE
8
Sign
10
945.412121
20
316.546679
11
951.163251
21
318.131859
0
LINE
8
Sign
10
951.163251
20
318.131859
11
951.010193
21
308.394499
0
LINE
8
Sign
10
951.010193
20
308.394499
11
955.350643
21
305.554209
0
LINE
8
Sign
10
955.350643
20
305.554209
11
948.942033
21
274.020109
0
LINE
8
Sign
10
948.942033
20
274.020109
11
942.616493
21
272.004289
0
LINE
8
Sign
10
942.616493
20
272.004289
11
939.109373
21
246.601489
0
LINE
8
Sign
10
939.109373
20
246.601489
11
932.592473
21
251.071089
0
LINE
8
Sign
10
932.592473
20
251.071089
11
928.354593
21
247.947409
0
LINE
8
Sign
10
928.354593
20
247.947409
11
914.496593
21
274.872509
0
LINE
8
Sign
10
914.496593
20
274.872509
11
917.036813
21
283.298909
0
LINE
8
Sign
10
917.036813
20
283.298909
11
904.932013
21
303.038409
0
LINE
8
Sign
10
904.932013
20
303.038409
11
911.110073
21
307.563199
0
LINE
8
Sign
10
911.110073
20
307.563199
11
910.634595
21
313.728739
0
LINE
8
Sign
10
910.634595
20
313.728739
11
913.621550
21
315.099329
0
LINE
8
Sign
10
913.621550
20
315.099329
11
915.480895
21
316.132419
0
LINE
8
Sign
10
915.480895
20
316.132419
11
915.966518
21
317.084546
0
LINE
8
Sign
10
915.966518
20
317.084546
11
915.599064
21
319.588936
0
LINE
8
Sign
10
915.599064
20
319.588936
11
916.118638
21
319.390426
0
LINE
8
Sign
10
916.118638
20
319.390426
11
914.393918
21
323.122566
0
LINE
8
Sign
10
914.393918
20
323.122566
11
914.332190
21
325.214646
0
LINE
8
Sign
10
914.332190
20
325.214646
11
913.852024
21
326.565326
0
LINE
8
Sign
10
913.852024
20
326.565326
11
898.912524
21
320.497306
0
LINE
8
Sign
10
898.912524
20
320.497306
11
898.838000
21
323.007000
0
LINE
8
Sign
10
898.838000
20
323.007000
11
889.080690
21
320.396340
0
LINE
8
Sign
10
889.080690
20
320.396340
11
888.451643
21
319.951476
0
LINE
8
Sign
10
888.451643
20
319.951476
11
887.792863
21
319.270488
0
LINE
8
Sign
10
887.792863
20
319.270488
11
886.386100
21
317.200140
0
LINE
8
Sign
10
886.386100
20
317.200140
11
884.372240
21
319.539390
0
LINE
8
Sign
10
884.372240
20
319.539390
11
883.203740
21
320.587900
0
LINE
8
Sign
10
883.203740
20
320.587900
11
882.764000
21
320.579000
0
LINE
8
Sign
10
882.764000
20
320.579000
11
883.119108
21
318.493030
0
LINE
8
Sign
10
883.119108
20
318.493030
11
883.767025
21
317.054254
0
LINE
8
Sign
10
883.767025
20
317.054254
11
884.511848
21
316.062338
0
LINE
8
Sign
10
884.511848
20
316.062338
11
885.353575
21
315.517279
0
LINE
8
Sign
10
885.353575
20
315.517279
11
886.292208
21
315.419080
0
LINE
8
Sign
10
886.292208
20
315.419080
11
888.151720
21
315.824161
0
LINE
8
Sign
10
888.151720
20
315.824161
11
891.969978
21
317.002730
0
LINE
8
Sign
10
891.969978
20
317.002730
11
891.947435
21
310.303480
0
LINE
8
Sign
10
891.947435
20
310.303480
11
893.884575
21
311.809200
0
LINE
8
Sign
10
893.884575
20
311.809200
11
906.350675
21
289.774500
0
LINE
8
Sign
10
906.350675
20
289.774500
11
903.562655
21
282.284950
0
LINE
8
Sign
10
903.562655
20
282.284950
11
914.367355
21
266.809750
0
LINE
8
Sign
10
914.367355
20
266.809750
11
912.787695
21
265.625490
0
LINE
8
Sign
10
912.787695
20
265.625490
11
922.462095
21
248.661390
0
LINE
8
Sign
10
922.462095
20
248.661390
11
919.600715
21
241.170330
0
LINE
8
Sign
10
919.600715
20
241.170330
11
930.405415
21
225.695130
0
LINE
8
Sign
10
930.405415
20
225.695130
11
926.818335
21
222.899010
0
LINE
8
Sign
10
926.818335
20
222.899010
11
928.166345
21
221.985070
0
LINE
8
Sign
10
928.166345
20
221.985070
11
924.600585
21
198.569670
0
LINE
8
Sign
10
924.600585
20
198.569670
11
918.956045
21
198.347459
0
LINE
8
Sign
10
918.956045
20
198.347459
11
917.799935
21
180.320359
0
LINE
8
Sign
10
917.799935
20
180.320359
11
913.230155
21
183.469899
0
LINE
8
Sign
10
913.230155
20
183.469899
11
913.329000
21
180.123000
0
LINE
8
Sign
10
913.329000
20
180.123000
11
893.814210
21
174.902000
 0 
ENDSEC
 0 
EOF