<?xml version="1.0" encoding="UTF-8" standalone="no"?>
<!-- Created with Inkscape (http://www.inkscape.org/) -->

<svg
   xmlns:dc="http://purl.org/dc/elements/1.1/"
   xmlns:cc="http://creativecommons.org/ns#"
   xmlns:rdf="http://www.w3.org/1999/02/22-rdf-syntax-ns#"
   xmlns:svg="http://www.w3.org/2000/svg"
   xmlns="http://www.w3.org/2000/svg"
   xmlns:sodipodi="http://sodipodi.sourceforge.net/DTD/sodipodi-0.dtd"
   xmlns:inkscape="http://www.inkscape.org/namespaces/inkscape"
   id="svg2"
   version="1.1"
   inkscape:version="0.48.4 r9939"
   width="403"
   height="221"
   sodipodi:docname="frog1.png">
  <metadata
     id="metadata8">
    <rdf:RDF>
      <cc:Work
         rdf:about="">
        <dc:format>image/svg+xml</dc:format>
        <dc:type
           rdf:resource="http://purl.org/dc/dcmitype/StillImage" />
        <dc:title></dc:title>
      </cc:Work>
    </rdf:RDF>
  </metadata>
  <defs
     id="defs6" />
  <sodipodi:namedview
     pagecolor="#ffffff"
     bordercolor="#666666"
     borderopacity="1"
     objecttolerance="10"
     gridtolerance="10"
     guidetolerance="10"
     inkscape:pageopacity="0"
     inkscape:pageshadow="2"
     inkscape:window-width="1920"
     inkscape:window-height="1018"
     id="namedview4"
     showgrid="false"
     inkscape:zoom="2.359123"
     inkscape:cx="135.37373"
     inkscape:cy="110.5"
     inkscape:window-x="-8"
     inkscape:window-y="-8"
     inkscape:window-maximized="1"
     inkscape:current-layer="svg2" />
  <path
     style="fill:#000000;fill-opacity:1;stroke:#000000;stroke-opacity:1;stroke-width:4.50000000000000000;stroke-miterlimit:4;stroke-dasharray:none"
     d="m 114.64826,218.53753 c -0.57286,-1.50673 -0.54195,-4.07504 0.0819,-6.80495 0.8626,-3.77455 2.7212,-26.88481 2.16217,-26.88481 -0.10952,0 -12.97736,6.525 -28.5952,14.5 -18.437802,9.41497 -29.480092,14.5 -31.487122,14.5 -5.92369,0 -8.30243,-5.7824 -3.9839,-9.68431 1.2375,-1.11812 13.63875,-7.81026 27.55835,-14.87144 l 25.308342,-12.8385 -11.308346,-3.31124 c -6.219582,-1.82117 -16.258336,-4.68327 -22.308336,-6.36021 -6.05,-1.67694 -15.95,-4.54644 -22,-6.37666 -6.05,-1.83022 -18.425,-5.00791 -27.5,-7.06155 -9.075,-2.05363 -17.2875004,-4.42512 -18.2500004,-5.26997 -2.19195,-1.92403 -2.26637,-6.56689 -0.13934,-8.69392 2.2993,-2.2993 7.5732504,-4.84516 37.3983404,-18.05305 14.57005,-6.45226 34.70148,-16.06214 44.736523,-21.355269 L 104.56716,90.347773 80.321638,89.668801 C 39.433568,88.52377 4.2635076,86.750836 2.3736576,85.739417 c -2.08481005,-1.115753 -2.46251005,-6.344624 -0.54754,-7.580009 0.6875,-0.44352 12.8367604,-0.66636 26.9983604,-0.495201 l 25.74837,0.311199 -3.0211,-4.859925 c -3.80343,-6.118436 -5.43724,-15.218183 -3.94496,-21.972007 1.43712,-6.504203 6.80764,-14.398776 15.50746,-22.795701 7.94326,-7.666698 15.07302,-12.363669 24.622452,-16.220854 14.84657,-5.9967963 41.705,-7.6395343 71.85017,-4.3945603 10.73092,1.155128 22.16926,2.7926853 25.41854,3.6390163 13.04847,3.398693 23.37494,11.321981 25.61939,19.657219 1.86582,6.929143 0.80929,24.45768 -1.76721,29.319179 -2.10639,3.974453 -9.52282,11.702792 -14.25399,14.853461 -2.34265,1.560067 -1.55,1.646539 15.093,1.646539 9.66103,0 22.94576,-0.289294 29.52162,-0.642875 l 11.95612,-0.642875 -7.68327,-3.939378 c -8.16276,-4.185222 -15.42769,-10.363053 -16.9762,-14.435941 -0.51632,-1.358022 -0.93876,-5.398888 -0.93876,-8.979703 0,-5.990205 0.48433,-7.46056 6.05971,-18.396312 5.43536,-10.661097 6.69753,-12.384143 12.25,-16.722981 14.21234,-11.1058673 14.82373,-11.2402753 51.1218,-11.2385683 47.42632,0.0022 61.09099,3.959774 74.32129,21.5248263 11.75969,15.612623 12.63707,17.23265 13.07731,24.146578 0.55302,8.684912 -1.63464,14.08829 -8.47222,20.925868 l -5.40136,5.401361 13.37252,0 c 7.35488,0 14.78966,0.494021 16.52174,1.097825 2.8731,1.001569 3.14922,1.474423 3.14922,5.393011 0,3.039552 -0.47431,4.477195 -1.62247,4.917788 -0.89236,0.34243 -21.02986,0.831039 -44.75,1.085796 -23.72014,0.254757 -48.95084,0.752697 -56.06821,1.106532 -11.30114,0.561829 -12.63146,0.804071 -10.5,1.911972 4.58614,2.383815 20.42701,7.270152 35.44068,10.932173 31.21226,7.61306 50.56145,14.19286 53.09138,18.05402 1.87713,2.86486 0.95296,7.10067 -1.9642,9.00262 -1.16995,0.76279 -9.10218,3.84316 -17.62718,6.84527 -8.525,3.0021 -24.275,8.9019 -35,13.11065 -10.725,4.20875 -22.16427,8.69087 -25.4206,9.96028 l -5.92059,2.308 4.92059,1.59702 c 2.70633,0.87836 11.32859,3.19466 19.16059,5.14732 19.99166,4.9843 24.75591,6.89851 26.27053,10.55513 1.03672,2.50286 0.9625,3.36682 -0.47812,5.56548 -1.45319,2.21785 -2.24703,2.53049 -5.36887,2.11442 -4.27713,-0.57004 -25.41087,-6.33041 -42.88193,-11.6882 -6.72012,-2.06084 -12.45763,-3.50776 -12.75001,-3.21538 -0.89576,0.89576 -0.59117,7.51277 0.51577,11.20487 1.53861,5.13191 3.9497,18.99592 3.95127,22.72035 0.003,6.06836 -7.12424,8.07425 -10.47124,2.94721 -1.61796,-2.47846 -5.5274,-23.4362 -5.5274,-29.63134 0,-5.1152 0.3187,-5.26722 -15.21454,7.25752 -19.10796,15.40711 -24.32347,18.01879 -28.21403,14.12823 -2.42359,-2.42358 -1.91753,-6.01401 1.17857,-8.36179 7.56126,-5.73374 31.31268,-23.08955 35.3662,-25.84303 3.24044,-2.20119 4.79544,-4.03193 5.21763,-6.14289 0.76073,-3.80366 3.36672,-5.16031 25.9032,-13.48497 9.49464,-3.50718 24.01298,-9.06165 32.26298,-12.34325 8.25,-3.2816 18.03422,-7.03822 21.74271,-8.34804 l 6.74272,-2.38149 -3.74272,-1.30294 c -2.05849,-0.71662 -13.64271,-3.96615 -25.74271,-7.22118 -24.32797,-6.54448 -29.06912,-8.08374 -41.50001,-13.47338 -4.675,-2.026936 -13.28762,-5.451699 -19.13915,-7.610586 l -10.63916,-3.92525 -43.36084,0.976805 c -72.50342,1.63331 -76.14731,1.852617 -83.89984,5.049504 -3.65992,1.509228 -12.68589,6.10689 -20.0577,10.217017 -23.947832,13.35204 -32.097012,17.47894 -51.609142,26.13579 -10.56322,4.68653 -20.46322,9.18604 -22,9.99892 -3.08341,1.63096 -2.90201,1.77117 4.70584,3.63718 4.15893,1.02009 22.59592,6.24836 49.499996,14.03698 6.05,1.75145 17.361466,4.88231 25.136606,6.95747 7.77513,2.07516 15.42513,4.71979 17,5.87696 3.63299,2.66942 30.63042,11.58078 53.36339,17.61429 9.625,2.55455 18.5125,5.29956 19.75,6.10002 2.67546,1.7306 3.03986,6.47657 0.67857,8.83786 -0.86428,0.86429 -2.93255,1.57143 -4.59615,1.57143 -4.98476,0 -49.82336,-13.28885 -63.52664,-18.82744 -6.46636,-2.61358 -6.3084,-2.96679 -6.18397,13.82744 0.0602,8.12713 -0.38218,13.89932 -1.2646,16.5 -1.30296,3.84012 -1.54722,4.01219 -6.11107,4.30495 -4.2439,0.27224 -4.85256,0.0453 -5.67399,-2.11519 z m 9.3464,-7.03251 c 0.3198,-1.59899 0.58145,-7.06319 0.58145,-12.14268 0,-13.68848 0.83564,-18.51457 3.2058,-18.51457 1.06368,0 7.86501,2.05165 15.11408,4.55922 7.24907,2.50757 22.35656,7.21419 33.57221,10.45914 15.75564,4.55849 20.82918,5.66599 22.31456,4.87104 1.53965,-0.82399 1.68425,-1.31593 0.72614,-2.47038 -1.22941,-1.48135 -5.97929,-3.01674 -25.93279,-8.38271 -15.67753,-4.21606 -44.49133,-13.80364 -48.38031,-16.09819 -2.90654,-1.7149 -11.27797,-4.40495 -25.619686,-8.23256 -4.084527,-1.0901 -55.571836,-15.94726 -74.249996,-21.42555 -0.9625,-0.2823 -1.75,-1.07599 -1.75,-1.76376 0,-2.16298 6.85222,-5.92256 28.26517,-15.50814 11.42084,-5.11257 30.99584,-14.89434 43.499996,-21.73726 23.050066,-12.614181 31.319306,-16.579503 36.734826,-17.615328 1.65,-0.315596 18.525,-0.81877 37.5,-1.118165 18.975,-0.299395 46.2,-0.807529 60.5,-1.129185 l 26,-0.584831 11.5,4.485047 c 6.325,2.466775 14.47613,5.835168 18.11363,7.485317 9.51899,4.318295 19.14477,7.399575 41.54078,13.297485 21.41593,5.63982 30.3456,8.99653 30.3456,11.40707 0,0.85896 -2.28994,2.59589 -5.25,3.98213 -5.78236,2.70797 -38.34963,15.44339 -60.25,23.56074 -17.93401,6.64722 -19.01905,7.23672 -21.99396,11.94928 -1.36568,2.16339 -4.85073,5.45338 -7.74455,7.31109 -2.89383,1.85772 -8.75239,6.15797 -13.01904,9.55611 -4.26665,3.39814 -11.19717,8.48913 -15.40116,11.3133 -6.90161,4.63639 -7.47115,5.26097 -5.86694,6.434 1.53758,1.12431 2.58468,0.75043 7.78089,-2.77825 3.30232,-2.24256 9.65834,-7.03794 14.12448,-10.65641 8.646,-7.00496 18.15423,-13.17025 20.31144,-13.17025 0.87209,0 1.31104,1.41816 1.31546,4.25 0.0102,6.52469 3.64742,26.18032 5.51176,29.78556 1.47333,2.84911 1.83064,3.04398 3.15427,1.72035 1.32363,-1.32363 1.20016,-2.88081 -1.08997,-13.74655 -2.58332,-12.25685 -3.1061,-18.45238 -1.92823,-22.85179 0.57444,-2.14559 0.99666,-2.28702 5.02453,-1.683 2.41857,0.36269 6.96771,1.55112 10.10921,2.64096 3.14149,1.08984 13.26269,3.97602 22.49154,6.41373 9.22885,2.43771 17.69512,4.9221 18.81392,5.52086 2.02041,1.08129 4.90635,-0.14415 4.90635,-2.08336 0,-1.71242 -9.47315,-5.20301 -24.61232,-9.06897 -16.45301,-4.20145 -27.38768,-8.32394 -27.38768,-10.32544 0,-1.45113 8.08537,-5.56252 18.5,-9.4072 4.4,-1.6243 14.75,-5.64842 23,-8.94249 8.25,-3.29406 21.075,-8.08941 28.5,-10.65633 13.63406,-4.71349 18.81147,-7.44432 17.65657,-9.313 -1.87342,-3.03125 -23.42813,-10.41379 -49.15657,-16.83623 -9.9,-2.47128 -20.925,-5.448556 -24.5,-6.61617 -9.09921,-2.971852 -22.34217,-9.524522 -22.58439,-11.174853 -0.27864,-1.898502 19.58669,-2.723443 74.16182,-3.079695 30.74648,-0.200705 43.69028,-0.619284 45.26846,-1.4639 5.69625,-3.048544 -2.50363,-5.069821 -20.59589,-5.076902 -10.17612,-0.004 -14.25,-0.338654 -14.25,-1.170646 0,-0.640788 2.63809,-3.912371 5.86243,-7.270184 9.93193,-10.343072 12.82235,-18.341989 9.19627,-25.449687 C 374.44015,36.700761 363.9066,22.345119 359.97081,18.88945 352.3791,12.223843 341.81004,8.3633237 323.07612,5.4130747 c -12.9112,-2.033277 -51.96289,-1.490932 -59.20351,0.82221 -6.44553,2.059138 -19.45628,10.6443403 -22.82533,15.0614003 -4.03579,5.291188 -11.45476,21.152195 -12.10171,25.872229 -1.12391,8.199824 2.4501,12.429951 18.85108,22.31174 5.9287,3.572113 10.77946,6.867889 10.77946,7.323947 0,1.867013 -5.04362,2.228478 -38.75,2.777132 -30.60425,0.498158 -35.25,0.380077 -35.25,-0.895949 0,-0.808351 1.70511,-2.428053 3.78913,-3.599338 4.60089,-2.585844 15.19074,-13.434334 17.80823,-18.243161 1.49292,-2.742771 1.90142,-5.541289 1.89695,-12.995512 -0.007,-12.167674 -2.17361,-16.603268 -10.99853,-22.519736 -7.5692,-5.0746 -13.64086,-7.027034 -27.75909,-8.926358 -27.83971,-3.7452733 -51.19268,-3.7790773 -68.83932,-0.09965 -18.851132,3.930573 -39.135102,19.240945 -47.585992,35.917979 -3.39167,6.693146 -2.85102,12.621995 2.06027,22.593097 2.02239,4.105934 3.42987,8.109527 3.12774,8.896872 -0.4667,1.216192 -4.41912,1.325797 -26.27436,0.728616 -21.56936,-0.58937 -26.0389704,-0.471254 -27.6684904,0.731179 -1.86215,1.374094 -1.82031,1.460241 1,2.058828 4.53319,0.962132 38.0859304,2.556455 55.9434704,2.658261 28.728277,0.163781 49.543442,1.55984 49.211322,3.30057 -0.63807,3.344292 -32.222792,20.258629 -64.775842,34.688939 -26.0595,11.55181 -34.78975,15.71161 -37.5791904,17.90579 l -2.47963,1.95047 2.93962,1.52013 c 1.6167904,0.83608 10.9820404,3.50599 20.8116604,5.93313 19.59072,4.83737 42.80997,11.35813 65.622056,18.42893 10.895786,3.37724 14.744416,4.98488 14.728646,6.15242 -0.0337,2.49193 -6.36642,6.38818 -30.235772,18.60264 -12.23358,6.26019 -23.11147,12.01946 -24.17309,12.79839 -1.88959,1.38642 -1.88383,1.44106 0.27372,2.59574 1.95125,1.04428 5.38288,-0.43527 29.930219,-12.90441 15.249453,-7.74616 29.188773,-14.34896 30.976273,-14.67288 l 3.25,-0.58895 0,11.44134 c 0,6.29274 -0.47869,14.03081 -1.06375,17.19572 -0.81813,4.42564 -0.77494,6.10237 0.18701,7.26146 1.094,1.31819 1.46779,1.21937 2.9823,-0.78847 0.95235,-1.26255 1.99319,-3.60381 2.31299,-5.2028 z M 73.844088,78.428068 c -11.69243,-4.344301 -17.26797,-11.150779 -17.26797,-21.080295 0,-7.03154 3.19802,-12.726443 12.03636,-21.433816 15.816816,-15.582451 27.04983,-19.59713 57.963632,-20.716207 18.56256,-0.671962 49.77141,2.264399 59.35109,5.584194 13.83658,4.795002 16.63976,8.457998 16.64517,21.750729 0.006,15.620937 -3.00543,19.890301 -19.75532,28.004209 -6.97927,3.380866 -11.6768,6.261608 -11.95684,7.332481 -0.25945,0.992142 -1.78972,2.029534 -3.49768,2.371125 -1.67003,0.334007 -21.99267,0.583838 -45.16142,0.555181 -41.513492,-0.05135 -42.215462,-0.08572 -48.357022,-2.367601 z m 94.387222,-2.498416 c 0.85462,-1.220133 6.11931,-4.36292 11.69932,-6.98397 16.70853,-7.84835 21.38016,-14.366188 20.3838,-28.439354 -0.59025,-8.337022 -2.31754,-10.947752 -9.77741,-14.778205 -7.23506,-3.715017 -11.7757,-4.613763 -35.46091,-7.018908 -17.60479,-1.787701 -21.67665,-1.893816 -34,-0.886066 -7.7,0.629673 -16.86905,1.799444 -20.37566,2.599493 -13.699757,3.125658 -29.527952,14.294692 -38.145122,26.916799 -2.85588,4.183181 -3.39555,5.84199 -3.33195,10.24163 0.12233,8.462862 5.8802,15.291085 15.56725,18.461114 6.89784,2.257277 15.463492,2.640898 53.086162,2.377518 38.79542,-0.271589 38.80089,-0.271927 40.35452,-2.490051 z m -57.65469,-4.1355 c -7.11493,-3.035888 -9.29963,-9.911124 -4.54856,-14.314267 2.45346,-2.273787 16.97368,-6.963525 25.39175,-8.201023 12.52941,-1.841884 22.39688,7.908176 16.10218,15.910589 -2.92554,3.719222 -13.24241,6.714539 -24.94588,7.242585 -5.52259,0.249173 -10.54647,-0.01789 -11.99949,-0.637884 z m 18.99949,-2.358653 c 9.53242,-1.706299 14.41017,-3.757903 16.49329,-6.937143 2.04922,-3.127504 0.85439,-5.858035 -3.80711,-8.700356 -4.35277,-2.65407 -11.4953,-2.500492 -21.38569,0.459831 -14.44756,4.324349 -17.73884,7.365532 -13.19998,12.196929 4.10369,4.368179 9.80965,5.144817 21.89949,2.980739 z m 136,5.258694 c -1.57363,-3.488407 -2.48507,-4.073438 -13,-8.344335 -8.98503,-3.649492 -15.79191,-8.199009 -17.65362,-11.799154 -2.38064,-4.603645 -1.20431,-10.498741 4.2647,-21.37227 5.33047,-10.598063 10.20884,-15.473935 20.0037,-19.99343 14.58915,-6.7316493 70.73991,-4.4667943 88.94857,3.587764 7.54646,3.338155 10.86697,6.403989 18.47059,17.053935 7.57858,10.61488 8.81227,14.199159 7.07566,20.557194 -2.33629,8.553584 -15.47433,17.940097 -30.10959,21.511881 -2.60666,0.636163 -19.64675,1.313947 -40.5,1.610922 l -36.00001,0.512682 -1.5,-3.325189 z m 76.88673,-1.464479 c 8.39585,-1.862198 18.69514,-7.361257 24.09836,-12.866742 3.82936,-3.901831 4.38768,-5.051224 4.72158,-9.720145 0.37288,-5.213897 0.26662,-5.448324 -6.9328,-15.295054 -10.62762,-14.535539 -15.49826,-17.36115 -36.27386,-21.043606 -11.61517,-2.058778 -43.28687,-2.99176 -55.18874,-1.625744 -10.08363,1.157332 -13.18013,2.398248 -21.14597,8.47421 -4.45388,3.3972 -6.14628,5.686313 -10.25,13.863928 -4.73538,9.436351 -5.84871,14.235209 -4.2619,18.370383 1.00375,2.615727 11.48234,8.942705 19.88813,12.008471 7.30989,2.666064 11.45847,5.972728 11.45847,9.133075 0,1.199566 5.05731,1.314108 33.75001,0.764398 23.26227,-0.445671 35.73466,-1.086797 40.13672,-2.063174 z M 287.33011,59.316795 c -6.17458,-1.986911 -8.41841,-5.209107 -7.1637,-10.287231 0.7594,-3.07347 1.73582,-4.092355 5.90971,-6.166685 10.20512,-5.071727 28.36878,-2.016502 30.90619,5.198586 1.34957,3.837472 -0.80886,8.131036 -5.1214,10.187544 -5.10288,2.433392 -18.47779,3.01558 -24.5308,1.067786 z m 23.98387,-4.115035 c 3.56379,-2.650956 3.92599,-5.401467 1.05373,-8.00208 -7.38119,-6.683111 -27.52274,-5.255591 -29.36416,2.081166 -1.58672,6.321993 3.1679,8.73876 16.31043,8.290579 7.43062,-0.253396 9.77823,-0.716984 12,-2.369665 z"
     id="path3755"
     inkscape:connector-curvature="0" />
  <path
     style="fill:#000000;fill-opacity:1;fill-rule:nonzero;stroke:#000000;stroke-width:4.50000000000000000;stroke-miterlimit:4;stroke-opacity:1;stroke-dasharray:none"
     d="m 119.03048,216.3688 c -0.38835,-0.85233 -0.38312,-2.01118 0.0231,-5.11613 0.75221,-5.74947 1.28966,-15.42962 1.30302,-23.46922 l 0.0116,-6.94276 -2.10846,0.2797 c -2.94259,0.39035 -7.36214,2.32337 -22.597785,9.88379 -34.352093,17.04662 -37.766891,18.61018 -39.625679,18.14365 -2.293107,-0.57553 -1.938695,-0.78907 21.943285,-13.22088 20.757591,-10.80541 27.705899,-14.74983 30.225569,-17.15849 2.31836,-2.21621 2.49003,-3.35027 0.70778,-4.67555 -3.32339,-2.47127 -40.430636,-13.54803 -77.136959,-23.02588 -18.760031,-4.84399 -24.5854078,-6.61406 -24.5854078,-7.47041 0,-0.52111 3.7277348,-2.86397 7.8418968,-4.92859 1.8651,-0.93597 12.547036,-5.84252 23.737635,-10.90345 37.514064,-16.96567 63.700845,-30.4771 70.262475,-36.252886 3.2791,-2.886378 2.7234,-3.50078 -4.01869,-4.44319 C 98.956143,86.221762 85.988103,85.649464 61.447954,85.145875 29.953163,84.499575 5.0563965,83.18944 4.4105361,82.144416 3.7327215,81.047691 8.5034016,80.852143 32.665115,80.986274 c 23.048704,0.127954 24.986068,0.08377 25.657928,-0.585133 0.934178,-0.930074 0.561259,-2.267266 -2.812672,-10.085566 -3.131609,-7.256773 -3.908961,-9.985469 -3.912938,-13.735329 -0.007,-6.639662 5.081533,-15.07414 14.62711,-24.244915 9.618189,-9.240536 21.154247,-15.94017 32.313466,-18.766237 17.101401,-4.3309233 47.696441,-4.1709266 75.921451,0.397031 10.04501,1.625692 16.26994,3.933174 22.81309,8.456453 8.02091,5.544854 9.99951,9.960009 9.98568,22.282596 -0.008,7.507551 -0.57895,9.989261 -3.1673,13.777449 -2.75526,4.03246 -10.60234,11.866655 -15.68902,15.663265 -3.31817,2.476624 -4.26769,3.41379 -4.37156,4.314714 -0.1096,0.950582 0.0748,1.208814 1.05971,1.483602 0.65583,0.182984 12.43417,0.295106 26.17408,0.249156 24.64012,-0.0824 42.08266,-0.614266 45.37212,-1.383501 1.66247,-0.388763 2.89609,-1.472441 2.65328,-2.33079 -0.12009,-0.424547 -6.40469,-4.649418 -16.62542,-11.176573 -5.90504,-3.771071 -10.77735,-8.197216 -12.09291,-10.985557 -1.26712,-2.685667 -1.25461,-6.551833 0.0333,-10.282317 2.78564,-8.068804 8.77223,-19.651771 11.96604,-23.152134 3.33017,-3.649797 12.31222,-9.748186 18.61246,-12.6369879 5.37042,-2.4624478 13.42876,-3.1923128 35.35435,-3.2021346 18.03395,-0.00808 24.95399,0.534944 35.77398,2.8072216 12.93045,2.7154879 22.46033,6.9706039 27.98519,12.4954539 3.86095,3.860958 12.44054,15.586782 15.78581,21.574672 2.0667,3.699296 2.58317,6.152105 1.98731,9.438085 -0.8966,4.944434 -3.22037,8.630058 -11.0995,17.604368 -5.18052,5.900595 -5.91342,7.335527 -4.03302,7.896205 0.52456,0.156406 6.58084,0.458942 13.45839,0.672305 6.87756,0.213364 14.03064,0.601902 15.89574,0.863419 3.24991,0.455694 6.14635,1.34249 6.14635,1.881809 0,0.140362 -0.68659,0.542079 -1.52576,0.892705 -1.79699,0.75083 -16.76367,1.161308 -67.9916,1.864739 -56.93462,0.781795 -59.12448,1.252067 -43.02446,9.239544 8.87721,4.404124 14.68354,6.36977 32.63925,11.049518 16.4199,4.27948 23.81422,6.33581 32.40462,9.01158 12.71859,3.96163 21.79731,7.65672 22.3498,9.09649 0.53826,1.40268 -4.00631,3.55091 -19.24233,9.0959 -10.81013,3.93424 -39.56453,14.93382 -52.22598,19.97831 -7.20643,2.87113 -12.75732,5.62409 -14.66487,7.27303 -1.42447,1.23136 -1.54159,1.47951 -1.09349,2.31679 1.17675,2.19878 8.63455,5.05424 25.26618,9.67399 14.55184,4.04205 19.25087,5.49969 22.66158,7.0296 3.73421,1.67503 4.0325,1.95426 3.14048,2.93993 -0.95862,1.05926 -1.41086,1.01476 -6.76314,-0.66555 -2.54473,-0.7989 -10.25388,-3.00347 -17.13143,-4.89904 -6.87756,-1.89557 -15.3497,-4.30909 -18.82699,-5.3634 -6.99338,-2.12037 -12.9036,-3.5217 -14.91225,-3.53575 -1.94128,-0.0136 -2.74153,1.17237 -3.27099,4.84748 -0.59203,4.10955 -0.0189,9.45205 2.25491,21.0175 1.81746,9.24449 2.02451,11.65909 1.10732,12.91343 -0.54975,0.75183 -0.63561,0.69943 -1.42986,-0.87272 -2.10716,-4.17093 -5.02818,-19.00546 -5.83811,-29.64908 -0.15967,-2.09824 -0.46767,-4.14879 -0.68446,-4.55678 -1.26952,-2.38926 -7.82026,1.38795 -23.70524,13.66866 -8.24424,6.37364 -14.52683,10.86931 -16.82614,12.04039 -1.04776,0.53365 -1.58532,0.5945 -2.2254,0.25194 -0.46417,-0.24842 -0.84395,-0.53533 -0.84395,-0.63758 0,-0.10226 3.48117,-2.6663 7.73593,-5.69787 4.25476,-3.03157 11.5509,-8.37705 16.21365,-11.87885 4.66275,-3.50179 10.08762,-7.55957 12.05525,-9.01729 1.96764,-1.45771 4.40776,-3.6995 5.42248,-4.98174 1.01473,-1.28225 2.38389,-3.00377 3.04259,-3.8256 1.79423,-2.23859 5.42341,-3.82213 32.04159,-13.98081 39.42053,-15.04464 48.64135,-18.80693 51.8201,-21.14374 5.47196,-4.02261 0.21092,-6.53744 -32.4024,-15.48868 -21.03714,-5.77397 -26.72744,-7.67251 -42.19059,-14.076695 -7.05846,-2.923316 -15.77325,-6.457307 -19.36619,-7.853317 l -6.53264,-2.538198 -5.97201,0.256884 c -3.28461,0.14129 -21.80417,0.53881 -41.15458,0.883388 -48.67147,0.866703 -70.99901,1.42149 -75.30335,1.871106 -5.87631,0.613826 -12.12703,3.420097 -34.695158,15.576462 -17.281087,9.30848 -32.982121,17.19371 -47.667222,23.93898 -18.972559,8.71463 -26.771668,12.86945 -27.814234,14.81751 -0.659886,1.233 -0.17595,2.68195 1.08811,3.2579 0.593312,0.27033 20.960326,6.22506 45.260028,13.23273 49.729096,14.34113 49.541126,14.28409 54.778446,16.62038 8.36533,3.73165 29.66099,10.81634 48.11109,16.00572 21.71003,6.10629 26.70484,7.76379 26.70484,8.86186 0,1.01352 -1.55874,1.2376 -4.59059,0.6599 -7.16636,-1.36548 -25.86288,-6.80884 -49.45491,-14.39842 -15.26215,-4.90985 -17.01674,-5.40295 -18.05397,-5.07375 -2.26082,0.71756 -2.81107,3.98006 -3.31406,19.64946 l -0.37263,11.60793 -1.42238,2.77354 c -0.7823,1.52545 -1.65807,2.85001 -1.94615,2.94347 -0.28807,0.0935 -0.7497,-0.32593 -1.02584,-0.93199 l 0,0 z M 169.13441,80.440707 c 0.82661,-0.376183 1.82512,-1.175687 2.2189,-1.776678 1.05914,-1.616448 3.77263,-3.336977 12.10418,-7.674809 9.11465,-4.74556 10.27687,-5.47537 13.56005,-8.515016 4.61257,-4.270426 6.06064,-8.91703 6.07679,-19.499297 0.0181,-11.897529 -2.00146,-15.986449 -9.84766,-19.937736 -7.73175,-3.893642 -17.57086,-5.862016 -38.33178,-7.668499 -11.49978,-1.000639 -32.97147,-1.007308 -42.26116,-0.01313 -21.146219,2.263066 -30.28974,6.332622 -43.94289,19.557901 -8.781874,8.506658 -12.239786,14.202672 -12.667411,20.866271 -0.43311,6.749012 1.456249,11.896993 6.038299,16.452686 4.226986,4.202676 12.471232,7.939713 19.076941,8.647391 1.8651,0.199812 22.084481,0.336651 44.931951,0.304088 37.23983,-0.05307 41.69647,-0.130019 43.04379,-0.743174 l 0,0 z m 144.31397,-2.522662 c 25.61722,-0.596968 29.35353,-0.88984 34.86036,-2.732537 12.45638,-4.168163 22.81903,-12.009353 25.62276,-19.388175 2.34371,-6.168136 1.34384,-10.253162 -4.72243,-19.293869 C 361.56682,25.114028 357.4762,20.771318 351.36546,17.560215 340.6792,11.944744 319.00698,8.7463047 291.61824,8.7425732 c -22.05471,-0.003 -30.24186,1.5447698 -39.30577,7.4307258 -5.76278,3.742249 -10.16752,9.25252 -14.2986,17.88731 -3.88523,8.120942 -4.61171,10.474856 -4.64807,15.060649 -0.0293,3.686964 0.0693,4.19912 1.16702,6.066657 2.09959,3.571951 7.8035,7.41209 16.85942,11.350536 2.89045,1.257069 6.78136,3.050363 8.64646,3.985096 3.37701,1.692459 3.39791,1.713217 5.031,4.997717 l 1.63991,3.2982 14.25583,-0.238334 c 7.84071,-0.131083 22.45803,-0.429473 32.48294,-0.663085 l 0,0 z"
     id="path3757"
     inkscape:connector-curvature="0" />
  <path
     style="fill:#000000;fill-opacity:1;fill-rule:nonzero;stroke:#000000;stroke-width:4.50000000000000000;stroke-miterlimit:4;stroke-opacity:1;stroke-dasharray:none"
     d="m 289.21327,56.330668 c -4.20528,-0.88417 -5.88992,-2.657914 -5.53289,-5.825522 0.47504,-4.214514 5.61401,-6.646431 14.08421,-6.665073 7.07105,-0.01556 11.80563,1.500082 14.58912,4.670306 1.06637,1.214528 1.31542,1.811256 1.11705,2.676512 -0.33428,1.458065 -3.3076,4.149554 -5.26153,4.762805 -1.90248,0.597104 -16.56899,0.891247 -18.99596,0.380972 l 0,0 z"
     id="path3759"
     inkscape:connector-curvature="0" />
  <path
     style="fill:#000000;fill-opacity:1;fill-rule:nonzero;stroke:#000000;stroke-width:4.50000000000000000;stroke-miterlimit:4;stroke-opacity:1;stroke-dasharray:none"
     d="m 114.64569,69.517981 c -3.57853,-0.97754 -7.38801,-3.779239 -7.92363,-5.82748 -0.80819,-3.090493 4.8775,-6.211486 17.03719,-9.352076 6.93069,-1.79005 12.39807,-2.076495 15.9833,-0.837392 2.97546,1.02836 6.48376,4.291479 6.47988,6.027042 -0.006,2.675366 -3.01247,5.366844 -7.75757,6.944745 -6.9892,2.324139 -20.25169,4.019681 -23.81917,3.045161 z"
     id="path3761"
     inkscape:connector-curvature="0" />
</svg>
