<?xml version="1.0" encoding="UTF-8" standalone="no"?>
<!-- Created with Inkscape (http://www.inkscape.org/) -->

<svg
   xmlns:dc="http://purl.org/dc/elements/1.1/"
   xmlns:cc="http://creativecommons.org/ns#"
   xmlns:rdf="http://www.w3.org/1999/02/22-rdf-syntax-ns#"
   xmlns:svg="http://www.w3.org/2000/svg"
   xmlns="http://www.w3.org/2000/svg"
   xmlns:sodipodi="http://sodipodi.sourceforge.net/DTD/sodipodi-0.dtd"
   xmlns:inkscape="http://www.inkscape.org/namespaces/inkscape"
   id="svg2"
   version="1.1"
   inkscape:version="0.48.4 r9939"
   width="432"
   height="204"
   sodipodi:docname="frog2.png">
  <metadata
     id="metadata8">
    <rdf:RDF>
      <cc:Work
         rdf:about="">
        <dc:format>image/svg+xml</dc:format>
        <dc:type
           rdf:resource="http://purl.org/dc/dcmitype/StillImage" />
        <dc:title></dc:title>
      </cc:Work>
    </rdf:RDF>
  </metadata>
  <defs
     id="defs6" />
  <sodipodi:namedview
     pagecolor="#ffffff"
     bordercolor="#666666"
     borderopacity="1"
     objecttolerance="10"
     gridtolerance="10"
     guidetolerance="10"
     inkscape:pageopacity="0"
     inkscape:pageshadow="2"
     inkscape:window-width="1920"
     inkscape:window-height="1018"
     id="namedview4"
     showgrid="false"
     inkscape:zoom="3.7925602"
     inkscape:cx="217.88808"
     inkscape:cy="92.875061"
     inkscape:window-x="-8"
     inkscape:window-y="-8"
     inkscape:window-maximized="1"
     inkscape:current-layer="svg2" />
  <g
     id="g3759">
    <path
       inkscape:connector-curvature="0"
       id="path2987"
       d="m 112.04874,188.49509 c -1.39191,-1.53804 -1.53777,-3.5031 -1.00202,-13.5 0.34486,-6.43497 0.35225,-11.69994 0.0164,-11.69994 -0.33584,0 -7.3649,2.925 -15.620147,6.5 -15.08432,6.53239 -21.26973,7.90547 -23.8752,5.3 -1.61876,-1.61876 -1.51338,-4.90758 0.23734,-7.40708 1.51554,-2.16374 14.48133,-8.21665 30.843907,-14.39909 l 9.78126,-3.69575 -19.781257,-5.59733 c -10.87967,-3.07853 -24.05623,-6.35275 -29.28123,-7.27605 -11.13778,-1.96813 -12.76471,-2.67563 -14.07444,-6.12048 -1.53363,-4.03376 1.05867,-6.774 11.25063,-11.89271 15.56991,-7.81968 40.667407,-18.37335 55.823807,-23.474289 l 14.5,-4.88003 -12,-0.006 c -6.6,-0.004 -23.699997,0.64646 -37.999997,1.44451 -14.3,0.79805 -31.2875,1.4631 -37.75,1.47789 -10.4376,0.0239 -11.97339,-0.19648 -13.75,-1.97309 -2.483,-2.483 -2.50315,-3.49686 -0.11694,-5.88307 1.5072,-1.5072 4.08325,-2.0268 12.90588,-2.60315 l 11.02281,-0.72008 -1.40588,-3.36473 c -4.48002,-10.7222 1.9456,-22.0864 16.12299,-28.51473 22.48946,-10.19721 52.877817,-14.778582 85.604767,-12.905843 22.67619,1.297604 32.93032,4.785573 41.29805,14.047663 l 3.7644,4.16674 -0.34804,8.30562 c -0.28742,6.85903 -0.7653,8.86986 -2.74372,11.54514 l -2.39567,3.23952 5.39567,-0.64785 c 2.96763,-0.35632 7.30157,-0.65176 9.63098,-0.65654 l 4.2353,-0.009 -1.98156,-3.25 c -2.37337,-3.89261 -2.53392,-8.51017 -0.46783,-13.45502 5.54848,-13.27937 24.67953,-23.823704 49.62898,-27.353672 11.63064,-1.645559 43.3089,-1.676638 54.84981,-0.05381 18.30582,2.574073 25.11152,5.90225 31.51584,15.412122 2.93416,4.35698 3.48357,6.044 3.48042,10.68703 -0.003,3.79296 -0.64347,6.56267 -2.05389,8.87613 -1.12758,1.84953 -1.85823,3.55469 -1.62367,3.78925 0.23456,0.23456 13.61843,-0.0983 29.74193,-0.73967 l 29.31544,-1.16615 1.81197,2.23768 c 2.29295,2.83167 2.3188,6.26486 0.062,8.22975 -1.36278,1.18649 -5.73285,1.66251 -19.75,2.1513 -44.43633,1.54954 -105.89999,4.56841 -105.29662,5.17177 0.82682,0.82682 36.52725,9.79843 48.29662,12.13707 7.15,1.420749 13.80933,3.289859 14.79851,4.153579 1.22528,1.06989 1.70337,2.66708 1.5,5.01125 -0.27484,3.16804 -1.01207,3.87096 -9.29851,8.86584 -4.95,2.98374 -12.375,7.28609 -16.5,9.56077 -4.125,2.27468 -10.8909,6.19176 -15.03532,8.70462 l -7.53533,4.56883 2.65706,2.20049 c 1.81923,1.50664 7.03314,3.166 16.53532,5.26249 17.55173,3.87248 20.16375,4.72899 21.38595,7.01269 2.55669,4.77722 -0.17483,9.98566 -5.23689,9.98566 -1.41444,0 -9.1548,-1.575 -17.20079,-3.5 -8.04599,-1.925 -14.89875,-3.5 -15.22836,-3.5 -0.32961,0 -0.28368,4.45162 0.10206,9.8925 0.67823,9.56644 0.6257,9.94548 -1.59368,11.5 -3.16225,2.21492 -5.26146,2.01746 -8.54426,-0.80373 -2.72814,-2.34453 -2.81502,-2.73026 -3.14041,-13.94298 -0.39359,-13.56141 -0.8803,-14.05541 -8.66539,-8.7951 -6.6001,4.45962 -30.87844,16.14931 -33.54053,16.14931 -3.86471,0 -5.96046,-1.86341 -5.94416,-5.28518 0.008,-1.76815 0.34592,-3.71994 0.75,-4.33732 0.40408,-0.61737 7.33772,-4.3807 15.40809,-8.36294 11.36282,-5.60688 15.38032,-8.12012 17.80666,-11.13937 1.72329,-2.14441 5.47026,-5.07136 8.3266,-6.50435 2.85634,-1.43298 11.04334,-6.08127 18.19334,-10.32953 7.15,-4.24825 15.34872,-9.0494 18.21938,-10.66922 l 5.21938,-2.94511 -17.71938,-4.34873 c -9.74566,-2.3918 -24.24438,-6.28216 -32.21938,-8.645249 -7.975,-2.36309 -21.025,-5.96351 -29,-8.00094 l -14.5,-3.70441 -30.5,1.05498 -30.5,1.05497 -12,4.44243 c -6.6,2.44334 -19.2,6.816789 -28,9.718779 -17.64262,5.81804 -30.058817,10.60928 -44.587507,17.20573 l -9.5875,4.353 20.5875,5.39086 c 24.299727,6.3629 31.234157,8.4158 48.587507,14.38409 7.15,2.45908 19.975,6.16577 28.5,8.23709 8.525,2.07132 16.2875,4.43527 17.25,5.25322 2.30784,1.96124 2.26284,7.40311 -0.0787,9.52221 -1.00581,0.91025 -3.16937,1.65499 -4.80792,1.65499 -3.61712,0 -37.12865,-8.87618 -47.12405,-12.48172 -6.70127,-2.41728 -7.39283,-2.49024 -10.13971,-1.06977 l -2.94794,1.52443 -0.32582,13.91177 c -0.28093,11.99489 -0.5883,14.20135 -2.23081,16.01352 -2.38134,2.62733 -7.66392,2.78809 -9.91406,0.30171 z m 8.26256,-6.52993 c 0.5752,-1.74351 0.93572,-7.99495 0.80115,-13.89211 -0.22081,-9.67704 -0.0439,-10.92287 1.81512,-12.782 3.52968,-3.52989 8.23388,-3.56135 18.59257,-0.12434 5.14121,1.70585 16.98392,5.13383 26.31713,7.61773 16.49524,4.38997 17.02106,4.46461 18.81478,2.6709 1.79371,-1.79372 1.77733,-1.88981 -0.58606,-3.43837 -1.33725,-0.87619 -10.70389,-3.69369 -20.81478,-6.26109 -10.11088,-2.56741 -23.78342,-6.61036 -30.38342,-8.98434 -6.6,-2.37398 -22.125,-7.03056 -34.5,-10.34797 -26.680857,-7.15242 -30.499997,-8.41816 -30.499997,-10.10828 0,-2.99315 28.58689,-16.04319 51.710237,-23.60596 6.20937,-2.03085 18.71476,-6.398429 27.78976,-9.705739 l 16.5,-6.01329 34,-0.9295 34,-0.9295 14.3811,3.62775 c 7.90961,1.99526 18.48461,4.93913 23.5,6.54194 5.0154,1.6028 18.5689,5.389609 30.1189,8.415139 26.84391,7.03177 25.5,6.60902 25.5,8.02134 0,2.5428 -7.84448,7.69706 -41.68009,27.38612 -3.94905,2.29797 -8.29813,5.60671 -9.66462,7.35276 -1.71983,2.19754 -7.18057,5.50523 -17.74199,10.74672 -8.3916,4.16465 -15.42979,8.09639 -15.64042,8.73722 -0.21064,0.64083 0.51615,1.45051 1.61507,1.7993 2.23913,0.71067 19.22163,-6.90122 30.27895,-13.57163 7.44007,-4.48828 12.341,-5.28628 14.48214,-2.3581 0.83096,1.13641 1.35311,4.5646 1.35654,8.90642 0.006,8.06524 1.31724,13.75197 3.60831,15.65339 2.58339,2.14402 3.79401,-1.5088 3.84268,-11.59452 l 0.0434,-9 3,-0.28961 c 1.65,-0.15928 9.525,1.28867 17.5,3.21768 13.99457,3.38503 14.56326,3.44419 16.31477,1.69706 1.75274,-1.74835 1.72742,-1.86747 -0.74073,-3.48466 -1.40552,-0.92093 -8.71638,-3.05899 -16.24636,-4.75124 -16.38634,-3.68258 -16.92508,-3.8844 -21.12295,-7.9129 -2.60105,-2.4961 -3.053,-3.45422 -2.14532,-4.54792 1.60333,-1.93189 12.74207,-9.12348 23.44059,-15.13413 4.95,-2.78101 12.76534,-7.53992 17.36742,-10.57534 8.31653,-5.4854 8.35302,-5.52804 6,-7.01187 -1.30205,-0.82109 -7.31739,-2.47592 -13.36739,-3.6774 -26.55677,-5.273939 -56.76415,-14.410029 -56.26635,-17.017499 0.29672,-1.55424 4.36051,-1.96076 34.26635,-3.42777 6.05,-0.29678 15.725,-0.7756 21.5,-1.06405 5.775,-0.28845 24.675,-1.02385 42,-1.63423 29.44929,-1.03753 35,-1.6439 35,-3.82348 0,-2.63599 -6.85377,-3.0154 -34.65011,-1.91812 -15.62931,0.61697 -28.67836,0.86034 -28.99788,0.54082 -0.31953,-0.31953 0.32728,-2.51694 1.43734,-4.88315 4.40761,-9.39522 4.65636,-11.00821 2.38444,-15.46154 -4.47848,-8.77854 -10.85146,-13.63409 -21.17379,-16.13222 -8.48148,-2.052624 -32.42536,-4.328709 -39.5,-3.754837 -3.85,0.312299 -10.15,0.796439 -14,1.075866 -14.51194,1.053254 -27.61641,4.396481 -37.62299,9.598421 -10.08496,5.24269 -15.19093,9.77047 -18.38864,16.30637 l -2.63354,5.38274 2.57259,5.438 c 1.41492,2.99089 2.57258,5.95707 2.57258,6.5915 0,1.61788 -25.34707,2.13977 -26.93231,0.55453 -0.27332,-0.27332 0.0507,-1.26287 0.72007,-2.19899 3.2041,-4.48103 5.77946,-13.80592 4.84319,-17.5363 -1.71607,-6.83738 -11.67135,-13.92059 -24.13095,-17.16924 -5.11922,-1.33476 -22.93267,-2.91307 -33,-2.92387 -22.06884,-0.0237 -52.092957,6.18116 -67.679857,13.98684 -8.15514,4.08397 -11.38503,6.92638 -14.13001,12.43483 -2.62629,5.27027 -2.49645,8.70157 0.5608,14.82074 1.62913,3.26075 0.36555,3.77685 -11.07259,4.52253 -10.24213,0.66771 -14.17834,1.40686 -14.17834,2.66244 0,2.18655 11.47001,2.54618 33,1.03468 11.04743,-0.77558 35.652317,-2.06443 44.499997,-2.33099 1.1,-0.0331 8.5625,0.02 16.58333,0.11802 21.96038,0.26847 21.18812,0.99704 -15.08333,14.229929 -20.498307,7.47838 -54.181487,23.05225 -56.873897,26.29641 -1.818,2.19056 2.12218,3.94235 13.8739,6.16828 8.91379,1.68839 37.694947,9.57439 46.443707,12.72551 7.72668,2.78299 7.66216,2.82917 -20.474437,14.65527 -14.81498,6.22689 -18.96927,8.45873 -18.96927,10.19098 0,2.5288 3.91988,1.61344 16.67928,-3.89487 7.6014,-3.28157 15.690367,-6.27482 17.975487,-6.65166 4.02812,-0.66429 4.17534,-0.59157 4.82924,2.38565 0.37096,1.68896 0.52991,7.05645 0.35323,11.92775 -0.23339,6.43469 0.0547,9.30992 1.05344,10.51331 1.74108,2.09787 3.58616,0.74743 5.05283,-3.69826 z M 68.369293,82.178211 c -5.62758,-1.08038 -9.15733,-3.65865 -10.20038,-7.45079 -2.08382,-7.57603 3.34449,-14.63475 15.00025,-19.50563 21.53769,-9.00047 49.555957,-12.93539 79.198627,-11.12275 19.93487,1.21901 27.68186,3.35577 33.92848,9.35808 3.55669,3.41759 4.07152,4.47064 4.07152,8.3281 0,6.89768 -1.59451,9.21424 -8.66484,12.5886 -3.47275,1.65739 -6.78466,3.89271 -7.35981,4.96738 -0.97442,1.82072 -2.20246,1.95395 -18.01053,1.95395 -9.70072,0 -16.96482,-0.39525 -16.96482,-0.92308 0,-0.50769 1.35,-2.27308 3,-3.92308 3.38974,-3.38974 3.73389,-5.66105 1.36931,-9.03697 -5.12157,-7.31207 -21.58816,-6.43115 -30.51353,1.63238 -3.82509,3.45574 -3.9929,3.85072 -3.37802,7.95101 0.47051,3.1376 0.289,4.42614 -0.66537,4.72341 -2.8581,0.89026 -36.588757,1.26995 -40.810887,0.45939 z m 30.52123,-2.51975 8.022717,-0.6247 0,-3.84439 c 0,-10.34285 19.09247,-18.46912 32.77968,-13.95194 6.48154,2.1391 9.68439,9.43437 6.63969,15.12346 -0.99878,1.86624 -0.57803,1.93426 11.96481,1.93426 11.78768,0 13.09565,-0.17873 14.02567,-1.91648 0.56411,-1.05406 3.21531,-2.64375 5.89155,-3.53266 6.57065,-2.18242 9.6077,-5.55417 9.6077,-10.66656 0,-3.43508 -0.56018,-4.47324 -3.94876,-7.31812 -7.13762,-5.9924 -15.29467,-7.83124 -37.00579,-8.3422 -21.35443,-0.50256 -35.09511,0.62786 -50.499997,4.15452 -23.09549,5.28729 -36,12.75575 -36,20.83493 0,3.88713 2.16586,6.41682 6.64255,7.75836 3.4585,1.03642 20.85434,1.25006 31.88018,0.39152 z m 137.477267,-1.34612 c -17.94315,-3.15943 -23.05574,-9.11833 -16.08247,-18.74466 3.269,-4.51272 12.44036,-10.49581 20.34529,-13.2726 12.89902,-4.53107 21.09338,-5.4944 46.73718,-5.4944 34.09135,0 44.40669,2.31254 50.53339,11.3288 4.26705,6.27952 2.79007,12.39568 -3.8187,15.81321 -10.88053,5.62654 -26.67058,9.16448 -41.46469,9.29063 -8.09235,0.069 -9.03583,-0.91185 -4.75,-4.93817 5.95145,-5.5911 1.98926,-8.38107 -12,-8.44977 -9.48363,-0.0466 -10.35912,0.13159 -16.95461,3.45033 -6.28148,3.16073 -7.05843,3.88659 -8.02712,7.49944 -1.03873,3.87402 -1.21338,4.00487 -5.54539,4.15478 -2.46008,0.0851 -6.49788,-0.20179 -8.97288,-0.63759 z m 12.57363,-5.76719 c 0.82779,-3.35095 1.67127,-4.12245 7.92637,-7.25 6.84944,-3.42472 7.25811,-3.49934 19,-3.46934 14.30884,0.0366 16.5,0.8567 16.5,6.17578 0,1.99984 -0.6447,4.34651 -1.43267,5.21481 -1.29974,1.43226 -0.39506,1.52996 9.75,1.05299 7.41233,-0.3485 12.36273,-1.08707 14.68267,-2.19059 1.925,-0.91565 6.05071,-2.41658 9.16825,-3.33541 9.94559,-2.93125 14.32638,-6.84076 13.06602,-11.6604 -0.25699,-0.98271 -2.16927,-3.54056 -4.24951,-5.68411 -3.12602,-3.22115 -5.01427,-4.17758 -10.88288,-5.51237 -20.20522,-4.59558 -53.67024,-4.23543 -73.31104,0.78897 -14.98666,3.83381 -26.75943,11.60277 -29.17787,19.25476 -0.51505,1.62962 0.061,2.75422 2.43319,4.75029 1.70939,1.43836 4.3108,2.88678 5.78091,3.21871 1.47011,0.33193 4.02293,0.96622 5.67293,1.40952 1.65,0.44331 5.50814,0.84659 8.57363,0.8962 l 5.57364,0.0902 0.92636,-3.75 z"
       style="fill:#000000;stroke:#000000;stroke-opacity:1;stroke-width:0.98999999999999999;stroke-miterlimit:4;stroke-dasharray:none;fill-opacity:1" />
    <path
       inkscape:connector-curvature="0"
       id="path3757"
       d="m 115.79463,184.94832 c -0.47317,-0.56921 -0.68208,-3.33711 -0.86593,-11.47333 -0.27519,-12.17804 -0.538,-13.34859 -3.05165,-13.5916 -2.37211,-0.22933 -7.76535,1.49203 -19.174843,6.12001 -11.798528,4.78579 -16.118118,6.26172 -17.158075,5.86266 -2.091934,-0.80275 2.802971,-3.40373 21.494594,-11.42146 26.853794,-11.51887 26.886884,-11.56466 11.770834,-16.28814 -12.326084,-3.85165 -28.54826,-8.19047 -41.576625,-11.12016 -8.770389,-1.97219 -13.17729,-3.42813 -13.17729,-4.35347 0,-0.98044 3.740691,-3.19782 13.17729,-7.81114 16.509591,-8.07114 29.40133,-13.53823 51.800385,-21.967354 19.21407,-7.230565 22.37229,-8.780601 21.662,-10.631592 -0.46638,-1.215382 -3.54053,-1.573014 -16.20933,-1.885711 -13.22094,-0.326324 -20.29071,-0.07865 -54.072329,1.894272 -20.533142,1.199188 -35.76119,1.339067 -37.448296,0.343991 -0.758491,-0.447365 -0.562284,-0.579092 1.531339,-1.028097 1.320713,-0.283239 6.108409,-0.820623 10.639326,-1.194181 13.898248,-1.145865 13.874561,-1.12853 11.141567,-8.15484 -1.83609,-4.720442 -1.690802,-7.083734 0.728511,-11.850157 2.029912,-3.999246 5.034428,-6.978929 9.905885,-9.824013 12.008717,-7.01347 34.059077,-12.911877 56.805697,-15.195361 11.67746,-1.172275 34.03383,-0.332175 44.38968,1.668061 13.81746,2.668848 26.32376,11.718413 26.33762,19.057909 0.005,2.879069 -1.75105,8.791539 -3.84723,12.950096 -1.13376,2.249227 -2.05722,4.335487 -2.05213,4.636133 0.0179,1.054575 3.49218,1.493047 11.82338,1.492139 8.66174,-9.09e-4 15.74392,-0.561339 16.48718,-1.304591 0.55282,-0.55282 -0.18069,-2.766874 -2.78303,-8.400363 l -2.07201,-4.485461 1.74401,-3.387882 c 4.26174,-8.278768 8.9753,-12.467488 20.51421,-18.22999 10.80908,-5.398031 22.92858,-7.945206 45.88588,-9.643907 8.00235,-0.592125 15.45255,-0.235684 29.05,1.389845 16.15279,1.93101 22.05151,3.825512 27.93442,8.971731 2.63915,2.308669 6.29032,7.535215 7.52808,10.776244 0.96118,2.516825 0.61818,4.130696 -2.35425,11.076946 -1.13846,2.660465 -2.18435,5.533061 -2.3242,6.383547 l -0.25426,1.546337 12.45285,-0.297946 c 42.85677,-1.025387 51.30315,-0.919699 51.30315,0.641952 0,1.557307 -5.43015,2.030131 -38.6231,3.363062 -49.38682,1.983231 -79.67648,3.501822 -87.61443,4.392616 -7.2684,0.815652 -8.33257,2.379569 -3.33562,4.902025 7.5046,3.788303 26.33757,9.165228 51.85896,14.80603 6.36532,1.40688 12.55375,2.97974 13.75205,3.49523 1.87305,0.80577 2.0981,1.03632 1.60398,1.64323 -0.94847,1.16497 -12.66737,8.6626 -22.83984,14.6127 -12.68177,7.41784 -20.71643,12.55305 -23.19223,14.8229 -1.9299,1.76936 -2.0045,1.92949 -1.53126,3.28703 0.63081,1.80954 5.0317,5.86348 7.60321,7.00379 1.08024,0.47903 7.31673,2.19007 13.85887,3.80232 13.31317,3.2809 18.58968,4.89057 19.457,5.93562 0.49483,0.59624 0.41109,0.85042 -0.53173,1.61387 -1.35433,1.09667 -3.45872,0.9368 -10.82004,-0.82203 -14.85199,-3.54855 -23.81506,-4.93851 -25.34263,-3.93005 -0.32407,0.21394 -0.6017,3.35285 -0.77305,8.74004 -0.23522,7.39506 -0.68329,11.42845 -1.34284,12.08801 -0.49308,0.49308 -1.68763,-0.47631 -2.37693,-1.92888 -1.09724,-2.31226 -1.91105,-7.25201 -2.38487,-14.47583 -0.48504,-7.39498 -1.05068,-8.95377 -3.54815,-9.77801 -1.82641,-0.60277 -4.80224,-0.30075 -7.29371,0.74025 -0.88289,0.3689 -4.81121,2.43305 -8.72961,4.58701 -7.71092,4.23872 -13.38713,6.99871 -19.93134,9.69136 -4.86291,2.00088 -6.49159,2.40962 -7.36465,1.84828 -0.85732,-0.55121 0.59558,-1.43198 13.35579,-8.09643 13.79351,-7.20413 15.80961,-8.42681 19.30743,-11.70909 3.80335,-3.56899 6.31808,-5.25435 18.68623,-12.52349 26.25625,-15.43157 32.66388,-19.9245 32.66388,-22.90338 0,-1.45879 -0.22343,-1.53291 -23.40105,-7.76231 -10.74631,-2.88827 -25.05957,-6.861816 -31.80726,-8.830104 -10.86217,-3.168484 -23.96643,-6.735126 -34.98797,-9.522832 l -3.63512,-0.919439 -34.30639,0.947893 -34.3064,0.947892 -9.76937,3.544078 c -5.37315,1.949244 -16.61929,5.924719 -24.99141,8.834392 -18.6203,6.47135 -21.4297,7.48611 -28.62653,10.33994 -17.638168,6.99423 -32.214682,14.41655 -32.966931,16.78668 -0.676339,2.13096 2.012696,3.32872 16.608919,7.39801 26.125702,7.28361 33.269282,9.37353 47.483682,13.89175 8.49708,2.7009 21.89021,6.67702 29.7625,8.83582 15.79494,4.33141 20.9618,5.91271 22.82481,6.98546 l 1.24132,0.71477 -0.97973,1.04288 c -0.64076,0.68205 -1.50248,1.04287 -2.49063,1.04287 -2.5527,0 -23.00857,-5.48169 -42.40645,-11.36393 -7.49772,-2.27361 -12.56563,-2.79834 -15.65005,-1.62039 -2.43819,0.93115 -4.66518,3.32563 -4.98842,5.36359 -0.12967,0.81756 -0.30161,6.18941 -0.38207,11.93743 -0.14278,10.19902 -0.17537,10.51394 -1.35187,13.06369 -1.24075,2.68901 -2.04612,3.16804 -3.13136,1.86255 l 0,0 z M 107.78794,82.574538 c 1.24134,-0.196228 2.43797,-0.639375 2.65918,-0.98477 0.22121,-0.345395 0.27252,-2.406971 0.11401,-4.581277 l -0.28818,-3.953283 2.48178,-2.422999 c 4.67612,-4.565347 11.61025,-7.310643 18.38137,-7.277379 5.23439,0.02571 8.39597,1.049053 10.86307,3.51615 3.37357,3.373567 3.29657,4.966189 -0.44921,9.291561 -2.46028,2.840968 -3.32935,4.372053 -2.7886,4.912808 0.80672,0.806714 24.9163,1.27129 31.28719,0.602884 3.24197,-0.340133 3.66225,-0.505095 5.12556,-2.011812 0.8767,-0.902715 3.86973,-2.915706 6.65118,-4.473315 7.88042,-4.413034 9.1041,-6.174424 9.11548,-13.121018 0.007,-4.398253 -0.77925,-6.075264 -4.37607,-9.331397 -7.93041,-7.179235 -19.4837,-9.443588 -48.21984,-9.450702 -16.11108,-0.004 -21.57374,0.39684 -34.0237,2.496524 -12.794068,2.157716 -25.690309,6.016526 -34.314156,10.267471 -4.009201,1.976252 -5.809381,3.177762 -7.976495,5.323823 -3.415738,3.382555 -4.467197,5.489313 -4.707561,9.432315 -0.46517,7.630776 3.721605,11.343774 13.772297,12.213821 4.822222,0.417438 33.425205,0.06712 36.692695,-0.449405 z m 141.89549,-3.85931 c 0.51255,-0.331527 1.2951,-1.781122 1.76225,-3.2644 1.05991,-3.365318 2.58479,-4.81625 7.73669,-7.361456 6.67435,-3.297353 6.98746,-3.368108 15.0249,-3.395317 8.24088,-0.0279 12.90286,0.657791 14.64176,2.153521 1.10373,0.949391 1.12105,1.042202 0.44018,2.358854 -0.38981,0.753819 -1.06304,1.662399 -1.49606,2.019068 -0.43301,0.35667 -1.34667,1.418397 -2.03035,2.359394 -1.45996,2.009452 -1.30936,3.372635 0.42649,3.860336 2.0723,0.582229 14.60835,0.251592 20.05243,-0.528882 12.68644,-1.818754 26.78092,-6.514051 31.19929,-10.393427 7.74666,-6.801665 1.7186,-19.388628 -11.1671,-23.317576 -7.11748,-2.170176 -17.20614,-2.912347 -39.52332,-2.907527 -24.91779,0.0054 -32.09997,0.725879 -43.06134,4.319801 -15.9853,5.24113 -26.96223,14.245573 -26.96223,22.117284 0,3.78575 1.78264,6.049582 6.69455,8.501625 7.18938,3.588965 22.87842,5.667168 26.26186,3.478702 z"
       style="fill:#000000;fill-opacity:1;fill-rule:nonzero;stroke:#000000;stroke-width:0.99000001;stroke-miterlimit:4;stroke-opacity:1;stroke-dasharray:none" />
  </g>
</svg>
