<?xml version="1.0" encoding="UTF-8" standalone="no"?>
<!-- Created with Inkscape (http://www.inkscape.org/) -->

<svg
   xmlns:dc="http://purl.org/dc/elements/1.1/"
   xmlns:cc="http://creativecommons.org/ns#"
   xmlns:rdf="http://www.w3.org/1999/02/22-rdf-syntax-ns#"
   xmlns:svg="http://www.w3.org/2000/svg"
   xmlns="http://www.w3.org/2000/svg"
   xmlns:sodipodi="http://sodipodi.sourceforge.net/DTD/sodipodi-0.dtd"
   xmlns:inkscape="http://www.inkscape.org/namespaces/inkscape"
   id="svg2"
   version="1.1"
   inkscape:version="0.48.4 r9939"
   width="341"
   height="288"
   sodipodi:docname="frog3.svg">
  <metadata
     id="metadata8">
    <rdf:RDF>
      <cc:Work
         rdf:about="">
        <dc:format>image/svg+xml</dc:format>
        <dc:type
           rdf:resource="http://purl.org/dc/dcmitype/StillImage" />
        <dc:title></dc:title>
      </cc:Work>
    </rdf:RDF>
  </metadata>
  <defs
     id="defs6" />
  <sodipodi:namedview
     pagecolor="#ffffff"
     bordercolor="#666666"
     borderopacity="1"
     objecttolerance="10"
     gridtolerance="10"
     guidetolerance="10"
     inkscape:pageopacity="0"
     inkscape:pageshadow="2"
     inkscape:window-width="1920"
     inkscape:window-height="1018"
     id="namedview4"
     showgrid="false"
     inkscape:zoom="2.8854167"
     inkscape:cx="170.5"
     inkscape:cy="144"
     inkscape:window-x="-8"
     inkscape:window-y="-8"
     inkscape:window-maximized="1"
     inkscape:current-layer="svg2" />
  <path
     style="fill:#000000;fill-opacity:1;fill-rule:nonzero;stroke:#000000;stroke-width:0.99000007;stroke-miterlimit:4;stroke-opacity:1;stroke-dasharray:none"
     d=""
     id="path4275"
     inkscape:connector-curvature="0" />
  <path
     style="fill:#000000;fill-opacity:1;fill-rule:nonzero;stroke:#000000;stroke-width:0.99000007;stroke-miterlimit:4;stroke-opacity:1;stroke-dasharray:none"
     d=""
     id="path4279"
     inkscape:connector-curvature="0" />
  <path
     style="fill:#000000;fill-opacity:1;fill-rule:nonzero;stroke:#000000;stroke-width:0.99000007;stroke-miterlimit:4;stroke-opacity:1;stroke-dasharray:none"
     d=""
     id="path4283"
     inkscape:connector-curvature="0" />
  <path
     style="fill:#000000;fill-opacity:1;fill-rule:nonzero;stroke:#000000;stroke-width:0.99000007;stroke-miterlimit:4;stroke-opacity:1;stroke-dasharray:none"
     d=""
     id="path4285"
     inkscape:connector-curvature="0" />
  <path
     style="fill:#000000;fill-opacity:1;fill-rule:nonzero;stroke:#000000;stroke-width:0.99000001;stroke-miterlimit:4;stroke-opacity:1;stroke-dasharray:none"
     d=""
     id="path4303"
     inkscape:connector-curvature="0" />
  <path
     style="fill:#000000;fill-opacity:1;fill-rule:nonzero;stroke:#000000;stroke-width:0.99000001;stroke-miterlimit:4;stroke-opacity:1;stroke-dasharray:none"
     d=""
     id="path4309"
     inkscape:connector-curvature="0" />
  <g
     id="g4315">
    <path
       inkscape:connector-curvature="0"
       id="path3765"
       d="m 118.37906,262.29591 c -1.29063,-1.84263 -1.55932,-5.90198 -1.57201,-23.75 -0.008,-11.84012 -0.38712,-22.11367 -0.84154,-22.83011 -0.60597,-0.95536 -5.73367,2.48716 -19.234687,12.91333 -10.124652,7.81878 -22.90846,18.12418 -28.40846,22.90089 -14.03605,12.19021 -19.499997,14.5205 -19.499997,8.31644 0,-3.92973 15.547688,-17.63359 50.252497,-44.29294 5.344737,-4.10569 9.386907,-7.75385 8.982597,-8.10703 -0.4043,-0.35318 -10.410097,-3.43853 -22.235097,-6.85634 -11.825,-3.41781 -30.05,-8.85511 -40.499997,-12.0829 -10.45,-3.22778 -21.7,-6.62505 -25,-7.54948 -11.4930104,-3.21955 -11.5506204,-5.68785 -0.32536,-13.93935 21.8623,-16.07059 30.90067,-23.16274 49.825357,-39.09646 11.275,-9.49304 24.55,-21.38531 29.5,-26.42728 8.083937,-8.234153 8.694647,-9.109123 5.999997,-8.596363 -5.793417,1.10243 -53.190282,4.50457 -70.999994,5.09637 -9.9,0.32898 -19.8,0.8578 -22,1.17517 -5.5541404,0.80124 -3.7809404,-0.58835 2.15225,-1.68663 l 4.84775,-0.89735 -5.25,0.41915 c -2.8875,0.23054 -5.2500004,0.23271 -5.2500004,0.005 0,-0.95065 8.2612704,-2.44289 19.4912604,-3.52072 6.59519,-0.63299 12.35186,-1.37376 12.7926,-1.64615 0.44073,-0.27238 -1.23395,-1.843364 -3.72151,-3.491054 -8.35668,-5.535421 -15.53408,-17.406834 -15.55258,-25.724159 -0.015,-6.731767 3.50342,-12.478177 14.49023,-23.666074 18.26181,-18.596058 32.472883,-23.875781 71.235424,-26.465515 23.16838,-1.547884 30.10475,0.02013 38.8719,8.787281 7.53133,7.531331 8.82507,10.996574 8.86135,23.734777 0.0311,10.926313 0.003,11.06029 -4.26859,20 -2.36496,4.95 -5.71573,10.4625 -7.44617,12.25 -1.81302,1.8728 -2.56843,3.25 -1.78268,3.25 1.34893,0 38.66971,-3.778735 42.52876,-4.306043 1.38406,-0.189122 0.37156,-0.996917 -3.28768,-2.622973 -10.22144,-4.542108 -16.9829,-15.697884 -17.95702,-29.627399 -0.5912,-8.453885 1.27015,-12.975252 7.75261,-18.83177 10.00767,-9.041326 39.26158,-16.439088 66.57572,-16.835744 14.80134,-0.214945 21.26149,1.693907 27.48394,8.120976 7.02386,7.254836 9.40567,12.99747 9.28237,22.380192 -0.0863,6.564832 -0.58468,8.747315 -3.1972,14 -1.70225,3.422518 -4.90108,8.585261 -7.10851,11.472761 -2.20743,2.8875 -3.55611,5.25 -2.99706,5.25 0.55905,0 10.09416,-0.705305 21.18913,-1.567345 21.3552,-1.659223 24.76371,-1.318632 24.76371,2.474478 0,2.960301 -2.56485,4.913618 -7.26195,5.530491 -4.2909,0.563527 -68.6742,5.540841 -72.28147,5.587902 -3.98869,0.05204 52.57524,13.987258 67.03923,16.515938 8.24769,1.44191 15.56019,3.090063 16.25,3.662543 1.87048,1.55236 1.5158,5.24927 -0.69561,7.25057 -1.07239,0.9705 -11.2901,5.32482 -22.70604,9.67627 -21.67724,8.26279 -38.39568,15.79351 -44.95073,20.24778 -2.12174,1.44176 -3.54788,2.62138 -3.1692,2.62138 2.53014,0 31.24618,6.51409 39.41837,8.94187 18.24349,5.41972 22.86041,8.38122 20.3574,13.05813 -1.39229,2.60153 -3.3751,2.52198 -11.27729,-0.45239 -9.23696,-3.47679 -22.68892,-7.2439 -35.72948,-10.00576 l -11.21563,-2.37536 0.40104,6.29823 c 0.35822,5.62569 0.95739,7.12175 5.6112,14.01039 5.06763,7.50118 6.07575,10.61098 4.33175,13.36238 -2.57638,4.0646 -9.95876,-3.25417 -15.83932,-15.70284 -2.17745,-4.60948 -2.46511,-6.33525 -2.04191,-12.25 0.27092,-3.78656 0.27252,-6.88465 0.004,-6.88465 -0.26897,0 -3.25921,2.5875 -6.64496,5.75 -3.38576,3.1625 -11.4791,9.9125 -17.98522,15 -8.70612,6.8078 -12.59291,9.25 -14.72152,9.25 -2.53313,0 -2.89267,-0.36486 -2.89267,-2.935 0,-2.98851 3.12748,-5.73997 27.15341,-23.8887 3.18063,-2.40259 5.92269,-5.34338 6.26905,-6.72339 0.33861,-1.3491 1.05707,-2.45291 1.59659,-2.45291 0.53952,0 0.98095,-0.81172 0.98095,-1.80383 0,-2.11892 4.546,-6.5921 11.34955,-11.16773 6.43802,-4.32981 21.99769,-11.5582 38.89761,-18.07026 7.56094,-2.91347 13.57669,-5.46768 13.36834,-5.67603 -0.20835,-0.20835 -5.07625,-1.44024 -10.81755,-2.73753 -5.7413,-1.29729 -18.95705,-4.848853 -29.36834,-7.892353 -10.41129,-3.04349 -25.4924,-7.139274 -33.5136,-9.101732 l -14.58398,-3.5681 -22.41602,1.987341 c -43.87791,3.890097 -63.91601,6.270381 -63.91601,7.592431 0,1.47044 -12.15801,14.687813 -23.499997,25.547623 -18.655877,17.86275 -38.89475,34.76666 -60.846887,50.82051 -3.21578,2.35174 -5.46578,4.63257 -5,5.06851 1.37137,1.2835 82.223654,24.9494 90.616164,26.52385 3.14728,0.59043 3.73072,0.42756 3.73072,-1.04146 0,-3.08645 7.4146,-1.21081 25.38834,6.42236 9.28859,3.94472 21.88859,8.76411 28,10.70976 19.38929,6.17283 20.06947,6.50917 20.42006,10.09738 0.65643,6.7183 -6.36435,6.77942 -25.38452,0.22099 -15.45,-5.32739 -31.67132,-12.66707 -39.01103,-17.65137 l -5.97137,-4.05508 -1.16506,2.46873 c -0.81575,1.72857 -0.86448,3.25928 -0.16253,5.10556 1.01125,2.65978 2.79676,27.95951 2.85477,40.45043 0.0253,5.44363 -0.35573,7.13707 -1.96866,8.75 -2.55648,2.55648 -3.52453,2.51691 -5.4433,-0.22251 z m 4.1149,-23.86338 c -0.44563,-13.93821 -1.09527,-21.09212 -2.21479,-24.38958 -1.2253,-3.60902 -1.31787,-4.98702 -0.40862,-6.08259 1.6916,-2.03826 0.40637,-4.45403 -2.26361,-4.25473 -2.00151,0.1494 -12.88734,-2.89093 -67.284574,-18.79206 -21.96431,-6.42049 -28.38003,-8.64013 -28.90147,-9.99897 -0.3313,-0.86334 5.06047,-5.50751 15.01661,-12.93446 26.733662,-19.94242 62.985437,-52.23844 73.218884,-65.229333 5.35529,-6.798294 2.53808,-4.8899 -5.60114,3.794233 -12.319747,13.14455 -45.057731,41.31293 -68.827644,59.2206 -7.48502,5.63903 -15.08643,11.40419 -16.89202,12.81146 l -3.2829,2.55869 4.63484,2.09341 c 4.91633,2.22056 31.05538,10.42773 55.134837,17.3113 24.07929,6.88353 37.453877,11.04266 38.339257,11.92247 0.95496,0.94894 -4.4726,5.60898 -26.333038,22.60923 -14.395393,11.1949 -33.074221,27.1292 -34.493026,29.42487 -0.347175,0.56174 -0.04217,1.00748 0.67779,0.99053 0.719959,-0.017 6.034017,-4.09726 11.809017,-9.06734 11.431424,-9.83813 37.546657,-30.45499 45.159917,-35.65184 2.61865,-1.7875 5.41818,-3.25 6.22117,-3.25 2.12103,0 2.52233,3.26879 3.11744,25.39287 0.29429,10.94108 0.81549,21.01012 1.15822,22.37564 0.56692,2.25881 0.71434,2.31978 1.6343,0.6759 0.64764,-1.15727 0.78445,-8.8976 0.38055,-21.5303 z m 67.85676,-10.31119 c 1.73635,-1.26965 0.81889,-1.73672 -10.05887,-5.12096 -14.62965,-4.5515 -28.19658,-9.87519 -43.77258,-17.17642 -6.4917,-3.04298 -12.10998,-5.22581 -12.48506,-4.85072 -2.56282,2.56282 33.75805,19.70341 55.17796,26.03965 9.80432,2.90022 8.82187,2.80245 11.13855,1.10845 z m 58.47164,-47.77796 c 0,-0.58135 -1.57148,-3.19779 -3.49217,-5.8143 -6.54714,-8.91898 -8.78397,-16.64684 -6.87754,-23.76066 0.46341,-1.72924 1.32819,-2.2479 3.73634,-2.24094 6.4777,0.0187 37.96927,8.07088 47.46962,12.13762 2.67324,1.14431 4.90645,1.53707 5.82307,1.0241 3.26794,-1.82883 -20.17587,-9.93591 -40.66879,-14.06363 -16.57885,-3.33934 -18.99053,-4.12531 -18.99053,-6.18907 0,-3.78975 17.95858,-13.40784 42.57986,-22.80453 15.79643,-6.02869 29.42015,-12.15599 29.42015,-13.23178 0,-1.0179 -4.31332,-2.19418 -21.66768,-5.908973 -7.79222,-1.66796 -18.36722,-4.15118 -23.5,-5.51827 C 236.13663,86.91 222.59354,83.518413 220.90827,83.518413 c -1.5179,0 -3.86781,-2.837848 -2.85945,-3.453176 1.02425,-0.625019 31.3883,-3.644823 40.77355,-4.055061 24.04702,-1.051118 43.58757,-3.015414 44.48785,-4.472102 1.09868,-1.777701 -5.05973,-1.909785 -23.57779,-0.505687 -24.74116,1.875953 -23.91006,1.889562 -23.91006,-0.391529 0,-1.032656 0.675,-2.437756 1.5,-3.122445 0.825,-0.684689 1.5,-1.67121 1.5,-2.192269 0,-0.521059 1.36359,-2.92929 3.0302,-5.351625 5.24263,-7.619903 8.97009,-16.558805 8.94705,-21.456106 -0.043,-9.145835 -7.12225,-19.767066 -15.92782,-23.897149 -5.11599,-2.399548 -6.56484,-2.598097 -18.54944,-2.541982 -14.90568,0.06979 -23.48258,1.303866 -39,5.611455 -17.99591,4.995611 -24.51739,9.075321 -29.20879,18.272445 -2.3779,4.6617 -2.45159,5.262783 -1.2872,10.5 1.40596,6.323772 5.2021,14.450189 8.35389,17.883231 2.12494,2.314558 12.71332,9.172 14.16222,9.172 0.41717,0 -1.66669,-1.602265 -4.63081,-3.560589 -7.2664,-4.800738 -10.554,-9.732662 -13.03944,-19.561223 -2.29276,-9.066636 -1.79165,-13.139894 2.24836,-18.275934 7.75442,-9.858154 55.44688,-20.315972 75.63322,-16.584562 5.85993,1.083197 7.311,1.810246 10.80933,5.415927 5.52726,5.696882 7.45923,10.179657 7.45923,17.307788 0,4.594082 -0.67303,7.27755 -2.97175,11.848871 -3.66441,7.287187 -9.54213,14.63932 -13.52825,16.921781 -1.65001,0.944795 -3.90001,2.747589 -5.00001,4.006208 -1.83864,2.103773 -3.53291,2.422021 -21,3.944596 -20.6535,1.800329 -26.21313,2.347121 -61.5,6.048554 -26.6902,2.799682 -29,2.911036 -29,1.398075 0,-0.599779 2.02439,-3.460077 4.49864,-6.356217 4.48443,-5.249088 10.17448,-16.256018 12.55198,-24.280795 3.09811,-10.457063 -2.96867,-24.802909 -13.2899,-31.426023 -4.37753,-2.809058 -16.02968,-6.370847 -17.6965,-5.409409 -0.31032,0.178997 -6.02559,0.618465 -12.70059,0.976595 -24.167272,1.296633 -35.328201,3.878514 -50.595252,11.704307 -10.329452,5.294809 -25.828402,20.181725 -30.078662,28.890885 -2.97925,6.104751 -2.83416,7.86737 1.31745,16.005203 2.34614,4.598818 14.07638,16.560312 17.21796,17.557412 0.97618,0.30983 1.77488,0.994144 1.77488,1.520694 0,1.73266 -4.58708,2.75124 -16.6261,3.69191 -7.80921,0.61017 -9.89582,0.97709 -6.09546,1.07186 3.17814,0.0793 12.40314,-0.53343 20.5,-1.3615 34.533778,-3.5318 46.184687,-4.49169 54.721554,-4.50836 4.4,-0.009 10.7,-0.651914 14,-1.429614 3.3,-0.7777 10.05,-1.695968 15,-2.040593 4.95,-0.344624 23.998,-2.013761 42.3289,-3.709192 l 33.32889,-3.082603 7.17111,2.042351 c 3.9441,1.123294 18.1961,5.237087 31.6711,9.141771 13.47501,3.90467 31.02501,8.583113 39.00001,10.396513 7.975,1.81341 14.59482,3.78365 14.7107,4.37832 0.21674,1.11218 -3.4225,2.77209 -29.2107,13.32348 -14.61421,5.97949 -25.12014,11.22959 -30.79944,15.39133 -2.67866,1.9629 -9.92486,10.85675 -10.78818,13.24121 -0.50547,1.39612 -5.23359,5.34993 -20.86604,17.44887 -11.17371,8.64804 -13.48253,10.91211 -11.12782,10.91211 1.26965,0 21.59093,-15.8867 30.22931,-23.63256 9.73493,-8.72913 12.73917,-8.60186 10.79631,0.45737 -1.46617,6.83652 0.0393,11.84725 6.4088,21.33129 4.65306,6.92827 6.64705,8.62882 6.64705,5.66886 z M 53.440707,89.052803 C 40.729246,83.826707 30.962066,73.247075 30.092936,63.762912 c -0.54333,-5.92884 2.12987,-10.251202 13.33543,-21.562445 6.46033,-6.521262 9.415865,-8.631206 17.819449,-12.721241 11.393217,-5.545092 18.477639,-7.419282 33.574548,-8.882176 20.855497,-2.020903 32.323917,-2.359409 36.999997,-1.092105 5.87795,1.593031 14.31746,9.835275 15.88476,15.513468 4.15485,15.052632 -3.06634,33.423831 -16.90855,43.016487 -2.207,1.529451 -4.26308,3.77833 -4.56908,4.997508 -0.46741,1.862329 -1.46362,2.313919 -6.23174,2.824907 -3.12146,0.334521 -15.57539,1.740048 -27.675387,3.123388 -27.504734,3.144504 -31.391105,3.151714 -38.881656,0.0721 z m 44.381656,-3.080729 c 25.569897,-2.948951 25.710097,-2.976562 26.434817,-5.205985 0.31246,-0.961222 3.50882,-3.997676 7.10303,-6.747676 5.64926,-4.322366 7.10597,-6.151978 10.74853,-13.5 3.92389,-7.915545 4.20278,-9.02403 4.0559,-16.121211 -0.17564,-8.486911 -1.45719,-11.78421 -6.52011,-16.775568 -6.29018,-6.201259 -7.47936,-6.467239 -25.80797,-5.772385 -26.302607,0.997155 -38.756173,3.471736 -52.573167,10.446533 -7.376881,3.723837 -12.104347,7.6001 -20.295827,16.641469 -8.50754,9.390225 -9.77034,11.959976 -8.12327,16.530551 3.30167,9.162059 11.44181,16.938863 22.703649,21.690282 6.70826,2.830249 7.688568,2.802739 42.274418,-1.18601 z M 82.276908,61.063868 c -3.082525,-3.082526 -3.107722,-5.674564 -0.08927,-9.183719 2.041149,-2.372977 3.275366,-2.807742 9.006659,-3.172684 8.33825,-0.530939 9.628073,0.404728 9.628073,6.984419 0,4.678753 -0.17579,5.002031 -3.467883,6.377556 -5.58933,2.335369 -12.175914,1.896088 -15.077575,-1.005572 z m 14.795455,-1.719744 c 2.54354,-1.302405 2.30535,-6.458132 -0.36437,-7.88692 -2.86731,-1.534535 -10.225865,-0.325304 -12.358117,2.030808 -4.97465,5.496926 4.714248,9.956689 12.722487,5.856112 z M 220.32236,72.923769 c 16.40758,-1.307817 22.21509,-2.111716 22.84613,-3.162458 0.46538,-0.774883 2.89178,-2.706184 5.392,-4.291779 2.50022,-1.585595 6.32529,-5.251081 8.50013,-8.145525 10.43944,-13.893582 11.16932,-23.743789 2.47124,-33.351115 -3.7491,-4.14101 -5.02243,-4.857895 -10.71066,-6.030097 -11.21402,-2.310934 -34.62286,0.711267 -54.6642,7.057429 -18.20369,5.764265 -22.60666,10.463723 -20.62771,22.016765 1.98529,11.590016 6.39072,17.697703 16.61193,23.03074 3.58196,1.868933 5.50815,3.458529 5.19364,4.286075 -0.32962,0.867296 0.0941,1.149858 1.24379,0.829467 0.95904,-0.267258 11.64371,-1.275034 23.74371,-2.239502 z m -8.03472,-20.35688 c -3.31555,-1.343926 -4.61394,-3.673784 -4.27981,-7.679785 0.45821,-5.493496 4.84437,-7.840274 14.49513,-7.755506 8.15058,0.07159 10.3194,1.226155 10.3194,5.493483 0,4.316186 -4.62375,8.900825 -10.02836,9.943525 -5.50893,1.062827 -7.88101,1.06244 -10.50636,-0.0017 z m 15.13889,-5.585976 c 1.94562,-1.945625 3.36251,-4.062451 3.14864,-4.704058 -0.57173,-1.715208 -6.63048,-3.023449 -11.48838,-2.48064 -12.19315,1.362429 -12.20064,10.722198 -0.009,10.722198 4.17447,0 5.27875,-0.467927 8.34833,-3.5375 z"
       style="fill:#000000;stroke:#000000;stroke-opacity:1;stroke-width:0.99;stroke-miterlimit:4;stroke-dasharray:none" />
    <path
       inkscape:connector-curvature="0"
       id="path4277"
       d="m 46.924967,93.501107 c 1.316463,-0.65489 1.882797,-1.997201 1.193207,-2.828104 -0.24087,-0.29023 -1.3744,-1.04994 -2.518956,-1.688244 C 43.139239,87.612863 33.706702,78.271104 31.139602,74.6643 30.215764,73.366299 28.753479,70.73492 27.89008,68.816794 25.692453,63.934548 25.682322,62.043455 27.830567,57.707884 29.93844,53.453788 32.9543,49.47767 38.114498,44.149518 47.982589,33.960242 55.782341,28.600505 67.563618,23.913039 c 10.248444,-4.07759 19.729443,-5.882747 36.907082,-7.027007 4.63675,-0.30887 10.68704,-0.74906 13.4451,-0.978202 4.48182,-0.372354 5.30095,-0.346607 7.70921,0.242316 3.36004,0.821674 7.83259,2.435076 10.95444,3.951645 2.88735,1.402649 8.70731,7.030615 10.58472,10.23554 3.35731,5.731265 5.06078,11.806313 4.72745,16.859421 -0.41786,6.334514 -6.52821,19.811364 -12.43348,27.423003 -2.81938,3.634058 -5.44843,7.374463 -5.44843,7.751609 0,0.140311 0.22051,0.556664 0.49,0.925227 0.91934,1.257267 3.34476,1.090131 42.27779,-2.913364 12.72021,-1.308022 31.22233,-3.125455 41.11582,-4.03874 26.70005,-2.464725 26.10839,-2.356942 29.6353,-5.398639 1.26658,-1.09233 3.45926,-2.835472 4.87262,-3.873642 4.37887,-3.216472 9.37945,-9.589358 12.91406,-16.458042 2.57419,-5.002368 2.87147,-6.272357 2.87147,-12.267127 0,-4.479379 -0.129,-5.730309 -0.81392,-7.892768 -0.95262,-3.007618 -2.69105,-5.757229 -5.90904,-9.346108 -1.27473,-1.421651 -2.16096,-2.584821 -1.96939,-2.584821 0.58743,0 4.61574,4.520915 6.24566,7.009414 2.86236,4.37015 4.84254,11.177075 4.2509,14.612554 -0.81375,4.725064 -3.6105,11.154478 -7.78107,17.887732 -1.61017,2.599581 -3.34786,5.562879 -3.86153,6.585098 -0.51367,1.022224 -1.22022,2.096008 -1.57011,2.386186 -1.4699,1.219058 -2.12128,4.613595 -1.05511,5.49844 0.77535,0.643485 6.36765,0.529671 18.52085,-0.37694 18.81637,-1.403668 30.30428,-1.692643 27.60581,-0.694409 -2.59876,0.961339 -18.10559,2.483777 -35.13147,3.449158 -11.63405,0.659655 -16.64612,1.033042 -27.34936,2.037457 -15.4537,1.450206 -21.64358,2.292625 -22.0842,3.005574 -0.30379,0.491536 0.27152,2.06176 1.09296,2.983092 0.58984,0.66156 0.57665,0.67931 -0.30088,0.404822 -0.50477,-0.157893 -3.60908,-1.072617 -6.89846,-2.032726 l -5.9807,-1.745653 -15.12787,1.407765 c -8.32033,0.77427 -25.7005,2.334336 -38.62262,3.466816 -26.14427,2.291256 -30.00998,2.705832 -37.48923,4.020518 -4.84042,0.850836 -16.807798,1.739687 -22.127454,1.643469 -1.131368,-0.02045 5.581773,-0.920554 14.918094,-2.000197 11.33357,-1.310603 17.39205,-2.160834 18.22963,-2.558288 0.75807,-0.359731 1.4454,-1.05617 1.73691,-1.759944 0.6812,-1.644571 2.52048,-3.5744 5.98511,-6.279777 12.35851,-9.650227 18.90533,-25.845754 16.18827,-40.046546 -0.71592,-3.741772 -1.81952,-6.036927 -4.50613,-9.371385 -4.21367,-5.229733 -9.68566,-8.814926 -14.65327,-9.600672 -7.06108,-1.116877 -39.421882,1.296687 -50.577634,3.772228 -9.72349,2.157712 -23.305132,8.389809 -29.943173,13.739778 -3.036172,2.447021 -11.339705,10.849069 -14.506065,14.678168 -3.111614,3.762893 -4.943709,7.416871 -5.214138,10.39921 -0.890417,9.819672 8.512017,21.672539 22.106389,27.867687 4.887662,2.22738 6.807659,2.69512 12.114481,2.951275 l 4.772372,0.230355 -9.911849,1.000572 c -5.451516,0.550316 -10.572638,1.001783 -11.38027,1.003262 l -1.468422,0.0026 1.204126,-0.59901 0,1.14e-4 z"
       style="fill:#000000;fill-opacity:1;fill-rule:nonzero;stroke:#000000;stroke-width:0.99000007;stroke-miterlimit:4;stroke-opacity:1;stroke-dasharray:none" />
    <path
       inkscape:connector-curvature="0"
       id="path4281"
       d="m 120.21595,264.46998 c -1.30476,-0.48266 -2.74396,-3.03576 -3.12539,-5.54435 -0.19521,-1.28391 -0.50511,-11.08984 -0.68865,-21.79096 -0.18355,-10.70113 -0.44608,-19.82829 -0.58341,-20.28258 -0.13733,-0.4543 -0.45677,-0.82599 -0.70986,-0.82599 -1.68053,0 -21.735372,15.18726 -39.96125,30.26213 -4.410016,3.64758 -9.96676,8.20135 -12.34832,10.11947 -9.133534,7.35622 -13.34166,8.72261 -14.118037,4.58416 -0.341753,-1.8217 0.437175,-3.28121 3.524091,-6.60324 6.541094,-7.03929 15.297092,-14.50464 35.732849,-30.46577 11.655919,-9.10373 17.150977,-13.56857 18.660587,-15.16208 l 1.03952,-1.0973 -4.52702,-1.4944 c -2.48987,-0.82192 -17.082035,-5.23419 -32.427045,-9.80506 -38.856116,-11.5742 -52.915806,-15.83975 -55.16966,-16.73785 -2.403648,-0.95778 -4.117878,-2.50248 -4.117878,-3.71062 0,-1.05815 1.297225,-3.0806 3.009437,-4.69188 0.666752,-0.62744 5.755207,-4.55039 11.307677,-8.71766 26.237401,-19.69183 45.557605,-35.56295 66.332645,-54.4908 6.336799,-5.77337 14.063464,-13.737177 14.063464,-14.495099 0,-0.369 -0.3258,-0.452975 -1.1931,-0.307524 -6.460085,1.083391 -41.69986,3.677428 -64.885894,4.776318 -13.845784,0.656212 -24.221315,1.2181 -28.60034,1.548851 -3.4501921,0.260593 -3.7446396,-0.139122 -1.001439,-1.359469 l 1.518208,-0.675393 -1.743751,-0.02593 c -0.9590633,-0.01426 -1.7437513,-0.185318 -1.7437513,-0.380123 0,-1.251643 5.1066263,-2.23583 21.0050123,-4.048249 9.856234,-1.12361 10.933166,-1.304924 10.933166,-1.840718 0,-0.160003 -1.475566,-1.389575 -3.279036,-2.732377 -5.622668,-4.186453 -9.964552,-9.497063 -12.896244,-15.773551 -3.599286,-7.705746 -3.43346,-13.875861 0.546215,-20.323742 4.411759,-7.147948 15.733701,-18.73166 24.37948,-24.943151 7.832794,-5.627406 18.460884,-9.858754 30.162768,-12.008666 15.002449,-2.756302 42.552966,-4.50515 50.293456,-3.192521 7.53967,1.278576 11.55475,3.45945 17.62106,9.571254 5.65358,5.695976 7.37609,9.250848 8.11051,16.73828 0.63392,6.462878 0.26614,15.85413 -0.73677,18.813235 -1.94987,5.753182 -7.21828,15.587649 -10.63841,19.858609 -1.03114,1.287659 -1.87481,2.500844 -1.87481,2.695964 0,0.209096 0.716,0.265219 1.74376,0.136688 0.95906,-0.11994 5.21289,-0.548797 9.45296,-0.953013 15.86838,-1.512772 29.75774,-2.99684 30.41398,-3.249706 0.52636,-0.202822 -0.0904,-0.660265 -2.75155,-2.040747 -3.59577,-1.865333 -6.69094,-4.073259 -8.61303,-6.144083 -5.98797,-6.451317 -9.46065,-15.96808 -9.49085,-26.009351 -0.0149,-4.955153 0.44829,-7.032437 2.29203,-10.278954 1.23154,-2.168526 5.61264,-6.699189 8.15667,-8.435114 9.44904,-6.447575 28.2589,-11.804773 48.96073,-13.9443993 16.02244,-1.6559919 27.14541,-1.2519778 33.95377,1.2332863 6.86349,2.505388 14.82708,11.33347 17.08854,18.943594 1.55419,5.230092 1.48118,14.530942 -0.15133,19.275909 -1.0841,3.150973 -4.05097,8.469021 -8.13444,14.580792 -1.98657,2.973312 -3.61195,5.591391 -3.61195,5.817954 0,0.282546 0.66303,0.342047 2.11086,0.189434 6.88114,-0.72532 29.44482,-2.165871 34.41614,-2.197255 4.8608,-0.03069 6.06821,0.06941 7.00174,0.58043 1.5987,0.875143 2.06576,1.561843 2.06576,3.037182 0,3.026792 -2.52513,4.964665 -7.39455,5.674823 -4.06658,0.593074 -66.62918,5.536817 -70.06789,5.536817 -1.66715,0 0.89171,0.856024 8.18964,2.739716 4.44197,1.146533 9.5631,2.470675 11.38027,2.942534 12.65121,3.285102 33.24035,7.991476 47.54016,10.866976 12.87926,2.589849 14.136,2.960699 14.87481,4.389399 0.76765,1.48448 0.66557,3.23387 -0.28841,4.94231 -1.13759,2.0373 -3.63605,3.22029 -23.76404,11.25206 -21.53338,8.59257 -27.68901,11.22616 -36.73066,15.71463 -4.91336,2.4391 -10.99305,6.11502 -10.99305,6.64665 0,0.13375 1.28028,0.44806 2.84506,0.69846 8.81005,1.40978 33.33785,7.4177 42.07904,10.30698 10.71913,3.54305 14.91409,6.05765 14.91409,8.94001 0,2.58785 -1.70227,4.62744 -3.86212,4.62744 -0.62096,0 -4.75544,-1.2293 -9.18773,-2.73177 -9.04251,-3.06525 -16.87939,-5.38359 -24.76201,-7.3252 -5.48939,-1.35211 -20.6594,-4.64814 -20.79037,-4.51717 -0.20938,0.20939 0.65435,9.11654 1.02168,10.53598 0.58661,2.26679 1.33867,3.69606 4.78919,9.10177 3.79186,5.94048 5.06699,8.61999 5.06736,10.64838 3.6e-4,1.96989 -0.84952,3.66715 -2.06831,4.13053 -3.12081,1.18653 -9.5331,-5.83184 -14.27185,-15.62081 -1.07516,-2.22099 -2.14254,-4.75007 -2.37196,-5.62018 -0.24644,-0.93466 -0.38941,-4.05721 -0.3494,-7.63092 0.0373,-3.3269 -0.0212,-6.13784 -0.12991,-6.24655 -0.10871,-0.1087 -1.5627,1.01246 -3.23111,2.49145 -14.38402,12.75104 -27.91703,23.42461 -32.9037,25.95135 -1.55662,0.78874 -4.27668,1.03746 -5.16711,0.47249 -0.57779,-0.3666 -0.98225,-2.636 -0.68259,-3.82995 0.54285,-2.16288 6.00423,-6.95821 20.57331,-18.06425 9.75326,-7.43494 11.22306,-8.78911 12.75484,-11.75147 0.67811,-1.31142 1.43628,-2.38502 1.68482,-2.38576 0.24854,-7.4e-4 0.54906,-0.45565 0.66784,-1.0109 0.39056,-1.82581 0.87554,-2.66751 2.59798,-4.50895 7.15601,-7.65035 19.59502,-14.2533 49.05371,-26.03897 6.20867,-2.48393 11.28849,-4.63414 11.28849,-4.77824 0,-0.1441 -4.83203,-1.46785 -10.73784,-2.94166 -5.90581,-1.47381 -18.33692,-4.81066 -27.62469,-7.415226 C 233.27667,91.695315 213.46193,86.4519 206.0754,84.776368 l -4.33472,-0.983274 -24.59607,2.249652 c -28.07982,2.568288 -42.7605,4.085238 -51.86583,5.359285 -7.83616,1.096456 -9.02502,1.404204 -9.5332,2.467756 -1.35816,2.84244 -16.853414,19.020893 -28.854702,30.126933 -16.271709,15.0579 -30.135239,26.67052 -47.618034,39.88668 -8.56406,6.47403 -12.457936,9.69884 -12.457936,10.31737 0,0.53788 26.529268,8.6249 56.901352,17.34548 33.68277,9.67115 36.71055,10.39039 36.71055,8.72053 0,-1.46877 1.05085,-1.97269 3.6526,-1.75154 3.35833,0.28546 8.0927,1.92658 23.41815,8.11764 15.02848,6.07109 17.53511,7.00198 31.68477,11.76681 5.56273,1.87321 11.08221,3.87991 12.26553,4.45933 2.52216,1.23497 3.49803,2.58473 3.49999,4.84091 0.006,7.0348 -8.40584,6.46279 -31.59147,-2.14823 -13.95288,-5.18202 -26.53864,-11.13979 -34.1334,-16.15786 -2.4244,-1.60187 -4.54283,-2.91248 -4.70763,-2.91248 -0.37498,0 -1.15815,1.64292 -1.52448,3.198 -0.16495,0.70022 -0.0737,2.15219 0.22473,3.57586 1.8249,8.70586 3.5199,43.20241 2.30251,46.86054 -0.45224,1.35893 -2.97922,4.21031 -3.95819,4.46632 -0.33541,0.0877 -0.9402,0.0373 -1.34397,-0.1121 l 0,0 z m 1.98678,-14.04543 c 0.12505,-9.33386 -0.40932,-24.2877 -1.06396,-29.77393 -0.19509,-1.6349 -0.79795,-4.82463 -1.33971,-7.08828 l -0.985,-4.11573 0.80637,-1.61461 c 0.93832,-1.87879 0.96352,-2.09672 0.34101,-2.94806 -0.30595,-0.41842 -1.335,-0.75959 -3.004,-0.99595 -3.37551,-0.47803 -9.20904,-2.07002 -37.095788,-10.12353 -42.375688,-12.23783 -51.29226,-14.95573 -55.895064,-17.03762 -2.355114,-1.06524 -2.951232,-1.7278 -2.413653,-2.6827 0.587554,-1.04367 5.875435,-5.46033 14.256057,-11.90727 19.968554,-15.36115 34.201116,-27.26556 51.027665,-42.68061 8.991651,-8.23739 22.071173,-21.6455 23.346023,-23.932541 0.8888,-1.594453 -0.73189,-0.152602 -7.39128,6.575681 -17.607269,17.78943 -43.564733,39.82228 -74.50807,63.24288 -5.956287,4.50823 -11.21165,8.56071 -11.678585,9.0055 l -0.848972,0.80871 2.264022,1.01603 c 6.16639,2.76731 24.281495,8.51456 59.144605,18.76438 32.40477,9.52707 36.28741,10.79003 36.28741,11.80376 0,1.37044 -5.65514,6.22072 -24.930227,21.38204 -11.891439,9.35353 -21.74295,17.49459 -29.460595,24.34557 -5.483748,4.86793 -7.030958,6.50917 -6.136256,6.50917 0.865851,0 3.317874,-1.84259 11.702042,-8.79359 27.290729,-22.62572 47.332576,-37.89319 50.935066,-38.8013 2.83261,-0.71404 3.14472,1.07 3.92723,22.44817 0.54072,14.77277 1.19355,25.76379 1.56638,26.3718 0.10364,0.16903 0.37629,0.11977 0.60589,-0.10946 0.28285,-0.2824 0.45741,-3.39978 0.54139,-9.66851 z m 67.60702,-22.27462 c 0.81449,-0.6288 0.8558,-0.76963 0.3671,-1.25144 -0.30286,-0.2986 -4.92839,-1.9789 -10.27895,-3.734 -15.80429,-5.18413 -25.09263,-8.80025 -41.66647,-16.2215 -9.31335,-4.17021 -13.35,-5.77345 -13.68519,-5.43533 -0.98433,0.99293 11.2738,7.78273 25.06546,13.88382 11.54542,5.1074 22.17703,9.10784 31.93818,12.01761 5.41979,1.61562 6.9491,1.75279 8.25987,0.74084 l 0,0 z m 58.57417,-48.03451 c -0.12961,-0.40835 -1.8747,-3.2562 -3.87798,-6.32856 -5.48116,-8.40628 -7.20188,-13.17912 -6.87423,-19.06738 0.33126,-5.95322 1.4642,-6.97181 6.94505,-6.24409 9.40742,1.24907 32.32075,7.27123 45.39279,11.93029 2.45591,0.87532 4.11248,1.27267 4.69561,1.12631 1.24799,-0.31322 0.839,-0.7609 -2.00141,-2.19073 -7.16253,-3.60554 -22.31795,-8.09006 -40.26251,-11.91375 -14.58033,-3.10683 -16.7033,-3.85911 -16.7033,-5.91884 0,-3.21538 10.91907,-9.87838 28.46589,-17.37034 2.61643,-1.11715 9.30008,-3.84155 14.85256,-6.05423 18.48266,-7.36543 28.43457,-11.84697 28.17092,-12.68591 -0.24555,-0.78134 -4.78883,-1.99508 -21.37947,-5.711539 -9.08586,-2.035317 -22.54946,-5.273441 -29.9191,-7.195829 -19.21744,-5.012914 -31.85492,-8.168377 -33.86979,-8.456977 -0.96143,-0.137708 -2.14339,-0.561355 -2.62658,-0.941431 -0.87782,-0.690492 -0.87821,-0.690378 -0.48727,0.138017 0.33204,0.703587 1.81303,1.23922 9.78514,3.538985 19.94648,5.754104 34.5787,9.768883 49.59193,13.607004 17.48344,4.46964 19.27304,5.0307 19.27304,6.04235 0,0.9299 -4.62343,3.22536 -15.96909,7.92839 -27.7921,11.52045 -34.62064,14.71052 -42.08356,19.66003 -3.73263,2.47554 -9.2719,8.66635 -12.04183,13.45821 -1.31842,2.28082 -3.99341,4.6123 -17.62696,15.36346 -11.06046,8.72206 -15.81497,12.74178 -15.4741,13.08265 0.42082,0.42083 2.09359,-0.61353 7.11326,-4.39852 6.991,-5.27142 13.15332,-10.21367 20.45855,-16.40795 7.32366,-6.20991 8.43226,-7.07121 10.35611,-8.04592 3.36296,-1.70384 4.37191,-0.79678 3.99262,3.58942 -0.86285,9.97834 -0.74304,11.09569 1.7534,16.35234 1.75139,3.68782 6.54424,11.01236 8.5983,13.14011 1.35017,1.39861 2.20008,1.3862 1.75201,-0.0256 l 0,2e-5 z M 45.696366,94.476202 c 0.18845,-0.174291 0.250237,-0.40929 0.137308,-0.522215 -0.213196,-0.213197 -7.316337,0.888123 -7.636655,1.184036 -0.09994,0.09233 1.469434,0.05249 3.487502,-0.08853 2.018068,-0.14102 3.823399,-0.399004 4.011845,-0.573294 l 0,0 z m 3.603754,-0.20515 c -0.252386,-0.101839 -0.665379,-0.101839 -0.917764,0 -0.252385,0.101839 -0.04589,0.185164 0.458882,0.185164 0.50477,0 0.711267,-0.08333 0.458882,-0.185164 z m 28.542452,-2.666684 c 4.341023,-0.389557 9.338801,-0.817676 11.106175,-0.951376 1.767374,-0.133699 3.128231,-0.380908 3.024127,-0.549355 -0.104104,-0.168446 0.101835,-0.3822 0.457648,-0.475016 1.559244,-0.406727 -1.415852,-0.205685 -9.515488,0.643011 -4.707981,0.493313 -10.003228,1.008259 -11.767222,1.144327 -1.763989,0.136067 -3.125841,0.379132 -3.026333,0.540137 0.09951,0.161009 -0.02661,0.384055 -0.280245,0.495662 -0.253644,0.111607 0.117022,0.125965 0.823701,0.0319 0.706678,-0.09406 4.836615,-0.489744 9.177637,-0.879298 l 0,7e-6 z m 26.523368,-1.738582 c -0.25238,-0.101839 -0.66537,-0.101839 -0.91776,0 -0.25238,0.101839 -0.0459,0.185164 0.45888,0.185164 0.50477,0 0.71127,-0.08333 0.45888,-0.185164 z m 4.58882,-0.377036 c -0.35334,-0.09233 -0.93153,-0.09233 -1.28487,0 -0.35334,0.09234 -0.0642,0.167889 0.64244,0.167889 0.70668,0 0.99577,-0.07555 0.64243,-0.167889 z M 94.630663,89.120301 c -0.357183,-0.09308 -0.852775,-0.08696 -1.101317,0.01362 -0.248541,0.100561 0.0437,0.176713 0.649421,0.169232 0.605724,-0.0075 0.809078,-0.08976 0.451896,-0.182833 l 0,-1.9e-5 z m 17.077387,0.01127 c -0.25238,-0.101838 -0.66537,-0.101838 -0.91776,0 -0.25238,0.101839 -0.0459,0.185165 0.45888,0.185165 0.50477,0 0.71127,-0.08333 0.45888,-0.185165 z M 42.218885,86.5414 c -3.25589,-2.931782 -4.729893,-4.393996 -8.615868,-8.546969 -1.605882,-1.716218 -2.592476,-2.710248 -2.192432,-2.208951 3.223991,4.039982 12.486691,13.222116 13.338127,13.222116 0.114956,0 -1.023466,-1.109789 -2.529827,-2.466196 z m 55.53916,2.22307 c -0.252385,-0.101839 -0.665378,-0.101839 -0.917763,0 -0.252385,0.101838 -0.04589,0.185164 0.458881,0.185164 0.504771,0 0.711267,-0.08333 0.458882,-0.185164 z M 79.23011,87.713274 c 13.290236,-1.415148 33.2151,-3.748136 37.52564,-4.393853 5.95409,-0.891915 6.34969,-1.046753 7.55793,-2.958242 0.62782,-0.993241 3.04105,-3.324669 5.94533,-5.743784 2.6887,-2.23956 5.60953,-4.896116 6.49073,-5.903453 1.85223,-2.117373 4.9474,-7.649414 7.23398,-12.929393 l 1.58982,-3.671055 -0.0143,-6.791452 c -0.0211,-10.010159 -0.77301,-12.072072 -6.46683,-17.734174 -5.25269,-5.223429 -7.86092,-5.959016 -19.7669,-5.574767 -31.273545,1.009312 -44.374435,3.473993 -58.703015,11.043848 -2.138657,1.129862 -5.198052,2.988846 -6.79865,4.131074 -4.989405,3.56056 -16.017426,15.085429 -19.520758,20.400221 -1.324331,2.009103 -1.430919,2.364593 -1.430919,4.772372 0,2.252798 0.186111,2.991366 1.388237,5.509148 4.127928,8.645695 13.121939,16.176677 23.75849,19.89377 3.352496,1.171574 9.881775,1.156104 21.211235,-0.05026 z m 21.44184,0.676443 c -0.26501,-0.106045 -0.58164,-0.09301 -0.703625,0.02896 -0.121985,0.121985 0.09484,0.208751 0.481825,0.192811 0.42766,-0.01762 0.51465,-0.104603 0.2218,-0.22179 l 0,1.4e-5 z m 28.36749,-8.192653 1.45406,-1.651974 -1.5761,1.468422 c -0.86686,0.807632 -1.814,1.964014 -2.10477,2.569738 l -0.52867,1.101317 0.6507,-0.917764 c 0.35789,-0.50477 1.30504,-1.661153 2.10478,-2.569739 z m 38.81281,3.053176 c -0.265,-0.106045 -0.58163,-0.09301 -0.70362,0.02896 -0.12198,0.121985 0.0948,0.208751 0.48183,0.192811 0.42766,-0.01762 0.51464,-0.104603 0.22179,-0.22179 l 0,1.4e-5 z m -36.41228,-5.072256 c 0.25136,-0.302862 0.37441,-0.550658 0.27346,-0.550658 -0.10096,0 -0.38921,0.247796 -0.64056,0.550658 -0.25135,0.302862 -0.37441,0.550658 -0.27345,0.550658 0.10095,0 0.3892,-0.247796 0.64055,-0.550658 z m 60.66419,0.307532 c -0.25239,-0.101839 -0.66538,-0.101839 -0.91777,0 -0.25238,0.101838 -0.0459,0.185164 0.45889,0.185164 0.50477,0 0.71126,-0.08333 0.45888,-0.185164 z m 3.67105,-0.367106 c -0.25238,-0.101839 -0.66538,-0.101839 -0.91776,0 -0.25239,0.101839 -0.0459,0.185164 0.45888,0.185164 0.50477,0 0.71127,-0.08333 0.45888,-0.185164 z m 3.67106,-0.367105 c -0.25239,-0.101839 -0.66538,-0.101839 -0.91777,0 -0.25238,0.101838 -0.0459,0.185164 0.45889,0.185164 0.50477,0 0.71126,-0.08333 0.45888,-0.185164 z m 3.67105,-0.367106 c -0.25238,-0.101839 -0.66538,-0.101839 -0.91776,0 -0.25239,0.101839 -0.0459,0.185164 0.45888,0.185164 0.50477,0 0.71127,-0.08333 0.45888,-0.185164 z m 3.64811,-0.374752 c -0.265,-0.106046 -0.58163,-0.09301 -0.70362,0.02896 -0.12198,0.121986 0.0948,0.208751 0.48183,0.192812 0.42766,-0.01762 0.51465,-0.104603 0.22179,-0.221791 l 0,1.5e-5 z m -66.14782,-3.053176 c 0.43131,-0.605724 0.70161,-1.101317 0.60066,-1.101317 -0.10096,0 -0.53645,0.495593 -0.96776,1.101317 -0.43132,0.605724 -0.70161,1.101316 -0.60066,1.101316 0.10096,0 0.53645,-0.495592 0.96776,-1.101316 z m 60.38886,0.384077 c 2.01908,-0.211402 10.32469,-0.963718 18.45692,-1.671817 21.09445,-1.836758 22.08337,-2.00215 24.61601,-4.116916 0.94267,-0.787129 2.95292,-2.342357 4.46723,-3.456067 6.99105,-5.141606 13.37996,-13.958786 15.75239,-21.739479 1.0383,-3.405227 1.03908,-7.892869 0.002,-10.986076 -0.91413,-2.726268 -1.69051,-4.059535 -4.23945,-7.280366 -4.03213,-5.095088 -6.86409,-6.434392 -15.50184,-7.331245 -14.70949,-1.527281 -46.44037,4.584691 -61.17786,11.784021 -5.13214,2.507074 -7.47088,4.509593 -8.91712,7.635206 -0.84594,1.828223 -0.95955,2.519906 -0.91567,5.574694 0.0883,6.147843 2.31965,13.463316 5.4405,17.836794 2.28546,3.202775 5.05682,5.544519 10.01596,8.463276 4.8716,2.867237 6.67806,4.305259 6.67806,5.316025 0,0.535871 0.19652,0.661913 0.82598,0.529744 0.4543,-0.09539 2.47797,-0.346393 4.49705,-0.557794 l 0,0 z m 72.03747,0.462839 c -0.35719,-0.09308 -0.85278,-0.08696 -1.10132,0.01362 -0.24854,0.100562 0.0437,0.176714 0.64942,0.169232 0.60572,-0.0075 0.80908,-0.08976 0.4519,-0.182833 l 0,-1.8e-5 z m 5.33001,-0.355832 c -0.25238,-0.101839 -0.66538,-0.101839 -0.91776,0 -0.25239,0.101839 -0.0459,0.185164 0.45888,0.185164 0.50477,0 0.71127,-0.08333 0.45888,-0.185164 z m 4.38232,-0.374752 c -0.265,-0.106046 -0.58163,-0.09301 -0.70362,0.02896 -0.12198,0.121986 0.0948,0.208751 0.48183,0.192812 0.42766,-0.01762 0.51464,-0.104603 0.22179,-0.221791 l 0,1.5e-5 z m 4.79532,-0.359459 c -0.25239,-0.101839 -0.66538,-0.101839 -0.91777,0 -0.25238,0.101839 -0.0459,0.185165 0.45889,0.185165 0.50477,0 0.71126,-0.08333 0.45888,-0.185165 z M 29.751752,72.854954 c -0.216116,-0.403816 -0.475537,-0.734211 -0.576491,-0.734211 -0.100954,0 -0.0067,0.330395 0.209385,0.734211 0.216116,0.403816 0.475537,0.734211 0.576491,0.734211 0.100954,0 0.0067,-0.330395 -0.209385,-0.734211 z M 291.1997,73.338392 c -0.265,-0.106046 -0.58164,-0.09301 -0.70362,0.02896 -0.12199,0.121986 0.0948,0.208751 0.48183,0.192812 0.42765,-0.01762 0.51464,-0.104603 0.22179,-0.221791 l 0,1.5e-5 z m 2.93684,-0.367106 c -0.265,-0.106045 -0.58163,-0.09301 -0.70362,0.02896 -0.12198,0.121985 0.0948,0.208751 0.48183,0.192811 0.42766,-0.01762 0.51464,-0.104603 0.22179,-0.22179 l 0,1.4e-5 z m 5.50659,-0.734211 c -0.26501,-0.106045 -0.58164,-0.09301 -0.70362,0.02896 -0.12199,0.121985 0.0948,0.208751 0.48182,0.192811 0.42766,-0.01762 0.51465,-0.104603 0.2218,-0.22179 l 0,1.4e-5 z m -16.88686,-1.101316 c -0.265,-0.106046 -0.58163,-0.09301 -0.70362,0.02896 -0.12198,0.121986 0.0948,0.208751 0.48183,0.192812 0.42766,-0.01762 0.51464,-0.104603 0.22179,-0.221791 l 0,1.5e-5 z m 6.8144,-0.369389 c -0.35334,-0.09233 -0.93153,-0.09233 -1.28487,0 -0.35334,0.09234 -0.0642,0.167888 0.64243,0.167888 0.70668,0 0.99578,-0.07555 0.64244,-0.167888 z M 183.56896,69.623115 c -0.70668,-0.544432 -2.612,-2.311454 -4.23404,-3.926718 -4.61951,-4.600214 -7.04607,-9.954414 -8.81786,-19.456591 -1.11865,-5.999412 -0.0298,-10.585531 3.44876,-14.526083 8.94393,-10.13169 56.27262,-20.231333 76.41242,-16.305925 3.98126,0.775978 6.64549,2.044108 9.18155,4.370257 1.1105,1.018577 1.54333,1.328017 0.96186,0.687643 -0.60322,-0.664323 -0.96731,-1.398641 -0.84784,-1.709982 0.42373,-1.104208 -5.29182,-4.435634 -9.65876,-5.629809 -2.05016,-0.560632 -3.85953,-0.645647 -12.84869,-0.603704 -5.75438,0.02685 -12.44488,0.244082 -14.86777,0.482737 -12.67022,1.248016 -31.58528,6.201467 -40.74871,10.671216 -6.83213,3.332582 -10.13927,6.547378 -13.44763,13.072145 -1.35101,2.664472 -1.59036,3.464033 -1.56194,5.217766 0.065,4.013362 2.5449,11.66891 5.60592,17.305984 2.03078,3.739795 4.32905,6.112104 8.85295,9.138085 3.44882,2.306877 4.84523,2.966007 2.56978,1.212979 l 0,0 z m 66.8132,-1.443418 c 0,-0.259382 -2.06567,1.313852 -2.60234,1.981973 -0.28494,0.354716 0.18403,0.08698 1.04214,-0.59496 0.85811,-0.681947 1.5602,-1.306103 1.5602,-1.387013 z m 48.73325,2.209685 c -0.55525,-0.08411 -1.46383,-0.08411 -2.01908,0 -0.55525,0.08411 -0.10095,0.152932 1.00954,0.152932 1.1105,0 1.56479,-0.06882 1.00954,-0.152932 z m -40.76959,-4.666249 c 0.71086,-1.399108 0.44924,-1.175835 -0.82859,0.707156 -0.54081,0.796931 -0.70458,1.217648 -0.36392,0.934933 0.34065,-0.282719 0.87728,-1.021658 1.19251,-1.642089 l 0,0 z M 25.966647,62.300671 c -0.09234,-0.353339 -0.167886,-0.06424 -0.167886,0.642435 0,0.706678 0.07555,0.995773 0.167886,0.642434 0.09234,-0.353339 0.09234,-0.93153 0,-1.284869 z m 1.911914,-5.139477 c 0.432738,-0.858109 0.704198,-1.560198 0.603244,-1.560198 -0.208676,0 -1.666897,2.77049 -1.666897,3.166957 0,0.401991 0.212643,0.08077 1.063653,-1.606759 z M 149.78401,56.885865 c 0,-0.201908 -0.16014,-0.119309 -0.35587,0.183553 -0.19572,0.302862 -0.35586,0.715856 -0.35586,0.917764 0,0.201908 0.16014,0.119309 0.35586,-0.183553 0.19573,-0.302862 0.35587,-0.715856 0.35587,-0.917764 z m 115.09881,-2.386186 c 0.31324,-0.605724 0.48692,-1.101316 0.38596,-1.101316 -0.10095,0 -0.43983,0.495592 -0.75306,1.101316 -0.31323,0.605724 -0.48692,1.101317 -0.38596,1.101317 0.10095,0 0.43983,-0.495593 0.75306,-1.101317 z m -113.9975,-0.550658 c 0,-0.201908 -0.16013,-0.119309 -0.35586,0.183553 -0.19573,0.302862 -0.35586,0.715856 -0.35586,0.917764 0,0.201908 0.16013,0.119309 0.35586,-0.183553 0.19573,-0.302862 0.35586,-0.715856 0.35586,-0.917764 z M 30.853068,52.297046 c 0.431314,-0.605724 0.701608,-1.101316 0.600654,-1.101316 -0.100954,0 -0.536446,0.495592 -0.967759,1.101316 -0.431314,0.605724 -0.701608,1.101317 -0.600654,1.101317 0.100954,0 0.536445,-0.495593 0.967759,-1.101317 l 0,0 z M 151.57917,51.562835 c 0,-0.347091 -0.11663,-0.279235 -0.3155,0.183553 -0.17353,0.403816 -0.3155,0.982007 -0.3155,1.284869 0,0.347091 0.11663,0.279235 0.3155,-0.183552 0.17353,-0.403816 0.3155,-0.982008 0.3155,-1.28487 z M 39.283631,42.540538 c 2.765267,-2.922398 2.575232,-2.766128 -0.9049,0.744121 -2.422896,2.443864 -4.960465,5.182317 -5.639042,6.085455 -0.768139,1.022334 -0.426623,0.741498 0.9049,-0.744123 1.176272,-1.312402 3.713841,-4.050855 5.639042,-6.085453 z m 112.568939,7.286193 c -0.12198,-0.121985 -0.20875,0.09484 -0.19281,0.481826 0.0176,0.42766 0.1046,0.514645 0.22179,0.221794 0.10605,-0.265002 0.093,-0.581631 -0.029,-0.70362 l -2e-5,0 z m 116.49174,-2.485609 c 0,-0.201908 -0.23609,0.04589 -0.52464,0.550658 -0.28855,0.50477 -0.52464,1.082962 -0.52464,1.28487 0,0.201908 0.23609,-0.04589 0.52464,-0.550659 0.28855,-0.50477 0.52464,-1.082961 0.52464,-1.284869 z m -116.12463,0.282976 c -0.12199,-0.121985 -0.20875,0.09484 -0.19281,0.481826 0.0176,0.42766 0.1046,0.514645 0.22179,0.221794 0.10604,-0.265002 0.093,-0.581631 -0.029,-0.70362 l -1e-5,0 z m 0.0213,-4.22936 c -0.10184,-0.252385 -0.18516,-0.04589 -0.18516,0.458882 0,0.50477 0.0833,0.711267 0.18516,0.458882 0.10184,-0.252385 0.10184,-0.665379 0,-0.917764 z M 151.85257,41.0162 c -0.12198,-0.121986 -0.20875,0.09484 -0.19281,0.481826 0.0176,0.427657 0.1046,0.514645 0.22179,0.221793 0.10605,-0.265004 0.093,-0.581633 -0.029,-0.703619 l -2e-5,0 z m -0.3671,-1.835527 c -0.12199,-0.121986 -0.20875,0.09484 -0.19282,0.481826 0.0176,0.427657 0.10461,0.514645 0.2218,0.221793 0.10604,-0.265005 0.093,-0.581633 -0.029,-0.703619 l -10e-6,0 z M 44.803077,37.429274 c 0.684938,-0.706678 1.162744,-1.28487 1.06179,-1.28487 -0.100954,0 -0.743957,0.578192 -1.428895,1.28487 -0.68494,0.706678 -1.162746,1.284869 -1.061792,1.284869 0.100954,0 0.743958,-0.578191 1.428897,-1.284869 z m 2.386186,-2.019081 c 0.36545,-0.403816 0.581855,-0.734211 0.480901,-0.734211 -0.100954,0 -0.482557,0.330395 -0.848007,0.734211 -0.365449,0.403816 -0.581854,0.734211 -0.4809,0.734211 0.100954,0 0.482556,-0.330395 0.848006,-0.734211 z M 270.06054,34.775407 c -0.12198,-0.121986 -0.20875,0.09484 -0.19281,0.481826 0.0176,0.427657 0.1046,0.514645 0.22179,0.221793 0.10605,-0.265005 0.093,-0.581633 -0.029,-0.703619 l -2e-5,0 z M 148.89643,32.510972 c -0.72217,-1.434049 -1.39221,-2.607361 -1.48898,-2.607361 -0.0968,0 0.43426,1.233166 1.18004,2.740369 0.74579,1.507203 1.41583,2.680515 1.48898,2.607361 0.0731,-0.07315 -0.45786,-1.30632 -1.18004,-2.740369 z m -99.688087,1.247247 c 0.251354,-0.302862 0.374407,-0.550659 0.273453,-0.550659 -0.100954,0 -0.389205,0.247797 -0.640558,0.550659 -0.251354,0.302862 -0.374408,0.550658 -0.273454,0.550658 0.100954,0 0.389206,-0.247796 0.640559,-0.550658 z m 1.468422,-1.101317 c 0.251354,-0.302862 0.374407,-0.550658 0.273453,-0.550658 -0.100954,0 -0.389205,0.247796 -0.640558,0.550658 -0.251354,0.302862 -0.374408,0.550658 -0.273454,0.550658 0.100954,0 0.389206,-0.247796 0.640559,-0.550658 z M 269.10454,31.18848 c -0.57401,-1.739264 -0.83693,-1.476349 -0.29369,0.293685 0.22918,0.746715 0.48807,1.286274 0.57532,1.199021 0.0873,-0.08725 -0.0395,-0.758971 -0.28163,-1.492706 z M 56.183348,28.924418 c 0,-0.24763 -2.619067,1.330123 -3.30395,1.990333 -0.302862,0.291951 0.316629,0.0045 1.376646,-0.638753 1.060017,-0.643266 1.927304,-1.251477 1.927304,-1.35158 z m 211.498322,-0.95423 c -0.36256,-0.359861 -0.40473,-0.317694 -0.20551,0.205504 0.13786,0.362047 0.34313,0.565791 0.45616,0.452764 0.11303,-0.113027 2.4e-4,-0.409247 -0.25065,-0.658268 z M 61.165516,26.319984 c -0.164922,-0.164921 -3.880852,1.686746 -3.880852,1.933848 0,0.09536 0.903968,-0.269969 2.00882,-0.811839 1.104851,-0.54187 1.947267,-1.046774 1.872032,-1.122009 l 0,0 z m 84.247934,0.679739 c -1.08866,-1.528878 -5.5901,-5.604836 -7.04768,-6.38152 -1.18825,-0.633167 -1.20097,-0.633167 -0.33142,0 1.5882,1.156465 4.59101,3.907356 6.22868,5.706129 1.79817,1.975075 2.27536,2.25522 1.15042,0.675391 z M 266.5348,25.86545 c -0.21612,-0.403816 -0.47554,-0.734211 -0.57649,-0.734211 -0.10096,0 -0.007,0.330395 0.20938,0.734211 0.21612,0.403816 0.47554,0.734211 0.57649,0.734211 0.10096,0 0.007,-0.330395 -0.20938,-0.734211 z m -0.73421,-1.239919 c 0,-0.07623 -0.2891,-0.365327 -0.64244,-0.642434 -0.58225,-0.456632 -0.59523,-0.443648 -0.1386,0.138602 0.47957,0.611506 0.78104,0.805973 0.78104,0.503832 z m -2.13771,-2.706465 c -0.60395,-0.757155 -1.6394,-1.872238 -2.301,-2.477962 -0.6616,-0.605724 -0.22264,0.01367 0.97547,1.376442 2.38499,2.712771 3.05462,3.269241 1.32553,1.10152 l 0,0 z m -128.55185,-3.02862 c -0.30286,-0.195725 -0.71586,-0.355863 -0.91776,-0.355863 -0.20191,0 -0.11931,0.160138 0.18355,0.355863 0.30286,0.195724 0.71585,0.355862 0.91776,0.355862 0.20191,0 0.11931,-0.160138 -0.18355,-0.355862 z M 87.479091,18.280213 c -0.252385,-0.101839 -0.665378,-0.101839 -0.917763,0 -0.252385,0.10184 -0.04589,0.185163 0.458882,0.185163 0.50477,0 0.711266,-0.08332 0.458881,-0.185163 z m 2.569739,-0.367105 c -0.252385,-0.10184 -0.665379,-0.10184 -0.917764,0 -0.252385,0.10184 -0.04589,0.185163 0.458882,0.185163 0.50477,0 0.711267,-0.08332 0.458882,-0.185163 z m 6.41736,-0.745485 c -0.357183,-0.09308 -0.852775,-0.08696 -1.101316,0.0136 -0.248542,0.100559 0.0437,0.176713 0.64942,0.169232 0.605724,-0.0075 0.809079,-0.08976 0.451896,-0.182834 l 0,1e-6 z m 4.04515,-0.36576 c -0.35334,-0.09234 -0.931534,-0.09234 -1.284873,0 -0.353339,0.09234 -0.06424,0.167886 0.642435,0.167886 0.706678,0 0.995778,-0.07555 0.642438,-0.167886 z m 4.56587,-0.364825 c -0.265,-0.106046 -0.58163,-0.093 -0.70362,0.02898 -0.12198,0.121986 0.0948,0.208751 0.48183,0.192811 0.42766,-0.01761 0.51464,-0.104603 0.22179,-0.221793 l 0,-10e-7 z m 15.98505,-1.104942 c -0.35718,-0.09308 -0.85278,-0.08696 -1.10132,0.0136 -0.24854,0.100559 0.0437,0.176713 0.64942,0.169231 0.60573,-0.0075 0.80908,-0.08976 0.4519,-0.182834 l 0,2e-6 z m 2.73733,0.0036 c -0.265,-0.106046 -0.58163,-0.093 -0.70362,0.02898 -0.12198,0.121986 0.0948,0.208751 0.48183,0.192811 0.42766,-0.01761 0.51464,-0.104603 0.22179,-0.221793 l 0,-1e-6 z"
       style="fill:#000000;fill-opacity:1;fill-rule:nonzero;stroke:#000000;stroke-width:0.99000007;stroke-miterlimit:4;stroke-opacity:1;stroke-dasharray:none" />
    <path
       inkscape:connector-curvature="0"
       id="path4287"
       d="m 19.183838,175.91968 c -1.067513,-0.40924 -1.893501,-0.86902 -1.835527,-1.02175 0.05797,-0.15273 7.621892,-6.10318 16.808707,-13.22323 9.186815,-7.12005 17.910294,-13.92871 19.385508,-15.13035 1.475214,-1.20164 2.76418,-2.10283 2.864371,-2.00264 0.212109,0.21211 -4.612384,4.17342 -14.173558,11.63768 -16.59799,12.95779 -21.659225,17.26786 -21.659225,18.44468 0,0.23234 0.359191,0.80479 0.798203,1.27209 0.98113,1.04437 0.488304,1.04966 -2.188479,0.0235 l 0,0 z"
       style="fill:#000000;fill-opacity:1;fill-rule:nonzero;stroke:#000000;stroke-width:0.99000007;stroke-miterlimit:4;stroke-opacity:1;stroke-dasharray:none" />
    <path
       inkscape:connector-curvature="0"
       id="path4289"
       d="m 118.94789,263.73858 c -2.23808,-2.39588 -2.34089,-3.4365 -2.95474,-29.90786 -0.21538,-9.28777 -0.53396,-17.03286 -0.70796,-17.21131 -0.97593,-1.00087 -17.386345,11.4018 -45.337207,34.26496 -9.933174,8.12511 -10.009715,8.18479 -12.846872,10.0169 -5.724033,3.69634 -8.626979,3.43715 -8.626979,-0.77026 0,-1.73539 1.263287,-3.5804 5.2727,-7.70071 5.891525,-6.05449 13.704613,-12.66943 32.355614,-27.39385 13.351271,-10.54045 20.741464,-16.61838 20.741464,-17.05845 0,-0.14968 -0.61949,-0.47015 -1.37665,-0.71216 -4.26956,-1.36469 -36.460715,-11.10993 -53.505626,-16.19778 -37.042292,-11.057 -39.142679,-11.79048 -40.388718,-14.10423 -0.607068,-1.12726 -0.602419,-1.23247 0.115929,-2.62349 1.146261,-2.21964 2.831585,-3.64443 18.246459,-15.42578 16.900102,-12.91647 27.784402,-21.58496 39.096736,-31.13745 19.67354,-16.61296 37.27737,-33.185586 36.29452,-34.168441 -0.0816,-0.08161 -1.38427,0.0086 -2.8948,0.200524 -8.999752,1.143335 -38.02334,3.191799 -66.989873,4.728102 C 24.135038,99.136977 13.644998,99.718024 12.130688,99.828508 8.8251419,100.06968 7.8022206,99.648461 9.1522025,98.60202 L 10.028325,97.922889 9.0604261,97.679961 c -2.9416342,-0.738301 0.5636968,-2.22046 7.8426329,-3.316097 3.69056,-0.555508 21.615815,-2.786529 22.388523,-2.786529 0.914665,0 0.12828,-0.886986 -3.20726,-3.617553 -5.180776,-4.24113 -8.830747,-8.718539 -11.577788,-14.202431 -5.653665,-11.286365 -3.988066,-18.160929 7.512032,-31.005048 3.229807,-3.607274 9.919687,-9.97531 13.613707,-12.958764 7.525817,-6.07818 16.697595,-10.496848 27.568878,-13.2818 10.609965,-2.71801 29.527219,-4.687043 45.573689,-4.743613 8.77287,-0.03093 10.70926,0.06299 13.21579,0.640957 4.57548,1.055039 9.03536,3.38728 12.51047,6.542192 6.90117,6.265303 9.57,10.329229 10.57751,16.106774 1.25579,7.201231 1.06954,18.213266 -0.38471,22.74558 -1.08987,3.396699 -6.16586,13.163683 -9.12727,17.56229 -1.54152,2.289615 -2.73811,4.227583 -2.65909,4.306596 0.14076,0.140762 28.74966,-2.680326 36.16437,-3.566129 2.06956,-0.247242 3.76194,-0.543067 3.76084,-0.657387 -0.001,-0.114324 -1.68936,-1.199044 -3.75169,-2.410492 -7.14167,-4.195135 -11.57036,-9.801486 -14.38328,-18.208003 -1.52828,-4.567318 -2.14691,-9.073618 -1.99077,-14.501489 0.1357,-4.717821 0.16529,-4.864004 1.55256,-7.670956 1.77955,-3.600666 6.81073,-8.814016 10.68241,-11.069194 13.84818,-8.066298 40.39279,-13.7458024 64.05991,-13.7063073 14.01958,0.023396 18.95458,1.5127907 25.42976,7.6747613 4.80764,4.575099 7.72904,9.019467 9.32213,14.181931 0.97641,3.164116 0.97766,14.41471 0.002,17.575995 -0.9919,3.213744 -3.36397,7.707405 -7.73481,14.652924 -2.14025,3.400994 -3.89137,6.333249 -3.89137,6.516123 0,0.412949 -0.66323,0.432861 7.35048,-0.220656 10.48488,-0.855041 24.65961,-1.641131 29.67169,-1.645514 4.94476,-0.0043 6.58304,0.440292 7.65593,2.07774 0.99069,1.511979 0.43145,3.735056 -1.33666,5.31354 -2.09115,1.866871 -4.45807,2.346494 -16.90985,3.426541 -16.22634,1.407453 -53.11072,4.229543 -55.27955,4.229543 -2.01428,0 -2.96737,0.516753 -1.52564,0.827181 0.45194,0.09731 4.00097,1.030524 7.88673,2.073804 14.69264,3.944813 39.70532,9.745891 61.89425,14.354861 8.51509,1.768708 10.21073,2.530908 10.71247,4.815318 0.2861,1.30258 -0.3944,3.52857 -1.42357,4.65667 -1.70166,1.86524 -4.01689,2.89846 -31.25867,13.94996 -8.48013,3.44024 -17.3182,7.10281 -19.64014,8.13905 -7.94109,3.54396 -19.85946,10.00664 -19.36533,10.50077 0.0943,0.0943 3.37499,0.82386 7.29043,1.62125 8.47991,1.72695 27.22328,6.37257 33.92392,8.40818 10.96592,3.33138 16.73419,6.23634 17.7484,8.93828 0.4594,1.22388 0.44541,1.56357 -0.12597,3.0597 -0.81633,2.13753 -2.39122,3.21216 -4.22703,2.88433 -0.70541,-0.12597 -5.64822,-1.62659 -10.98402,-3.3347 -5.3358,-1.70811 -12.44032,-3.85907 -15.78783,-4.77991 -6.42519,-1.76746 -22.50038,-5.46921 -25.45065,-5.86071 l -1.7432,-0.23132 0.17315,1.60741 c 1.11538,10.35428 0.88425,9.61873 5.25443,16.72158 5.39862,8.77439 6.12318,10.71874 5.04569,13.5401 -1.00899,2.64199 -2.64694,3.04893 -5.3548,1.33034 -3.13669,-1.99075 -7.4937,-7.72058 -10.59654,-13.93533 -2.99097,-5.99067 -3.0475,-6.22167 -3.29335,-13.4566 l -0.22377,-6.58497 -6.79145,5.86302 c -11.34144,9.791 -20.39421,16.9762 -25.96423,20.60787 -5.18128,3.3782 -8.52296,3.45677 -9.13118,0.2147 -0.60202,-3.20903 2.18687,-5.96756 19.95132,-19.73419 10.03761,-7.77867 11.26555,-8.90151 13.6399,-12.47236 2.21388,-3.32952 2.1068,-3.14294 2.65146,-4.6203 0.26196,-0.71052 1.79343,-2.59974 3.42605,-4.22636 6.97404,-6.9484 18.27846,-12.97167 43.88461,-23.38281 13.82782,-5.62222 14.39318,-5.86999 14.06943,-6.16586 -0.16663,-0.15229 -2.03755,-0.72261 -4.15758,-1.26738 -5.71491,-1.46852 -22.00956,-5.845068 -43.31845,-11.634825 -10.39827,-2.825273 -23.20107,-6.216939 -28.45068,-7.537032 l -9.54474,-2.400176 -5.32303,0.411334 c -19.01025,1.468995 -69.37302,6.606787 -76.17439,7.770981 -3.71969,0.636697 -4.46729,1.003109 -5.79807,2.84169 -3.46977,4.793815 -20.166313,21.767328 -31.996361,32.527148 -14.37178,13.07161 -25.143929,22.07476 -41.316806,34.53177 -11.183225,8.61378 -14.317114,11.15373 -14.317114,11.60369 0,0.19393 0.454293,0.5299 1.00954,0.74661 5.962627,2.32708 67.72052,20.48828 82.919461,24.38421 7.51795,1.92706 8.3022,1.98973 8.88525,0.71007 0.85279,-1.87166 3.1373,-1.96415 8.50687,-0.3444 3.68091,1.11035 6.44559,2.15335 21.89479,8.25998 7.2283,2.85714 18.51611,7.06164 25.08401,9.34333 14.33552,4.98015 15.62653,5.48178 17.21184,6.68768 3.70372,2.81734 2.41106,8.32972 -2.13338,9.0975 -8.25224,1.39421 -42.64509,-11.34916 -61.0772,-22.63055 -2.65907,-1.62749 -4.96203,-3.03588 -5.11769,-3.12976 -0.47922,-0.28902 -1.36896,2.338 -1.36896,4.04197 0,0.88751 0.15273,2.42089 0.33939,3.40751 1.10342,5.83237 2.25037,23.29988 2.3415,35.66029 l 0.0724,9.81913 -1.19158,1.71591 c -2.36915,3.41167 -4.17684,4.05505 -5.97748,2.12746 z m 2.80662,-21.09733 c -0.22814,-15.49784 -0.63154,-20.89234 -2.08973,-27.94476 l -1.07191,-5.18421 0.79109,-1.90356 c 0.67909,-1.63407 0.71795,-1.97501 0.27453,-2.40822 -0.2841,-0.27756 -2.49892,-0.94473 -4.92182,-1.4826 -4.81928,-1.06985 -26.956875,-7.32746 -57.268453,-16.18803 -21.724677,-6.35047 -29.571311,-8.81772 -33.028648,-10.38536 -2.00531,-0.90925 -2.376784,-0.98097 -2.563297,-0.49493 -0.119968,0.31263 -0.168849,0.6177 -0.108625,0.67792 0.267351,0.26735 13.031896,4.47965 21.567008,7.11712 5.148655,1.591 21.585803,6.54944 36.526997,11.01875 28.747508,8.59916 32.105988,9.67252 33.306538,10.64467 0.72285,0.58533 0.72777,0.64867 0.12199,1.57319 -1.0681,1.63014 -6.32194,6.05217 -24.067337,20.2569 -21.209054,16.97731 -36.779482,30.3051 -35.404459,30.3051 0.414929,0 2.921029,-1.99073 18.701158,-14.85538 22.795934,-18.58423 38.239368,-30.26489 42.205048,-31.92186 3.8833,-1.62255 4.09987,-0.49934 5.33844,27.68776 0.40368,9.18681 0.84669,17.44668 0.98446,18.35527 l 0.25051,1.65198 0.32552,-1.65198 c 0.17904,-0.90859 0.23799,-7.59908 0.13099,-14.86777 l 0,0 z m 67.70895,-14.81081 0.83636,-0.67724 -3.27366,-1.19322 c -1.8005,-0.65626 -6.8254,-2.39742 -11.16642,-3.86925 -13.66236,-4.63222 -20.12421,-7.18057 -38.91318,-15.34608 -5.35057,-2.32531 -10.14129,-4.34426 -10.64606,-4.48656 l -0.91777,-0.25873 0.73422,0.7356 c 0.90986,0.91159 6.70783,4.24731 11.96641,6.88459 13.76043,6.90111 34.30339,15.05227 45.30204,17.9752 4.02907,1.07074 5.0003,1.1084 6.07806,0.23569 l 0,0 z m 58.61682,-47.50535 c -0.0978,-0.25239 -1.93447,-3.34446 -4.08153,-6.87127 -2.14706,-3.52682 -4.39724,-7.69207 -5.0004,-9.25612 -2.36296,-6.12735 -2.23861,-13.37826 0.26317,-15.34617 1.76457,-1.38801 6.19424,-0.89718 18.6463,2.06613 8.77816,2.089 19.3698,5.05375 27.90002,7.80961 3.63434,1.17415 7.14479,2.23538 7.80099,2.35829 3.97631,0.74476 -2.78408,-2.56937 -10.73784,-5.26399 -6.33405,-2.14588 -17.53476,-5.1595 -27.34936,-7.35851 -18.37593,-4.11721 -20.1908,-4.75783 -20.1908,-7.127 0,-0.99021 2.91537,-3.8093 6.23724,-6.03127 6.21071,-4.15427 16.52205,-9.0199 35.16236,-16.5921 21.68631,-8.80957 29.98301,-12.50937 29.73311,-13.25906 -0.19575,-0.58724 -1.68436,-0.98145 -19.18728,-5.08118 -8.68205,-2.033597 -25.61479,-6.168479 -37.62831,-9.188619 -25.4863,-6.407129 -23.31863,-5.887154 -22.9052,-5.494465 0.4897,0.465134 26.30157,7.692971 48.60258,13.609692 10.80208,2.865922 20.21612,5.481262 20.9201,5.811872 3.52383,1.65492 1.9037,2.59802 -20.84958,12.13664 -19.17712,8.03943 -27.09769,11.72298 -33.47712,15.56889 -4.01904,2.42292 -9.65956,8.01681 -12.83146,12.72538 -1.29214,1.91813 -3.1875,4.28273 -4.21191,5.25466 -1.02441,0.97193 -7.47928,6.29831 -14.34415,11.8364 -14.81654,11.95291 -15.1762,12.25481 -14.61475,12.26751 0.74939,0.017 13.06545,-9.46913 23.60813,-18.18346 10.61317,-8.77259 11.85366,-9.69451 13.98646,-10.39452 2.86305,-0.93968 3.36176,0.2887 2.84443,7.00622 -0.46656,6.05841 -0.23867,8.46383 1.10484,11.66148 2.06797,4.92191 9.2202,15.79384 10.39017,15.79384 0.21317,0 0.30758,-0.2065 0.20979,-0.45888 z M 17.420972,175.14088 c -0.121847,-0.31753 0.967579,-1.41006 2.948366,-2.95677 1.727891,-1.34924 3.14162,-2.5405 3.14162,-2.64725 0,-0.16225 -5.63049,4.0517 -6.788383,5.08054 -0.234632,0.20847 -0.169385,0.44652 0.183553,0.66965 0.717122,0.45338 0.742184,0.44627 0.514844,-0.14617 z m 7.374855,-6.47139 c 0.365449,-0.40382 0.581853,-0.73421 0.480899,-0.73421 -0.100954,0 -0.482556,0.33039 -0.848004,0.73421 -0.365448,0.40382 -0.581853,0.73421 -0.480899,0.73421 0.100954,0 0.482556,-0.33039 0.848004,-0.73421 z m 1.651975,-1.28487 c 0.251353,-0.30286 0.374407,-0.55066 0.273453,-0.55066 -0.100954,0 -0.389205,0.2478 -0.640558,0.55066 -0.251353,0.30286 -0.374407,0.55066 -0.273453,0.55066 0.100954,0 0.389205,-0.2478 0.640558,-0.55066 z m 1.468422,-1.10132 c 0.251353,-0.30286 0.374407,-0.55065 0.273453,-0.55065 -0.100954,0 -0.389205,0.24779 -0.640558,0.55065 -0.251353,0.30287 -0.374407,0.55066 -0.273453,0.55066 0.100954,0 0.389205,-0.24779 0.640558,-0.55066 z m 1.835528,-1.46842 c 0.251353,-0.30286 0.374407,-0.55066 0.273453,-0.55066 -0.100954,0 -0.389206,0.2478 -0.640559,0.55066 -0.251353,0.30286 -0.374407,0.55066 -0.273453,0.55066 0.100954,0 0.389206,-0.2478 0.640559,-0.55066 z m 13.950009,-9.17764 c 0.251353,-0.30286 0.374407,-0.55065 0.273452,-0.55065 -0.100954,0 -0.389205,0.24779 -0.640558,0.55065 -0.251353,0.30287 -0.374407,0.55066 -0.273453,0.55066 0.100954,0 0.389206,-0.24779 0.640559,-0.55066 z m 1.835527,-1.46842 c 0.251354,-0.30286 0.374407,-0.55066 0.273453,-0.55066 -0.100954,0 -0.389205,0.2478 -0.640558,0.55066 -0.251354,0.30286 -0.374408,0.55066 -0.273454,0.55066 0.100954,0 0.389206,-0.2478 0.640559,-0.55066 z m 1.651975,-1.28487 c 0.36545,-0.40381 0.581855,-0.73421 0.480901,-0.73421 -0.100954,0 -0.482557,0.3304 -0.848007,0.73421 -0.365449,0.40382 -0.581854,0.73421 -0.4809,0.73421 0.100954,0 0.482556,-0.33039 0.848006,-0.73421 z m 1.835527,-1.46842 c 0.36545,-0.40381 0.581855,-0.73421 0.480901,-0.73421 -0.100954,0 -0.482556,0.3304 -0.848006,0.73421 -0.36545,0.40382 -0.581855,0.73421 -0.480901,0.73421 0.100954,0 0.482557,-0.33039 0.848006,-0.73421 z m 1.651975,-1.28487 c 0.251354,-0.30286 0.374407,-0.55066 0.273453,-0.55066 -0.100954,0 -0.389205,0.2478 -0.640558,0.55066 -0.251354,0.30286 -0.374408,0.55066 -0.273454,0.55066 0.100954,0 0.389206,-0.2478 0.640559,-0.55066 z m 1.835528,-1.46842 c 0.251353,-0.30286 0.374407,-0.55066 0.273453,-0.55066 -0.100954,0 -0.389205,0.2478 -0.640559,0.55066 -0.251353,0.30286 -0.374407,0.55066 -0.273453,0.55066 0.100954,0 0.389205,-0.2478 0.640559,-0.55066 z m 2.202633,-1.83553 c 0.474208,-0.50477 0.779596,-0.91776 0.678642,-0.91776 -0.100954,0 -0.571539,0.41299 -1.045748,0.91776 -0.474208,0.50477 -0.779596,0.91777 -0.678642,0.91777 0.100954,0 0.571539,-0.413 1.045748,-0.91777 z m 13.582903,-11.3565 c 3.533391,-3.02184 9.645697,-8.38476 13.582904,-11.91759 7.886321,-7.07634 24.821987,-23.795415 24.465147,-24.152256 -0.12406,-0.124063 -3.32626,2.814426 -7.115999,6.529986 -10.657432,10.44882 -23.473558,21.84389 -37.723504,33.5407 -7.182738,5.89583 -7.889453,6.51407 -6.267577,5.48298 l 1.074536,-0.68312 -0.215186,0.82287 c -0.240946,0.92138 1.183915,-0.2026 12.199679,-9.62357 l 0,0 z m 7.305939,-47.753794 c 12.191016,-1.121676 41.313282,-4.602621 44.942732,-5.371942 1.631,-0.345718 2.18469,-0.71314 3.91847,-2.600227 1.11049,-1.208691 4.19272,-4.091651 6.84939,-6.406578 6.17107,-5.377241 8.10716,-8.121204 12.25563,-17.369568 l 1.89371,-4.221713 -0.24518,-6.791452 c -0.25361,-7.025152 -0.57114,-9.159313 -1.69909,-11.419878 -1.53311,-3.072532 -6.958,-8.375403 -10.05959,-9.833326 -3.61103,-1.697382 -11.24533,-1.845053 -29.73633,-0.575192 -22.793636,1.565342 -35.714296,5.135711 -48.115641,13.29581 -5.310192,3.494112 -16.580438,14.836559 -20.646065,20.778326 -1.665091,2.433473 -1.721887,2.604911 -1.70268,5.139477 0.02281,3.010317 0.900232,5.275461 3.639679,9.396176 4.685485,7.047977 14.41666,14.002832 22.404941,16.012775 2.538986,0.638837 9.145494,0.625588 16.300024,-0.03267 l 0,-1.5e-5 z M 215.90282,72.678813 c 19.88352,-1.821753 23.30841,-2.216377 25.35492,-2.921462 3.35773,-1.15683 12.58398,-9.219212 16.41,-14.339908 2.33349,-3.123128 5.72957,-9.848317 6.48093,-12.834045 0.74791,-2.972043 0.69215,-6.86219 -0.14146,-9.86842 -1.24666,-4.495872 -6.32163,-10.841248 -10.02413,-12.533457 -4.07316,-1.861622 -12.05078,-2.663529 -20.47863,-2.058505 -15.9339,1.143873 -34.73733,5.314667 -47.09946,10.447144 -6.44495,2.675798 -9.82141,5.152162 -11.43221,8.384623 -0.82285,1.65124 -0.9478,2.368337 -0.94281,5.410717 0.009,5.757737 1.75832,12.303169 4.56857,17.098496 1.43157,2.442782 4.73672,5.617125 8.04377,7.725419 7.31024,4.66039 8.43966,5.471704 8.99615,6.462382 0.44006,0.783396 0.79487,1.011893 1.35843,0.874831 0.41953,-0.102033 8.9272,-0.933553 18.90593,-1.847815 l 0,0 z m -37.22008,-7.165972 c -3.88697,-4.323251 -5.90698,-8.477641 -7.63215,-15.696415 -2.95942,-12.383351 -0.17836,-18.360984 11.01504,-23.675831 6.8722,-3.263057 18.35391,-6.69999 29.5869,-8.856537 21.53702,-4.134751 38.51892,-4.010989 45.40516,0.330908 1.06786,0.673303 2.0116,1.154142 2.09721,1.068531 0.37089,-0.370892 -1.34508,-1.692753 -3.94615,-3.039837 -4.91778,-2.546886 -5.46228,-2.627054 -17.83369,-2.625648 -6.07108,6.91e-4 -12.93808,0.177398 -15.26003,0.392684 -12.25768,1.136508 -31.65836,6.242492 -40.53604,10.66851 -6.05528,3.018894 -9.09974,5.694767 -11.85195,10.417043 -2.23027,3.826738 -2.7314,5.249511 -2.71398,7.705396 0.0395,5.573113 4.51905,16.830124 8.42679,21.176473 1.4817,1.64801 4.24874,3.970254 4.7307,3.970254 0.0894,0 -0.58014,-0.825988 -1.48781,-1.835531 l 0,0 z"
       style="fill:#000000;fill-opacity:1;fill-rule:nonzero;stroke:#000000;stroke-width:0.99000007;stroke-miterlimit:4;stroke-opacity:1;stroke-dasharray:none" />
    <path
       inkscape:connector-curvature="0"
       id="path4291"
       d="m 73.808571,241.28317 c 0.728345,-0.64618 13.8208,-11.27535 24.045411,-19.52138 13.287878,-10.71651 16.427968,-13.58414 16.427968,-15.00253 0,-0.87231 -1.25503,-1.63956 -4.49704,-2.74922 -2.37049,-0.81136 -15.19945,-4.76621 -23.742271,-7.31915 -3.669526,-1.09661 -6.589285,-2.02135 -6.488353,-2.055 0.100932,-0.0336 3.764062,0.97046 8.140288,2.23135 11.149164,3.21231 19.579716,5.549 25.576206,7.08895 2.82581,0.72569 5.36445,1.43663 5.64144,1.57986 l 0.5036,0.26043 -0.43248,1.14394 c -0.23787,0.62917 -0.56666,1.46295 -0.73064,1.85285 -0.26987,0.64164 -0.27211,0.82124 -0.0236,1.8928 0.3513,1.51479 0.35159,1.51326 -0.14394,0.77795 -0.87204,-1.29402 -1.89847,-1.35372 -4.15344,-0.24156 -3.94841,1.94737 -15.985294,10.93001 -33.106213,24.70583 -4.116052,3.31185 -7.543899,6.01812 -7.617439,6.01391 -0.07354,-0.004 0.196687,-0.30076 0.600503,-0.65903 z"
       style="fill:#000000;fill-opacity:1;fill-rule:nonzero;stroke:#000000;stroke-width:0.99000007;stroke-miterlimit:4;stroke-opacity:1;stroke-dasharray:none" />
    <path
       inkscape:connector-curvature="0"
       id="path4293"
       d="m 120.55461,237.17747 c -0.33581,-7.0163 -0.72847,-14.36039 -0.87257,-16.3202 -0.14411,-1.9598 -0.2361,-3.58919 -0.20443,-3.62086 0.0838,-0.0838 0.64539,3.5917 0.85927,5.62395 0.33035,3.13885 0.54741,7.8499 0.74846,16.24442 0.30347,12.67087 0.13946,12.07527 -0.53073,-1.92731 z"
       style="fill:#000000;fill-opacity:1;fill-rule:nonzero;stroke:#000000;stroke-width:0.99000007;stroke-miterlimit:4;stroke-opacity:1;stroke-dasharray:none" />
    <path
       inkscape:connector-curvature="0"
       id="path4295"
       d="m 184.90756,227.35009 c -10.59334,-2.62347 -31.20696,-10.6905 -45.66243,-17.86976 -4.33881,-2.15485 -8.87155,-4.60832 -8.74591,-4.73396 0.0441,-0.0441 3.95044,1.58451 8.68068,3.61921 17.03643,7.32817 22.39675,9.41206 39.20585,15.24175 9.64456,3.34491 10.73837,3.76338 10.37073,3.96762 -0.61435,0.3413 -1.85565,0.26878 -3.84892,-0.22486 z"
       style="fill:#000000;fill-opacity:1;fill-rule:nonzero;stroke:#000000;stroke-width:0.99000007;stroke-miterlimit:4;stroke-opacity:1;stroke-dasharray:none" />
    <path
       inkscape:connector-curvature="0"
       id="path4297"
       d="m 284.71068,157.7757 c -11.2022,-3.51353 -20.45195,-6.03268 -30.19443,-8.2234 -7.04438,-1.58401 -8.69576,-1.84421 -11.74737,-1.85093 -2.41458,-0.005 -2.73316,0.0324 -3.4337,0.40682 -0.79407,0.42438 -1.54201,1.46307 -1.98828,2.76119 -0.20995,0.61069 -0.23295,0.49342 -0.30048,-1.5316 -0.0821,-2.46171 -0.33102,-3.18482 -1.26219,-3.66634 -0.45192,-0.2337 -0.74073,-0.25203 -1.56625,-0.0994 -1.79992,0.33273 -3.26165,1.15695 -6.21741,3.50579 -0.77878,0.61887 -1.45025,1.09093 -1.49215,1.04902 -0.0419,-0.0419 0.31625,-0.57273 0.79591,-1.17962 0.47966,-0.60689 1.71706,-2.25188 2.74978,-3.65553 3.00318,-4.08183 6.76765,-7.96732 10.28168,-10.6122 4.32941,-3.25858 12.63385,-7.23066 35.0137,-16.7473 17.8208,-7.57798 20.40892,-8.77404 21.98175,-10.1585 0.95876,-0.84394 1.10699,-1.22982 0.75309,-1.96054 -0.52716,-1.08847 -1.22216,-1.30988 -20.28571,-6.462488 -6.69758,-1.810263 -13.20214,-3.563159 -14.45456,-3.895324 -1.25243,-0.332165 -2.19514,-0.631271 -2.09492,-0.664678 0.10023,-0.03341 3.5616,0.761721 7.69195,1.766952 8.8766,2.16036 12.56627,3.04602 23.84591,5.723908 9.40822,2.2336 12.57337,3.06729 12.57337,3.31179 0,0.40852 -9.65108,4.6834 -22.11811,9.79707 -28.26332,11.59292 -37.89944,16.16697 -44.05266,20.91082 -1.56558,1.20699 -3.88294,3.54776 -4.22417,4.26686 -0.33487,0.70569 -0.23408,1.56104 0.28441,2.41363 0.72314,1.18911 3.90563,2.29843 11.9243,4.15646 22.28431,5.16356 30.43431,7.35821 38.54608,10.37976 6.11826,2.27899 5.74144,2.37522 -1.00954,0.2578 z"
       style="fill:#000000;fill-opacity:1;fill-rule:nonzero;stroke:#000000;stroke-width:0.99000007;stroke-miterlimit:4;stroke-opacity:1;stroke-dasharray:none" />
    <path
       inkscape:connector-curvature="0"
       id="path4299"
       d="m 87.251508,59.863146 c -2.628636,-0.858531 -3.972631,-2.512246 -3.414978,-4.20195 0.428724,-1.299048 1.801522,-2.561694 3.459702,-3.182099 3.199713,-1.197166 7.33646,-1.376583 9.01499,-0.390995 1.13152,0.664399 1.793445,2.001417 1.793445,3.622569 0,1.938225 -0.728297,2.878667 -2.855411,3.687159 -2.103806,0.799633 -6.237737,1.040149 -7.997748,0.465316 z"
       style="fill:#000000;fill-opacity:1;fill-rule:nonzero;stroke:#000000;stroke-width:0.99000001;stroke-miterlimit:4;stroke-opacity:1;stroke-dasharray:none" />
    <path
       inkscape:connector-curvature="0"
       id="path4301"
       d="m 215.3063,49.495707 c -2.51543,-0.64685 -4.07555,-1.736999 -4.55204,-3.180762 -1.14501,-3.469424 6.10429,-6.714817 13.08119,-5.856229 2.80437,0.345111 4.8219,0.904472 5.63392,1.562007 l 0.58658,0.474983 -0.94445,1.422866 c -1.20566,1.816405 -3.87432,4.383238 -5.374,5.168949 -0.99313,0.520318 -1.59866,0.61894 -4.14809,0.675602 -1.80853,0.0402 -3.49679,-0.06521 -4.28311,-0.267416 z"
       style="fill:#000000;fill-opacity:1;fill-rule:nonzero;stroke:#000000;stroke-width:0.99000001;stroke-miterlimit:4;stroke-opacity:1;stroke-dasharray:none" />
    <path
       inkscape:connector-curvature="0"
       id="path4305"
       d="m 171.84715,56.302451 c -2.42798,-5.147313 -4.1743,-11.121012 -4.1743,-14.279199 0,-1.995164 0.80921,-4.124369 2.92615,-7.699377 0.74957,-1.265847 0.80402,-0.853749 0.0994,0.7525 -0.33842,0.771491 -0.76821,2.045179 -0.95509,2.830417 -0.45798,1.924402 -0.39735,6.357047 0.12605,9.215189 0.55174,3.012878 2.04228,8.287553 2.87231,10.164389 1.15773,2.617828 0.42341,1.810146 -0.89454,-0.983919 z"
       style="fill:#000000;fill-opacity:1;fill-rule:nonzero;stroke:#000000;stroke-width:0.99000001;stroke-miterlimit:4;stroke-opacity:1;stroke-dasharray:none" />
    <path
       inkscape:connector-curvature="0"
       id="path4307"
       d="m 171.82618,32.619113 c 0,-0.115801 0.53613,-0.838092 1.19139,-1.605089 4.36805,-5.112849 14.22609,-9.493551 30.34792,-13.485959 10.38411,-2.571521 16.26174,-3.459718 24.01141,-3.628477 l 5.32144,-0.115882 -3.63416,0.357082 c -12.83803,1.26143 -25.90404,3.932556 -37.12034,7.588635 -9.78434,3.189318 -15.03112,5.890545 -18.65911,9.606376 -0.8022,0.821625 -1.45855,1.399116 -1.45855,1.283314 z"
       style="fill:#000000;fill-opacity:1;fill-rule:nonzero;stroke:#000000;stroke-width:0.99000001;stroke-miterlimit:4;stroke-opacity:1;stroke-dasharray:none" />
    <path
       inkscape:connector-curvature="0"
       id="path4311"
       d="m 247.49456,14.13703 -2.07666,-0.341984 1.94687,0.112998 c 1.91246,0.111001 4.33888,0.604985 2.85541,0.581321 -0.35693,-0.0057 -1.58345,-0.164245 -2.72562,-0.352335 z"
       style="fill:#000000;fill-opacity:1;fill-rule:nonzero;stroke:#000000;stroke-width:0.99000001;stroke-miterlimit:4;stroke-opacity:1;stroke-dasharray:none" />
    <path
       inkscape:connector-curvature="0"
       id="path4313"
       d="m 240.5207,169.42156 c -1.37509,-2.3464 -2.77044,-5.3704 -3.14941,-6.82534 -0.69344,-2.6623 -0.38436,-2.89442 0.38016,-0.28551 0.40774,1.39138 1.3987,3.7718 2.20214,5.2898 1.45874,2.75614 1.84842,4.00744 0.56711,1.82105 z"
       style="fill:#000000;fill-opacity:1;fill-rule:nonzero;stroke:#000000;stroke-width:0.99000001;stroke-miterlimit:4;stroke-opacity:1;stroke-dasharray:none" />
  </g>
</svg>
