<?xml version="1.0" encoding="UTF-8" standalone="no"?>
<!-- Created with Inkscape (http://www.inkscape.org/) -->

<svg
   xmlns:dc="http://purl.org/dc/elements/1.1/"
   xmlns:cc="http://creativecommons.org/ns#"
   xmlns:rdf="http://www.w3.org/1999/02/22-rdf-syntax-ns#"
   xmlns:svg="http://www.w3.org/2000/svg"
   xmlns="http://www.w3.org/2000/svg"
   xmlns:sodipodi="http://sodipodi.sourceforge.net/DTD/sodipodi-0.dtd"
   xmlns:inkscape="http://www.inkscape.org/namespaces/inkscape"
   width="1440"
   height="1080"
   id="svg3140"
   version="1.1"
   inkscape:version="0.48.4 r9939"
   sodipodi:docname="back.pdf">
  <defs
     id="defs3142" />
  <sodipodi:namedview
     id="base"
     pagecolor="#ffffff"
     bordercolor="#666666"
     borderopacity="1.0"
     inkscape:pageopacity="0.0"
     inkscape:pageshadow="2"
     inkscape:zoom="0.76944444"
     inkscape:cx="517.25632"
     inkscape:cy="540"
     inkscape:document-units="px"
     inkscape:current-layer="layer1"
     showgrid="false"
     units="in"
     inkscape:window-width="1920"
     inkscape:window-height="1018"
     inkscape:window-x="-8"
     inkscape:window-y="-8"
     inkscape:window-maximized="1" />
  <metadata
     id="metadata3145">
    <rdf:RDF>
      <cc:Work
         rdf:about="">
        <dc:format>image/svg+xml</dc:format>
        <dc:type
           rdf:resource="http://purl.org/dc/dcmitype/StillImage" />
        <dc:title></dc:title>
      </cc:Work>
    </rdf:RDF>
  </metadata>
  <g
     inkscape:label="Layer 1"
     inkscape:groupmode="layer"
     id="layer1"
     transform="translate(0,27.64025)">
    <g
       transform="matrix(2.5918538,0,0,1.7688634,-213.71714,-712.98033)"
       id="layer1-1"
       style="fill:none;stroke:#000000;stroke-width:5.21208858;stroke-miterlimit:4;stroke-opacity:1;stroke-dasharray:none;display:inline">
      <g
         transform="matrix(0.79320929,0,0,0.79320929,74.444582,-56.826404)"
         id="g3624"
         style="fill:none;stroke:#000000;stroke-width:6.57088757;stroke-miterlimit:4;stroke-opacity:1;stroke-dasharray:none">
        <g
           transform="matrix(1.1460917,0,0,1.1460917,-52.610886,150.99216)"
           id="g3324"
           style="fill:none;stroke:#000000;stroke-width:5.73329973;stroke-miterlimit:4;stroke-opacity:1;stroke-dasharray:none">
          <path
             inkscape:connector-curvature="0"
             d="m 360.00002,472.36001 c -9.36273,16.18167 -14.71875,34.96031 -14.71875,55 0,20.03969 5.35602,38.81833 14.71875,55 9.36273,-16.18167 14.75,-34.96031 14.75,-55 0,-20.03969 -5.38727,-38.81833 -14.75,-55 z"
             id="path3290"
             style="fill:none;stroke:#000000;stroke-width:5.73329973;stroke-miterlimit:4;stroke-opacity:1;stroke-dasharray:none" />
          <path
             inkscape:connector-curvature="0"
             d="m 360.00002,472.36001 c -18.69511,-0.0175 -37.63589,4.73335 -54.99076,14.75319 -17.3549,10.01985 -30.93967,24.04761 -40.27202,40.24683 18.69511,0.0175 37.65151,-4.70628 55.0064,-14.72613 17.35488,-10.01984 30.92404,-24.07467 40.25637,-40.27389 z"
             id="path3302"
             style="fill:none;stroke:#000000;stroke-width:5.73329973;stroke-miterlimit:4;stroke-opacity:1;stroke-dasharray:none" />
          <path
             inkscape:connector-curvature="0"
             d="m 359.99996,472.36009 c -9.33239,-16.19919 -22.91714,-30.22696 -40.272,-40.24683 -17.3549,-10.01985 -36.29567,-14.77073 -54.9908,-14.75316 9.33241,16.19918 22.90152,30.25401 40.25645,40.27383 17.35488,10.01985 36.3113,14.74367 55.0064,14.72608 z"
             id="path3304"
             style="fill:none;stroke:#000000;stroke-width:5.73329973;stroke-miterlimit:4;stroke-opacity:1;stroke-dasharray:none" />
          <path
             inkscape:connector-curvature="0"
             d="m 360.00003,472.36 c 9.36271,-16.18169 14.71875,-34.96031 14.71878,-55 -1e-5,-20.03971 -5.35601,-38.81834 -14.7188,-55 -9.3627,16.18168 -14.74998,34.9603 -14.74994,55.00002 0,20.03969 5.38726,38.81834 14.75003,54.99997 z"
             id="path3306"
             style="fill:none;stroke:#000000;stroke-width:5.73329973;stroke-miterlimit:4;stroke-opacity:1;stroke-dasharray:none" />
          <path
             inkscape:connector-curvature="0"
             d="m 360.0001,472.35999 c 18.69511,0.0175 37.6359,-4.73335 54.99079,-14.75317 17.3549,-10.01987 30.93968,-24.04761 40.27202,-40.24684 -18.69509,-0.0175 -37.6515,4.70629 -55.00638,14.72618 -17.35489,10.01985 -30.92405,24.07468 -40.25635,40.27389 z"
             id="path3308"
             style="fill:none;stroke:#000000;stroke-width:5.73329973;stroke-miterlimit:4;stroke-opacity:1;stroke-dasharray:none" />
          <path
             inkscape:connector-curvature="0"
             d="m 360.00018,472.36005 c 9.33241,16.19918 22.91716,30.22697 40.27202,40.24683 17.35491,10.01986 36.29569,14.77075 54.99081,14.75317 -9.3324,-16.19917 -22.90154,-30.25401 -40.25644,-40.27384 -17.3549,-10.01984 -36.31132,-14.74366 -55.00639,-14.72608 z"
             id="path3310"
             style="fill:none;stroke:#000000;stroke-width:5.73329973;stroke-miterlimit:4;stroke-opacity:1;stroke-dasharray:none" />
          <path
             inkscape:connector-curvature="0"
             d="m 455.26281,417.35999 c -9.33239,-16.19919 -22.91714,-30.22696 -40.272,-40.24683 -17.3549,-10.01985 -36.29567,-14.77073 -54.9908,-14.75316 9.33241,16.19918 22.90152,30.25401 40.25645,40.27383 17.35488,10.01985 36.3113,14.74367 55.0064,14.72608 z"
             id="path3312"
             style="fill:none;stroke:#000000;stroke-width:5.73329973;stroke-miterlimit:4;stroke-opacity:1;stroke-dasharray:none" />
          <path
             inkscape:connector-curvature="0"
             d="m 360.00004,582.36002 c -9.33239,-16.19919 -22.91714,-30.22696 -40.272,-40.24683 -17.3549,-10.01985 -36.29567,-14.77073 -54.9908,-14.75316 9.33241,16.19918 22.90152,30.25401 40.25645,40.27383 17.35488,10.01985 36.3113,14.74367 55.0064,14.72608 z"
             id="path3314"
             style="fill:none;stroke:#000000;stroke-width:5.73329973;stroke-miterlimit:4;stroke-opacity:1;stroke-dasharray:none" />
          <path
             inkscape:connector-curvature="0"
             d="m 455.26287,527.35992 c -18.69511,-0.0175 -37.63589,4.73335 -54.99076,14.75319 -17.3549,10.01985 -30.93967,24.04761 -40.27202,40.24683 18.69511,0.0175 37.65151,-4.70628 55.0064,-14.72613 17.35488,-10.01984 30.92404,-24.07467 40.25637,-40.27389 z"
             id="path3316"
             style="fill:none;stroke:#000000;stroke-width:5.73329973;stroke-miterlimit:4;stroke-opacity:1;stroke-dasharray:none" />
          <path
             inkscape:connector-curvature="0"
             d="m 359.99994,362.36008 c -18.69511,-0.0175 -37.63589,4.73335 -54.99076,14.75319 -17.3549,10.01985 -30.93967,24.04761 -40.27202,40.24683 18.69511,0.0175 37.65151,-4.70628 55.0064,-14.72613 17.35488,-10.01984 30.92404,-24.07467 40.25637,-40.27389 z"
             id="path3318"
             style="fill:none;stroke:#000000;stroke-width:5.73329973;stroke-miterlimit:4;stroke-opacity:1;stroke-dasharray:none" />
          <path
             inkscape:connector-curvature="0"
             d="m 455.26281,417.35999 c -9.36273,16.18167 -14.71875,34.96031 -14.71875,55 0,20.03969 5.35602,38.81833 14.71875,55 9.36273,-16.18167 14.75,-34.96031 14.75,-55 0,-20.03969 -5.38727,-38.81833 -14.75,-55 z"
             id="path3320"
             style="fill:none;stroke:#000000;stroke-width:5.73329973;stroke-miterlimit:4;stroke-opacity:1;stroke-dasharray:none" />
          <path
             inkscape:connector-curvature="0"
             d="m 264.73716,417.3601 c -9.36273,16.18167 -14.71875,34.96031 -14.71875,55 0,20.03969 5.35602,38.81833 14.71875,55 9.36273,-16.18167 14.75,-34.96031 14.75,-55 0,-20.03969 -5.38727,-38.81833 -14.75,-55 z"
             id="path3322"
             style="fill:none;stroke:#000000;stroke-width:5.73329973;stroke-miterlimit:4;stroke-opacity:1;stroke-dasharray:none" />
        </g>
        <g
           transform="matrix(1.1460917,0,0,1.1460917,56.569225,214.02709)"
           id="g3338"
           style="fill:none;stroke:#000000;stroke-width:5.73329973;stroke-miterlimit:4;stroke-opacity:1;stroke-dasharray:none">
          <path
             inkscape:connector-curvature="0"
             d="m 360.00002,472.36001 c -9.36273,16.18167 -14.71875,34.96031 -14.71875,55 0,20.03969 5.35602,38.81833 14.71875,55 9.36273,-16.18167 14.75,-34.96031 14.75,-55 0,-20.03969 -5.38727,-38.81833 -14.75,-55 z"
             id="path3340"
             style="fill:none;stroke:#000000;stroke-width:5.73329973;stroke-miterlimit:4;stroke-opacity:1;stroke-dasharray:none" />
          <path
             inkscape:connector-curvature="0"
             d="m 360.00002,472.36001 c -18.69511,-0.0175 -37.63589,4.73335 -54.99076,14.75319 -17.3549,10.01985 -30.93967,24.04761 -40.27202,40.24683 18.69511,0.0175 37.65151,-4.70628 55.0064,-14.72613 17.35488,-10.01984 30.92404,-24.07467 40.25637,-40.27389 z"
             id="path3342"
             style="fill:none;stroke:#000000;stroke-width:5.73329973;stroke-miterlimit:4;stroke-opacity:1;stroke-dasharray:none" />
          <path
             inkscape:connector-curvature="0"
             d="m 359.99996,472.36009 c -9.33239,-16.19919 -22.91714,-30.22696 -40.272,-40.24683 -17.3549,-10.01985 -36.29567,-14.77073 -54.9908,-14.75316 9.33241,16.19918 22.90152,30.25401 40.25645,40.27383 17.35488,10.01985 36.3113,14.74367 55.0064,14.72608 z"
             id="path3344"
             style="fill:none;stroke:#000000;stroke-width:5.73329973;stroke-miterlimit:4;stroke-opacity:1;stroke-dasharray:none" />
          <path
             inkscape:connector-curvature="0"
             d="m 360.00003,472.36 c 9.36271,-16.18169 14.71875,-34.96031 14.71878,-55 -1e-5,-20.03971 -5.35601,-38.81834 -14.7188,-55 -9.3627,16.18168 -14.74998,34.9603 -14.74994,55.00002 0,20.03969 5.38726,38.81834 14.75003,54.99997 z"
             id="path3346"
             style="fill:none;stroke:#000000;stroke-width:5.73329973;stroke-miterlimit:4;stroke-opacity:1;stroke-dasharray:none" />
          <path
             inkscape:connector-curvature="0"
             d="m 360.0001,472.35999 c 18.69511,0.0175 37.6359,-4.73335 54.99079,-14.75317 17.3549,-10.01987 30.93968,-24.04761 40.27202,-40.24684 -18.69509,-0.0175 -37.6515,4.70629 -55.00638,14.72618 -17.35489,10.01985 -30.92405,24.07468 -40.25635,40.27389 z"
             id="path3348"
             style="fill:none;stroke:#000000;stroke-width:5.73329973;stroke-miterlimit:4;stroke-opacity:1;stroke-dasharray:none" />
          <path
             inkscape:connector-curvature="0"
             d="m 360.00018,472.36005 c 9.33241,16.19918 22.91716,30.22697 40.27202,40.24683 17.35491,10.01986 36.29569,14.77075 54.99081,14.75317 -9.3324,-16.19917 -22.90154,-30.25401 -40.25644,-40.27384 -17.3549,-10.01984 -36.31132,-14.74366 -55.00639,-14.72608 z"
             id="path3350"
             style="fill:none;stroke:#000000;stroke-width:5.73329973;stroke-miterlimit:4;stroke-opacity:1;stroke-dasharray:none" />
          <path
             inkscape:connector-curvature="0"
             d="m 455.26281,417.35999 c -9.33239,-16.19919 -22.91714,-30.22696 -40.272,-40.24683 -17.3549,-10.01985 -36.29567,-14.77073 -54.9908,-14.75316 9.33241,16.19918 22.90152,30.25401 40.25645,40.27383 17.35488,10.01985 36.3113,14.74367 55.0064,14.72608 z"
             id="path3352"
             style="fill:none;stroke:#000000;stroke-width:5.73329973;stroke-miterlimit:4;stroke-opacity:1;stroke-dasharray:none" />
          <path
             inkscape:connector-curvature="0"
             d="m 360.00004,582.36002 c -9.33239,-16.19919 -22.91714,-30.22696 -40.272,-40.24683 -17.3549,-10.01985 -36.29567,-14.77073 -54.9908,-14.75316 9.33241,16.19918 22.90152,30.25401 40.25645,40.27383 17.35488,10.01985 36.3113,14.74367 55.0064,14.72608 z"
             id="path3354"
             style="fill:none;stroke:#000000;stroke-width:5.73329973;stroke-miterlimit:4;stroke-opacity:1;stroke-dasharray:none" />
          <path
             inkscape:connector-curvature="0"
             d="m 455.26287,527.35992 c -18.69511,-0.0175 -37.63589,4.73335 -54.99076,14.75319 -17.3549,10.01985 -30.93967,24.04761 -40.27202,40.24683 18.69511,0.0175 37.65151,-4.70628 55.0064,-14.72613 17.35488,-10.01984 30.92404,-24.07467 40.25637,-40.27389 z"
             id="path3356"
             style="fill:none;stroke:#000000;stroke-width:5.73329973;stroke-miterlimit:4;stroke-opacity:1;stroke-dasharray:none" />
          <path
             inkscape:connector-curvature="0"
             d="m 359.99994,362.36008 c -18.69511,-0.0175 -37.63589,4.73335 -54.99076,14.75319 -17.3549,10.01985 -30.93967,24.04761 -40.27202,40.24683 18.69511,0.0175 37.65151,-4.70628 55.0064,-14.72613 17.35488,-10.01984 30.92404,-24.07467 40.25637,-40.27389 z"
             id="path3358"
             style="fill:none;stroke:#000000;stroke-width:5.73329973;stroke-miterlimit:4;stroke-opacity:1;stroke-dasharray:none" />
          <path
             inkscape:connector-curvature="0"
             d="m 455.26281,417.35999 c -9.36273,16.18167 -14.71875,34.96031 -14.71875,55 0,20.03969 5.35602,38.81833 14.71875,55 9.36273,-16.18167 14.75,-34.96031 14.75,-55 0,-20.03969 -5.38727,-38.81833 -14.75,-55 z"
             id="path3360"
             style="fill:none;stroke:#000000;stroke-width:5.73329973;stroke-miterlimit:4;stroke-opacity:1;stroke-dasharray:none" />
          <path
             inkscape:connector-curvature="0"
             d="m 264.73716,417.3601 c -9.36273,16.18167 -14.71875,34.96031 -14.71875,55 0,20.03969 5.35602,38.81833 14.71875,55 9.36273,-16.18167 14.75,-34.96031 14.75,-55 0,-20.03969 -5.38727,-38.81833 -14.75,-55 z"
             id="path3362"
             style="fill:none;stroke:#000000;stroke-width:5.73329973;stroke-miterlimit:4;stroke-opacity:1;stroke-dasharray:none" />
        </g>
        <g
           transform="matrix(1.1460917,0,0,1.1460917,165.74934,277.06202)"
           id="g3364"
           style="fill:none;stroke:#000000;stroke-width:5.73329973;stroke-miterlimit:4;stroke-opacity:1;stroke-dasharray:none">
          <path
             inkscape:connector-curvature="0"
             d="m 360.00002,472.36001 c -9.36273,16.18167 -14.71875,34.96031 -14.71875,55 0,20.03969 5.35602,38.81833 14.71875,55 9.36273,-16.18167 14.75,-34.96031 14.75,-55 0,-20.03969 -5.38727,-38.81833 -14.75,-55 z"
             id="path3366"
             style="fill:none;stroke:#000000;stroke-width:5.73329973;stroke-miterlimit:4;stroke-opacity:1;stroke-dasharray:none" />
          <path
             inkscape:connector-curvature="0"
             d="m 360.00002,472.36001 c -18.69511,-0.0175 -37.63589,4.73335 -54.99076,14.75319 -17.3549,10.01985 -30.93967,24.04761 -40.27202,40.24683 18.69511,0.0175 37.65151,-4.70628 55.0064,-14.72613 17.35488,-10.01984 30.92404,-24.07467 40.25637,-40.27389 z"
             id="path3368"
             style="fill:none;stroke:#000000;stroke-width:5.73329973;stroke-miterlimit:4;stroke-opacity:1;stroke-dasharray:none" />
          <path
             inkscape:connector-curvature="0"
             d="m 359.99996,472.36009 c -9.33239,-16.19919 -22.91714,-30.22696 -40.272,-40.24683 -17.3549,-10.01985 -36.29567,-14.77073 -54.9908,-14.75316 9.33241,16.19918 22.90152,30.25401 40.25645,40.27383 17.35488,10.01985 36.3113,14.74367 55.0064,14.72608 z"
             id="path3370"
             style="fill:none;stroke:#000000;stroke-width:5.73329973;stroke-miterlimit:4;stroke-opacity:1;stroke-dasharray:none" />
          <path
             inkscape:connector-curvature="0"
             d="m 360.00003,472.36 c 9.36271,-16.18169 14.71875,-34.96031 14.71878,-55 -1e-5,-20.03971 -5.35601,-38.81834 -14.7188,-55 -9.3627,16.18168 -14.74998,34.9603 -14.74994,55.00002 0,20.03969 5.38726,38.81834 14.75003,54.99997 z"
             id="path3372"
             style="fill:none;stroke:#000000;stroke-width:5.73329973;stroke-miterlimit:4;stroke-opacity:1;stroke-dasharray:none" />
          <path
             inkscape:connector-curvature="0"
             d="m 360.0001,472.35999 c 18.69511,0.0175 37.6359,-4.73335 54.99079,-14.75317 17.3549,-10.01987 30.93968,-24.04761 40.27202,-40.24684 -18.69509,-0.0175 -37.6515,4.70629 -55.00638,14.72618 -17.35489,10.01985 -30.92405,24.07468 -40.25635,40.27389 z"
             id="path3374"
             style="fill:none;stroke:#000000;stroke-width:5.73329973;stroke-miterlimit:4;stroke-opacity:1;stroke-dasharray:none" />
          <path
             inkscape:connector-curvature="0"
             d="m 360.00018,472.36005 c 9.33241,16.19918 22.91716,30.22697 40.27202,40.24683 17.35491,10.01986 36.29569,14.77075 54.99081,14.75317 -9.3324,-16.19917 -22.90154,-30.25401 -40.25644,-40.27384 -17.3549,-10.01984 -36.31132,-14.74366 -55.00639,-14.72608 z"
             id="path3376"
             style="fill:none;stroke:#000000;stroke-width:5.73329973;stroke-miterlimit:4;stroke-opacity:1;stroke-dasharray:none" />
          <path
             inkscape:connector-curvature="0"
             d="m 455.26281,417.35999 c -9.33239,-16.19919 -22.91714,-30.22696 -40.272,-40.24683 -17.3549,-10.01985 -36.29567,-14.77073 -54.9908,-14.75316 9.33241,16.19918 22.90152,30.25401 40.25645,40.27383 17.35488,10.01985 36.3113,14.74367 55.0064,14.72608 z"
             id="path3378"
             style="fill:none;stroke:#000000;stroke-width:5.73329973;stroke-miterlimit:4;stroke-opacity:1;stroke-dasharray:none" />
          <path
             inkscape:connector-curvature="0"
             d="m 360.00004,582.36002 c -9.33239,-16.19919 -22.91714,-30.22696 -40.272,-40.24683 -17.3549,-10.01985 -36.29567,-14.77073 -54.9908,-14.75316 9.33241,16.19918 22.90152,30.25401 40.25645,40.27383 17.35488,10.01985 36.3113,14.74367 55.0064,14.72608 z"
             id="path3380"
             style="fill:none;stroke:#000000;stroke-width:5.73329973;stroke-miterlimit:4;stroke-opacity:1;stroke-dasharray:none" />
          <path
             inkscape:connector-curvature="0"
             d="m 455.26287,527.35992 c -18.69511,-0.0175 -37.63589,4.73335 -54.99076,14.75319 -17.3549,10.01985 -30.93967,24.04761 -40.27202,40.24683 18.69511,0.0175 37.65151,-4.70628 55.0064,-14.72613 17.35488,-10.01984 30.92404,-24.07467 40.25637,-40.27389 z"
             id="path3382"
             style="fill:none;stroke:#000000;stroke-width:5.73329973;stroke-miterlimit:4;stroke-opacity:1;stroke-dasharray:none" />
          <path
             inkscape:connector-curvature="0"
             d="m 359.99994,362.36008 c -18.69511,-0.0175 -37.63589,4.73335 -54.99076,14.75319 -17.3549,10.01985 -30.93967,24.04761 -40.27202,40.24683 18.69511,0.0175 37.65151,-4.70628 55.0064,-14.72613 17.35488,-10.01984 30.92404,-24.07467 40.25637,-40.27389 z"
             id="path3384"
             style="fill:none;stroke:#000000;stroke-width:5.73329973;stroke-miterlimit:4;stroke-opacity:1;stroke-dasharray:none" />
          <path
             inkscape:connector-curvature="0"
             d="m 455.26281,417.35999 c -9.36273,16.18167 -14.71875,34.96031 -14.71875,55 0,20.03969 5.35602,38.81833 14.71875,55 9.36273,-16.18167 14.75,-34.96031 14.75,-55 0,-20.03969 -5.38727,-38.81833 -14.75,-55 z"
             id="path3386"
             style="fill:none;stroke:#000000;stroke-width:5.73329973;stroke-miterlimit:4;stroke-opacity:1;stroke-dasharray:none" />
          <path
             inkscape:connector-curvature="0"
             d="m 264.73716,417.3601 c -9.36273,16.18167 -14.71875,34.96031 -14.71875,55 0,20.03969 5.35602,38.81833 14.71875,55 9.36273,-16.18167 14.75,-34.96031 14.75,-55 0,-20.03969 -5.38727,-38.81833 -14.75,-55 z"
             id="path3388"
             style="fill:none;stroke:#000000;stroke-width:5.73329973;stroke-miterlimit:4;stroke-opacity:1;stroke-dasharray:none" />
        </g>
        <g
           transform="matrix(1.1460917,0,0,1.1460917,165.74951,403.13227)"
           id="g3390"
           style="fill:none;stroke:#000000;stroke-width:5.73329973;stroke-miterlimit:4;stroke-opacity:1;stroke-dasharray:none">
          <path
             inkscape:connector-curvature="0"
             d="m 360.00002,472.36001 c -9.36273,16.18167 -14.71875,34.96031 -14.71875,55 0,20.03969 5.35602,38.81833 14.71875,55 9.36273,-16.18167 14.75,-34.96031 14.75,-55 0,-20.03969 -5.38727,-38.81833 -14.75,-55 z"
             id="path3392"
             style="fill:none;stroke:#000000;stroke-width:5.73329973;stroke-miterlimit:4;stroke-opacity:1;stroke-dasharray:none" />
          <path
             inkscape:connector-curvature="0"
             d="m 360.00002,472.36001 c -18.69511,-0.0175 -37.63589,4.73335 -54.99076,14.75319 -17.3549,10.01985 -30.93967,24.04761 -40.27202,40.24683 18.69511,0.0175 37.65151,-4.70628 55.0064,-14.72613 17.35488,-10.01984 30.92404,-24.07467 40.25637,-40.27389 z"
             id="path3394"
             style="fill:none;stroke:#000000;stroke-width:5.73329973;stroke-miterlimit:4;stroke-opacity:1;stroke-dasharray:none" />
          <path
             inkscape:connector-curvature="0"
             d="m 359.99996,472.36009 c -9.33239,-16.19919 -22.91714,-30.22696 -40.272,-40.24683 -17.3549,-10.01985 -36.29567,-14.77073 -54.9908,-14.75316 9.33241,16.19918 22.90152,30.25401 40.25645,40.27383 17.35488,10.01985 36.3113,14.74367 55.0064,14.72608 z"
             id="path3396"
             style="fill:none;stroke:#000000;stroke-width:5.73329973;stroke-miterlimit:4;stroke-opacity:1;stroke-dasharray:none" />
          <path
             inkscape:connector-curvature="0"
             d="m 360.00003,472.36 c 9.36271,-16.18169 14.71875,-34.96031 14.71878,-55 -1e-5,-20.03971 -5.35601,-38.81834 -14.7188,-55 -9.3627,16.18168 -14.74998,34.9603 -14.74994,55.00002 0,20.03969 5.38726,38.81834 14.75003,54.99997 z"
             id="path3398"
             style="fill:none;stroke:#000000;stroke-width:5.73329973;stroke-miterlimit:4;stroke-opacity:1;stroke-dasharray:none" />
          <path
             inkscape:connector-curvature="0"
             d="m 360.0001,472.35999 c 18.69511,0.0175 37.6359,-4.73335 54.99079,-14.75317 17.3549,-10.01987 30.93968,-24.04761 40.27202,-40.24684 -18.69509,-0.0175 -37.6515,4.70629 -55.00638,14.72618 -17.35489,10.01985 -30.92405,24.07468 -40.25635,40.27389 z"
             id="path3400"
             style="fill:none;stroke:#000000;stroke-width:5.73329973;stroke-miterlimit:4;stroke-opacity:1;stroke-dasharray:none" />
          <path
             inkscape:connector-curvature="0"
             d="m 360.00018,472.36005 c 9.33241,16.19918 22.91716,30.22697 40.27202,40.24683 17.35491,10.01986 36.29569,14.77075 54.99081,14.75317 -9.3324,-16.19917 -22.90154,-30.25401 -40.25644,-40.27384 -17.3549,-10.01984 -36.31132,-14.74366 -55.00639,-14.72608 z"
             id="path3402"
             style="fill:none;stroke:#000000;stroke-width:5.73329973;stroke-miterlimit:4;stroke-opacity:1;stroke-dasharray:none" />
          <path
             inkscape:connector-curvature="0"
             d="m 455.26281,417.35999 c -9.33239,-16.19919 -22.91714,-30.22696 -40.272,-40.24683 -17.3549,-10.01985 -36.29567,-14.77073 -54.9908,-14.75316 9.33241,16.19918 22.90152,30.25401 40.25645,40.27383 17.35488,10.01985 36.3113,14.74367 55.0064,14.72608 z"
             id="path3404"
             style="fill:none;stroke:#000000;stroke-width:5.73329973;stroke-miterlimit:4;stroke-opacity:1;stroke-dasharray:none" />
          <path
             inkscape:connector-curvature="0"
             d="m 360.00004,582.36002 c -9.33239,-16.19919 -22.91714,-30.22696 -40.272,-40.24683 -17.3549,-10.01985 -36.29567,-14.77073 -54.9908,-14.75316 9.33241,16.19918 22.90152,30.25401 40.25645,40.27383 17.35488,10.01985 36.3113,14.74367 55.0064,14.72608 z"
             id="path3406"
             style="fill:none;stroke:#000000;stroke-width:5.73329973;stroke-miterlimit:4;stroke-opacity:1;stroke-dasharray:none" />
          <path
             inkscape:connector-curvature="0"
             d="m 455.26287,527.35992 c -18.69511,-0.0175 -37.63589,4.73335 -54.99076,14.75319 -17.3549,10.01985 -30.93967,24.04761 -40.27202,40.24683 18.69511,0.0175 37.65151,-4.70628 55.0064,-14.72613 17.35488,-10.01984 30.92404,-24.07467 40.25637,-40.27389 z"
             id="path3408"
             style="fill:none;stroke:#000000;stroke-width:5.73329973;stroke-miterlimit:4;stroke-opacity:1;stroke-dasharray:none" />
          <path
             inkscape:connector-curvature="0"
             d="m 359.99994,362.36008 c -18.69511,-0.0175 -37.63589,4.73335 -54.99076,14.75319 -17.3549,10.01985 -30.93967,24.04761 -40.27202,40.24683 18.69511,0.0175 37.65151,-4.70628 55.0064,-14.72613 17.35488,-10.01984 30.92404,-24.07467 40.25637,-40.27389 z"
             id="path3410"
             style="fill:none;stroke:#000000;stroke-width:5.73329973;stroke-miterlimit:4;stroke-opacity:1;stroke-dasharray:none" />
          <path
             inkscape:connector-curvature="0"
             d="m 455.26281,417.35999 c -9.36273,16.18167 -14.71875,34.96031 -14.71875,55 0,20.03969 5.35602,38.81833 14.71875,55 9.36273,-16.18167 14.75,-34.96031 14.75,-55 0,-20.03969 -5.38727,-38.81833 -14.75,-55 z"
             id="path3412"
             style="fill:none;stroke:#000000;stroke-width:5.73329973;stroke-miterlimit:4;stroke-opacity:1;stroke-dasharray:none" />
          <path
             inkscape:connector-curvature="0"
             d="m 264.73716,417.3601 c -9.36273,16.18167 -14.71875,34.96031 -14.71875,55 0,20.03969 5.35602,38.81833 14.71875,55 9.36273,-16.18167 14.75,-34.96031 14.75,-55 0,-20.03969 -5.38727,-38.81833 -14.75,-55 z"
             id="path3414"
             style="fill:none;stroke:#000000;stroke-width:5.73329973;stroke-miterlimit:4;stroke-opacity:1;stroke-dasharray:none" />
        </g>
        <g
           transform="matrix(1.1460917,0,0,1.1460917,165.7494,529.20237)"
           id="g3416"
           style="fill:none;stroke:#000000;stroke-width:5.73329973;stroke-miterlimit:4;stroke-opacity:1;stroke-dasharray:none">
          <path
             inkscape:connector-curvature="0"
             d="m 360.00002,472.36001 c -9.36273,16.18167 -14.71875,34.96031 -14.71875,55 0,20.03969 5.35602,38.81833 14.71875,55 9.36273,-16.18167 14.75,-34.96031 14.75,-55 0,-20.03969 -5.38727,-38.81833 -14.75,-55 z"
             id="path3418"
             style="fill:none;stroke:#000000;stroke-width:5.73329973;stroke-miterlimit:4;stroke-opacity:1;stroke-dasharray:none" />
          <path
             inkscape:connector-curvature="0"
             d="m 360.00002,472.36001 c -18.69511,-0.0175 -37.63589,4.73335 -54.99076,14.75319 -17.3549,10.01985 -30.93967,24.04761 -40.27202,40.24683 18.69511,0.0175 37.65151,-4.70628 55.0064,-14.72613 17.35488,-10.01984 30.92404,-24.07467 40.25637,-40.27389 z"
             id="path3420"
             style="fill:none;stroke:#000000;stroke-width:5.73329973;stroke-miterlimit:4;stroke-opacity:1;stroke-dasharray:none" />
          <path
             inkscape:connector-curvature="0"
             d="m 359.99996,472.36009 c -9.33239,-16.19919 -22.91714,-30.22696 -40.272,-40.24683 -17.3549,-10.01985 -36.29567,-14.77073 -54.9908,-14.75316 9.33241,16.19918 22.90152,30.25401 40.25645,40.27383 17.35488,10.01985 36.3113,14.74367 55.0064,14.72608 z"
             id="path3422"
             style="fill:none;stroke:#000000;stroke-width:5.73329973;stroke-miterlimit:4;stroke-opacity:1;stroke-dasharray:none" />
          <path
             inkscape:connector-curvature="0"
             d="m 360.00003,472.36 c 9.36271,-16.18169 14.71875,-34.96031 14.71878,-55 -1e-5,-20.03971 -5.35601,-38.81834 -14.7188,-55 -9.3627,16.18168 -14.74998,34.9603 -14.74994,55.00002 0,20.03969 5.38726,38.81834 14.75003,54.99997 z"
             id="path3424"
             style="fill:none;stroke:#000000;stroke-width:5.73329973;stroke-miterlimit:4;stroke-opacity:1;stroke-dasharray:none" />
          <path
             inkscape:connector-curvature="0"
             d="m 360.0001,472.35999 c 18.69511,0.0175 37.6359,-4.73335 54.99079,-14.75317 17.3549,-10.01987 30.93968,-24.04761 40.27202,-40.24684 -18.69509,-0.0175 -37.6515,4.70629 -55.00638,14.72618 -17.35489,10.01985 -30.92405,24.07468 -40.25635,40.27389 z"
             id="path3426"
             style="fill:none;stroke:#000000;stroke-width:5.73329973;stroke-miterlimit:4;stroke-opacity:1;stroke-dasharray:none" />
          <path
             inkscape:connector-curvature="0"
             d="m 360.00018,472.36005 c 9.33241,16.19918 22.91716,30.22697 40.27202,40.24683 17.35491,10.01986 36.29569,14.77075 54.99081,14.75317 -9.3324,-16.19917 -22.90154,-30.25401 -40.25644,-40.27384 -17.3549,-10.01984 -36.31132,-14.74366 -55.00639,-14.72608 z"
             id="path3428"
             style="fill:none;stroke:#000000;stroke-width:5.73329973;stroke-miterlimit:4;stroke-opacity:1;stroke-dasharray:none" />
          <path
             inkscape:connector-curvature="0"
             d="m 455.26281,417.35999 c -9.33239,-16.19919 -22.91714,-30.22696 -40.272,-40.24683 -17.3549,-10.01985 -36.29567,-14.77073 -54.9908,-14.75316 9.33241,16.19918 22.90152,30.25401 40.25645,40.27383 17.35488,10.01985 36.3113,14.74367 55.0064,14.72608 z"
             id="path3430"
             style="fill:none;stroke:#000000;stroke-width:5.73329973;stroke-miterlimit:4;stroke-opacity:1;stroke-dasharray:none" />
          <path
             inkscape:connector-curvature="0"
             d="m 360.00004,582.36002 c -9.33239,-16.19919 -22.91714,-30.22696 -40.272,-40.24683 -17.3549,-10.01985 -36.29567,-14.77073 -54.9908,-14.75316 9.33241,16.19918 22.90152,30.25401 40.25645,40.27383 17.35488,10.01985 36.3113,14.74367 55.0064,14.72608 z"
             id="path3432"
             style="fill:none;stroke:#000000;stroke-width:5.73329973;stroke-miterlimit:4;stroke-opacity:1;stroke-dasharray:none" />
          <path
             inkscape:connector-curvature="0"
             d="m 455.26287,527.35992 c -18.69511,-0.0175 -37.63589,4.73335 -54.99076,14.75319 -17.3549,10.01985 -30.93967,24.04761 -40.27202,40.24683 18.69511,0.0175 37.65151,-4.70628 55.0064,-14.72613 17.35488,-10.01984 30.92404,-24.07467 40.25637,-40.27389 z"
             id="path3434"
             style="fill:none;stroke:#000000;stroke-width:5.73329973;stroke-miterlimit:4;stroke-opacity:1;stroke-dasharray:none" />
          <path
             inkscape:connector-curvature="0"
             d="m 359.99994,362.36008 c -18.69511,-0.0175 -37.63589,4.73335 -54.99076,14.75319 -17.3549,10.01985 -30.93967,24.04761 -40.27202,40.24683 18.69511,0.0175 37.65151,-4.70628 55.0064,-14.72613 17.35488,-10.01984 30.92404,-24.07467 40.25637,-40.27389 z"
             id="path3436"
             style="fill:none;stroke:#000000;stroke-width:5.73329973;stroke-miterlimit:4;stroke-opacity:1;stroke-dasharray:none" />
          <path
             inkscape:connector-curvature="0"
             d="m 455.26281,417.35999 c -9.36273,16.18167 -14.71875,34.96031 -14.71875,55 0,20.03969 5.35602,38.81833 14.71875,55 9.36273,-16.18167 14.75,-34.96031 14.75,-55 0,-20.03969 -5.38727,-38.81833 -14.75,-55 z"
             id="path3438"
             style="fill:none;stroke:#000000;stroke-width:5.73329973;stroke-miterlimit:4;stroke-opacity:1;stroke-dasharray:none" />
          <path
             inkscape:connector-curvature="0"
             d="m 264.73716,417.3601 c -9.36273,16.18167 -14.71875,34.96031 -14.71875,55 0,20.03969 5.35602,38.81833 14.71875,55 9.36273,-16.18167 14.75,-34.96031 14.75,-55 0,-20.03969 -5.38727,-38.81833 -14.75,-55 z"
             id="path3440"
             style="fill:none;stroke:#000000;stroke-width:5.73329973;stroke-miterlimit:4;stroke-opacity:1;stroke-dasharray:none" />
        </g>
        <g
           transform="matrix(1.1460917,0,0,1.1460917,56.569335,592.23754)"
           id="g3442"
           style="fill:none;stroke:#000000;stroke-width:5.73329973;stroke-miterlimit:4;stroke-opacity:1;stroke-dasharray:none">
          <path
             inkscape:connector-curvature="0"
             d="m 360.00002,472.36001 c -9.36273,16.18167 -14.71875,34.96031 -14.71875,55 0,20.03969 5.35602,38.81833 14.71875,55 9.36273,-16.18167 14.75,-34.96031 14.75,-55 0,-20.03969 -5.38727,-38.81833 -14.75,-55 z"
             id="path3444"
             style="fill:none;stroke:#000000;stroke-width:5.73329973;stroke-miterlimit:4;stroke-opacity:1;stroke-dasharray:none" />
          <path
             inkscape:connector-curvature="0"
             d="m 360.00002,472.36001 c -18.69511,-0.0175 -37.63589,4.73335 -54.99076,14.75319 -17.3549,10.01985 -30.93967,24.04761 -40.27202,40.24683 18.69511,0.0175 37.65151,-4.70628 55.0064,-14.72613 17.35488,-10.01984 30.92404,-24.07467 40.25637,-40.27389 z"
             id="path3446"
             style="fill:none;stroke:#000000;stroke-width:5.73329973;stroke-miterlimit:4;stroke-opacity:1;stroke-dasharray:none" />
          <path
             inkscape:connector-curvature="0"
             d="m 359.99996,472.36009 c -9.33239,-16.19919 -22.91714,-30.22696 -40.272,-40.24683 -17.3549,-10.01985 -36.29567,-14.77073 -54.9908,-14.75316 9.33241,16.19918 22.90152,30.25401 40.25645,40.27383 17.35488,10.01985 36.3113,14.74367 55.0064,14.72608 z"
             id="path3448"
             style="fill:none;stroke:#000000;stroke-width:5.73329973;stroke-miterlimit:4;stroke-opacity:1;stroke-dasharray:none" />
          <path
             inkscape:connector-curvature="0"
             d="m 360.00003,472.36 c 9.36271,-16.18169 14.71875,-34.96031 14.71878,-55 -1e-5,-20.03971 -5.35601,-38.81834 -14.7188,-55 -9.3627,16.18168 -14.74998,34.9603 -14.74994,55.00002 0,20.03969 5.38726,38.81834 14.75003,54.99997 z"
             id="path3450"
             style="fill:none;stroke:#000000;stroke-width:5.73329973;stroke-miterlimit:4;stroke-opacity:1;stroke-dasharray:none" />
          <path
             inkscape:connector-curvature="0"
             d="m 360.0001,472.35999 c 18.69511,0.0175 37.6359,-4.73335 54.99079,-14.75317 17.3549,-10.01987 30.93968,-24.04761 40.27202,-40.24684 -18.69509,-0.0175 -37.6515,4.70629 -55.00638,14.72618 -17.35489,10.01985 -30.92405,24.07468 -40.25635,40.27389 z"
             id="path3452"
             style="fill:none;stroke:#000000;stroke-width:5.73329973;stroke-miterlimit:4;stroke-opacity:1;stroke-dasharray:none" />
          <path
             inkscape:connector-curvature="0"
             d="m 360.00018,472.36005 c 9.33241,16.19918 22.91716,30.22697 40.27202,40.24683 17.35491,10.01986 36.29569,14.77075 54.99081,14.75317 -9.3324,-16.19917 -22.90154,-30.25401 -40.25644,-40.27384 -17.3549,-10.01984 -36.31132,-14.74366 -55.00639,-14.72608 z"
             id="path3454"
             style="fill:none;stroke:#000000;stroke-width:5.73329973;stroke-miterlimit:4;stroke-opacity:1;stroke-dasharray:none" />
          <path
             inkscape:connector-curvature="0"
             d="m 455.26281,417.35999 c -9.33239,-16.19919 -22.91714,-30.22696 -40.272,-40.24683 -17.3549,-10.01985 -36.29567,-14.77073 -54.9908,-14.75316 9.33241,16.19918 22.90152,30.25401 40.25645,40.27383 17.35488,10.01985 36.3113,14.74367 55.0064,14.72608 z"
             id="path3456"
             style="fill:none;stroke:#000000;stroke-width:5.73329973;stroke-miterlimit:4;stroke-opacity:1;stroke-dasharray:none" />
          <path
             inkscape:connector-curvature="0"
             d="m 360.00004,582.36002 c -9.33239,-16.19919 -22.91714,-30.22696 -40.272,-40.24683 -17.3549,-10.01985 -36.29567,-14.77073 -54.9908,-14.75316 9.33241,16.19918 22.90152,30.25401 40.25645,40.27383 17.35488,10.01985 36.3113,14.74367 55.0064,14.72608 z"
             id="path3458"
             style="fill:none;stroke:#000000;stroke-width:5.73329973;stroke-miterlimit:4;stroke-opacity:1;stroke-dasharray:none" />
          <path
             inkscape:connector-curvature="0"
             d="m 455.26287,527.35992 c -18.69511,-0.0175 -37.63589,4.73335 -54.99076,14.75319 -17.3549,10.01985 -30.93967,24.04761 -40.27202,40.24683 18.69511,0.0175 37.65151,-4.70628 55.0064,-14.72613 17.35488,-10.01984 30.92404,-24.07467 40.25637,-40.27389 z"
             id="path3460"
             style="fill:none;stroke:#000000;stroke-width:5.73329973;stroke-miterlimit:4;stroke-opacity:1;stroke-dasharray:none" />
          <path
             inkscape:connector-curvature="0"
             d="m 359.99994,362.36008 c -18.69511,-0.0175 -37.63589,4.73335 -54.99076,14.75319 -17.3549,10.01985 -30.93967,24.04761 -40.27202,40.24683 18.69511,0.0175 37.65151,-4.70628 55.0064,-14.72613 17.35488,-10.01984 30.92404,-24.07467 40.25637,-40.27389 z"
             id="path3462"
             style="fill:none;stroke:#000000;stroke-width:5.73329973;stroke-miterlimit:4;stroke-opacity:1;stroke-dasharray:none" />
          <path
             inkscape:connector-curvature="0"
             d="m 455.26281,417.35999 c -9.36273,16.18167 -14.71875,34.96031 -14.71875,55 0,20.03969 5.35602,38.81833 14.71875,55 9.36273,-16.18167 14.75,-34.96031 14.75,-55 0,-20.03969 -5.38727,-38.81833 -14.75,-55 z"
             id="path3464"
             style="fill:none;stroke:#000000;stroke-width:5.73329973;stroke-miterlimit:4;stroke-opacity:1;stroke-dasharray:none" />
          <path
             inkscape:connector-curvature="0"
             d="m 264.73716,417.3601 c -9.36273,16.18167 -14.71875,34.96031 -14.71875,55 0,20.03969 5.35602,38.81833 14.71875,55 9.36273,-16.18167 14.75,-34.96031 14.75,-55 0,-20.03969 -5.38727,-38.81833 -14.75,-55 z"
             id="path3466"
             style="fill:none;stroke:#000000;stroke-width:5.73329973;stroke-miterlimit:4;stroke-opacity:1;stroke-dasharray:none" />
        </g>
        <g
           transform="matrix(1.1460917,0,0,1.1460917,-52.610627,655.2727)"
           id="g3468"
           style="fill:none;stroke:#000000;stroke-width:5.73329973;stroke-miterlimit:4;stroke-opacity:1;stroke-dasharray:none">
          <path
             inkscape:connector-curvature="0"
             d="m 360.00002,472.36001 c -9.36273,16.18167 -14.71875,34.96031 -14.71875,55 0,20.03969 5.35602,38.81833 14.71875,55 9.36273,-16.18167 14.75,-34.96031 14.75,-55 0,-20.03969 -5.38727,-38.81833 -14.75,-55 z"
             id="path3470"
             style="fill:none;stroke:#000000;stroke-width:5.73329973;stroke-miterlimit:4;stroke-opacity:1;stroke-dasharray:none" />
          <path
             inkscape:connector-curvature="0"
             d="m 360.00002,472.36001 c -18.69511,-0.0175 -37.63589,4.73335 -54.99076,14.75319 -17.3549,10.01985 -30.93967,24.04761 -40.27202,40.24683 18.69511,0.0175 37.65151,-4.70628 55.0064,-14.72613 17.35488,-10.01984 30.92404,-24.07467 40.25637,-40.27389 z"
             id="path3472"
             style="fill:none;stroke:#000000;stroke-width:5.73329973;stroke-miterlimit:4;stroke-opacity:1;stroke-dasharray:none" />
          <path
             inkscape:connector-curvature="0"
             d="m 359.99996,472.36009 c -9.33239,-16.19919 -22.91714,-30.22696 -40.272,-40.24683 -17.3549,-10.01985 -36.29567,-14.77073 -54.9908,-14.75316 9.33241,16.19918 22.90152,30.25401 40.25645,40.27383 17.35488,10.01985 36.3113,14.74367 55.0064,14.72608 z"
             id="path3474"
             style="fill:none;stroke:#000000;stroke-width:5.73329973;stroke-miterlimit:4;stroke-opacity:1;stroke-dasharray:none" />
          <path
             inkscape:connector-curvature="0"
             d="m 360.00003,472.36 c 9.36271,-16.18169 14.71875,-34.96031 14.71878,-55 -1e-5,-20.03971 -5.35601,-38.81834 -14.7188,-55 -9.3627,16.18168 -14.74998,34.9603 -14.74994,55.00002 0,20.03969 5.38726,38.81834 14.75003,54.99997 z"
             id="path3476"
             style="fill:none;stroke:#000000;stroke-width:5.73329973;stroke-miterlimit:4;stroke-opacity:1;stroke-dasharray:none" />
          <path
             inkscape:connector-curvature="0"
             d="m 360.0001,472.35999 c 18.69511,0.0175 37.6359,-4.73335 54.99079,-14.75317 17.3549,-10.01987 30.93968,-24.04761 40.27202,-40.24684 -18.69509,-0.0175 -37.6515,4.70629 -55.00638,14.72618 -17.35489,10.01985 -30.92405,24.07468 -40.25635,40.27389 z"
             id="path3478"
             style="fill:none;stroke:#000000;stroke-width:5.73329973;stroke-miterlimit:4;stroke-opacity:1;stroke-dasharray:none" />
          <path
             inkscape:connector-curvature="0"
             d="m 360.00018,472.36005 c 9.33241,16.19918 22.91716,30.22697 40.27202,40.24683 17.35491,10.01986 36.29569,14.77075 54.99081,14.75317 -9.3324,-16.19917 -22.90154,-30.25401 -40.25644,-40.27384 -17.3549,-10.01984 -36.31132,-14.74366 -55.00639,-14.72608 z"
             id="path3480"
             style="fill:none;stroke:#000000;stroke-width:5.73329973;stroke-miterlimit:4;stroke-opacity:1;stroke-dasharray:none" />
          <path
             inkscape:connector-curvature="0"
             d="m 455.26281,417.35999 c -9.33239,-16.19919 -22.91714,-30.22696 -40.272,-40.24683 -17.3549,-10.01985 -36.29567,-14.77073 -54.9908,-14.75316 9.33241,16.19918 22.90152,30.25401 40.25645,40.27383 17.35488,10.01985 36.3113,14.74367 55.0064,14.72608 z"
             id="path3482"
             style="fill:none;stroke:#000000;stroke-width:5.73329973;stroke-miterlimit:4;stroke-opacity:1;stroke-dasharray:none" />
          <path
             inkscape:connector-curvature="0"
             d="m 360.00004,582.36002 c -9.33239,-16.19919 -22.91714,-30.22696 -40.272,-40.24683 -17.3549,-10.01985 -36.29567,-14.77073 -54.9908,-14.75316 9.33241,16.19918 22.90152,30.25401 40.25645,40.27383 17.35488,10.01985 36.3113,14.74367 55.0064,14.72608 z"
             id="path3484"
             style="fill:none;stroke:#000000;stroke-width:5.73329973;stroke-miterlimit:4;stroke-opacity:1;stroke-dasharray:none" />
          <path
             inkscape:connector-curvature="0"
             d="m 455.26287,527.35992 c -18.69511,-0.0175 -37.63589,4.73335 -54.99076,14.75319 -17.3549,10.01985 -30.93967,24.04761 -40.27202,40.24683 18.69511,0.0175 37.65151,-4.70628 55.0064,-14.72613 17.35488,-10.01984 30.92404,-24.07467 40.25637,-40.27389 z"
             id="path3486"
             style="fill:none;stroke:#000000;stroke-width:5.73329973;stroke-miterlimit:4;stroke-opacity:1;stroke-dasharray:none" />
          <path
             inkscape:connector-curvature="0"
             d="m 359.99994,362.36008 c -18.69511,-0.0175 -37.63589,4.73335 -54.99076,14.75319 -17.3549,10.01985 -30.93967,24.04761 -40.27202,40.24683 18.69511,0.0175 37.65151,-4.70628 55.0064,-14.72613 17.35488,-10.01984 30.92404,-24.07467 40.25637,-40.27389 z"
             id="path3488"
             style="fill:none;stroke:#000000;stroke-width:5.73329973;stroke-miterlimit:4;stroke-opacity:1;stroke-dasharray:none" />
          <path
             inkscape:connector-curvature="0"
             d="m 455.26281,417.35999 c -9.36273,16.18167 -14.71875,34.96031 -14.71875,55 0,20.03969 5.35602,38.81833 14.71875,55 9.36273,-16.18167 14.75,-34.96031 14.75,-55 0,-20.03969 -5.38727,-38.81833 -14.75,-55 z"
             id="path3490"
             style="fill:none;stroke:#000000;stroke-width:5.73329973;stroke-miterlimit:4;stroke-opacity:1;stroke-dasharray:none" />
          <path
             inkscape:connector-curvature="0"
             d="m 264.73716,417.3601 c -9.36273,16.18167 -14.71875,34.96031 -14.71875,55 0,20.03969 5.35602,38.81833 14.71875,55 9.36273,-16.18167 14.75,-34.96031 14.75,-55 0,-20.03969 -5.38727,-38.81833 -14.75,-55 z"
             id="path3492"
             style="fill:none;stroke:#000000;stroke-width:5.73329973;stroke-miterlimit:4;stroke-opacity:1;stroke-dasharray:none" />
        </g>
        <g
           transform="matrix(1.1460917,0,0,1.1460917,-161.79078,592.23771)"
           id="g3494"
           style="fill:none;stroke:#000000;stroke-width:5.73329973;stroke-miterlimit:4;stroke-opacity:1;stroke-dasharray:none">
          <path
             inkscape:connector-curvature="0"
             d="m 360.00002,472.36001 c -9.36273,16.18167 -14.71875,34.96031 -14.71875,55 0,20.03969 5.35602,38.81833 14.71875,55 9.36273,-16.18167 14.75,-34.96031 14.75,-55 0,-20.03969 -5.38727,-38.81833 -14.75,-55 z"
             id="path3496"
             style="fill:none;stroke:#000000;stroke-width:5.73329973;stroke-miterlimit:4;stroke-opacity:1;stroke-dasharray:none" />
          <path
             inkscape:connector-curvature="0"
             d="m 360.00002,472.36001 c -18.69511,-0.0175 -37.63589,4.73335 -54.99076,14.75319 -17.3549,10.01985 -30.93967,24.04761 -40.27202,40.24683 18.69511,0.0175 37.65151,-4.70628 55.0064,-14.72613 17.35488,-10.01984 30.92404,-24.07467 40.25637,-40.27389 z"
             id="path3498"
             style="fill:none;stroke:#000000;stroke-width:5.73329973;stroke-miterlimit:4;stroke-opacity:1;stroke-dasharray:none" />
          <path
             inkscape:connector-curvature="0"
             d="m 359.99996,472.36009 c -9.33239,-16.19919 -22.91714,-30.22696 -40.272,-40.24683 -17.3549,-10.01985 -36.29567,-14.77073 -54.9908,-14.75316 9.33241,16.19918 22.90152,30.25401 40.25645,40.27383 17.35488,10.01985 36.3113,14.74367 55.0064,14.72608 z"
             id="path3500"
             style="fill:none;stroke:#000000;stroke-width:5.73329973;stroke-miterlimit:4;stroke-opacity:1;stroke-dasharray:none" />
          <path
             inkscape:connector-curvature="0"
             d="m 360.00003,472.36 c 9.36271,-16.18169 14.71875,-34.96031 14.71878,-55 -1e-5,-20.03971 -5.35601,-38.81834 -14.7188,-55 -9.3627,16.18168 -14.74998,34.9603 -14.74994,55.00002 0,20.03969 5.38726,38.81834 14.75003,54.99997 z"
             id="path3502"
             style="fill:none;stroke:#000000;stroke-width:5.73329973;stroke-miterlimit:4;stroke-opacity:1;stroke-dasharray:none" />
          <path
             inkscape:connector-curvature="0"
             d="m 360.0001,472.35999 c 18.69511,0.0175 37.6359,-4.73335 54.99079,-14.75317 17.3549,-10.01987 30.93968,-24.04761 40.27202,-40.24684 -18.69509,-0.0175 -37.6515,4.70629 -55.00638,14.72618 -17.35489,10.01985 -30.92405,24.07468 -40.25635,40.27389 z"
             id="path3504"
             style="fill:none;stroke:#000000;stroke-width:5.73329973;stroke-miterlimit:4;stroke-opacity:1;stroke-dasharray:none" />
          <path
             inkscape:connector-curvature="0"
             d="m 360.00018,472.36005 c 9.33241,16.19918 22.91716,30.22697 40.27202,40.24683 17.35491,10.01986 36.29569,14.77075 54.99081,14.75317 -9.3324,-16.19917 -22.90154,-30.25401 -40.25644,-40.27384 -17.3549,-10.01984 -36.31132,-14.74366 -55.00639,-14.72608 z"
             id="path3506"
             style="fill:none;stroke:#000000;stroke-width:5.73329973;stroke-miterlimit:4;stroke-opacity:1;stroke-dasharray:none" />
          <path
             inkscape:connector-curvature="0"
             d="m 455.26281,417.35999 c -9.33239,-16.19919 -22.91714,-30.22696 -40.272,-40.24683 -17.3549,-10.01985 -36.29567,-14.77073 -54.9908,-14.75316 9.33241,16.19918 22.90152,30.25401 40.25645,40.27383 17.35488,10.01985 36.3113,14.74367 55.0064,14.72608 z"
             id="path3508"
             style="fill:none;stroke:#000000;stroke-width:5.73329973;stroke-miterlimit:4;stroke-opacity:1;stroke-dasharray:none" />
          <path
             inkscape:connector-curvature="0"
             d="m 360.00004,582.36002 c -9.33239,-16.19919 -22.91714,-30.22696 -40.272,-40.24683 -17.3549,-10.01985 -36.29567,-14.77073 -54.9908,-14.75316 9.33241,16.19918 22.90152,30.25401 40.25645,40.27383 17.35488,10.01985 36.3113,14.74367 55.0064,14.72608 z"
             id="path3510"
             style="fill:none;stroke:#000000;stroke-width:5.73329973;stroke-miterlimit:4;stroke-opacity:1;stroke-dasharray:none" />
          <path
             inkscape:connector-curvature="0"
             d="m 455.26287,527.35992 c -18.69511,-0.0175 -37.63589,4.73335 -54.99076,14.75319 -17.3549,10.01985 -30.93967,24.04761 -40.27202,40.24683 18.69511,0.0175 37.65151,-4.70628 55.0064,-14.72613 17.35488,-10.01984 30.92404,-24.07467 40.25637,-40.27389 z"
             id="path3512"
             style="fill:none;stroke:#000000;stroke-width:5.73329973;stroke-miterlimit:4;stroke-opacity:1;stroke-dasharray:none" />
          <path
             inkscape:connector-curvature="0"
             d="m 359.99994,362.36008 c -18.69511,-0.0175 -37.63589,4.73335 -54.99076,14.75319 -17.3549,10.01985 -30.93967,24.04761 -40.27202,40.24683 18.69511,0.0175 37.65151,-4.70628 55.0064,-14.72613 17.35488,-10.01984 30.92404,-24.07467 40.25637,-40.27389 z"
             id="path3514"
             style="fill:none;stroke:#000000;stroke-width:5.73329973;stroke-miterlimit:4;stroke-opacity:1;stroke-dasharray:none" />
          <path
             inkscape:connector-curvature="0"
             d="m 455.26281,417.35999 c -9.36273,16.18167 -14.71875,34.96031 -14.71875,55 0,20.03969 5.35602,38.81833 14.71875,55 9.36273,-16.18167 14.75,-34.96031 14.75,-55 0,-20.03969 -5.38727,-38.81833 -14.75,-55 z"
             id="path3516"
             style="fill:none;stroke:#000000;stroke-width:5.73329973;stroke-miterlimit:4;stroke-opacity:1;stroke-dasharray:none" />
          <path
             inkscape:connector-curvature="0"
             d="m 264.73716,417.3601 c -9.36273,16.18167 -14.71875,34.96031 -14.71875,55 0,20.03969 5.35602,38.81833 14.71875,55 9.36273,-16.18167 14.75,-34.96031 14.75,-55 0,-20.03969 -5.38727,-38.81833 -14.75,-55 z"
             id="path3518"
             style="fill:none;stroke:#000000;stroke-width:5.73329973;stroke-miterlimit:4;stroke-opacity:1;stroke-dasharray:none" />
        </g>
        <g
           transform="matrix(1.1460917,0,0,1.1460917,-270.97094,529.20263)"
           id="g3520"
           style="fill:none;stroke:#000000;stroke-width:5.73329973;stroke-miterlimit:4;stroke-opacity:1;stroke-dasharray:none">
          <path
             inkscape:connector-curvature="0"
             d="m 360.00002,472.36001 c -9.36273,16.18167 -14.71875,34.96031 -14.71875,55 0,20.03969 5.35602,38.81833 14.71875,55 9.36273,-16.18167 14.75,-34.96031 14.75,-55 0,-20.03969 -5.38727,-38.81833 -14.75,-55 z"
             id="path3522"
             style="fill:none;stroke:#000000;stroke-width:5.73329973;stroke-miterlimit:4;stroke-opacity:1;stroke-dasharray:none" />
          <path
             inkscape:connector-curvature="0"
             d="m 360.00002,472.36001 c -18.69511,-0.0175 -37.63589,4.73335 -54.99076,14.75319 -17.3549,10.01985 -30.93967,24.04761 -40.27202,40.24683 18.69511,0.0175 37.65151,-4.70628 55.0064,-14.72613 17.35488,-10.01984 30.92404,-24.07467 40.25637,-40.27389 z"
             id="path3524"
             style="fill:none;stroke:#000000;stroke-width:5.73329973;stroke-miterlimit:4;stroke-opacity:1;stroke-dasharray:none" />
          <path
             inkscape:connector-curvature="0"
             d="m 359.99996,472.36009 c -9.33239,-16.19919 -22.91714,-30.22696 -40.272,-40.24683 -17.3549,-10.01985 -36.29567,-14.77073 -54.9908,-14.75316 9.33241,16.19918 22.90152,30.25401 40.25645,40.27383 17.35488,10.01985 36.3113,14.74367 55.0064,14.72608 z"
             id="path3526"
             style="fill:none;stroke:#000000;stroke-width:5.73329973;stroke-miterlimit:4;stroke-opacity:1;stroke-dasharray:none" />
          <path
             inkscape:connector-curvature="0"
             d="m 360.00003,472.36 c 9.36271,-16.18169 14.71875,-34.96031 14.71878,-55 -1e-5,-20.03971 -5.35601,-38.81834 -14.7188,-55 -9.3627,16.18168 -14.74998,34.9603 -14.74994,55.00002 0,20.03969 5.38726,38.81834 14.75003,54.99997 z"
             id="path3528"
             style="fill:none;stroke:#000000;stroke-width:5.73329973;stroke-miterlimit:4;stroke-opacity:1;stroke-dasharray:none" />
          <path
             inkscape:connector-curvature="0"
             d="m 360.0001,472.35999 c 18.69511,0.0175 37.6359,-4.73335 54.99079,-14.75317 17.3549,-10.01987 30.93968,-24.04761 40.27202,-40.24684 -18.69509,-0.0175 -37.6515,4.70629 -55.00638,14.72618 -17.35489,10.01985 -30.92405,24.07468 -40.25635,40.27389 z"
             id="path3530"
             style="fill:none;stroke:#000000;stroke-width:5.73329973;stroke-miterlimit:4;stroke-opacity:1;stroke-dasharray:none" />
          <path
             inkscape:connector-curvature="0"
             d="m 360.00018,472.36005 c 9.33241,16.19918 22.91716,30.22697 40.27202,40.24683 17.35491,10.01986 36.29569,14.77075 54.99081,14.75317 -9.3324,-16.19917 -22.90154,-30.25401 -40.25644,-40.27384 -17.3549,-10.01984 -36.31132,-14.74366 -55.00639,-14.72608 z"
             id="path3532"
             style="fill:none;stroke:#000000;stroke-width:5.73329973;stroke-miterlimit:4;stroke-opacity:1;stroke-dasharray:none" />
          <path
             inkscape:connector-curvature="0"
             d="m 455.26281,417.35999 c -9.33239,-16.19919 -22.91714,-30.22696 -40.272,-40.24683 -17.3549,-10.01985 -36.29567,-14.77073 -54.9908,-14.75316 9.33241,16.19918 22.90152,30.25401 40.25645,40.27383 17.35488,10.01985 36.3113,14.74367 55.0064,14.72608 z"
             id="path3534"
             style="fill:none;stroke:#000000;stroke-width:5.73329973;stroke-miterlimit:4;stroke-opacity:1;stroke-dasharray:none" />
          <path
             inkscape:connector-curvature="0"
             d="m 360.00004,582.36002 c -9.33239,-16.19919 -22.91714,-30.22696 -40.272,-40.24683 -17.3549,-10.01985 -36.29567,-14.77073 -54.9908,-14.75316 9.33241,16.19918 22.90152,30.25401 40.25645,40.27383 17.35488,10.01985 36.3113,14.74367 55.0064,14.72608 z"
             id="path3536"
             style="fill:none;stroke:#000000;stroke-width:5.73329973;stroke-miterlimit:4;stroke-opacity:1;stroke-dasharray:none" />
          <path
             inkscape:connector-curvature="0"
             d="m 455.26287,527.35992 c -18.69511,-0.0175 -37.63589,4.73335 -54.99076,14.75319 -17.3549,10.01985 -30.93967,24.04761 -40.27202,40.24683 18.69511,0.0175 37.65151,-4.70628 55.0064,-14.72613 17.35488,-10.01984 30.92404,-24.07467 40.25637,-40.27389 z"
             id="path3538"
             style="fill:none;stroke:#000000;stroke-width:5.73329973;stroke-miterlimit:4;stroke-opacity:1;stroke-dasharray:none" />
          <path
             inkscape:connector-curvature="0"
             d="m 359.99994,362.36008 c -18.69511,-0.0175 -37.63589,4.73335 -54.99076,14.75319 -17.3549,10.01985 -30.93967,24.04761 -40.27202,40.24683 18.69511,0.0175 37.65151,-4.70628 55.0064,-14.72613 17.35488,-10.01984 30.92404,-24.07467 40.25637,-40.27389 z"
             id="path3540"
             style="fill:none;stroke:#000000;stroke-width:5.73329973;stroke-miterlimit:4;stroke-opacity:1;stroke-dasharray:none" />
          <path
             inkscape:connector-curvature="0"
             d="m 455.26281,417.35999 c -9.36273,16.18167 -14.71875,34.96031 -14.71875,55 0,20.03969 5.35602,38.81833 14.71875,55 9.36273,-16.18167 14.75,-34.96031 14.75,-55 0,-20.03969 -5.38727,-38.81833 -14.75,-55 z"
             id="path3542"
             style="fill:none;stroke:#000000;stroke-width:5.73329973;stroke-miterlimit:4;stroke-opacity:1;stroke-dasharray:none" />
          <path
             inkscape:connector-curvature="0"
             d="m 264.73716,417.3601 c -9.36273,16.18167 -14.71875,34.96031 -14.71875,55 0,20.03969 5.35602,38.81833 14.71875,55 9.36273,-16.18167 14.75,-34.96031 14.75,-55 0,-20.03969 -5.38727,-38.81833 -14.75,-55 z"
             id="path3544"
             style="fill:none;stroke:#000000;stroke-width:5.73329973;stroke-miterlimit:4;stroke-opacity:1;stroke-dasharray:none" />
        </g>
        <g
           transform="matrix(1.1460917,0,0,1.1460917,-270.97113,403.13265)"
           id="g3546"
           style="fill:none;stroke:#000000;stroke-width:5.73329973;stroke-miterlimit:4;stroke-opacity:1;stroke-dasharray:none">
          <path
             inkscape:connector-curvature="0"
             d="m 360.00002,472.36001 c -9.36273,16.18167 -14.71875,34.96031 -14.71875,55 0,20.03969 5.35602,38.81833 14.71875,55 9.36273,-16.18167 14.75,-34.96031 14.75,-55 0,-20.03969 -5.38727,-38.81833 -14.75,-55 z"
             id="path3548"
             style="fill:none;stroke:#000000;stroke-width:5.73329973;stroke-miterlimit:4;stroke-opacity:1;stroke-dasharray:none" />
          <path
             inkscape:connector-curvature="0"
             d="m 360.00002,472.36001 c -18.69511,-0.0175 -37.63589,4.73335 -54.99076,14.75319 -17.3549,10.01985 -30.93967,24.04761 -40.27202,40.24683 18.69511,0.0175 37.65151,-4.70628 55.0064,-14.72613 17.35488,-10.01984 30.92404,-24.07467 40.25637,-40.27389 z"
             id="path3550"
             style="fill:none;stroke:#000000;stroke-width:5.73329973;stroke-miterlimit:4;stroke-opacity:1;stroke-dasharray:none" />
          <path
             inkscape:connector-curvature="0"
             d="m 359.99996,472.36009 c -9.33239,-16.19919 -22.91714,-30.22696 -40.272,-40.24683 -17.3549,-10.01985 -36.29567,-14.77073 -54.9908,-14.75316 9.33241,16.19918 22.90152,30.25401 40.25645,40.27383 17.35488,10.01985 36.3113,14.74367 55.0064,14.72608 z"
             id="path3552"
             style="fill:none;stroke:#000000;stroke-width:5.73329973;stroke-miterlimit:4;stroke-opacity:1;stroke-dasharray:none" />
          <path
             inkscape:connector-curvature="0"
             d="m 360.00003,472.36 c 9.36271,-16.18169 14.71875,-34.96031 14.71878,-55 -1e-5,-20.03971 -5.35601,-38.81834 -14.7188,-55 -9.3627,16.18168 -14.74998,34.9603 -14.74994,55.00002 0,20.03969 5.38726,38.81834 14.75003,54.99997 z"
             id="path3554"
             style="fill:none;stroke:#000000;stroke-width:5.73329973;stroke-miterlimit:4;stroke-opacity:1;stroke-dasharray:none" />
          <path
             inkscape:connector-curvature="0"
             d="m 360.0001,472.35999 c 18.69511,0.0175 37.6359,-4.73335 54.99079,-14.75317 17.3549,-10.01987 30.93968,-24.04761 40.27202,-40.24684 -18.69509,-0.0175 -37.6515,4.70629 -55.00638,14.72618 -17.35489,10.01985 -30.92405,24.07468 -40.25635,40.27389 z"
             id="path3556"
             style="fill:none;stroke:#000000;stroke-width:5.73329973;stroke-miterlimit:4;stroke-opacity:1;stroke-dasharray:none" />
          <path
             inkscape:connector-curvature="0"
             d="m 360.00018,472.36005 c 9.33241,16.19918 22.91716,30.22697 40.27202,40.24683 17.35491,10.01986 36.29569,14.77075 54.99081,14.75317 -9.3324,-16.19917 -22.90154,-30.25401 -40.25644,-40.27384 -17.3549,-10.01984 -36.31132,-14.74366 -55.00639,-14.72608 z"
             id="path3558"
             style="fill:none;stroke:#000000;stroke-width:5.73329973;stroke-miterlimit:4;stroke-opacity:1;stroke-dasharray:none" />
          <path
             inkscape:connector-curvature="0"
             d="m 455.26281,417.35999 c -9.33239,-16.19919 -22.91714,-30.22696 -40.272,-40.24683 -17.3549,-10.01985 -36.29567,-14.77073 -54.9908,-14.75316 9.33241,16.19918 22.90152,30.25401 40.25645,40.27383 17.35488,10.01985 36.3113,14.74367 55.0064,14.72608 z"
             id="path3560"
             style="fill:none;stroke:#000000;stroke-width:5.73329973;stroke-miterlimit:4;stroke-opacity:1;stroke-dasharray:none" />
          <path
             inkscape:connector-curvature="0"
             d="m 360.00004,582.36002 c -9.33239,-16.19919 -22.91714,-30.22696 -40.272,-40.24683 -17.3549,-10.01985 -36.29567,-14.77073 -54.9908,-14.75316 9.33241,16.19918 22.90152,30.25401 40.25645,40.27383 17.35488,10.01985 36.3113,14.74367 55.0064,14.72608 z"
             id="path3562"
             style="fill:none;stroke:#000000;stroke-width:5.73329973;stroke-miterlimit:4;stroke-opacity:1;stroke-dasharray:none" />
          <path
             inkscape:connector-curvature="0"
             d="m 455.26287,527.35992 c -18.69511,-0.0175 -37.63589,4.73335 -54.99076,14.75319 -17.3549,10.01985 -30.93967,24.04761 -40.27202,40.24683 18.69511,0.0175 37.65151,-4.70628 55.0064,-14.72613 17.35488,-10.01984 30.92404,-24.07467 40.25637,-40.27389 z"
             id="path3564"
             style="fill:none;stroke:#000000;stroke-width:5.73329973;stroke-miterlimit:4;stroke-opacity:1;stroke-dasharray:none" />
          <path
             inkscape:connector-curvature="0"
             d="m 359.99994,362.36008 c -18.69511,-0.0175 -37.63589,4.73335 -54.99076,14.75319 -17.3549,10.01985 -30.93967,24.04761 -40.27202,40.24683 18.69511,0.0175 37.65151,-4.70628 55.0064,-14.72613 17.35488,-10.01984 30.92404,-24.07467 40.25637,-40.27389 z"
             id="path3566"
             style="fill:none;stroke:#000000;stroke-width:5.73329973;stroke-miterlimit:4;stroke-opacity:1;stroke-dasharray:none" />
          <path
             inkscape:connector-curvature="0"
             d="m 455.26281,417.35999 c -9.36273,16.18167 -14.71875,34.96031 -14.71875,55 0,20.03969 5.35602,38.81833 14.71875,55 9.36273,-16.18167 14.75,-34.96031 14.75,-55 0,-20.03969 -5.38727,-38.81833 -14.75,-55 z"
             id="path3568"
             style="fill:none;stroke:#000000;stroke-width:5.73329973;stroke-miterlimit:4;stroke-opacity:1;stroke-dasharray:none" />
          <path
             inkscape:connector-curvature="0"
             d="m 264.73716,417.3601 c -9.36273,16.18167 -14.71875,34.96031 -14.71875,55 0,20.03969 5.35602,38.81833 14.71875,55 9.36273,-16.18167 14.75,-34.96031 14.75,-55 0,-20.03969 -5.38727,-38.81833 -14.75,-55 z"
             id="path3570"
             style="fill:none;stroke:#000000;stroke-width:5.73329973;stroke-miterlimit:4;stroke-opacity:1;stroke-dasharray:none" />
        </g>
        <g
           transform="matrix(1.1460917,0,0,1.1460917,-270.97107,277.06246)"
           id="g3572"
           style="fill:none;stroke:#000000;stroke-width:5.73329973;stroke-miterlimit:4;stroke-opacity:1;stroke-dasharray:none">
          <path
             inkscape:connector-curvature="0"
             d="m 360.00002,472.36001 c -9.36273,16.18167 -14.71875,34.96031 -14.71875,55 0,20.03969 5.35602,38.81833 14.71875,55 9.36273,-16.18167 14.75,-34.96031 14.75,-55 0,-20.03969 -5.38727,-38.81833 -14.75,-55 z"
             id="path3574"
             style="fill:none;stroke:#000000;stroke-width:5.73329973;stroke-miterlimit:4;stroke-opacity:1;stroke-dasharray:none" />
          <path
             inkscape:connector-curvature="0"
             d="m 360.00002,472.36001 c -18.69511,-0.0175 -37.63589,4.73335 -54.99076,14.75319 -17.3549,10.01985 -30.93967,24.04761 -40.27202,40.24683 18.69511,0.0175 37.65151,-4.70628 55.0064,-14.72613 17.35488,-10.01984 30.92404,-24.07467 40.25637,-40.27389 z"
             id="path3576"
             style="fill:none;stroke:#000000;stroke-width:5.73329973;stroke-miterlimit:4;stroke-opacity:1;stroke-dasharray:none" />
          <path
             inkscape:connector-curvature="0"
             d="m 359.99996,472.36009 c -9.33239,-16.19919 -22.91714,-30.22696 -40.272,-40.24683 -17.3549,-10.01985 -36.29567,-14.77073 -54.9908,-14.75316 9.33241,16.19918 22.90152,30.25401 40.25645,40.27383 17.35488,10.01985 36.3113,14.74367 55.0064,14.72608 z"
             id="path3578"
             style="fill:none;stroke:#000000;stroke-width:5.73329973;stroke-miterlimit:4;stroke-opacity:1;stroke-dasharray:none" />
          <path
             inkscape:connector-curvature="0"
             d="m 360.00003,472.36 c 9.36271,-16.18169 14.71875,-34.96031 14.71878,-55 -1e-5,-20.03971 -5.35601,-38.81834 -14.7188,-55 -9.3627,16.18168 -14.74998,34.9603 -14.74994,55.00002 0,20.03969 5.38726,38.81834 14.75003,54.99997 z"
             id="path3580"
             style="fill:none;stroke:#000000;stroke-width:5.73329973;stroke-miterlimit:4;stroke-opacity:1;stroke-dasharray:none" />
          <path
             inkscape:connector-curvature="0"
             d="m 360.0001,472.35999 c 18.69511,0.0175 37.6359,-4.73335 54.99079,-14.75317 17.3549,-10.01987 30.93968,-24.04761 40.27202,-40.24684 -18.69509,-0.0175 -37.6515,4.70629 -55.00638,14.72618 -17.35489,10.01985 -30.92405,24.07468 -40.25635,40.27389 z"
             id="path3582"
             style="fill:none;stroke:#000000;stroke-width:5.73329973;stroke-miterlimit:4;stroke-opacity:1;stroke-dasharray:none" />
          <path
             inkscape:connector-curvature="0"
             d="m 360.00018,472.36005 c 9.33241,16.19918 22.91716,30.22697 40.27202,40.24683 17.35491,10.01986 36.29569,14.77075 54.99081,14.75317 -9.3324,-16.19917 -22.90154,-30.25401 -40.25644,-40.27384 -17.3549,-10.01984 -36.31132,-14.74366 -55.00639,-14.72608 z"
             id="path3584"
             style="fill:none;stroke:#000000;stroke-width:5.73329973;stroke-miterlimit:4;stroke-opacity:1;stroke-dasharray:none" />
          <path
             inkscape:connector-curvature="0"
             d="m 455.26281,417.35999 c -9.33239,-16.19919 -22.91714,-30.22696 -40.272,-40.24683 -17.3549,-10.01985 -36.29567,-14.77073 -54.9908,-14.75316 9.33241,16.19918 22.90152,30.25401 40.25645,40.27383 17.35488,10.01985 36.3113,14.74367 55.0064,14.72608 z"
             id="path3586"
             style="fill:none;stroke:#000000;stroke-width:5.73329973;stroke-miterlimit:4;stroke-opacity:1;stroke-dasharray:none" />
          <path
             inkscape:connector-curvature="0"
             d="m 360.00004,582.36002 c -9.33239,-16.19919 -22.91714,-30.22696 -40.272,-40.24683 -17.3549,-10.01985 -36.29567,-14.77073 -54.9908,-14.75316 9.33241,16.19918 22.90152,30.25401 40.25645,40.27383 17.35488,10.01985 36.3113,14.74367 55.0064,14.72608 z"
             id="path3588"
             style="fill:none;stroke:#000000;stroke-width:5.73329973;stroke-miterlimit:4;stroke-opacity:1;stroke-dasharray:none" />
          <path
             inkscape:connector-curvature="0"
             d="m 455.26287,527.35992 c -18.69511,-0.0175 -37.63589,4.73335 -54.99076,14.75319 -17.3549,10.01985 -30.93967,24.04761 -40.27202,40.24683 18.69511,0.0175 37.65151,-4.70628 55.0064,-14.72613 17.35488,-10.01984 30.92404,-24.07467 40.25637,-40.27389 z"
             id="path3590"
             style="fill:none;stroke:#000000;stroke-width:5.73329973;stroke-miterlimit:4;stroke-opacity:1;stroke-dasharray:none" />
          <path
             inkscape:connector-curvature="0"
             d="m 359.99994,362.36008 c -18.69511,-0.0175 -37.63589,4.73335 -54.99076,14.75319 -17.3549,10.01985 -30.93967,24.04761 -40.27202,40.24683 18.69511,0.0175 37.65151,-4.70628 55.0064,-14.72613 17.35488,-10.01984 30.92404,-24.07467 40.25637,-40.27389 z"
             id="path3592"
             style="fill:none;stroke:#000000;stroke-width:5.73329973;stroke-miterlimit:4;stroke-opacity:1;stroke-dasharray:none" />
          <path
             inkscape:connector-curvature="0"
             d="m 455.26281,417.35999 c -9.36273,16.18167 -14.71875,34.96031 -14.71875,55 0,20.03969 5.35602,38.81833 14.71875,55 9.36273,-16.18167 14.75,-34.96031 14.75,-55 0,-20.03969 -5.38727,-38.81833 -14.75,-55 z"
             id="path3594"
             style="fill:none;stroke:#000000;stroke-width:5.73329973;stroke-miterlimit:4;stroke-opacity:1;stroke-dasharray:none" />
          <path
             inkscape:connector-curvature="0"
             d="m 264.73716,417.3601 c -9.36273,16.18167 -14.71875,34.96031 -14.71875,55 0,20.03969 5.35602,38.81833 14.71875,55 9.36273,-16.18167 14.75,-34.96031 14.75,-55 0,-20.03969 -5.38727,-38.81833 -14.75,-55 z"
             id="path3596"
             style="fill:none;stroke:#000000;stroke-width:5.73329973;stroke-miterlimit:4;stroke-opacity:1;stroke-dasharray:none" />
        </g>
        <g
           transform="matrix(1.1460917,0,0,1.1460917,-161.79111,214.0273)"
           id="g3598"
           style="fill:none;stroke:#000000;stroke-width:5.73329973;stroke-miterlimit:4;stroke-opacity:1;stroke-dasharray:none">
          <path
             inkscape:connector-curvature="0"
             d="m 360.00002,472.36001 c -9.36273,16.18167 -14.71875,34.96031 -14.71875,55 0,20.03969 5.35602,38.81833 14.71875,55 9.36273,-16.18167 14.75,-34.96031 14.75,-55 0,-20.03969 -5.38727,-38.81833 -14.75,-55 z"
             id="path3600"
             style="fill:none;stroke:#000000;stroke-width:5.73329973;stroke-miterlimit:4;stroke-opacity:1;stroke-dasharray:none" />
          <path
             inkscape:connector-curvature="0"
             d="m 360.00002,472.36001 c -18.69511,-0.0175 -37.63589,4.73335 -54.99076,14.75319 -17.3549,10.01985 -30.93967,24.04761 -40.27202,40.24683 18.69511,0.0175 37.65151,-4.70628 55.0064,-14.72613 17.35488,-10.01984 30.92404,-24.07467 40.25637,-40.27389 z"
             id="path3602"
             style="fill:none;stroke:#000000;stroke-width:5.73329973;stroke-miterlimit:4;stroke-opacity:1;stroke-dasharray:none" />
          <path
             inkscape:connector-curvature="0"
             d="m 359.99996,472.36009 c -9.33239,-16.19919 -22.91714,-30.22696 -40.272,-40.24683 -17.3549,-10.01985 -36.29567,-14.77073 -54.9908,-14.75316 9.33241,16.19918 22.90152,30.25401 40.25645,40.27383 17.35488,10.01985 36.3113,14.74367 55.0064,14.72608 z"
             id="path3604"
             style="fill:none;stroke:#000000;stroke-width:5.73329973;stroke-miterlimit:4;stroke-opacity:1;stroke-dasharray:none" />
          <path
             inkscape:connector-curvature="0"
             d="m 360.00003,472.36 c 9.36271,-16.18169 14.71875,-34.96031 14.71878,-55 -1e-5,-20.03971 -5.35601,-38.81834 -14.7188,-55 -9.3627,16.18168 -14.74998,34.9603 -14.74994,55.00002 0,20.03969 5.38726,38.81834 14.75003,54.99997 z"
             id="path3606"
             style="fill:none;stroke:#000000;stroke-width:5.73329973;stroke-miterlimit:4;stroke-opacity:1;stroke-dasharray:none" />
          <path
             inkscape:connector-curvature="0"
             d="m 360.0001,472.35999 c 18.69511,0.0175 37.6359,-4.73335 54.99079,-14.75317 17.3549,-10.01987 30.93968,-24.04761 40.27202,-40.24684 -18.69509,-0.0175 -37.6515,4.70629 -55.00638,14.72618 -17.35489,10.01985 -30.92405,24.07468 -40.25635,40.27389 z"
             id="path3608"
             style="fill:none;stroke:#000000;stroke-width:5.73329973;stroke-miterlimit:4;stroke-opacity:1;stroke-dasharray:none" />
          <path
             inkscape:connector-curvature="0"
             d="m 360.00018,472.36005 c 9.33241,16.19918 22.91716,30.22697 40.27202,40.24683 17.35491,10.01986 36.29569,14.77075 54.99081,14.75317 -9.3324,-16.19917 -22.90154,-30.25401 -40.25644,-40.27384 -17.3549,-10.01984 -36.31132,-14.74366 -55.00639,-14.72608 z"
             id="path3610"
             style="fill:none;stroke:#000000;stroke-width:5.73329973;stroke-miterlimit:4;stroke-opacity:1;stroke-dasharray:none" />
          <path
             inkscape:connector-curvature="0"
             d="m 455.26281,417.35999 c -9.33239,-16.19919 -22.91714,-30.22696 -40.272,-40.24683 -17.3549,-10.01985 -36.29567,-14.77073 -54.9908,-14.75316 9.33241,16.19918 22.90152,30.25401 40.25645,40.27383 17.35488,10.01985 36.3113,14.74367 55.0064,14.72608 z"
             id="path3612"
             style="fill:none;stroke:#000000;stroke-width:5.73329973;stroke-miterlimit:4;stroke-opacity:1;stroke-dasharray:none" />
          <path
             inkscape:connector-curvature="0"
             d="m 360.00004,582.36002 c -9.33239,-16.19919 -22.91714,-30.22696 -40.272,-40.24683 -17.3549,-10.01985 -36.29567,-14.77073 -54.9908,-14.75316 9.33241,16.19918 22.90152,30.25401 40.25645,40.27383 17.35488,10.01985 36.3113,14.74367 55.0064,14.72608 z"
             id="path3614"
             style="fill:none;stroke:#000000;stroke-width:5.73329973;stroke-miterlimit:4;stroke-opacity:1;stroke-dasharray:none" />
          <path
             inkscape:connector-curvature="0"
             d="m 455.26287,527.35992 c -18.69511,-0.0175 -37.63589,4.73335 -54.99076,14.75319 -17.3549,10.01985 -30.93967,24.04761 -40.27202,40.24683 18.69511,0.0175 37.65151,-4.70628 55.0064,-14.72613 17.35488,-10.01984 30.92404,-24.07467 40.25637,-40.27389 z"
             id="path3616"
             style="fill:none;stroke:#000000;stroke-width:5.73329973;stroke-miterlimit:4;stroke-opacity:1;stroke-dasharray:none" />
          <path
             inkscape:connector-curvature="0"
             d="m 359.99994,362.36008 c -18.69511,-0.0175 -37.63589,4.73335 -54.99076,14.75319 -17.3549,10.01985 -30.93967,24.04761 -40.27202,40.24683 18.69511,0.0175 37.65151,-4.70628 55.0064,-14.72613 17.35488,-10.01984 30.92404,-24.07467 40.25637,-40.27389 z"
             id="path3618"
             style="fill:none;stroke:#000000;stroke-width:5.73329973;stroke-miterlimit:4;stroke-opacity:1;stroke-dasharray:none" />
          <path
             inkscape:connector-curvature="0"
             d="m 455.26281,417.35999 c -9.36273,16.18167 -14.71875,34.96031 -14.71875,55 0,20.03969 5.35602,38.81833 14.71875,55 9.36273,-16.18167 14.75,-34.96031 14.75,-55 0,-20.03969 -5.38727,-38.81833 -14.75,-55 z"
             id="path3620"
             style="fill:none;stroke:#000000;stroke-width:5.73329973;stroke-miterlimit:4;stroke-opacity:1;stroke-dasharray:none" />
          <path
             inkscape:connector-curvature="0"
             d="m 264.73716,417.3601 c -9.36273,16.18167 -14.71875,34.96031 -14.71875,55 0,20.03969 5.35602,38.81833 14.71875,55 9.36273,-16.18167 14.75,-34.96031 14.75,-55 0,-20.03969 -5.38727,-38.81833 -14.75,-55 z"
             id="path3622"
             style="fill:none;stroke:#000000;stroke-width:5.73329973;stroke-miterlimit:4;stroke-opacity:1;stroke-dasharray:none" />
        </g>
      </g>
    </g>
  </g>
</svg>
