<?xml version="1.0" encoding="UTF-8" standalone="no"?>
<!-- Created with Inkscape (http://www.inkscape.org/) -->

<svg
   xmlns:dc="http://purl.org/dc/elements/1.1/"
   xmlns:cc="http://creativecommons.org/ns#"
   xmlns:rdf="http://www.w3.org/1999/02/22-rdf-syntax-ns#"
   xmlns:svg="http://www.w3.org/2000/svg"
   xmlns="http://www.w3.org/2000/svg"
   xmlns:sodipodi="http://sodipodi.sourceforge.net/DTD/sodipodi-0.dtd"
   xmlns:inkscape="http://www.inkscape.org/namespaces/inkscape"
   version="1.0"
   width="1440"
   height="1080"
   id="svg2"
   inkscape:version="0.48.4 r9939"
   sodipodi:docname="outrayj_192_black_white.svg">
  <metadata
     id="metadata104">
    <rdf:RDF>
      <cc:Work
         rdf:about="">
        <dc:format>image/svg+xml</dc:format>
        <dc:type
           rdf:resource="http://purl.org/dc/dcmitype/StillImage" />
        <dc:title></dc:title>
      </cc:Work>
    </rdf:RDF>
  </metadata>
  <sodipodi:namedview
     pagecolor="#ffffff"
     bordercolor="#666666"
     borderopacity="1"
     objecttolerance="10"
     gridtolerance="10"
     guidetolerance="10"
     inkscape:pageopacity="0"
     inkscape:pageshadow="2"
     inkscape:window-width="1920"
     inkscape:window-height="1018"
     id="namedview102"
     showgrid="false"
     units="in"
     inkscape:zoom="0.76944444"
     inkscape:cx="720"
     inkscape:cy="540"
     inkscape:window-x="-8"
     inkscape:window-y="-8"
     inkscape:window-maximized="1"
     inkscape:current-layer="svg2" />
  <defs
     id="defs4" />
  <g
     transform="matrix(1.9975377,0,0,1.4862978,0,537.13497)"
     id="layer1">
    <g
       id="g3306">
      <path
         d="M 0,-360 360,0 15,-360 0,-360 z"
         id="path3171"
         style="fill:#000000;stroke:none"
         inkscape:connector-curvature="0" />
      <path
         d="M 30,-360 360,0 45,-360 l -15,0 z"
         id="path3216"
         style="fill:#000000;stroke:none"
         inkscape:connector-curvature="0" />
      <path
         d="M 60,-360 360,0 75,-360 l -15,0 z"
         id="path3218"
         style="fill:#000000;stroke:none"
         inkscape:connector-curvature="0" />
      <path
         d="M 90,-360 360,0 105,-360 l -15,0 z"
         id="path3220"
         style="fill:#000000;stroke:none"
         inkscape:connector-curvature="0" />
      <path
         d="M 120,-360 360,0 135,-360 l -15,0 z"
         id="path3222"
         style="fill:#000000;stroke:none"
         inkscape:connector-curvature="0" />
      <path
         d="M 150,-360 360,0 165,-360 l -15,0 z"
         id="path3224"
         style="fill:#000000;stroke:none"
         inkscape:connector-curvature="0" />
      <path
         d="M 180,-360 360,0 195,-360 l -15,0 z"
         id="path3288"
         style="fill:#000000;stroke:none"
         inkscape:connector-curvature="0" />
      <path
         d="M 210,-360 360,0 225,-360 l -15,0 z"
         id="path3290"
         style="fill:#000000;stroke:none"
         inkscape:connector-curvature="0" />
      <path
         d="M 240,-360 360,0 255,-360 l -15,0 z"
         id="path3292"
         style="fill:#000000;stroke:none"
         inkscape:connector-curvature="0" />
      <path
         d="m 270,-360 90,360 -75,-360 -15,0 z"
         id="path3294"
         style="fill:#000000;stroke:none"
         inkscape:connector-curvature="0" />
      <path
         d="m 300,-360 60,360 -45,-360 -15,0 z"
         id="path3296"
         style="fill:#000000;stroke:none"
         inkscape:connector-curvature="0" />
      <path
         d="m 330,-360 30,360 -15,-360 -15,0 z"
         id="path3298"
         style="fill:#000000;stroke:none"
         inkscape:connector-curvature="0" />
      <path
         d="m 360,-360 0,360 15,-360 -15,0 z"
         id="path2922"
         style="fill:#000000;stroke:none"
         inkscape:connector-curvature="0" />
      <path
         d="m 390,-360 -30,360 45,-360 -15,0 z"
         id="path2924"
         style="fill:#000000;stroke:none"
         inkscape:connector-curvature="0" />
      <path
         d="m 420,-360 -60,360 75,-360 -15,0 z"
         id="path2926"
         style="fill:#000000;stroke:none"
         inkscape:connector-curvature="0" />
      <path
         d="m 450,-360 -90,360 105,-360 -15,0 z"
         id="path2928"
         style="fill:#000000;stroke:none"
         inkscape:connector-curvature="0" />
      <path
         d="M 480,-360 360,0 l 135,-360 -15,0 z"
         id="path2930"
         style="fill:#000000;stroke:none"
         inkscape:connector-curvature="0" />
      <path
         d="M 510,-360 360,0 l 165,-360 -15,0 z"
         id="path2932"
         style="fill:#000000;stroke:none"
         inkscape:connector-curvature="0" />
      <path
         d="M 540,-360 360,0 l 195,-360 -15,0 z"
         id="path2934"
         style="fill:#000000;stroke:none"
         inkscape:connector-curvature="0" />
      <path
         d="M 570,-360 360,0 l 225,-360 -15,0 z"
         id="path2936"
         style="fill:#000000;stroke:none"
         inkscape:connector-curvature="0" />
      <path
         d="M 600,-360 360,0 l 255,-360 -15,0 z"
         id="path2938"
         style="fill:#000000;stroke:none"
         inkscape:connector-curvature="0" />
      <path
         d="M 630,-360 360,0 l 285,-360 -15,0 z"
         id="path2940"
         style="fill:#000000;stroke:none"
         inkscape:connector-curvature="0" />
      <path
         d="M 660,-360 360,0 l 315,-360 -15,0 z"
         id="path2942"
         style="fill:#000000;stroke:none"
         inkscape:connector-curvature="0" />
      <path
         d="M 690,-360 360,0 l 345,-360 -15,0 z"
         id="path2944"
         style="fill:#000000;stroke:none"
         inkscape:connector-curvature="0" />
      <path
         d="M 720,360 360,0 l 345,360 15,0 z"
         id="path2974"
         style="fill:#000000;stroke:none"
         inkscape:connector-curvature="0" />
      <path
         d="M 690,360 360,0 l 315,360 15,0 z"
         id="path2976"
         style="fill:#000000;stroke:none"
         inkscape:connector-curvature="0" />
      <path
         d="M 660,360 360,0 l 285,360 15,0 z"
         id="path2978"
         style="fill:#000000;stroke:none"
         inkscape:connector-curvature="0" />
      <path
         d="M 630,360 360,0 l 255,360 15,0 z"
         id="path2980"
         style="fill:#000000;stroke:none"
         inkscape:connector-curvature="0" />
      <path
         d="M 600,360 360,0 l 225,360 15,0 z"
         id="path2982"
         style="fill:#000000;stroke:none"
         inkscape:connector-curvature="0" />
      <path
         d="M 570,360 360,0 l 195,360 15,0 z"
         id="path2984"
         style="fill:#000000;stroke:none"
         inkscape:connector-curvature="0" />
      <path
         d="M 540,360 360,0 l 165,360 15,0 z"
         id="path2986"
         style="fill:#000000;stroke:none"
         inkscape:connector-curvature="0" />
      <path
         d="M 510,360 360,0 l 135,360 15,0 z"
         id="path2988"
         style="fill:#000000;stroke:none"
         inkscape:connector-curvature="0" />
      <path
         d="M 480,360 360,0 l 105,360 15,0 z"
         id="path2990"
         style="fill:#000000;stroke:none"
         inkscape:connector-curvature="0" />
      <path
         d="M 450,360 360,0 l 75,360 15,0 z"
         id="path2992"
         style="fill:#000000;stroke:none"
         inkscape:connector-curvature="0" />
      <path
         d="M 420,360 360,0 l 45,360 15,0 z"
         id="path2994"
         style="fill:#000000;stroke:none"
         inkscape:connector-curvature="0" />
      <path
         d="M 390,360 360,0 l 15,360 15,0 z"
         id="path2996"
         style="fill:#000000;stroke:none"
         inkscape:connector-curvature="0" />
      <path
         d="m 360,360 0,-360 -15,360 15,0 z"
         id="path2998"
         style="fill:#000000;stroke:none"
         inkscape:connector-curvature="0" />
      <path
         d="m 330,360 30,-360 -45,360 15,0 z"
         id="path3000"
         style="fill:#000000;stroke:none"
         inkscape:connector-curvature="0" />
      <path
         d="m 300,360 60,-360 -75,360 15,0 z"
         id="path3002"
         style="fill:#000000;stroke:none"
         inkscape:connector-curvature="0" />
      <path
         d="M 270,360 360,0 255,360 l 15,0 z"
         id="path3004"
         style="fill:#000000;stroke:none"
         inkscape:connector-curvature="0" />
      <path
         d="M 240,360 360,0 225,360 l 15,0 z"
         id="path3006"
         style="fill:#000000;stroke:none"
         inkscape:connector-curvature="0" />
      <path
         d="M 210,360 360,0 195,360 l 15,0 z"
         id="path3008"
         style="fill:#000000;stroke:none"
         inkscape:connector-curvature="0" />
      <path
         d="M 180,360 360,0 165,360 l 15,0 z"
         id="path3010"
         style="fill:#000000;stroke:none"
         inkscape:connector-curvature="0" />
      <path
         d="M 150,360 360,0 135,360 l 15,0 z"
         id="path3012"
         style="fill:#000000;stroke:none"
         inkscape:connector-curvature="0" />
      <path
         d="M 120,360 360,0 105,360 l 15,0 z"
         id="path3014"
         style="fill:#000000;stroke:none"
         inkscape:connector-curvature="0" />
      <path
         d="M 90,360 360,0 75,360 l 15,0 z"
         id="path3016"
         style="fill:#000000;stroke:none"
         inkscape:connector-curvature="0" />
      <path
         d="M 60,360 360,0 45,360 l 15,0 z"
         id="path3018"
         style="fill:#000000;stroke:none"
         inkscape:connector-curvature="0" />
      <path
         d="M 30,360 360,0 15,360 l 15,0 z"
         id="path3020"
         style="fill:#000000;stroke:none"
         inkscape:connector-curvature="0" />
      <path
         d="M 0,360 360,0 0,345 0,360 z"
         id="path3111"
         style="fill:#000000;stroke:none"
         inkscape:connector-curvature="0" />
      <path
         d="M 0,330 360,0 0,315 0,330 z"
         id="path3113"
         style="fill:#000000;stroke:none"
         inkscape:connector-curvature="0" />
      <path
         d="M 0,300 360,0 0,285 0,300 z"
         id="path3115"
         style="fill:#000000;stroke:none"
         inkscape:connector-curvature="0" />
      <path
         d="M 0,270 360,0 0,255 0,270 z"
         id="path3117"
         style="fill:#000000;stroke:none"
         inkscape:connector-curvature="0" />
      <path
         d="M 0,240 360,0 0,225 0,240 z"
         id="path3119"
         style="fill:#000000;stroke:none"
         inkscape:connector-curvature="0" />
      <path
         d="M 0,210 360,0 0,195 0,210 z"
         id="path3121"
         style="fill:#000000;stroke:none"
         inkscape:connector-curvature="0" />
      <path
         d="M 0,180 360,0 0,165 0,180 z"
         id="path3123"
         style="fill:#000000;stroke:none"
         inkscape:connector-curvature="0" />
      <path
         d="M 0,150 360,0 0,135 0,150 z"
         id="path3125"
         style="fill:#000000;stroke:none"
         inkscape:connector-curvature="0" />
      <path
         d="M 0,120 360,0 0,105 0,120 z"
         id="path3127"
         style="fill:#000000;stroke:none"
         inkscape:connector-curvature="0" />
      <path
         d="M 0,90 360,0 0,75 0,90 z"
         id="path3129"
         style="fill:#000000;stroke:none"
         inkscape:connector-curvature="0" />
      <path
         d="M 0,60 360,0 0,45 0,60 z"
         id="path3131"
         style="fill:#000000;stroke:none"
         inkscape:connector-curvature="0" />
      <path
         d="M 0,30 360,0 0,15 0,30 z"
         id="path3133"
         style="fill:#000000;stroke:none"
         inkscape:connector-curvature="0" />
      <path
         d="M 0,0 360,0 0,-15 0,0 z"
         id="path3135"
         style="fill:#000000;stroke:none"
         inkscape:connector-curvature="0" />
      <path
         d="M 0,-30 360,0 0,-45 0,-30 z"
         id="path3137"
         style="fill:#000000;stroke:none"
         inkscape:connector-curvature="0" />
      <path
         d="M 0,-60 360,0 0,-75 0,-60 z"
         id="path3139"
         style="fill:#000000;stroke:none"
         inkscape:connector-curvature="0" />
      <path
         d="M 0,-90 360,0 0,-105 0,-90 z"
         id="path3141"
         style="fill:#000000;stroke:none"
         inkscape:connector-curvature="0" />
      <path
         d="M 0,-120 360,0 0,-135 l 0,15 z"
         id="path3143"
         style="fill:#000000;stroke:none"
         inkscape:connector-curvature="0" />
      <path
         d="M 0,-150 360,0 0,-165 l 0,15 z"
         id="path3145"
         style="fill:#000000;stroke:none"
         inkscape:connector-curvature="0" />
      <path
         d="M 0,-180 360,0 0,-195 l 0,15 z"
         id="path3147"
         style="fill:#000000;stroke:none"
         inkscape:connector-curvature="0" />
      <path
         d="M 0,-210 360,0 0,-225 l 0,15 z"
         id="path3149"
         style="fill:#000000;stroke:none"
         inkscape:connector-curvature="0" />
      <path
         d="M 0,-240 360,0 0,-255 l 0,15 z"
         id="path3151"
         style="fill:#000000;stroke:none"
         inkscape:connector-curvature="0" />
      <path
         d="M 0,-270 360,0 0,-285 l 0,15 z"
         id="path3153"
         style="fill:#000000;stroke:none"
         inkscape:connector-curvature="0" />
      <path
         d="M 0,-300 360,0 0,-315 l 0,15 z"
         id="path3155"
         style="fill:#000000;stroke:none"
         inkscape:connector-curvature="0" />
      <path
         d="M 0,-330 360,0 0,-345 l 0,15 z"
         id="path3157"
         style="fill:#000000;stroke:none"
         inkscape:connector-curvature="0" />
      <path
         d="M 720,-360 360,0 l 360,-345 0,-15 z"
         id="path3161"
         style="fill:#000000;stroke:none"
         inkscape:connector-curvature="0" />
      <path
         d="M 720,-330 360,0 l 360,-315 0,-15 z"
         id="path3163"
         style="fill:#000000;stroke:none"
         inkscape:connector-curvature="0" />
      <path
         d="M 720,-300 360,0 l 360,-285 0,-15 z"
         id="path3165"
         style="fill:#000000;stroke:none"
         inkscape:connector-curvature="0" />
      <path
         d="M 720,-270 360,0 l 360,-255 0,-15 z"
         id="path3167"
         style="fill:#000000;stroke:none"
         inkscape:connector-curvature="0" />
      <path
         d="M 720,-240 360,0 l 360,-225 0,-15 z"
         id="path3169"
         style="fill:#000000;stroke:none"
         inkscape:connector-curvature="0" />
      <path
         d="M 720,-210 360,0 l 360,-195 0,-15 z"
         id="path3172"
         style="fill:#000000;stroke:none"
         inkscape:connector-curvature="0" />
      <path
         d="M 720,-180 360,0 l 360,-165 0,-15 z"
         id="path3174"
         style="fill:#000000;stroke:none"
         inkscape:connector-curvature="0" />
      <path
         d="M 720,-150 360,0 l 360,-135 0,-15 z"
         id="path3176"
         style="fill:#000000;stroke:none"
         inkscape:connector-curvature="0" />
      <path
         d="M 720,-120 360,0 l 360,-105 0,-15 z"
         id="path3178"
         style="fill:#000000;stroke:none"
         inkscape:connector-curvature="0" />
      <path
         d="M 720,-90 360,0 720,-75 720,-90 z"
         id="path3180"
         style="fill:#000000;stroke:none"
         inkscape:connector-curvature="0" />
      <path
         d="M 720,-60 360,0 720,-45 720,-60 z"
         id="path3182"
         style="fill:#000000;stroke:none"
         inkscape:connector-curvature="0" />
      <path
         d="M 720,-30 360,0 720,-15 720,-30 z"
         id="path3184"
         style="fill:#000000;stroke:none"
         inkscape:connector-curvature="0" />
      <path
         d="M 720,0 360,0 720,15 720,0 z"
         id="path3186"
         style="fill:#000000;stroke:none"
         inkscape:connector-curvature="0" />
      <path
         d="M 720,30 360,0 720,45 720,30 z"
         id="path3188"
         style="fill:#000000;stroke:none"
         inkscape:connector-curvature="0" />
      <path
         d="M 720,60 360,0 720,75 720,60 z"
         id="path3190"
         style="fill:#000000;stroke:none"
         inkscape:connector-curvature="0" />
      <path
         d="M 720,90 360,0 720,105 720,90 z"
         id="path3192"
         style="fill:#000000;stroke:none"
         inkscape:connector-curvature="0" />
      <path
         d="M 720,120 360,0 l 360,135 0,-15 z"
         id="path3194"
         style="fill:#000000;stroke:none"
         inkscape:connector-curvature="0" />
      <path
         d="M 720,150 360,0 l 360,165 0,-15 z"
         id="path3196"
         style="fill:#000000;stroke:none"
         inkscape:connector-curvature="0" />
      <path
         d="M 720,180 360,0 l 360,195 0,-15 z"
         id="path3198"
         style="fill:#000000;stroke:none"
         inkscape:connector-curvature="0" />
      <path
         d="M 720,210 360,0 l 360,225 0,-15 z"
         id="path3200"
         style="fill:#000000;stroke:none"
         inkscape:connector-curvature="0" />
      <path
         d="M 720,240 360,0 l 360,255 0,-15 z"
         id="path3202"
         style="fill:#000000;stroke:none"
         inkscape:connector-curvature="0" />
      <path
         d="M 720,270 360,0 l 360,285 0,-15 z"
         id="path3204"
         style="fill:#000000;stroke:none"
         inkscape:connector-curvature="0" />
      <path
         d="M 720,300 360,0 l 360,315 0,-15 z"
         id="path3206"
         style="fill:#000000;stroke:none"
         inkscape:connector-curvature="0" />
      <path
         d="M 720,330 360,0 l 360,345 0,-15 z"
         id="path3208"
         style="fill:#000000;stroke:none"
         inkscape:connector-curvature="0" />
    </g>
  </g>
</svg>
